<?xml version="1.0" encoding="utf-8"?>
<!DOCTYPE svg PUBLIC "-//W3C//DTD SVG 1.1//EN" "http://www.w3.org/Graphics/SVG/1.1/DTD/svg11.dtd">
<svg version="1.1" id="product_icon_02" xmlns="http://www.w3.org/2000/svg" xmlns:xlink="http://www.w3.org/1999/xlink" x="0px" y="0px"
	 width="16px" height="16px" viewBox="0 0 16 16" enable-background="new 0 0 16 16" xml:space="preserve">
<g>
	<path fill="#706F6F" d="M1.786,5.186C1.721,5.109,1.687,5.02,1.687,4.916V3.372c0-0.316,0.099-0.587,0.293-0.813
		c0.193-0.225,0.43-0.34,0.707-0.34H4.01c0.095,0,0.174,0.041,0.239,0.115c0.067,0.076,0.099,0.165,0.099,0.27
		c0,0.106-0.031,0.196-0.098,0.271C4.185,2.951,4.105,2.99,4.011,2.99H2.688c-0.096,0-0.175,0.037-0.24,0.111
		C2.382,3.174,2.35,3.268,2.35,3.372v1.544c0,0.104-0.032,0.193-0.098,0.27C2.186,5.261,2.108,5.3,2.02,5.3
		C1.929,5.3,1.85,5.261,1.786,5.186z M2.688,13.781c-0.277,0-0.514-0.109-0.707-0.336c-0.194-0.225-0.293-0.5-0.293-0.821v-1.543
		c0-0.104,0.033-0.196,0.099-0.272c0.063-0.074,0.143-0.111,0.233-0.111c0.089,0,0.166,0.037,0.232,0.111
		c0.065,0.076,0.098,0.168,0.098,0.272v1.543c0,0.104,0.032,0.194,0.098,0.272c0.065,0.069,0.145,0.11,0.24,0.11h1.323
		c0.095,0,0.174,0.037,0.239,0.114c0.066,0.072,0.098,0.162,0.098,0.271c0,0.108-0.031,0.203-0.098,0.277
		c-0.065,0.074-0.145,0.109-0.239,0.109H2.688V13.781z M13.744,5.186c-0.064-0.077-0.1-0.166-0.1-0.27V3.372
		c0-0.104-0.033-0.198-0.098-0.271c-0.064-0.075-0.145-0.111-0.234-0.111h-1.33c-0.088,0-0.166-0.039-0.229-0.115
		C11.686,2.8,11.654,2.71,11.654,2.604c0-0.105,0.031-0.194,0.099-0.271c0.063-0.074,0.144-0.115,0.229-0.115h1.33
		c0.275,0,0.515,0.115,0.709,0.34c0.193,0.226,0.291,0.498,0.291,0.813v1.544c0,0.104-0.035,0.193-0.098,0.27
		C14.152,5.261,14.07,5.3,13.975,5.3C13.889,5.3,13.807,5.261,13.744,5.186z M11.982,13.781c-0.088,0-0.166-0.035-0.229-0.109
		c-0.067-0.074-0.099-0.169-0.099-0.277c0-0.109,0.031-0.199,0.099-0.271c0.063-0.077,0.144-0.114,0.229-0.114h1.33
		c0.092,0,0.17-0.041,0.234-0.11c0.062-0.078,0.098-0.168,0.098-0.272v-1.543c0-0.104,0.035-0.196,0.1-0.272
		c0.062-0.074,0.145-0.111,0.229-0.111c0.098,0,0.18,0.037,0.242,0.111c0.062,0.076,0.098,0.168,0.098,0.272v1.543
		c0,0.321-0.098,0.597-0.291,0.821c-0.194,0.227-0.434,0.336-0.709,0.336h-1.33V13.781z"/>
</g>
</svg>
