<?xml version="1.0" encoding="utf-8"?>
<!DOCTYPE svg PUBLIC "-//W3C//DTD SVG 1.1//EN" "http://www.w3.org/Graphics/SVG/1.1/DTD/svg11.dtd">
<svg version="1.1" id="product_icon_03" xmlns="http://www.w3.org/2000/svg" xmlns:xlink="http://www.w3.org/1999/xlink" x="0px" y="0px"
	 width="16px" height="16px" viewBox="0 0 16 16" enable-background="new 0 0 16 16" xml:space="preserve">
<g>
	<path fill="#706F6F" d="M0.657,15c-0.069,0-0.136-0.02-0.199-0.057c-0.065-0.039-0.116-0.086-0.152-0.146
		C0.27,14.734,0.25,14.666,0.25,14.593c0-0.069,0.02-0.141,0.056-0.204L7.644,1.21c0.036-0.066,0.087-0.117,0.15-0.154
		C7.858,1.02,7.927,1,8.001,1c0.075,0,0.145,0.02,0.208,0.056C8.273,1.093,8.321,1.144,8.353,1.21l7.344,13.179
		c0.037,0.063,0.056,0.135,0.053,0.204c-0.002,0.073-0.02,0.144-0.053,0.206c-0.036,0.061-0.086,0.105-0.15,0.146
		C15.484,14.98,15.416,15,15.34,15H0.657z M14.646,14.18L8.001,2.253L1.358,14.18H14.646z M7.72,11.018
		c-0.104-0.072-0.156-0.16-0.156-0.261v-3.67c0-0.099,0.052-0.184,0.156-0.256c0.104-0.072,0.229-0.108,0.375-0.108
		c0.144,0,0.271,0.036,0.374,0.108c0.105,0.072,0.156,0.157,0.156,0.256v3.67c0,0.101-0.051,0.188-0.156,0.261
		c-0.104,0.069-0.229,0.105-0.374,0.105C7.949,11.123,7.825,11.087,7.72,11.018z M7.72,13.217c-0.104-0.072-0.156-0.158-0.156-0.258
		v-0.732c0-0.103,0.052-0.192,0.156-0.264c0.104-0.07,0.229-0.107,0.375-0.107c0.144,0,0.271,0.037,0.374,0.107
		c0.105,0.07,0.156,0.161,0.156,0.264v0.732c0,0.1-0.051,0.186-0.156,0.258c-0.104,0.071-0.229,0.106-0.374,0.106
		C7.949,13.323,7.825,13.288,7.72,13.217z"/>
</g>
</svg>
