<?xml version="1.0" encoding="utf-8"?>
<!DOCTYPE svg PUBLIC "-//W3C//DTD SVG 1.1//EN" "http://www.w3.org/Graphics/SVG/1.1/DTD/svg11.dtd">
<svg version="1.1" id="america" xmlns="http://www.w3.org/2000/svg" xmlns:xlink="http://www.w3.org/1999/xlink" x="0px" y="0px"
	 width="118.793px" height="140px" viewBox="0 0 118.793 140" enable-background="new 0 0 118.793 140" xml:space="preserve">
<g id="i6ICLW.tif">
	<g>
		<path fill="#FFFFFF" d="M49.983,24.223c0.541-0.371,1.082-0.743,1.582-1.085c0.199-2.017-1.996-1.674-2.794-2.785
			c-0.238-0.331-1.189-0.149-1.813-0.203c0.094,0.104,0.188,0.209,0.281,0.313c-0.787,1.351-1.574,2.701-2.318,3.977
			c0.344,0.766,0.692,1.542,1.063,2.369c0.815-0.294,1.813-0.239,2.288-1.443c0.21-0.534,1.134-0.788,1.733-1.168
			c-0.44,0.644-0.88,1.288-1.46,2.136c0.657,0.357,1.274,0.692,1.843,1.001c-0.44,0.113-0.974,0.25-1.595,0.411
			c0.285,1.371,1.391,1.08,2.239,1.275c0.598,0.138,1.174,0.368,1.759,0.557c-0.04,0.135-0.08,0.271-0.12,0.406
			c-0.799-0.108-1.598-0.287-2.398-0.294c-0.419-0.004-0.841,0.293-1.262,0.455c0.351,0.504,0.694,1.014,1.062,1.506
			c0.05,0.067,0.216,0.057,0.33,0.065c0.573,0.04,0.916,0.212,0.842,0.919c-0.028,0.269,0.309,0.815,0.512,0.832
			c1.673,0.139,3.337,0.125,4.557-1.33c1.192,1.406,2.429,1.626,3.368,0.642c-0.184-0.403-0.361-0.79-0.6-1.315
			c0.503,0,0.848,0,1.192,0c0.064-0.108,0.129-0.216,0.193-0.324c-0.529-0.421-1.086-0.812-1.579-1.271
			c-0.37-0.346-0.804-0.734-0.944-1.186c-0.217-0.706-0.268-1.479-0.279-2.227c-0.011-0.651,0.146-1.303,0.197-1.958
			c0.027-0.347,0.118-0.841-0.062-1.01c-0.207-0.193-0.682-0.1-1.258-0.15c0.279,0.539,0.42,0.81,0.603,1.162
			c-0.474-0.136-0.814-0.234-1.324-0.381c0.081,1.17,0.152,2.198,0.223,3.225c-0.078,0.006-0.156,0.012-0.234,0.018
			c-0.327-0.925-0.654-1.851-0.982-2.776c-0.129,0.039-0.258,0.078-0.387,0.117c0.054,0.296,0.108,0.592,0.157,0.861
			c-0.325,0.052-0.573,0.091-0.556,0.088c-0.398-0.518-0.71-0.924-1.108-1.442c-0.266,0.465-0.412,0.72-0.558,0.976
			c-0.061-0.061-0.123-0.121-0.184-0.181c0.038-0.485,0.075-0.97,0.122-1.584C51.405,23.735,50.692,23.98,49.983,24.223z"/>
		<path fill="#FFFFFF" d="M72.137,22.518c-1.043-0.887-1.639-0.792-2.336,0.391c-0.089,0.151-0.095,0.348-0.161,0.516
			c-0.281,0.715-0.187,1.305,0.544,1.692c-0.839,0.81,0.161,1.142,0.428,1.726c-0.422-0.177-0.838-0.384-1.038-0.72
			c-0.744-1.25-0.898-2.579-0.078-3.952c-2.202,0.062-2.916,2.179-2.033,5.431c0.538,0.091,1.083,0.183,1.628,0.274
			c-0.012,0.094-0.024,0.188-0.037,0.283c-0.369,0-0.739,0-1.328,0c0.566,0.816,0.806,1.717,1.955,1.13
			c0.09-0.046,0.263,0.04,0.385,0.092c1.227,0.53,2.39,0.072,3.558-0.236c0.346-0.091,0.674-0.25,1.01-0.379
			c0.024,0.084,0.049,0.168,0.074,0.253c-0.116,0.173-0.231,0.347-0.458,0.686c1.141-0.629,1.243-1.174,0.629-2.097
			c1.013,0.565,2.025,1.13,2.999,1.674c-0.116,0.354-0.227,0.692-0.338,1.031c0.361-0.056,0.464-0.214,0.591-0.352
			c0.121-0.131,0.265-0.239,0.255-0.231c2.638,0.793,4.216,2.095,2.552,4.874c0.414,0.297,0.712,0.512,1.335,0.959
			c-1.092,0.507-1.954,0.907-3.021,1.403c0.09-0.219,0.039-0.151,0.038-0.083c-0.005,0.624-0.682,1.38,0.178,1.831
			c0.733,0.384,1.16-0.228,1.727-0.664c0.707-0.544,1.639-1.196,2.609-0.147c0.253,0.274,0.829,0.249,1.257,0.362
			c-0.05,0.057-0.099,0.115-0.149,0.172c0.563,0.439,1.126,0.878,1.558,1.215c0.414-0.192,0.699-0.43,0.994-0.442
			c1.13-0.045,2.263-0.018,3.395-0.018c0.042-0.144,0.085-0.288,0.128-0.431c-1.268-0.521-2.535-1.042-3.803-1.563
			c1.088-0.104,2.121-0.016,3.155-0.004c0.183,0.002,0.544-0.342,0.525-0.49c-0.17-1.386-1.369-1.949-2.343-2.592
			c-0.669-0.441-1.65-0.402-2.335-0.829c-0.294-0.183-0.202-1.002-0.248-1.536c-0.004-0.041,0.322-0.192,0.436-0.146
			c0.55,0.225,1.068,0.531,1.621,0.748c0.584,0.229,1.195,0.39,1.654,0.537c0.067-0.718,0.136-1.195,0.149-1.674
			c0.012-0.469-0.027-0.941-0.056-1.411c-0.016-0.256,0.027-0.59-0.114-0.743c-0.145-0.156-0.572-0.265-0.721-0.165
			c-0.753,0.508-1.287,0.118-1.933-0.248c-0.364-0.206-0.923-0.041-1.387-0.101c-0.755-0.098-1.533-0.16-2.239-0.411
			c-0.258-0.092-0.341-0.678-0.486-1c0.283-0.148,0.552-0.29,0.821-0.431c-0.027-0.084-0.055-0.168-0.082-0.252
			c-0.436,0.048-0.872,0.096-1.518,0.167c0.35-0.398,0.553-0.63,0.798-0.909c-0.295-0.218-0.562-0.415-0.855-0.632
			c-0.142,0.249-0.243,0.424-0.48,0.839c-0.049-1.055-0.277-1.339-1.202-1.147c-0.503,0.105-0.999,0.195-1.291,0.406
			c-0.125-0.446-0.234-0.838-0.344-1.23c-0.328,0.196-0.656,0.391-0.991,0.59c-0.247-0.087-0.609-0.215-0.876-0.309
			c-0.454-0.806-1.06-1.337-2.059-1.331c0.072-1.326-0.382-1.53-2.921-1.309c0.087,0.331,0.17,0.643,0.252,0.956L72.137,22.518z"/>
		<path fill="#FFFFFF" d="M62.611,6.331c-0.294,0.936-0.774,1.752-0.731,2.541c0.039,0.706-0.058,1.571,0.575,2.255
			c0.33-0.089,0.689-0.186,1.35-0.364c-0.399,0.517-0.609,0.79-0.88,1.141c0.258,0.303,0.507,0.645,0.806,0.934
			c0.263,0.253,0.62,0.663,0.867,0.619c0.355-0.062,0.759-0.413,0.948-0.749c0.399-0.711,0.674-1.493,0.915-2.051
			c-0.479-0.757-0.902-1.426-1.326-2.095c-0.04-0.063-0.09-0.177-0.13-0.174c-1.064,0.059-1.308-0.825-1.757-1.489
			C63.097,6.675,62.837,6.526,62.611,6.331z"/>
		<path fill="#FFFFFF" d="M52.693,20.709c0.38,1.103,1.053,0.92,1.673,0.555c0.725-0.426,1.364-0.78,2.307-0.601
			c0.866,0.165,0.938-0.768,1.038-1.361c0.099-0.582-0.046-1.152-0.853-0.587c-0.162-0.236-0.392-0.451-0.468-0.711
			c-0.119-0.408-0.133-0.847-0.202-1.352c-1.302,0.839-0.301,1.829-0.386,2.691c-0.749,0.087-1.132-0.178-1.429-0.929
			c-0.225-0.568-0.891-0.962-1.36-1.434c-0.384,0.421-0.788,0.827-1.146,1.269c-0.254,0.315-0.447,0.68-0.75,1.15
			c0.547,0.229,1.192,0.735,1.497,0.58c0.754-0.387,1.214,0.219,1.814,0.248C53.867,20.383,53.304,20.539,52.693,20.709z"/>
		<path fill="#FFFFFF" d="M73.898,42.905c0.11,0.024,0.22,0.049,0.331,0.073c0.351-0.756,0.701-1.513,1.083-2.34
			c0.37,0.162,0.815,0.394,1.284,0.552c0.585,0.197,1.146,0.243,1.251-0.686c-1.492-0.741-3.004-1.491-4.553-2.259
			c0-0.049,0.012-0.306-0.021-0.558c-0.003-0.022-0.375-0.074-0.45,0.006c-0.183,0.195-0.417,0.461-0.412,0.694
			c0.032,1.296,0.128,2.591,0.203,3.885c0.157-0.06,0.497-0.188,0.847-0.321C73.625,42.312,73.762,42.608,73.898,42.905z"/>
		<path fill="#FFFFFF" d="M60.547,25.327c-0.176,0.072-0.353,0.145-0.529,0.217c-0.133-0.301-0.266-0.602-0.398-0.903
			c-0.136,0.117-0.271,0.234-0.407,0.352c0.083,1.644,2.067,1.968,2.48,3.425c0.547-0.68,1.007-1.266,1.267-1.931
			c0.375-0.96-0.575-1.32-1.077-1.903c0.538-0.695,0.901-1.39-0.221-2.036c-0.599,0.384-1.24,0.795-1.882,1.207
			c0.114,0.059,0.227,0.118,0.34,0.178C60.263,24.397,60.405,24.862,60.547,25.327z"/>
		<path fill="#FFFFFF" d="M60.432,20.56c1.458,0.486,1.425-0.546,1.492-1.255c0.157-1.654-0.199-1.995-1.925-2.108
			c0.203,0.382,0.404,0.761,0.605,1.14c-0.091,0.06-0.183,0.119-0.273,0.179c-0.161-0.309-0.323-0.619-0.484-0.928
			c-0.079,0.071-0.158,0.142-0.237,0.213c0.035,0.317,0.07,0.633,0.105,0.95c-0.315-0.236-0.421-0.541-0.585-0.811
			c-0.157-0.26-0.374-0.483-0.684-0.872c-0.026,1.798,0.701,2.489,2.135,2.31C60.532,19.765,60.482,20.16,60.432,20.56z"/>
		<path fill="#FFFFFF" d="M51.641,17.121c0.098,0.035,0.195,0.069,0.293,0.104c0.36-0.706,0.737-1.404,1.056-2.127
			c0.03-0.068-0.308-0.435-0.459-0.425c-0.915,0.062-1.606,0.551-2.304,1.147c-1.224,1.044-1.272,0.988,0.079,1.883
			c0.406-0.495,0.817-0.996,1.25-1.523C51.585,16.506,51.613,16.813,51.641,17.121z"/>
		<path fill="#FFFFFF" d="M60.743,14.446c0.22-1.039-1.013-3.109-2.048-3.227c-0.167-0.019-0.463,0.063-0.499,0.168
			c-0.058,0.17-0.015,0.45,0.1,0.589c0.319,0.387,1.001,0.713,0.036,1.127c0.074,0.151,0.109,0.387,0.228,0.44
			C59.254,13.858,59.969,14.131,60.743,14.446z"/>
		<path fill="#FFFFFF" d="M25.976,46.302c0.063,1.302,0.122,2.503,0.18,3.705c0.455-0.915,0.861-1.846,1.028-2.818
			C27.303,46.492,26.823,46.111,25.976,46.302z"/>
		<path fill="#FFFFFF" d="M9.942,38.283c0.453,0,0.925,0.065,1.367-0.021c0.329-0.064,0.619-0.324,0.926-0.497
			c-0.279-0.304-0.508-0.789-0.846-0.881C9.965,36.493,9.704,36.776,9.942,38.283z"/>
		<path fill="#FFFFFF" d="M26.226,58.835c0.308-1.343,0.564-2.457,0.838-3.651c-0.204-0.119-0.583-0.341-1.325-0.776
			C25.92,56.055,26.067,57.388,26.226,58.835z"/>
		<path fill="#FFFFFF" d="M78.734,30.871c-0.165,0.014-0.329,0.029-0.493,0.043c-0.145,0.432-0.443,0.884-0.389,1.289
			c0.051,0.375,0.48,0.697,0.743,1.043c0.294-0.346,0.827-0.695,0.822-1.038C79.411,31.759,78.981,31.316,78.734,30.871z"/>
		<path fill="#FFFFFF" d="M62.376,20.29c0.064,0.192,0.128,0.384,0.191,0.576c0.557,0.052,1.112,0.104,1.669,0.155
			c-0.215-0.575-0.429-1.151-0.644-1.726C63.188,19.626,62.782,19.958,62.376,20.29z"/>
		<path fill="#FFFFFF" d="M103.686,57.927c0.007,0.12,0.014,0.239,0.02,0.358c2.626,0.236,2.626,0.236,3.408-0.735
			C105.834,57.691,104.76,57.809,103.686,57.927z"/>
		<path fill="#FFFFFF" d="M56.106,14.125c-0.134-0.18-0.269-0.36-0.402-0.541c-0.455,0.321-0.929,0.622-1.337,0.995
			c-0.044,0.04,0.293,0.499,0.455,0.763C55.249,14.937,55.678,14.531,56.106,14.125z"/>
		<path fill="#FFFFFF" d="M61.553,12.294c-0.13,0.081-0.259,0.162-0.389,0.243c0.224,0.647,0.447,1.294,0.671,1.941
			c0.106,0.033,0.212,0.066,0.319,0.099c0.175-0.331,0.578-0.771,0.481-0.97C62.396,13.111,61.929,12.725,61.553,12.294z"/>
		<path fill="#FFFFFF" d="M76.682,42.322c-0.392,0.575-0.732,1.057-1.033,1.563c-0.02,0.033,0.266,0.247,0.409,0.377
			c0.325-0.493,0.653-0.984,0.968-1.483C77.04,42.757,76.946,42.667,76.682,42.322z"/>
		<path fill="#FFFFFF" d="M109.253,62.508c-0.758,0.377-1.448,0.721-2.138,1.064c0.02,0.054,0.039,0.108,0.058,0.163
			c0.698-0.056,1.396-0.112,2.08-0.167C109.253,63.156,109.253,62.838,109.253,62.508z"/>
		<path fill-rule="evenodd" clip-rule="evenodd" fill="#FFFFFF" d="M31.708,68.228c-1.105-1.811-2.209-3.622-3.314-5.433
			c0.143-0.125,0.285-0.25,0.427-0.376c0.604,0.479,1.208,0.957,1.812,1.435c0.093-0.053,0.185-0.106,0.277-0.159
			c-0.224-0.259-0.401-0.596-0.68-0.762c-0.76-0.453-0.854-1.952-0.077-2.85c-0.198-0.229-0.404-0.468-0.686-0.794
			c0.257-0.087,0.433-0.146,0.608-0.206c-0.015-0.062-0.03-0.125-0.045-0.188c-0.315,0.04-0.631,0.081-1.054,0.134
			c0.273-0.557,0.508-1.036,0.768-1.565c-0.18,0-0.328,0.03-0.457-0.006c-0.294-0.083-0.708-0.122-0.829-0.325
			c-0.101-0.167,0.075-0.607,0.255-0.817c0.71-0.828,0.342-2.584-0.749-3.071c-0.139,0.226-0.284,0.461-0.541,0.879
			c-0.063-0.567-0.103-0.921-0.142-1.274c-0.102-0.086-0.204-0.172-0.307-0.258c-0.088,0.227-0.176,0.452-0.236,0.606
			c0.079-0.696,0.11-1.467,0.288-2.203c0.043-0.182,0.56-0.25,0.854-0.613c-0.388,0-0.776,0-1.214,0
			c0.101-0.484,0.221-0.998,1.075-1.203c0.362-0.087,0.559-0.857,0.831-1.318c-0.108-0.062-0.216-0.123-0.324-0.185
			c-0.302,0.407-0.604,0.814-0.906,1.222c-0.075-0.037-0.149-0.073-0.225-0.11c0.103-0.428,0.183-0.863,0.312-1.284
			c0.279-0.911-0.056-1.469-0.943-1.735c-0.144-0.043-0.384-0.036-0.421-0.121c-0.533-1.215-1.039-2.442-1.701-4.025
			c-2.04-1.312-3.665-3.633-4.942-6.27c-0.578,0.702-0.965,1.173-1.191,1.447c-1.417-0.188-2.561-0.339-3.951-0.524
			c0.771-0.652,1.347-1.064,1.83-1.566c0.623-0.647,1.241-0.713,1.97-0.018c0.048-0.16,0.097-0.32,0.145-0.48
			c-0.376-0.17-0.738-0.412-1.132-0.488c-0.347-0.066-0.743,0.005-1.094,0.1c-1.076,0.292-2.141,0.624-3.285,0.963
			c0.042,0.188,0.112,0.496,0.215,0.954c-4.437,0.36-8.731,0.632-12.627-1.904c1.392-0.459,2.759-0.079,3.031,0.731
			c2.298-0.182,4.789,0.618,6.571-1.361c-0.268-0.218-0.659-0.538-1.195-0.976c0.011-0.008-0.208,0.145-0.447,0.312
			c0.063-1.672-0.13-1.922-1.738-2.229c0.62-0.766,1.224-1.512,1.861-2.3c-1.396-0.43-1.396-0.43-1.469-2.474
			C7.014,25.57,7.11,25.6,7.206,25.628c0.203-0.532,0.351-1.094,0.627-1.584c0.188-0.334,0.509-0.71,0.851-0.82
			c0.931-0.301,1.905-0.472,2.93-0.71c0.127,0.703,0.311,1.325,1.222,1.041c0.111-0.034,0.317,0.151,0.444,0.272
			c0.645,0.612,1.054,0.322,1.45-0.311c0.21-0.336,0.536-0.601,0.898-0.993c-0.025-0.027-0.136-0.245-0.249-0.246
			c-1.239-0.016-1.644-1.16-2.404-1.796c-0.776-0.649-0.562-1.439,0.379-2.001c-0.106-0.428-0.211-0.849-0.351-1.41
			c1.338,0.435,2.499,0.812,3.843,1.25c-0.363,0.336-0.564,0.522-0.913,0.845c0.482,0.465,0.955,0.92,1.429,1.378
			c0.405-0.63,0.677-1.053,0.986-1.535c-0.654-0.502-0.888-1.094-0.356-1.913c0.201-0.309,0.043-0.83,0.127-1.238
			c0.113-0.548,0.302-1.082,0.551-1.941c1.11,1.333,1.954,1.495,3.259,0.933c0.844-0.363,2.09,0.129,3.134,0.341
			c0.614,0.124,1.186,0.45,1.96,0.758c0.347,0.504,1.181,1.203,1.323,2.021c0.351,2.029,2.011,3.105,3.22,4.297
			c0.914,0.901,1.444,2.153,2.569,2.85c0.248,0.154,0.316,0.582,0.492,0.869c0.385,0.631,0.787,1.254,1.043,1.66
			c0.727-0.311,1.197-0.56,1.698-0.692c0.116-0.031,0.336,0.34,0.532,0.551c0.938-0.162,2.001-0.346,3.064-0.529
			c0.028,0.105,0.056,0.211,0.084,0.317c-0.216,0.146-0.433,0.293-0.649,0.439c0.94,0.502,1.612,0.25,2.062-1.151
			c0.213,1.291,0.357,2.17,0.553,3.358c0.518-0.717,0.801-1.109,1.272-1.76c-0.074,0.779-0.12,1.261-0.172,1.815
			c0.181-0.012,0.429,0.044,0.507-0.046c0.857-0.998,1.301-0.292,1.979,0.31c0.915,0.811,1.626,1.977,3.125,2.021
			c0.394,0.012,0.769,0.697,1.241,1.16c-0.577,0.293-0.943,0.479-1.438,0.731c1.047,0.9,2.085,1.062,3.205,0.848
			c1.145-0.219,2.313,0.861,2.176,2.039c0.091,0.016,0.182,0.032,0.272,0.048c0.044-0.312,0.203-0.665,0.109-0.926
			c-0.281-0.782-0.277-1.305,0.706-1.516c0.278-0.06,0.476-0.49,0.829-0.881c-0.786,0.288-1.382,0.506-2.246,0.822
			c0.305-1.294,1.356-1.017,1.892-1.449c0.195,0.267,0.448,0.509,0.572,0.805c0.269,0.644,2.21,1.74,2.983,1.632
			c0.632-0.088,1.264-0.178,1.922-0.271c0.185-0.452,0.397-0.973,0.659-1.613c-0.369-0.181-0.792-0.388-1.208-0.592
			c0.33-0.608,0.649-1.196,0.92-1.697c0.577,0.161,1.139,0.318,1.506,0.421c0.084,0.468,0.173,0.96,0.3,1.666
			c-0.15,0.102-0.529,0.359-0.725,0.493c0.143,0.514,0.253,1.072,0.461,1.591c0.12,0.297,0.398,0.53,0.738,0.71
			c-0.289-0.814-0.354-1.395,0.48-1.922c0.361-0.229,0.467-0.859,0.472-1.453c-0.164,0.097-0.327,0.195-0.632,0.376
			c0.379-1.062,0.061-1.623-0.89-2.005c-0.772-0.311-1.118-2.289-0.637-3.116c0.539-0.929,0.615-1.822,0.172-2.838
			c-0.249-0.569-0.317-1.271-0.272-1.899c0.074-1.033,0.615-1.326,1.675-1.108c0.241,0.049,0.512-0.046,0.752,0.005
			c0.201,0.043,0.474,0.161,0.545,0.321c0.282,0.631-0.838,2.368-1.487,2.422c-0.101,0.64-0.202,1.274-0.271,1.711
			c0.716,1.182,1.382,2.28,2.052,3.386c-0.153,0.31-0.315,0.639-0.539,1.092c0.645,0.079,1.2,0.147,1.501,0.184
			c0.179,0.792,0.327,1.452,0.476,2.111c0.095,0.007,0.189,0.015,0.284,0.022c0.076-0.589,0.151-1.179,0.244-1.901
			c0.908,0.545,1.52,0.974,1.235,2.172c-0.113,0.476,0.542,1.134,0.847,1.709c0.16-0.047,0.32-0.094,0.48-0.141
			c-0.099-0.636-0.197-1.271-0.3-1.931c0.148,0.085,0.288,0.166,0.667,0.385c-0.08-1.305-0.151-2.455-0.228-3.72
			c0.668-0.398,2.355-0.174,2.792,0.63c0.26,0.48,0.72,1.188-0.346,1.462c0.594,1.078,2.188,1.743,1.047,3.334
			c-0.798,1.113-1.777,1.464-2.804,1.072c0,0.605,0.052,1.108-0.011,1.595c-0.111,0.845-0.303,1.68-0.443,2.521
			c-0.154,0.923-0.688,1.299-1.217,1.222c-0.627,0.485-1.039,0.803-1.453,1.123c0.103,0.116,0.373,0.423,0.644,0.73
			c-0.337,0.239-0.796,0.407-0.989,0.732c-0.537,0.906-1.16,1.833-1.387,2.834c-0.313,1.384-0.335,2.841-0.384,4.271
			c-0.01,0.293,0.493,0.891,0.622,0.855c1.006-0.28,1.171,0.439,1.433,1.072c0.272,0.659,0.542,1.32,0.823,2.005
			c1.924-1.02,3.454-0.184,5.175,0.809c1.313,0.758,2.956,1.276,4.623,0.777c0.975-0.292,1.354-0.098,1.684,1.067
			c0.474,1.671,0.853,3.645,2.977,4.286c0.229,0.069,0.387,0.356,0.596,0.518c0.391,0.302,0.75,0.517,1.031-0.167
			c0.085-0.206,0.437-0.301,0.75-0.5c0.028-2.137-1.533-3.722-2.645-5.494c2.144-1.719,2.707-3.43,1.562-5.342
			c-0.433-0.722-1.269-1.259-2.022-1.715c-0.593-0.359-1.02-0.6-0.72-1.388c0.417-1.092,0.128-2.055-0.644-2.914
			c-0.166-0.185-0.195-0.489-0.3-0.732c-0.17-0.394-0.359-0.78-0.522-1.177c-0.151-0.368-0.494-0.879-0.365-1.088
			c0.186-0.302,0.708-0.438,1.112-0.554c0.821-0.235,1.659-0.409,2.491-0.608c0.013-0.163,0.025-0.326,0.038-0.489
			c0.822,0.492,1.596,1.125,2.482,1.427c0.623,0.212,1.399-0.026,2.036-0.06c0.284,0.598,0.618,1.279,0.93,1.97
			c0.27,0.597,0.516,1.206,0.738,1.727c0.504-1.163,1.444-0.27,2.254-0.056c1.571-1.493,0.64-3.237,0.514-5.058
			c1.836,1.29,3.508,2.539,5.264,3.656c0.635,0.404,1.397,0.544,1.135,1.546c-0.011,0.04,0.096,0.16,0.146,0.159
			c1.186-0.017,2.164,1.043,3.457,0.604c0.718-0.244,1.507-0.276,2.391-0.424c-0.16,0.363-0.272,0.618-0.396,0.899
			c0.619-0.099,1.35-0.48,1.384,0.674c0.842-1.042,1.449-0.957,2.175-0.003c0.619,0.814,1.533,1.609,0.653,2.585
			c-1.121,1.243-1.437,2.711-1.878,4.217c-0.167,0.57-1.001,1.017-1.617,1.369c-1.316,0.751-2.708,1.368-4.029,2.111
			c-0.823,0.462-1.512,1.083-1.228,2.209c0.035,0.136,0.041,0.374-0.038,0.431c-1.538,1.121-1.314,2.899-1.687,4.453
			c-0.139,0.58-0.287,1.159-0.43,1.738c0.092,0.03,0.183,0.06,0.274,0.089c0.194-0.643,0.474-1.274,0.565-1.931
			c0.273-1.983,1.445-3.418,2.778-4.764c0.236-0.239,0.542-0.441,0.854-0.565c0.659-0.264,1.523-0.503,1.712,0.4
			c0.128,0.609,0.006,1.563-1.046,1.703c-0.164,0.022-0.315,0.134-0.473,0.205c0.031,0.113,0.062,0.226,0.092,0.339
			c0.557-0.144,1.113-0.287,1.71-0.441c0.252,1.108,0.786,1.847,2.215,2.156c1.44,0.312,2.256-0.629,3.287-0.871
			c-0.071-0.96-0.141-1.899-0.22-2.964c0.805,0.247,0.831,1.34,1.706,1.015c0.027,0.275,0.161,0.597,0.063,0.816
			c-0.361,0.811-0.716,1.646-1.229,2.361c-0.578,0.807-1.34,1.479-1.981,2.244c-0.13,0.156-0.051,0.472-0.113,0.702
			c-0.186,0.691-0.393,1.375-0.59,2.054c-2.189-0.471-2.137-1.134,0.375-4.396c-0.57,0.317-0.93,0.517-1.36,0.757
			c0.031-0.333,0.054-0.574,0.096-1.017c-0.167,0.249-0.219,0.328-0.272,0.405c-0.408,0.591-0.836,1.169-1.219,1.776
			c-0.352,0.559-0.606,1.184-0.993,1.716c-0.642,0.884-1.32,1.747-2.045,2.562c-1.159,1.304-0.967,3.171,0.471,4.156
			c0.136,0.093,0.238,0.237,0.356,0.357c-0.145,0.05-0.315,0.067-0.429,0.156c-1.126,0.881-2.243,1.774-3.219,2.87
			c0.558-0.319,1.115-0.638,1.673-0.957c0.051,0.081,0.102,0.162,0.153,0.243c-0.757,0.554-1.514,1.108-2.33,1.704
			c0.94,0.87,0.366,1.967,0.177,3.06c-0.335-0.062-0.652-0.121-0.969-0.18c1.511,1.231,0.739,2.688,0.614,3.939
			c-0.64-1.183-1.309-2.418-1.977-3.653c-0.05-0.019-0.099-0.038-0.149-0.057c0.101,0.562,0.13,1.15,0.32,1.68
			c0.28,0.783,0.65,1.539,1.037,2.278c0.127,0.244,0.476,0.365,0.629,0.603c0.478,0.746,0.931,1.51,1.339,2.296
			c0.054,0.105-0.167,0.481-0.337,0.553c-1.204,0.51-0.179,0.749,0.21,1.179c-1.14,0.45-1.937,1.193-2.073,2.449
			c-1.857,0.922-1.956,3.048-2.979,4.541c-1.579,2.305-1.001,3.57,1.016,6.128c1.028,1.304,2.137,2.59,2.887,4.051
			c0.47,0.916,0.424,2.139,0.425,3.225c0,0.292-0.67,0.586-0.914,0.783c-1.151-1.02-2.144-1.974-3.217-2.827
			c-0.879-0.699-1.654-1.46-1.691-2.62c-0.027-0.859-0.392-1.241-1.052-1.791c-1.474-1.226-2.683-1.407-3.934,0.343
			c-1.464-2.284-3.419-0.549-5.415-0.694c-0.617,0.266-1.608,0.693-2.599,1.12c0.031,0.117,0.063,0.235,0.094,0.353
			c0.182,0.023,0.363,0.046,0.56,0.072c-0.067,0.25-0.132,0.494-0.195,0.73c0.386,0.23,0.721,0.431,1.056,0.631
			c-0.049,0.092-0.098,0.185-0.147,0.277c-0.453-0.2-0.906-0.4-1.357-0.601c-0.396,0.638-1.513,0.878-2.143,0.562
			c-0.645-0.324-1.114-0.606-2.112-0.325c-1.257,0.354-2.784-0.05-4.088,0.721c-0.058,0.034-0.292-0.228-0.513-0.41
			c0.096,1.332-0.979,2.174-2.099,2.537c-0.756,0.245-1.478,1.198-1.81,2.001c-0.445,1.079-0.325,2.251,0.352,3.365
			c0.441,0.727,0.242,1.479-0.717,1.555c0,1.88-0.062,3.692,0.019,5.498c0.075,1.675,0.904,3.108,1.812,4.463
			c0.736,1.099,1.562,2.139,2.373,3.185c0.174,0.225,0.46,0.516,0.694,0.515c0.961-0.003,1.811,0.168,2.464,0.95
			c0.08,0.096,0.361,0.1,0.514,0.046c1.064-0.373,2.121-0.767,3.175-1.165c0.391-0.147,0.757-0.389,1.159-0.478
			c2.058-0.453,3.144-1.945,2.902-4.047c-0.172-1.501,0.142-1.982,1.618-2.424c1.33-0.398,2.658-0.804,4-1.157
			c0.353-0.093,1.055-0.085,1.082,0.016c0.128,0.475,0.16,1.014,0.071,1.501c-0.105,0.572-0.498,1.106-0.538,1.672
			c-0.079,1.131,0.002,2.274,0.006,3.412c0,0.138-0.063,0.276-0.16,0.668c-0.274-0.503-0.436-0.8-0.736-1.351
			c-0.716,3.068-3.277,2.836-5.297,3.248c-0.169,0.602-0.298,1.063-0.463,1.649c0.419,0.309,0.991,0.721,1.552,1.144
			c0.59,0.444,0.569,0.781-0.192,0.957c-0.298,0.068-0.598,0.135-0.901,0.176c-1.3,0.173-1.911,0.934-1.804,2.216
			c0.041,0.489,0.015,0.983,0.02,1.475c-0.077,0-0.153,0-0.23,0c-1.229-0.902-2.402-1.897-3.705-2.676
			c-1.027-0.614-2.108-0.826-3.286,0.085c-1.084,0.837-2.292,1.379-3.891,0.719c-2.455-1.012-5.163-1.444-7.556-2.565
			c-1.885-0.883-4.055-1.42-5.618-2.611c-1.643-1.252-4.079-1.961-4.612-4.446c-0.008-0.036-0.009-0.074-0.021-0.191
			c0.233-0.113,0.491-0.239,0.821-0.399c-0.107-0.15-0.312-0.387-0.289-0.413c1.18-1.29-0.641-2.228-0.406-3.416
			c0.047-0.236-0.196-0.579-0.385-0.806c-1.12-1.341-2.446-2.551-3.34-4.025c-0.703-1.16-1.545-1.965-2.66-2.625
			c-0.135-0.08,0.027-0.644,0.033-0.984c0.004-0.325,0.118-0.8-0.049-0.949c-0.86-0.768-1.687-1.413-2.068-2.68
			c-0.292-0.968-1.36-1.712-2.124-2.517c-0.1-0.105-0.441,0.019-0.582,0.029c-0.329-2.517,0.174-5.391-3.168-6.415
			c-0.619,1.11-0.316,3.249,0.349,4.314c0.762,1.221,1.267,2.602,1.902,3.904c0.179,0.368,0.385,0.736,0.644,1.051
			c1.091,1.327,1.277,3.015,1.851,4.547c0.214,0.57,0.654,1.095,0.258,1.79c-0.069,0.121,0.286,0.692,0.407,0.68
			c1.333-0.134,1.243,1.118,1.678,1.782c0.113,0.173-0.469,0.801-0.62,1.042c-1.436-1.663-2.726-3.158-3.99-4.622
			c0.038-0.709,0.381-1.667,0.047-2.202c-0.501-0.804-1.043-1.679-2.134-2.112c-0.969-0.385-1.729-1.296-2.582-1.975
			c0.125-0.149,0.25-0.298,0.374-0.447c0.453,0.088,0.905,0.176,1.332,0.259c1.054-1.368,0.041-2.379-0.708-3.298
			c-0.579-0.711-1.126-1.258-1.264-2.291c-0.267-2.003-0.73-4-1.334-5.929c-0.263-0.842-0.979-1.617-1.659-2.234
			c-0.703-0.638-1.618-1.039-2.425-1.567c-0.169-0.111-0.338-0.306-0.392-0.495c-0.294-1.034-0.571-2.074-0.816-3.121
			c-0.105-0.451-0.122-0.923-0.119-1.406c-0.269-1.041-0.588-2.073-0.794-3.126c-0.292-1.488-0.503-2.992-0.741-4.49
			c-0.017-0.107-0.014-0.266,0.05-0.331c1.071-1.085,0.753-2.561,1.132-3.835c0.426-1.435,1.165-2.783,1.816-4.144
			c0.855-1.787,1.282-3.634,1.072-5.625c-0.032-0.297,0.228-0.625,0.353-0.939c0.581,0.421,1.163,0.842,1.855,1.344
			c0.264-0.592,0.574-0.965,0.553-1.317c-0.032-0.531-0.142-1.21-0.49-1.542c-1.109-1.059-1.155-1.009-1.16-1.977
			c0-0.042-0.116-0.082-0.177-0.123c-0.114,0.014-0.229,0.027-0.343,0.041c0.08,0.581,0.06,1.198,0.262,1.732
			c0.283,0.748,0.731,1.432,1.108,2.144c-0.099,0.084-0.199,0.169-0.298,0.253C32.54,68.645,32.124,68.436,31.708,68.228z
			 M79.542,76.708c-0.104,0.441-0.147,0.584-0.171,0.73c-0.302,1.864-0.365,3.701,0.553,5.446c0.462,0.878,0.961,0.64,1.346,0.007
			c0.558-0.918,0.562-1.886-0.048-2.814c-0.675-1.026-0.537-2.126-0.123-3.156c0.259-0.645,0.801-1.174,1.29-1.859
			c1.94-0.02,1.984,0.049,2.033,3.691c0.435-0.505,0.769-0.894,1.2-1.396c0.415,0.693,0.749,1.251,1.082,1.809
			c0.109-0.022,0.218-0.045,0.328-0.067c0.459-1.405,0.293-2.822-0.107-4.126c0.591,0.25,1.255,0.531,1.989,0.842
			c0.028-1.199-1.021-2.531-1.95-2.44C85.61,73.51,84.079,73,82.969,74.328c-0.193,0.231-0.687,0.285-1.044,0.293
			c-1.798,0.042-3.122,1.353-3.246,3.373C78.944,77.6,79.152,77.291,79.542,76.708z M72.451,74.656
			c0.062,0.078,0.125,0.155,0.188,0.233c0.475-0.104,0.946-0.241,1.427-0.301c0.336-0.042,0.783,0.164,1.012,0.009
			c0.825-0.557,1.579-1.219,2.523-1.973c-0.21,0.476-0.347,0.785-0.471,1.066c0.417,0.089,0.811,0.061,1.036,0.242
			c0.668,0.539,1.164,0.322,1.833-0.063c0.579-0.334,1.346-0.341,2.211-0.532c-0.34-0.669-0.759-1.491-1.035-2.033
			c-0.7-0.194-1.294-0.182-1.592-0.473c-1.108-1.083-1.755-1.184-2.952-0.148c-0.604,0.522-1.11,1.158-1.692,1.709
			C74.125,73.164,73.282,73.903,72.451,74.656z M45.711,37.747c0.225,0.115,0.55,0.282,0.888,0.456
			c0.27-0.556,0.508-1.045,0.682-1.403c-0.738-0.103-1.38-0.192-2.021-0.281c-0.002-0.091-0.004-0.183-0.006-0.274
			c0.328-0.186,0.656-0.373,0.983-0.559c-0.025-0.113-0.051-0.225-0.076-0.337c-1.536,0.141-3.073,0.283-4.794,0.441
			c1.006,0.696,2.279-0.069,2.779,0.774c-0.704,0.637-1.238,1.12-2.027,1.835c0.667,0.053,1.089,0.182,1.454,0.088
			c0.35-0.09,0.64-0.413,0.957-0.632c0.074,0.097,0.148,0.193,0.222,0.291c-0.248,0.267-0.496,0.535-0.744,0.802
			c0.079,0.074,0.158,0.147,0.237,0.221C44.688,38.737,45.132,38.308,45.711,37.747z M91.552,78.318
			c-0.124-0.124-0.247-0.248-0.371-0.372c-1.779,1.266-3.559,2.531-5.46,3.884c1.175,0.599,2.019,0.475,2.739-0.132
			c0.782-0.66,1.514-1.384,2.22-2.125C91.026,79.208,91.265,78.74,91.552,78.318z M46.147,47.053
			c0.348,0.698,1.835,1.095,2.497,0.639c1.184-0.815,2.362-1.638,3.656-2.537c-1.44-0.386-1.695,0.824-2.182,1.329
			c-0.895-0.72-1.739-1.398-2.733-2.198c0.272,0.679,0.474,1.183,0.656,1.636C47.352,46.334,46.751,46.692,46.147,47.053z
			 M90.155,77.983c0.531-0.334,0.821-0.548,1.138-0.709c0.371-0.188,0.751-0.402,1.151-0.479c1.988-0.38,2.192-0.662,1.759-2.293
			c-0.796,0.433-1.636,0.873-2.459,1.34C91.027,76.251,90.251,76.626,90.155,77.983z M65.573,66.419
			c0.016-1.285-0.617-2.291-1.083-3.3c-0.203-0.44-0.77-0.713-1.172-1.062c-0.121,0.111-0.242,0.223-0.363,0.335
			C62.629,64.322,63.954,65.346,65.573,66.419z M50.5,52.582c0.039,0.039,0.077,0.079,0.116,0.118
			c1.074-0.343,2.148-0.685,3.342-1.066c-0.666-0.229-1.172-0.403-1.682-0.578C51.676,51.571,51.088,52.077,50.5,52.582z
			 M58.856,57.142c0.057,0.035,0.114,0.071,0.171,0.106c0.297-0.777,0.604-1.55,0.865-2.338c0.017-0.052-0.319-0.221-0.491-0.335
			c-0.204,0.442-0.481,0.867-0.588,1.332C58.723,56.294,58.833,56.728,58.856,57.142z"/>
		<path fill-rule="evenodd" clip-rule="evenodd" fill="#FFFFFF" d="M70.977,0c0.029,0.107,0.025,0.273,0.093,0.312
			c1.316,0.742,1.371,0.953,0.571,2.308c-0.078,0.131-0.155,0.265-0.214,0.405c-0.025,0.062-0.004,0.144-0.004,0.312
			c0.237-0.103,0.44-0.19,0.596-0.258c-0.131,1.516-0.15,3.029-0.438,4.49c-0.127,0.643-0.8,1.177-1.257,1.804
			c0.156,0.04,0.394,0.101,0.63,0.162c-0.001,0.067-0.002,0.134-0.004,0.201c-0.242,0.053-0.483,0.106-1.01,0.221
			c0.593,0.169,0.899,0.256,1.286,0.367c-0.315,0.756,0.592,1.807-0.574,2.212c-0.052,0.513-0.112,0.958-0.139,1.406
			c-0.022,0.363-0.281,0.911,0.52,0.761c0.047-0.009,0.327,0.528,0.256,0.724c-0.137,0.378-0.447,0.693-0.774,0.79
			c-0.684,0.095-1.458,0.017-2.031,0.32c-1.13,0.597-2.203,0.523-3.333,0.167l0.035,0.037c0.481-0.507,0.963-1.015,1.497-1.578
			c0,0-0.035-0.096-0.069-0.192c-0.132-0.369-0.264-0.738-0.396-1.107c0.325,0.174,0.642,0.363,0.976,0.517
			c0.247,0.114,0.515,0.181,1.013,0.351c-0.528-0.625-0.861-1.019-1.329-1.572c-0.023,0.002-0.346,0.029-0.866,0.071
			c0.15-0.576,0.118-1.267,0.431-1.502c1.051-0.793,0.471-1.352-0.094-1.999c-0.319-0.365-0.591-0.772-0.494-1.026
			c0.883-0.724,1.768-1.449,2.848-2.334c-0.376-0.059-5.572-0.866-5.604-0.871c0.662-0.659,1.311-1.305,2.092-2.083
			c-0.041-0.019,0.219,0.1,0.476,0.217c0.053-0.076,0.132-0.138,0.124-0.185c-0.162-0.905,0.065-1.522,1.012-1.916
			c1.033-0.43,1.813-1.563,3.18-1.01C70.073,0.559,70.334,0.183,70.518,0C70.671,0,70.824,0,70.977,0z"/>
		<path fill-rule="evenodd" clip-rule="evenodd" fill="#FFFFFF" d="M118.793,55.402c-0.464,0.084-0.928,0.169-1.411,0.258
			c-0.206-0.361-0.457-0.8-0.769-1.346c-0.272,1.096-0.5,2.01-0.727,2.924c-0.11-0.032-0.22-0.064-0.331-0.097
			c0.096-0.537,0.192-1.073,0.312-1.736c-1.614,1.112-3.088,2.127-4.77,3.286c0-0.711,0-1.286,0-1.964
			c-0.202,0.078-0.377,0.146-0.604,0.233c0.033-0.11,0.082-0.198,0.08-0.285c-0.012-0.604,0.014-1.213-0.063-1.809
			c-0.14-1.083-0.421-2.153-0.49-3.239c-0.037-0.59,0.242-1.199,0.378-1.8c0.135,0.021,0.27,0.042,0.405,0.063
			c0.201,1.127,0.403,2.254,0.592,3.313c0.306-0.275,0.588-0.528,0.87-0.781c0.124,0.249,0.249,0.499,0.442,0.888
			c0.819-0.562,1.599-1.097,2.415-1.657c0.456,1.493,0.608,1.566,1.444,0.897c0.054,0.58,0.112,1.208,0.17,1.836
			c0.11-0.009,0.22-0.017,0.33-0.026c0-0.332,0-0.665,0-0.997c0.056-0.018,0.112-0.035,0.169-0.052
			c0.118,0.26,0.236,0.52,0.407,0.898c0.185-0.26,0.295-0.417,0.414-0.584c0.253,0.372,0.495,0.729,0.738,1.085
			C118.793,54.942,118.793,55.172,118.793,55.402z"/>
		<path fill-rule="evenodd" clip-rule="evenodd" fill="#FFFFFF" d="M82.586,31.988c0.315,0.713,0.555,1.257,0.762,1.727
			c0.393-0.345,0.725-0.637,1.305-1.146C83.934,32.367,83.383,32.212,82.586,31.988z"/>
		<path fill-rule="evenodd" clip-rule="evenodd" fill="#FFFFFF" d="M49.98,24.226c0.712-0.246,1.424-0.491,2.334-0.805
			c-0.047,0.614-0.084,1.1-0.122,1.584c0.061,0.06,0.123,0.121,0.184,0.181c0.146-0.256,0.292-0.511,0.558-0.976
			c0.398,0.518,0.71,0.924,1.108,1.442c-0.017,0.002,0.23-0.037,0.556-0.088c-0.049-0.27-0.103-0.565-0.157-0.861
			c0.129-0.039,0.258-0.078,0.387-0.117c0.328,0.925,0.655,1.851,0.982,2.776c0.078-0.006,0.156-0.012,0.234-0.018
			c-0.071-1.027-0.142-2.055-0.223-3.225c0.509,0.147,0.85,0.245,1.324,0.381c-0.183-0.352-0.324-0.623-0.603-1.162
			c0.576,0.05,1.051-0.043,1.258,0.15c0.18,0.169,0.089,0.663,0.062,1.01c-0.05,0.654-0.208,1.307-0.197,1.958
			c0.012,0.747,0.062,1.521,0.279,2.227c0.14,0.452,0.574,0.84,0.944,1.186c0.492,0.46,1.049,0.851,1.579,1.271
			c-0.064,0.108-0.128,0.216-0.193,0.324c-0.344,0-0.688,0-1.192,0c0.239,0.525,0.416,0.912,0.6,1.315
			c-0.939,0.984-2.176,0.765-3.368-0.642c-1.22,1.455-2.884,1.468-4.557,1.33c-0.204-0.017-0.54-0.563-0.512-0.832
			c0.074-0.708-0.269-0.88-0.842-0.919c-0.114-0.008-0.28,0.002-0.33-0.065c-0.367-0.492-0.71-1.002-1.062-1.506
			c0.421-0.162,0.843-0.459,1.262-0.455c0.8,0.007,1.599,0.186,2.398,0.294c0.04-0.135,0.08-0.271,0.12-0.406
			c-0.585-0.189-1.162-0.419-1.759-0.557c-0.849-0.196-1.954,0.095-2.239-1.275c0.621-0.16,1.154-0.297,1.595-0.411
			c-0.568-0.309-1.186-0.645-1.843-1.001c0.58-0.848,1.02-1.492,1.46-2.136L49.98,24.226z"/>
		<path fill-rule="evenodd" clip-rule="evenodd" fill="#FFFFFF" d="M50.005,24.198c-0.6,0.381-1.523,0.634-1.733,1.168
			c-0.474,1.204-1.472,1.149-2.288,1.443c-0.371-0.827-0.72-1.603-1.063-2.369c0.744-1.276,1.531-2.626,2.318-3.977
			c-0.094-0.104-0.188-0.209-0.281-0.313c0.625,0.053,1.576-0.128,1.813,0.203c0.798,1.111,2.993,0.769,2.794,2.785
			c-0.5,0.343-1.041,0.714-1.583,1.087C49.98,24.226,50.005,24.198,50.005,24.198z"/>
		<path fill-rule="evenodd" clip-rule="evenodd" fill="#FFFFFF" d="M65.149,16.703c0.234,0.269,0.469,0.537,0.735,0.842
			c-0.095,0.111-0.231,0.272-0.369,0.435c0.573,0.415,0.99,1.163,1.881,0.739c0.321-0.153,0.664-0.266,1.004-0.375
			c0.704-0.225,1.401-0.554,2.122-0.625c1.078-0.105,1.078,0.867,1.065,1.52c-0.015,0.718-0.576,0.997-1.345,1.02
			c-0.604,0.018-1.189,0.379-1.801,0.475c-0.473,0.074-1.018,0.788-1.472-0.057c-0.014-0.024-0.189,0.02-0.278,0.058
			c-1.225,0.528-1.812,0.173-1.96-1.121c-0.074-0.645-0.265-1.277-0.431-2.041c-1.243,0.577-1.745-0.086-2.342-1.259
			c0.659,0.036,1.334-0.121,1.543,0.123c0.542,0.631,1.088,0.435,1.685,0.305C65.184,16.739,65.149,16.703,65.149,16.703z"/>
		<path fill-rule="evenodd" clip-rule="evenodd" fill="#FFFFFF" d="M62.611,6.331c0.226,0.196,0.486,0.344,0.636,0.567
			c0.449,0.665,0.692,1.548,1.757,1.489c0.04-0.002,0.09,0.111,0.13,0.174c0.424,0.668,0.847,1.338,1.326,2.095
			c-0.241,0.559-0.516,1.34-0.915,2.051c-0.189,0.336-0.592,0.687-0.948,0.749c-0.248,0.044-0.604-0.366-0.867-0.619
			c-0.299-0.29-0.548-0.631-0.806-0.934c0.271-0.351,0.481-0.624,0.88-1.141c-0.661,0.178-1.02,0.275-1.35,0.364
			c-0.632-0.684-0.536-1.549-0.575-2.255C61.837,8.083,62.317,7.266,62.611,6.331z"/>
		<path fill-rule="evenodd" clip-rule="evenodd" fill="#FFFFFF" d="M52.693,20.709c0.611-0.17,1.173-0.326,1.735-0.482
			c-0.6-0.029-1.06-0.635-1.814-0.248c-0.305,0.156-0.949-0.351-1.497-0.58c0.303-0.471,0.496-0.835,0.75-1.15
			c0.358-0.442,0.762-0.847,1.146-1.269c0.47,0.472,1.136,0.865,1.36,1.434c0.297,0.75,0.68,1.016,1.429,0.929
			c0.085-0.862-0.916-1.852,0.386-2.691c0.069,0.505,0.083,0.944,0.202,1.352c0.076,0.26,0.306,0.476,0.468,0.711
			c0.806-0.565,0.951,0.005,0.853,0.587c-0.101,0.594-0.172,1.526-1.038,1.361c-0.942-0.179-1.582,0.175-2.307,0.601
			C53.746,21.629,53.074,21.812,52.693,20.709z"/>
		<path fill-rule="evenodd" clip-rule="evenodd" fill="#FFFFFF" d="M73.898,42.905c-0.136-0.297-0.273-0.594-0.438-0.953
			c-0.35,0.133-0.689,0.262-0.847,0.321c-0.075-1.294-0.171-2.589-0.203-3.885c-0.005-0.233,0.229-0.5,0.412-0.694
			c0.075-0.08,0.447-0.029,0.45-0.006c0.034,0.251,0.021,0.509,0.021,0.558c1.549,0.768,3.061,1.519,4.553,2.259
			c-0.105,0.929-0.666,0.883-1.251,0.686c-0.469-0.158-0.914-0.391-1.284-0.552c-0.383,0.827-0.733,1.583-1.083,2.34
			C74.119,42.954,74.009,42.93,73.898,42.905z"/>
		<path fill-rule="evenodd" clip-rule="evenodd" fill="#FFFFFF" d="M60.547,25.327c-0.143-0.465-0.285-0.93-0.427-1.394
			c-0.113-0.06-0.226-0.119-0.34-0.178c0.642-0.412,1.283-0.823,1.882-1.207c1.123,0.646,0.759,1.341,0.221,2.036
			c0.502,0.583,1.452,0.942,1.077,1.903c-0.26,0.665-0.72,1.25-1.267,1.931c-0.413-1.457-2.396-1.781-2.48-3.425
			c0.136-0.117,0.271-0.234,0.407-0.352c0.132,0.301,0.265,0.602,0.398,0.903C60.195,25.472,60.371,25.399,60.547,25.327z"/>
		<path fill-rule="evenodd" clip-rule="evenodd" fill="#FFFFFF" d="M60.432,20.56c0.05-0.4,0.1-0.795,0.148-1.183
			c-1.434,0.18-2.162-0.511-2.135-2.31c0.31,0.389,0.527,0.612,0.684,0.872c0.164,0.27,0.27,0.575,0.585,0.811
			c-0.035-0.316-0.07-0.633-0.105-0.95c0.079-0.071,0.158-0.142,0.237-0.213c0.161,0.309,0.323,0.619,0.484,0.928
			c0.091-0.06,0.183-0.119,0.273-0.179c-0.201-0.379-0.402-0.758-0.605-1.14c1.726,0.114,2.082,0.455,1.925,2.108
			C61.857,20.014,61.89,21.046,60.432,20.56z"/>
		<path fill-rule="evenodd" clip-rule="evenodd" fill="#FFFFFF" d="M51.641,17.121c-0.028-0.308-0.056-0.615-0.085-0.941
			c-0.433,0.527-0.844,1.028-1.25,1.523c-1.351-0.895-1.303-0.838-0.079-1.883c0.698-0.596,1.389-1.084,2.304-1.147
			c0.151-0.01,0.489,0.357,0.459,0.425c-0.319,0.724-0.695,1.422-1.056,2.127C51.836,17.19,51.738,17.156,51.641,17.121z"/>
		<path fill-rule="evenodd" clip-rule="evenodd" fill="#FFFFFF" d="M60.743,14.446c-0.774-0.314-1.489-0.587-2.184-0.903
			c-0.118-0.053-0.154-0.289-0.228-0.44c0.966-0.414,0.283-0.74-0.036-1.127c-0.115-0.139-0.158-0.419-0.1-0.589
			c0.036-0.104,0.333-0.187,0.499-0.168C59.73,11.336,60.963,13.407,60.743,14.446z"/>
		<path fill-rule="evenodd" clip-rule="evenodd" fill="#FFFFFF" d="M25.976,46.302c0.847-0.191,1.327,0.19,1.208,0.886
			c-0.167,0.973-0.573,1.904-1.028,2.818C26.098,48.805,26.04,47.604,25.976,46.302z"/>
		<path fill-rule="evenodd" clip-rule="evenodd" fill="#FFFFFF" d="M9.942,38.283c-0.238-1.506,0.023-1.79,1.448-1.399
			c0.337,0.092,0.567,0.577,0.846,0.881c-0.307,0.173-0.598,0.433-0.926,0.497C10.867,38.348,10.395,38.283,9.942,38.283z"/>
		<path fill-rule="evenodd" clip-rule="evenodd" fill="#FFFFFF" d="M26.226,58.835c-0.159-1.447-0.306-2.78-0.487-4.427
			c0.742,0.435,1.122,0.657,1.325,0.776C26.79,56.378,26.534,57.493,26.226,58.835z"/>
		<path fill-rule="evenodd" clip-rule="evenodd" fill="#FFFFFF" d="M78.734,30.871c0.248,0.445,0.677,0.889,0.683,1.337
			c0.004,0.343-0.528,0.692-0.822,1.038c-0.263-0.346-0.692-0.668-0.743-1.043c-0.055-0.405,0.244-0.857,0.389-1.289
			C78.405,30.899,78.569,30.885,78.734,30.871z"/>
		<path fill-rule="evenodd" clip-rule="evenodd" fill="#FFFFFF" d="M62.376,20.29c0.405-0.332,0.811-0.664,1.216-0.995
			c0.215,0.575,0.429,1.151,0.644,1.726c-0.557-0.052-1.112-0.104-1.669-0.155C62.504,20.674,62.44,20.482,62.376,20.29z"/>
		<path fill-rule="evenodd" clip-rule="evenodd" fill="#FFFFFF" d="M103.686,57.927c1.074-0.118,2.148-0.236,3.428-0.377
			c-0.782,0.971-0.782,0.971-3.408,0.735C103.7,58.166,103.693,58.047,103.686,57.927z"/>
		<path fill-rule="evenodd" clip-rule="evenodd" fill="#FFFFFF" d="M56.106,14.125c-0.428,0.406-0.857,0.812-1.285,1.217
			c-0.161-0.265-0.499-0.723-0.455-0.763c0.408-0.373,0.882-0.673,1.337-0.995C55.837,13.765,55.972,13.945,56.106,14.125z"/>
		<path fill-rule="evenodd" clip-rule="evenodd" fill="#FFFFFF" d="M61.553,12.294c0.376,0.431,0.843,0.817,1.082,1.313
			c0.097,0.199-0.306,0.639-0.481,0.97c-0.106-0.033-0.212-0.065-0.319-0.099c-0.224-0.647-0.447-1.294-0.671-1.941
			C61.293,12.457,61.423,12.375,61.553,12.294z"/>
		<path fill-rule="evenodd" clip-rule="evenodd" fill="#FFFFFF" d="M76.682,42.322c0.264,0.346,0.358,0.436,0.345,0.457
			c-0.315,0.499-0.643,0.99-0.968,1.483c-0.144-0.13-0.429-0.344-0.409-0.377C75.95,43.379,76.29,42.897,76.682,42.322z"/>
		<path fill-rule="evenodd" clip-rule="evenodd" fill="#FFFFFF" d="M109.253,62.508c0,0.33,0,0.648,0,1.059
			c-0.684,0.055-1.382,0.111-2.08,0.167c-0.02-0.054-0.039-0.108-0.058-0.163C107.805,63.229,108.495,62.885,109.253,62.508z"/>
	</g>
</g>
</svg>
