<?xml version="1.0" encoding="utf-8"?>
<!DOCTYPE svg PUBLIC "-//W3C//DTD SVG 1.1//EN" "http://www.w3.org/Graphics/SVG/1.1/DTD/svg11.dtd">
<svg version="1.1" id="asia" xmlns="http://www.w3.org/2000/svg" xmlns:xlink="http://www.w3.org/1999/xlink" x="0px" y="0px"
	 width="167.355px" height="140px" viewBox="0 0 167.355 140" enable-background="new 0 0 167.355 140" xml:space="preserve">
<path fill="#FFFFFF" d="M0,60.854c1.64,0.348,1.64,0.348,0.904-2.5c0.753-0.057,1.498-0.017,2.185-0.195
	c0.556-0.144,1.049-0.539,1.552-0.851c0.125-0.078,0.182-0.386,0.271-0.386c2.986-0.012,5.796-2.555,9.02-0.316
	c1.058,0.734,2.892,0.553,4.35,0.462c2.143-0.134,2.443-1.265,0.708-3.769c4.701,1.594,8.972,3.042,13.354,4.529
	c-1.392,1.801-1.793,3.95-0.804,4.506c1.293,0.727,2.782,1.2,4.244,1.494c0.723,0.145,1.576-0.356,2.37-0.565
	c-0.312-0.949-0.577-1.915-0.946-2.84c-0.341-0.856-0.792-1.669-1.27-2.655c0.434-0.108,0.864-0.216,1.296-0.324
	c0.101-0.153,0.202-0.307,0.303-0.46c-0.738-0.471-1.476-0.942-2.06-1.315c-1.367-1.342-2.665-2.615-3.982-3.908
	c0.73-0.582,1.457-1.162,2.522-2.011c-0.089-0.328-0.119-1.55-0.516-1.684c-0.865-0.291-1.932-0.119-2.887,0.039
	c-0.754,0.124-1.467,0.507-2.104,0.742c-0.632-1.414-1.23-2.756-1.646-3.688c0.934-0.823,1.646-1.503,2.419-2.111
	c0.406-0.32,0.886-0.633,1.378-0.74c1.117-0.244,2.639,0.202,2.578-1.796c-0.002-0.067,1.22-0.366,1.779-0.213
	c1.006,0.274,1.912,0.928,2.921,1.184c0.53,0.135,1.354-0.052,1.756-0.415c0.742-0.671,0.356-4.41-0.402-5.344
	c-2.744,1.659-3.279,1.567-4.466-0.851c0.279-0.191,0.547-0.446,0.866-0.582c2.036-0.867,1.991-1.159,1.041-3.095
	c-0.77-1.567-1.061-3.371-1.554-5.072c-0.519-1.785-0.854-3.649-1.596-5.335c-0.54-1.229-0.227-1.746,0.729-2.417
	c0.676-0.474,1.146-1.239,1.964-2.161c0.377,0.059,1.244,0.192,2.11,0.326c0.095-0.126,0.188-0.252,0.283-0.377
	c-1.487-1.47-5.361-1.698-2.854-5.195c2.623-1.071,3.587,1.122,4.828,2.791c0.441,0.596,0.691,1.491,1.271,1.799
	c1.746,0.931,1.731,2.037,0.525,3.468c0.104,0.15,0.208,0.3,0.312,0.449c0.62-0.229,1.475-0.287,1.803-0.732
	c0.426-0.576,0.432-1.462,0.703-2.558c0.021-0.008,0.5-0.202,0.979-0.395c-2.794,0.252-3.909-1.901-5.354-3.744
	c0.218-0.176,0.512-0.416,0.817-0.665c1.189,1.998,2.369,2.39,4.858,1.389c-0.952-0.287-1.591-0.48-2.229-0.673
	c-0.004-0.102-0.009-0.203-0.013-0.305c1.5,0,3,0,4.5,0c0.018-0.102,0.036-0.203,0.054-0.305c-0.841-0.44-1.683-0.88-2.523-1.321
	c0.041-0.163,0.082-0.326,0.124-0.489c1.814,0,3.63,0,5.445,0c0.04-0.147,0.079-0.294,0.119-0.441
	c-0.532-0.328-1.062-0.655-1.594-0.982c-0.026-0.168-0.052-0.337-0.078-0.506c2.29-0.281,4.577-0.576,6.869-0.838
	c1.633-0.188,3.556,0.486,4.507-1.646c0.092-0.206,0.667-0.338,0.978-0.282c1.424,0.262,2.831,0.61,4.247,0.912
	c0.663,0.142,1.329,0.281,2,0.365c1.882,0.234,3.77,0.41,5.644,0.687c0.27,0.04,0.477,0.509,0.812,0.896
	c-1.186,0.752-2.291,1.453-3.396,2.154c0.024,0.129,0.051,0.258,0.077,0.387c0.422,0,0.882,0.112,1.261-0.017
	c3.697-1.264,7.328-0.574,11.004,0.176c1.78,0.363,3.646,0.306,5.571,0.087c-0.366-0.189-0.732-0.378-1.353-0.697
	c1.938,0.164,3.569,0.302,5.342,0.451c-0.256,0.378-0.436,0.641-0.483,0.712c4.382,3.081,9.297,1.182,14.221,1.65
	c-0.193-0.419-0.271-0.678-0.421-0.884c-0.129-0.177-0.341-0.294-0.563-0.477c1.765-0.695,6.506-0.091,7.113,0.614
	c1.019-0.092,1.861-0.365,2.604-0.195c1.601,0.365,3.139,0.995,4.724,1.436c0.636,0.177,1.352,0.273,1.997,0.179
	c3.209-0.468,6.282-0.29,9.11,1.522c0.345,0.221,0.831,0.325,1.249,0.316c2.324-0.049,4.653-0.278,6.97-0.175
	c1.098,0.048,2.164,0.714,3.255,1.068c0.438,0.142,0.903,0.199,1.355,0.295c0.074-0.188,0.148-0.377,0.224-0.565
	c-0.707-0.322-1.413-0.644-2.471-1.127c2.528,0.168,4.699,0.484,6.858,0.419c3.68-0.111,6.43,1.85,9.255,3.729
	c2.788,1.854,5.577,3.708,8.437,5.846c-2.978-0.434-4.818,0.724-5.655,3.671c-2.476-1.954-4.699,0.033-7.188,0.222
	c0.718,3.189,4.069,3.241,5.682,5.335c-0.189,0.133-0.458,0.324-0.912,0.644c0.663,0.568,1.285,1.101,1.995,1.709
	c-0.405,0.171-0.764,0.322-1.044,0.44c0.174,1.622,0.338,3.148,0.565,5.266c-3.296-2.894-6.229-5.398-9.067-8.007
	c-0.854-0.786-0.939-1.66-0.146-2.885c0.739-1.142,0.874-2.769,0.947-4.199c0.029-0.563-0.76-1.249-1.306-1.732
	c-0.358-0.317-0.949-0.37-1.354-0.512c0.048,0.961,0.083,1.667,0.146,2.883c-1.342-0.791-2.117-1.485-3.009-1.705
	c-0.85-0.208-1.82,0.079-2.822,0.155c-0.148,0.917-0.293,1.81-0.466,2.874c0.481,0.156,0.968,0.314,1.453,0.473
	c0,0.14,0,0.28-0.001,0.419c-1.197,0-2.399,0.066-3.592-0.019c-1.157-0.083-2.3-0.424-3.456-0.465
	c-1.663-0.06-3.333,0.095-4.999,0.074c-1.384-0.018-2.304,0.047-2.314,1.96c-0.006,1.165-1.065,2.317-1.625,3.488
	c-0.152,0.316-0.211,0.676-0.258,0.832c1.457,0.651,2.763,1.243,4.075,1.815c0.203,0.089,0.466,0.175,0.663,0.123
	c2.804-0.752,5.661,0.711,6.648,3.418c0.169,0.464,0.251,1.029,0.568,1.36c3.272,3.418,1.685,7.222,0.765,10.892
	c-0.132,0.525-1.559,0.816-2.43,1.03c-0.447,0.109-1.34-0.422-1.439-0.271c-0.479,0.721-1.235,1.755-1.012,2.348
	c0.548,1.462-0.252,2.066-1.379,2.892c1.354,1.192,2.633,2.283,3.869,3.42c0.497,0.458,0.963,0.974,1.338,1.535
	c1.295,1.937,1.225,1.94-1.031,2.594c-0.639,0.185-1.103,0.983-1.815,1.662c-0.399-1.105-0.761-2.459-1.374-3.687
	c-0.593-1.187-0.551-3.214-2.806-2.537c-0.776-3.72-2.346-4.198-5.672-1.729c0-0.607,0.075-1.151-0.021-1.663
	c-0.1-0.532-0.364-1.033-0.559-1.547c-0.533,0.202-1.2,0.268-1.57,0.634c-0.836,0.826-1.524,1.8-2.501,2.992
	c1.47,2.594,4.54,1.977,7.53,1.978c-1.01,1.06-1.862,1.792-2.482,2.686c-0.238,0.344-0.134,1.187,0.139,1.574
	c0.694,0.987,1.555,1.861,2.384,2.748c0.372,0.398,0.784,0.793,1.252,1.059c1.513,0.857,1.78,2.128,0.584,3.572
	c0.628,0.133,1.198,0.254,2.269,0.481c-1.815,3.031-1.359,6.711-3.927,9.292c-2.521,2.534-5.92,3.014-9.234,3.98
	c-0.091,0.516-0.192,1.098-0.327,1.867c-0.431-0.211-0.794-0.291-1.003-0.517c-0.434-0.466-0.907-1.495-1.148-1.435
	c-1.022,0.257-2.22,0.599-2.888,1.332c-1.479,1.625-0.995,2.672,0.383,4.441c1.562,2.008,3.982,3.266,4.777,5.99
	c0.856,2.936,0.504,4.12-2.218,5.482c-0.589,0.295-0.913,1.092-1.415,1.603c-0.474,0.483-1.021,0.894-1.722,1.494
	c-0.106-0.498-0.199-0.859-0.259-1.226c-0.055-0.338,0.059-0.83-0.129-0.998c-1.544-1.387-3.129-2.729-4.733-4.047
	c-0.543-0.447-1.179-0.781-1.623-1.439c-0.121,0-0.285-0.053-0.354,0.007c-1.318,1.123-1.555,5.444-0.84,6.974
	c1.041,2.228,2.76,3.659,4.551,5.168c0.71,0.598,0.991,1.754,1.357,2.699c0.383,0.984,0.654,2.014,0.932,3.035
	c0.089,0.33,0.041,0.697,0.055,1.048c-0.391,0.011-0.848,0.159-1.162,0.009c-2.511-1.205-3.552-3.439-4.03-6.016
	c-0.405-2.186-1.788-3.561-3.717-4.749c1.127-4.956-0.419-9.552-2.575-14.374c-1.457,2.266-1.763,2.416-3.146,2.203
	c-0.875-2.137-1.616-3.967-2.382-5.786c-0.09-0.214-0.315-0.526-0.484-0.53c-2.312-0.05-2.477-1.742-2.734-3.429
	c-0.057-0.368-0.426-0.688-0.383-0.624c-1.616,0.451-2.935,0.902-4.289,1.17c-1.117,0.221-2.046,0.436-2.147,1.842
	c-0.029,0.406-0.424,0.829-0.739,1.163c-1.556,1.651-3.141,3.275-4.712,4.912c-0.084,0.088-0.115,0.271-0.207,0.304
	c-4.594,1.57-1.795,5.69-2.873,8.477c-0.268,0.691-1.802,4.492-2.531,4.71c-0.334,0.1-1.018-0.167-1.185-0.468
	c-0.47-0.844-0.697-1.819-1.121-2.695c-1.544-3.188-3.319-6.279-4.627-9.559c-0.812-2.033-0.924-4.345-1.383-6.524
	c-0.199-0.942-0.479-1.867-0.722-2.792c-0.816,0.799-1.557,2.059-2.174,2c-0.938-0.087-1.793-1.087-2.879-1.835
	c0.736-0.34,1.161-0.536,1.287-0.595c-1.882-1.474-3.812-2.987-5.494-4.305c-3.937-0.219-7.844-0.396-11.74-0.705
	c-0.484-0.039-1.145-0.695-1.326-1.207c-0.55-1.537-1.484-1.522-2.791-1.103c-0.735,0.237-1.676,0.403-2.354,0.147
	c-1.831-0.69-3.638-1.299-4.598-3.475c-0.988-2.236-2.062-2.223-4.064-0.58c1.622,2.501,3.247,5.008,5.008,7.725
	c0.139-0.73,0.233-1.231,0.375-1.982c0.855,1.057-0.341,2.949,1.974,3.104c2.49,0.166,3.637-0.965,4.551-3.392
	c0.394,0.837,0.533,1.437,0.894,1.837c0.753,0.834,1.494,1.881,2.469,2.273c2.511,1.014,2.945,2.261,1.251,4.253
	c-0.89,1.046-1.622,2.226-2.424,3.345c-1.034,1.441-2.296,2.555-4.104,2.915c-1.034,0.206-2.15,0.32-2.093,1.833
	c0.007,0.191-0.381,0.482-0.643,0.586c-3.314,1.312-6.629,2.629-9.973,3.866c-0.77,0.285-1.576,0.343-1.636-0.992
	c-0.066-1.473-0.364-2.938-0.617-4.397c-0.058-0.336-0.333-0.639-0.525-0.946c-0.904-1.456-1.804-2.916-2.732-4.354
	c-0.23-0.356-0.515-0.82-0.868-0.932c-1.635-0.512-1.771-1.895-2.065-3.229c-0.155-0.709-0.256-1.494-0.641-2.074
	c-1.01-1.519-2.143-2.957-3.264-4.399c-0.938-1.206-1.709-2.628-3.612-2.571c-0.34,0.01-0.8-0.545-1.032-0.941
	c-0.71-1.215-1.337-2.479-2.015-3.762c2.806-0.569,3.85-1.746,4.053-4.646c0.104-1.478,0.019-2.969,0.019-4.759
	c-0.832,0.19-1.742,0.396-2.652,0.606c-0.059,0.014-0.12,0.086-0.166,0.075c-2.725-0.686-5.756,0.507-8.213-0.888
	C2.152,62.948,1.534,61.41,0,61.227C0,61.102,0,60.978,0,60.854z M44.367,48.183c-1.368-0.019-3.416,1.144-3.274,2.191
	c0.127,0.936,0.621,2.25,1.34,2.597c2.13,1.028,2.684-0.623,2.928-1.74C44.95,49.971,44.692,49.181,44.367,48.183z"/>
<path fill="#FFFFFF" d="M51.52,0c-0.074,0.308-0.117,0.87-0.227,0.883c-1.051,0.127-2.113,0.162-3.239-0.096
	c0.532-0.262,1.065-0.524,1.6-0.787C50.275,0,50.898,0,51.52,0z"/>
<path fill="#FFFFFF" d="M138.133,140c-0.678-0.646-1.355-1.295-2.034-1.941c-0.008-0.125-0.016-0.248-0.022-0.371
	c0.638,0.145,1.454,0.101,1.863,0.486c0.403,0.381,0.395,1.199,0.567,1.826C138.382,140,138.258,140,138.133,140z"/>
<path fill="#FFFFFF" d="M136.619,113.95c-2.475,1.991-2.508,4.11,0.066,6.784c-1.392,0.171-1.785,0.854-2.156,2.216
	c-0.579,2.127-2.055,4.01-3.151,5.995c-0.135-0.264-0.27-0.526-0.404-0.79c-1.125-0.226-2.25-0.63-3.375-0.632
	c-1.68-0.002-3.223-1.041-3.692-2.705c-0.163-0.572-0.707-1.047-0.83-1.619c-0.24-1.116-0.307-2.27-0.445-3.406
	c0.888-0.091,1.773-0.184,2.66-0.275c-0.083-0.063-0.167-0.129-0.25-0.192c0.81-0.55,1.615-1.103,2.43-1.646
	c0.15-0.103,0.375-0.121,0.49-0.246c1.55-1.666,3.232-3.238,4.57-5.062c0.74-1.009,1.144-1.126,1.976-0.335
	C135.159,112.655,135.836,113.244,136.619,113.95z"/>
<path fill="#FFFFFF" d="M114.973,125.92c0.461-0.352,0.872-0.665,1.365-1.042c0.619,1.104,1.891,1.883,0.143,3.188
	c-0.605,0.453-0.442,1.935-0.723,3.438c-0.775-0.36-1.598-0.614-2.276-1.079c-2.529-1.729-3.771-4.374-5.292-6.943
	c-1.601-2.702-2.907-5.799-5.77-7.657c-0.589-0.384-0.867-1.244-1.36-1.992c2.178-0.158,3.448,0.663,4.717,2.123
	c1.364,1.569,3.239,2.706,4.932,3.976c1.174,0.881,2.254,1.64,2.42,3.387C113.217,124.225,114.312,125.035,114.973,125.92z"/>
<path fill="#FFFFFF" d="M144.366,68.083c1.325-1.572,2.805-2.764,5.121-1.948c0.23-0.86,0.437-1.626,0.654-2.437
	c1.658,0.586,2.091-0.537,2.076-1.751c-0.009-0.84-0.601-1.656-0.792-2.515c-0.156-0.704-0.107-1.453-0.149-2.181
	c4.711,1.449,3.405,5.916,5.089,8.944c-1.499,0.408-2.637,2.305-4.667,0.488c0.114,0.76,0.282,1.169,0.195,1.516
	c-0.073,0.292-0.403,0.61-0.695,0.721c-0.178,0.068-0.667-0.181-0.727-0.376c-0.576-1.887-1.767-1.105-2.906-0.745
	c-1.001,0.316-2.029,0.545-3.045,0.813C144.469,68.436,144.417,68.259,144.366,68.083z"/>
<path fill="#FFFFFF" d="M139.573,124.449c1.138-0.475,2.159-0.898,3.179-1.324c0.06,0.109,0.118,0.218,0.178,0.327
	c-0.747,0.815-1.989,1.569-2.103,2.464c-0.116,0.917,0.875,1.973,1.373,2.952c-0.562,0.36-0.975,0.627-1.52,0.978
	c-0.41-1.133-0.812-2.24-1.255-3.465c-1.669,1.235,0.398,3.801-1.802,5.069c-0.306-1.636,1.311-3.496-1.093-4.108
	c0.484-1.859,0.77-3.676,1.447-5.333c0.537-1.315,1.906-1.712,3.254-1.286c1.654,0.521,3.129,0.637,4.396-1.211
	c-0.401,2.023-0.495,2.129-2.011,2.26c-0.909,0.08-1.824,0.078-2.729,0.177C138.608,122.195,138.606,122.216,139.573,124.449z"/>
<path fill="#FFFFFF" d="M116.691,133.705c1.259-1.936,2.696-2.225,4.37-1.301c1.142,0.63,2.222,1.197,3.715,0.568
	c0.671-0.281,1.792,0.441,2.684,0.776c0.456,0.171,0.879,0.459,1.274,0.752c0.286,0.213,0.501,0.521,0.748,0.787
	c-0.34,0.166-0.711,0.519-1.016,0.469C124.593,135.118,120.729,134.419,116.691,133.705z"/>
<path fill="#FFFFFF" d="M141.787,103.227c-0.048-0.688-0.096-1.377-0.119-1.709c-1.774-1.021-3.404-1.828-4.868-2.871
	c-0.471-0.336-1.535-1.111-0.253-2.069c0.303-0.226-0.094-1.283-0.007-1.937c0.064-0.479,0.394-1.31,0.604-1.31
	c0.585-0.001,1.364,0.187,1.716,0.599c0.681,0.799,0.98,1.706,0.318,2.862c-1.016,1.771-0.38,2.69,1.602,3.301
	c0.729,0.226,1.386,1.028,1.819,1.726c0.208,0.336-0.18,1.041-0.298,1.578C142.131,103.341,141.958,103.284,141.787,103.227z"/>
<path fill="#FFFFFF" d="M146.851,43.976c0.775,1.104,1.552,2.207,2.445,3.477c-0.112,0.126-0.382,0.425-0.566,0.632
	c-3.173-4.075-6.209-7.973-9.245-11.872c0.114-0.091,0.227-0.182,0.34-0.273c3.007,2.695,6.014,5.39,9.069,8.129
	c-0.608-0.192-1.14-0.359-1.669-0.527C147.101,43.687,146.976,43.831,146.851,43.976z"/>
<path fill="#FFFFFF" d="M149.913,54.9c0.374,0.278,0.748,0.557,1.121,0.835c-0.068,0.16-0.138,0.32-0.207,0.48
	c-0.685-0.31-1.37-0.62-2.167-0.98c0.675-1.488,1.598-2.869-0.229-4.387c2.377,0.818,4.368,1.504,6.755,2.325
	c-0.354,0.65-0.921,1.69-1.452,2.663c-1.261-0.604-2.394-1.148-3.525-1.691C150.109,54.397,150.011,54.649,149.913,54.9z"/>
<path fill="#FFFFFF" d="M143.99,102.574c1.551,2.74,0.67,4.509-2.407,5.324c-1.05-1.965-2.208-4.133-3.367-6.301
	c0.123-0.063,0.245-0.125,0.368-0.188c0.953,0.983,1.998,1.897,2.838,2.971c1.129,1.443,1.635,0.916,2.055-0.461
	C143.617,103.461,143.817,103.021,143.99,102.574z"/>
<path fill="#FFFFFF" d="M147.462,111.88c-0.884-0.418-1.187-0.562-1.658-0.785c0,0.726,0,1.277,0,1.911
	c-1.621-0.447-2.243-1.22-0.849-3.172c-1.71,0.37-2.917,0.631-4.123,0.893c-0.098-0.047-0.197-0.096-0.295-0.144
	c0.808-0.603,1.75-1.823,2.396-1.683c1.583,0.349,2.051-0.518,2.893-2.116C146.427,108.656,146.875,110.052,147.462,111.88z"/>
<path fill="#FFFFFF" d="M80.727,107.098c0.619,1.11,1.326,2.185,1.81,3.351c0.179,0.429-0.036,1.168-0.323,1.596
	c-0.215,0.319-0.991,0.623-1.238,0.474c-0.361-0.221-0.629-0.842-0.659-1.311c-0.085-1.328-0.03-2.665-0.03-3.998
	C80.433,107.172,80.58,107.135,80.727,107.098z"/>
<path fill="#FFFFFF" d="M98.094,6.728c2.41,0.24,4.822,0.48,7.233,0.721c-0.02,0.199-0.039,0.399-0.058,0.598
	c-2.416-0.36-5.007,1.147-7.274-0.791C98.029,7.08,98.061,6.903,98.094,6.728z"/>
<path fill="#FFFFFF" d="M147.863,135.857c-1.944,1.123-3.604,2.084-5.398,3.121C142.771,137.07,145.279,135.622,147.863,135.857z"/>
<path fill="#FFFFFF" d="M144.709,70.418c-0.428,0.193-0.814,0.37-1.203,0.546c-0.096-0.095-0.19-0.188-0.287-0.284
	c0.24-0.311,0.508-0.901,0.717-0.881c0.687,0.065,1.756,0.171,1.942,0.59c0.421,0.942,0.401,2.082,0.562,3.142
	c-0.295,0.061-0.591,0.121-0.887,0.183C145.292,72.693,145.031,71.675,144.709,70.418z"/>
<path fill="#FFFFFF" d="M50.875,2.712c2.037-1.027,4.539-0.621,5.738,0.862C54.503,3.257,52.689,2.985,50.875,2.712z"/>
<path fill="#FFFFFF" d="M122.476,90.857c-0.372,1.393-0.381,2.742-2.104,2.44c-0.332-0.058-0.875-0.665-0.817-0.896
	C119.892,91.014,120.962,90.785,122.476,90.857z"/>
<path fill="#FFFFFF" d="M136.117,104.561c0.528,1.758-0.727,3.627-2.878,3.965C134.141,107.283,135.044,106.039,136.117,104.561z"/>
<path fill="#FFFFFF" d="M135.397,86.9c-1.153-1.483-0.613-2.864,0.596-4.213c0,1.404,0,2.81,0,4.213
	C135.794,86.9,135.596,86.9,135.397,86.9z"/>
<path fill="#FFFFFF" d="M154.635,128.648c-1.995-0.537-3.354-0.901-5.144-1.383c1.548-0.951,2.763-0.613,3.892-0.205
	C153.801,127.212,154.038,127.859,154.635,128.648z"/>
<path fill="#FFFFFF" d="M149.076,119.624c1.61,0.601,2.65,1.278,0.842,2.456c-0.285,0.186-0.219,0.91-0.656,1.373
	C149.199,122.176,149.138,120.9,149.076,119.624z"/>
<path fill="#FFFFFF" d="M142.616,135.969c-1.746,0.258-3.492,0.516-5.237,0.772C138.886,134.534,140.848,136.037,142.616,135.969z"
	/>
<path fill="#FFFFFF" d="M135.939,136.18c-1.189,0.164-2.378,0.33-3.567,0.495c-0.039-0.212-0.078-0.425-0.117-0.638
	c1.195-0.244,2.391-0.487,3.585-0.73C135.874,135.598,135.906,135.889,135.939,136.18z"/>
<path fill="#FFFFFF" d="M111.711,8.562c-1.475-0.268-2.951-0.536-4.426-0.805c0.027-0.187,0.055-0.375,0.082-0.562
	c1.484,0.212,2.968,0.425,4.452,0.638C111.784,8.076,111.748,8.319,111.711,8.562z"/>
<path fill="#FFFFFF" d="M61.553,4.001c-0.942,0.118-1.882,0.28-2.827,0.32c-0.225,0.009-0.464-0.395-0.697-0.608
	c0.265-0.19,0.551-0.565,0.79-0.537c0.931,0.111,1.847,0.351,2.769,0.543C61.576,3.813,61.564,3.907,61.553,4.001z"/>
<path fill="#FFFFFF" d="M147.401,70.75c-0.565-1.643,0.79-1.603,1.656-1.914c0.111-0.04,0.502,0.326,0.535,0.541
	c0.032,0.203-0.18,0.557-0.38,0.662C148.706,70.304,148.144,70.468,147.401,70.75z"/>
<path fill="#FFFFFF" d="M44.367,48.183c0.325,0.998,0.583,1.789,0.993,3.048c-0.244,1.118-0.798,2.768-2.928,1.74
	c-0.719-0.347-1.213-1.661-1.34-2.597C40.951,49.326,42.999,48.164,44.367,48.183z"/>
</svg>
