<?xml version="1.0" encoding="utf-8"?>
<!DOCTYPE svg PUBLIC "-//W3C//DTD SVG 1.1//EN" "http://www.w3.org/Graphics/SVG/1.1/DTD/svg11.dtd">
<svg version="1.1" id="features_layouts" xmlns="http://www.w3.org/2000/svg" xmlns:xlink="http://www.w3.org/1999/xlink" x="0px"
	 y="0px" width="560px" height="419px" viewBox="0 0 560 419" enable-background="new 0 0 560 419" xml:space="preserve">
<g>
	<rect id="toolbar-l" y="21.834" opacity="0.05" enable-background="new    " width="133" height="17"/>
	<rect id="toolbar-r" x="137" y="21.834" opacity="0.05" enable-background="new    " width="122" height="17"/>
	<rect id="logo" y="44.834" opacity="0.05" enable-background="new    " width="54" height="17"/>
	<rect id="menu" x="59" y="44.834" opacity="0.05" enable-background="new    " width="142" height="17"/>
	<rect id="search" x="206" y="44.834" opacity="0.05" enable-background="new    " width="54" height="17"/>
	<g id="top-a" opacity="0.1">
		<rect y="66.834" fill="#777777" width="260" height="22"/>
	</g>
	<g id="top-b" opacity="0.1">
		<rect y="93.834" fill="#777777" width="260" height="22"/>
	</g>

		<rect id="sidebar-a__x28_left_x29_" y="175.166" opacity="0.2" fill="#444444" enable-background="new    " width="26" height="92"/>

		<rect id="sidebar-b__x28_left_x29_" x="31" y="175.166" opacity="0.2" fill="#444444" enable-background="new    " width="26" height="92"/>

		<rect id="sidebar-a__x28_right_x29_" x="234" y="175.166" opacity="0.2" fill="#444444" enable-background="new    " width="26" height="92"/>

		<rect id="sidebar-b__x28_right_x29_" x="203" y="175.166" opacity="0.2" fill="#444444" enable-background="new    " width="26" height="92"/>
	<g id="inner_top" opacity="0.1">
		<rect x="62" y="175.166" fill="#777777" width="136" height="20"/>
	</g>
	<rect id="content" x="62" y="200.166" opacity="0.05" enable-background="new    " width="136" height="42"/>
	<g id="inner_bottom" opacity="0.1">
		<rect x="62" y="247.166" fill="#777777" width="136" height="20"/>
	</g>
	<g id="bottom-a" opacity="0.1">
		<rect y="272.166" fill="#777777" width="260" height="22"/>
	</g>
	<g id="bottom-b" opacity="0.1">
		<rect y="299.166" fill="#777777" width="260" height="22"/>
	</g>
	<g id="bottom-b_1_" opacity="0.1">
		<rect y="326.166" fill="#777777" width="260" height="22"/>
	</g>
	<g>
		<path fill="#444444" d="M46.282,33.834h-0.747v-5.761H43.5v-0.664h4.816v0.664h-2.035L46.282,33.834L46.282,33.834z"/>
		<path fill="#444444" d="M54.86,30.613c0,1.028-0.26,1.837-0.78,2.426s-1.243,0.883-2.168,0.883c-0.946,0-1.676-0.289-2.191-0.867
			c-0.514-0.578-0.771-1.396-0.771-2.45c0-1.046,0.258-1.857,0.773-2.433c0.516-0.575,1.248-0.863,2.197-0.863
			c0.923,0,1.644,0.293,2.162,0.879S54.86,29.582,54.86,30.613z M49.74,30.613c0,0.87,0.185,1.53,0.556,1.979
			c0.37,0.45,0.909,0.675,1.615,0.675c0.712,0,1.25-0.225,1.613-0.673c0.363-0.447,0.545-1.108,0.545-1.981
			c0-0.864-0.181-1.521-0.543-1.966c-0.362-0.446-0.897-0.67-1.606-0.67c-0.712,0-1.253,0.225-1.624,0.674
			C49.925,29.101,49.74,29.754,49.74,30.613z"/>
		<path fill="#444444" d="M61.869,30.613c0,1.028-0.26,1.837-0.78,2.426s-1.243,0.883-2.168,0.883c-0.946,0-1.676-0.289-2.191-0.867
			c-0.514-0.578-0.771-1.396-0.771-2.45c0-1.046,0.258-1.857,0.773-2.433c0.516-0.575,1.248-0.863,2.197-0.863
			c0.923,0,1.644,0.293,2.162,0.879C61.609,28.773,61.869,29.582,61.869,30.613z M56.75,30.613c0,0.87,0.185,1.53,0.556,1.979
			c0.37,0.45,0.909,0.675,1.615,0.675c0.712,0,1.25-0.225,1.613-0.673c0.363-0.447,0.545-1.108,0.545-1.981
			c0-0.864-0.181-1.521-0.543-1.966c-0.362-0.446-0.897-0.67-1.606-0.67c-0.712,0-1.253,0.225-1.624,0.674
			C56.935,29.101,56.75,29.754,56.75,30.613z"/>
		<path fill="#444444" d="M63.302,33.834v-6.425h0.747v5.748h2.834v0.677H63.302z"/>
		<path fill="#444444" d="M67.973,27.409h1.815c0.853,0,1.469,0.127,1.85,0.382c0.381,0.255,0.571,0.658,0.571,1.208
			c0,0.381-0.106,0.695-0.319,0.942c-0.212,0.248-0.522,0.408-0.929,0.48v0.044c0.976,0.167,1.463,0.681,1.463,1.538
			c0,0.574-0.194,1.022-0.582,1.346c-0.388,0.323-0.93,0.484-1.628,0.484h-2.241V27.409z M68.72,30.16h1.23
			c0.527,0,0.907-0.083,1.138-0.248s0.347-0.445,0.347-0.837c0-0.36-0.129-0.62-0.387-0.78c-0.258-0.16-0.668-0.239-1.23-0.239
			H68.72V30.16z M68.72,30.793v2.404h1.34c0.519,0,0.909-0.1,1.171-0.301c0.262-0.2,0.394-0.516,0.394-0.942
			c0-0.397-0.134-0.69-0.402-0.879c-0.268-0.188-0.676-0.281-1.224-0.281L68.72,30.793L68.72,30.793z"/>
		<path fill="#444444" d="M77.843,33.834l-0.8-2.043h-2.575l-0.791,2.043h-0.756l2.54-6.451h0.628l2.528,6.451H77.843z
			 M76.811,31.118l-0.747-1.991c-0.097-0.252-0.196-0.561-0.299-0.927c-0.064,0.281-0.157,0.59-0.277,0.927l-0.756,1.991H76.811z"/>
		<path fill="#444444" d="M80.247,31.162v2.672H79.5v-6.425h1.762c0.788,0,1.37,0.151,1.747,0.453
			c0.376,0.302,0.564,0.756,0.564,1.362c0,0.85-0.431,1.424-1.292,1.723l1.745,2.887h-0.883l-1.556-2.672H80.247z M80.247,30.521
			h1.024c0.527,0,0.914-0.104,1.16-0.314c0.246-0.209,0.369-0.522,0.369-0.941c0-0.426-0.125-0.731-0.376-0.918
			c-0.25-0.188-0.652-0.281-1.206-0.281h-0.971V30.521z"/>
		<path fill="#444444" d="M84.549,31.755v-0.668h2.158v0.668H84.549z"/>
		<path fill="#444444" d="M87.959,33.834v-6.425h0.747v5.748h2.834v0.677H87.959z"/>
	</g>
	<g enable-background="new    ">
		<path fill="#444444" d="M175.795,33.746h-0.747v-5.762h-2.035v-0.663h4.816v0.663h-2.035L175.795,33.746L175.795,33.746z"/>
		<path fill="#444444" d="M184.374,30.525c0,1.026-0.26,1.836-0.78,2.426c-0.52,0.588-1.243,0.883-2.168,0.883
			c-0.946,0-1.676-0.289-2.191-0.868c-0.514-0.577-0.771-1.396-0.771-2.449c0-1.045,0.258-1.856,0.773-2.433
			c0.516-0.576,1.248-0.862,2.197-0.862c0.923,0,1.644,0.293,2.162,0.879S184.374,29.494,184.374,30.525z M179.254,30.525
			c0,0.869,0.185,1.529,0.556,1.979c0.37,0.449,0.909,0.676,1.615,0.676c0.712,0,1.25-0.226,1.613-0.674
			c0.363-0.447,0.545-1.107,0.545-1.98c0-0.864-0.181-1.521-0.543-1.967c-0.362-0.447-0.897-0.67-1.606-0.67
			c-0.712,0-1.253,0.225-1.624,0.674C179.439,29.013,179.254,29.667,179.254,30.525z"/>
		<path fill="#444444" d="M191.383,30.525c0,1.026-0.26,1.836-0.78,2.426c-0.52,0.588-1.243,0.883-2.168,0.883
			c-0.946,0-1.676-0.289-2.191-0.868c-0.514-0.577-0.771-1.396-0.771-2.449c0-1.045,0.258-1.856,0.773-2.433
			c0.516-0.576,1.248-0.862,2.197-0.862c0.923,0,1.644,0.293,2.162,0.879S191.383,29.494,191.383,30.525z M186.263,30.525
			c0,0.869,0.185,1.529,0.556,1.979c0.37,0.449,0.909,0.676,1.615,0.676c0.712,0,1.25-0.226,1.613-0.674
			c0.363-0.447,0.545-1.107,0.545-1.98c0-0.864-0.181-1.521-0.543-1.967c-0.362-0.447-0.897-0.67-1.606-0.67
			c-0.712,0-1.253,0.225-1.624,0.674C186.448,29.013,186.263,29.667,186.263,30.525z"/>
		<path fill="#444444" d="M192.815,33.746v-6.425h0.747v5.748h2.834v0.677H192.815z"/>
		<path fill="#444444" d="M197.487,27.321h1.815c0.853,0,1.469,0.128,1.851,0.382c0.381,0.256,0.57,0.658,0.57,1.209
			c0,0.381-0.105,0.695-0.318,0.942c-0.213,0.248-0.522,0.408-0.929,0.48v0.044c0.976,0.167,1.463,0.681,1.463,1.538
			c0,0.574-0.194,1.022-0.582,1.346c-0.389,0.321-0.931,0.482-1.628,0.482h-2.241L197.487,27.321L197.487,27.321z M198.234,30.072
			h1.23c0.527,0,0.907-0.083,1.138-0.248c0.231-0.166,0.347-0.444,0.347-0.838c0-0.359-0.129-0.62-0.387-0.779
			c-0.258-0.16-0.668-0.24-1.23-0.24h-1.099L198.234,30.072L198.234,30.072z M198.234,30.705v2.404h1.34
			c0.519,0,0.909-0.102,1.171-0.302c0.262-0.2,0.394-0.516,0.394-0.942c0-0.398-0.134-0.691-0.402-0.879
			c-0.268-0.188-0.676-0.281-1.224-0.281H198.234z"/>
		<path fill="#444444" d="M207.357,33.746l-0.801-2.043h-2.574l-0.791,2.043h-0.756l2.539-6.451h0.629l2.527,6.451H207.357z
			 M206.324,31.03l-0.747-1.991c-0.097-0.251-0.196-0.561-0.299-0.927c-0.064,0.281-0.157,0.591-0.276,0.927l-0.756,1.991H206.324z"
			/>
		<path fill="#444444" d="M209.761,31.074v2.672h-0.747v-6.425h1.762c0.789,0,1.371,0.151,1.748,0.452
			c0.375,0.303,0.564,0.756,0.564,1.362c0,0.851-0.432,1.425-1.293,1.724l1.745,2.887h-0.884l-1.555-2.672H209.761z M209.761,30.433
			h1.024c0.527,0,0.914-0.104,1.16-0.314c0.246-0.209,0.369-0.522,0.369-0.942c0-0.425-0.125-0.729-0.377-0.918
			c-0.25-0.188-0.652-0.28-1.205-0.28h-0.972v2.455H209.761z"/>
		<path fill="#444444" d="M214.062,31.668V31h2.158v0.668H214.062z"/>
		<path fill="#444444" d="M218.221,31.074v2.672h-0.748v-6.425h1.763c0.788,0,1.37,0.151,1.747,0.452
			c0.376,0.303,0.564,0.756,0.564,1.362c0,0.851-0.431,1.425-1.292,1.724L222,33.746h-0.884l-1.556-2.672H218.221z M218.221,30.433
			h1.023c0.527,0,0.914-0.104,1.16-0.314c0.246-0.209,0.369-0.522,0.369-0.942c0-0.425-0.125-0.729-0.376-0.918
			c-0.25-0.188-0.652-0.28-1.206-0.28h-0.971L218.221,30.433L218.221,30.433z"/>
	</g>
	<g>
		<path fill="#444444" d="M16.69,56.834v-6.425h0.747v5.748h2.834v0.677H16.69z"/>
		<path fill="#444444" d="M26.938,53.613c0,1.028-0.26,1.837-0.78,2.426s-1.243,0.883-2.168,0.883c-0.946,0-1.676-0.289-2.191-0.867
			c-0.514-0.578-0.771-1.396-0.771-2.45c0-1.046,0.258-1.857,0.773-2.433c0.516-0.575,1.248-0.863,2.197-0.863
			c0.923,0,1.644,0.293,2.162,0.879S26.938,52.582,26.938,53.613z M21.819,53.613c0,0.87,0.185,1.53,0.556,1.979
			c0.37,0.45,0.909,0.675,1.615,0.675c0.712,0,1.25-0.225,1.613-0.672c0.363-0.448,0.545-1.109,0.545-1.982
			c0-0.864-0.181-1.521-0.543-1.966c-0.362-0.446-0.897-0.67-1.606-0.67c-0.712,0-1.253,0.225-1.624,0.674
			C22.004,52.101,21.819,52.754,21.819,53.613z"/>
		<path fill="#444444" d="M31.197,53.468h2.184v3.125c-0.34,0.108-0.686,0.19-1.037,0.246c-0.351,0.057-0.759,0.083-1.222,0.083
			c-0.973,0-1.73-0.289-2.272-0.867s-0.813-1.39-0.813-2.433c0-0.668,0.134-1.253,0.402-1.755c0.269-0.502,0.654-0.886,1.158-1.151
			c0.504-0.265,1.094-0.397,1.771-0.397c0.686,0,1.324,0.126,1.916,0.378l-0.29,0.659c-0.58-0.246-1.138-0.369-1.674-0.369
			c-0.782,0-1.393,0.232-1.833,0.699c-0.44,0.466-0.659,1.111-0.659,1.938c0,0.867,0.211,1.525,0.635,1.974
			c0.423,0.447,1.045,0.672,1.865,0.672c0.445,0,0.88-0.052,1.305-0.154v-1.979h-1.437L31.197,53.468L31.197,53.468z"/>
		<path fill="#444444" d="M40.5,53.613c0,1.028-0.26,1.837-0.78,2.426s-1.243,0.883-2.168,0.883c-0.946,0-1.676-0.289-2.191-0.867
			c-0.514-0.578-0.771-1.396-0.771-2.45c0-1.046,0.258-1.857,0.773-2.433c0.516-0.575,1.248-0.863,2.197-0.863
			c0.923,0,1.644,0.293,2.162,0.879S40.5,52.582,40.5,53.613z M35.38,53.613c0,0.87,0.185,1.53,0.556,1.979
			c0.37,0.45,0.909,0.675,1.615,0.675c0.712,0,1.25-0.225,1.613-0.672c0.363-0.448,0.545-1.109,0.545-1.982
			c0-0.864-0.181-1.521-0.543-1.966c-0.362-0.446-0.897-0.67-1.606-0.67c-0.712,0-1.253,0.225-1.624,0.674
			C35.565,52.101,35.38,52.754,35.38,53.613z"/>
	</g>
	<g>
		<path fill="#444444" d="M120.459,56.834l-2.18-5.694h-0.035c0.041,0.45,0.062,0.986,0.062,1.607v4.087h-0.689v-6.425h1.125
			l2.035,5.3h0.034l2.053-5.3h1.115v6.425h-0.746v-4.14c0-0.476,0.021-0.99,0.062-1.547h-0.035l-2.199,5.687H120.459z"/>
		<path fill="#444444" d="M129.323,56.834h-3.582v-6.425h3.582v0.664h-2.834v2.07h2.663v0.658h-2.663v2.364h2.834V56.834z"/>
		<path fill="#444444" d="M135.765,56.834h-0.853l-3.511-5.392h-0.035c0.047,0.633,0.069,1.213,0.069,1.74v3.651h-0.689v-6.425
			h0.844l3.502,5.37h0.035c-0.006-0.079-0.019-0.333-0.04-0.763s-0.028-0.736-0.021-0.92v-3.688h0.698L135.765,56.834
			L135.765,56.834z"/>
		<path fill="#444444" d="M142.384,50.409v4.157c0,0.731-0.221,1.308-0.664,1.727c-0.442,0.419-1.05,0.628-1.824,0.628
			c-0.773,0-1.371-0.211-1.795-0.633c-0.423-0.422-0.635-1.002-0.635-1.74v-4.14h0.747V54.6c0,0.535,0.146,0.947,0.439,1.234
			s0.724,0.432,1.292,0.432c0.542,0,0.959-0.145,1.252-0.434c0.293-0.288,0.438-0.702,0.438-1.241v-4.184L142.384,50.409
			L142.384,50.409z"/>
	</g>
	<g>
		<path fill="#444444" d="M222.366,55.125c0,0.565-0.205,1.006-0.615,1.323s-0.967,0.475-1.67,0.475
			c-0.762,0-1.348-0.098-1.758-0.294v-0.721c0.264,0.111,0.551,0.199,0.861,0.264c0.31,0.065,0.618,0.098,0.923,0.098
			c0.498,0,0.873-0.095,1.125-0.284c0.252-0.188,0.378-0.452,0.378-0.789c0-0.223-0.045-0.405-0.134-0.547
			c-0.09-0.143-0.239-0.273-0.448-0.394c-0.21-0.12-0.528-0.256-0.956-0.408c-0.598-0.215-1.025-0.468-1.281-0.761
			s-0.384-0.675-0.384-1.146c0-0.495,0.186-0.89,0.558-1.183s0.864-0.438,1.477-0.438c0.639,0,1.226,0.117,1.762,0.352l-0.233,0.65
			c-0.53-0.223-1.046-0.334-1.547-0.334c-0.396,0-0.705,0.085-0.927,0.255c-0.222,0.17-0.334,0.406-0.334,0.708
			c0,0.223,0.041,0.405,0.123,0.547c0.082,0.144,0.22,0.272,0.416,0.393c0.194,0.117,0.493,0.25,0.894,0.393
			c0.674,0.24,1.137,0.498,1.391,0.773C222.239,54.328,222.366,54.685,222.366,55.125z"/>
		<path fill="#444444" d="M227.262,56.834h-3.582v-6.425h3.582v0.664h-2.834v2.07h2.663v0.658h-2.663v2.364h2.834V56.834z"/>
		<path fill="#444444" d="M232.724,56.834l-0.8-2.043h-2.575l-0.791,2.043h-0.756l2.54-6.451h0.628l2.528,6.451H232.724z
			 M231.691,54.118l-0.747-1.991c-0.097-0.252-0.196-0.561-0.299-0.927c-0.064,0.281-0.157,0.59-0.277,0.927l-0.756,1.991H231.691z"
			/>
		<path fill="#444444" d="M235.128,54.162v2.672h-0.747v-6.425h1.762c0.788,0,1.37,0.151,1.747,0.453
			c0.376,0.302,0.564,0.756,0.564,1.362c0,0.85-0.431,1.424-1.292,1.723l1.745,2.887h-0.883l-1.556-2.672H235.128z M235.128,53.521
			h1.024c0.527,0,0.914-0.104,1.16-0.314c0.246-0.209,0.369-0.522,0.369-0.941c0-0.426-0.125-0.731-0.376-0.918
			c-0.25-0.188-0.652-0.281-1.206-0.281h-0.971V53.521L235.128,53.521z"/>
		<path fill="#444444" d="M242.695,50.985c-0.706,0-1.264,0.234-1.672,0.706c-0.408,0.47-0.613,1.114-0.613,1.931
			c0,0.841,0.197,1.491,0.591,1.949c0.394,0.459,0.956,0.688,1.685,0.688c0.448,0,0.959-0.081,1.535-0.241v0.654
			c-0.445,0.167-0.996,0.25-1.648,0.25c-0.946,0-1.676-0.287-2.191-0.86c-0.514-0.574-0.771-1.391-0.771-2.448
			c0-0.662,0.124-1.242,0.372-1.74c0.247-0.498,0.604-0.882,1.073-1.15c0.467-0.271,1.016-0.404,1.649-0.404
			c0.674,0,1.263,0.123,1.767,0.369l-0.316,0.642C243.668,51.099,243.182,50.985,242.695,50.985z"/>
		<path fill="#444444" d="M250.5,56.834h-0.747v-3.022h-3.384v3.022h-0.747v-6.425h0.747v2.733h3.384v-2.733h0.747V56.834z"/>
	</g>
	<g>
		<path fill="#444444" d="M122.363,80.834h-0.747v-5.761h-2.035v-0.664h4.816v0.664h-2.035L122.363,80.834L122.363,80.834z"/>
		<path fill="#444444" d="M130.941,77.613c0,1.028-0.26,1.837-0.78,2.426s-1.243,0.883-2.168,0.883
			c-0.946,0-1.676-0.289-2.191-0.867c-0.514-0.578-0.771-1.396-0.771-2.45c0-1.046,0.258-1.857,0.773-2.433
			c0.516-0.575,1.248-0.863,2.197-0.863c0.923,0,1.644,0.293,2.162,0.879S130.941,76.582,130.941,77.613z M125.821,77.613
			c0,0.87,0.185,1.53,0.556,1.979c0.37,0.45,0.909,0.675,1.615,0.675c0.712,0,1.25-0.225,1.613-0.672
			c0.363-0.448,0.545-1.109,0.545-1.982c0-0.864-0.181-1.521-0.543-1.966c-0.362-0.446-0.897-0.67-1.606-0.67
			c-0.712,0-1.253,0.225-1.624,0.674C126.006,76.101,125.821,76.754,125.821,77.613z"/>
		<path fill="#444444" d="M136.447,76.281c0,0.65-0.222,1.151-0.666,1.501c-0.443,0.35-1.079,0.525-1.905,0.525h-0.756v2.526h-0.747
			v-6.425h1.666C135.645,74.409,136.447,75.033,136.447,76.281z M133.121,77.666h0.672c0.662,0,1.141-0.106,1.437-0.321
			c0.296-0.214,0.444-0.557,0.444-1.027c0-0.425-0.139-0.741-0.417-0.949c-0.278-0.208-0.712-0.312-1.301-0.312h-0.835V77.666
			L133.121,77.666z"/>
		<path fill="#444444" d="M137.278,78.755v-0.668h2.158v0.668H137.278z"/>
		<path fill="#444444" d="M144.727,80.834l-0.8-2.043h-2.575l-0.791,2.043h-0.756l2.54-6.451h0.628l2.527,6.451H144.727z
			 M143.694,78.118l-0.747-1.991c-0.097-0.252-0.196-0.561-0.299-0.927c-0.064,0.281-0.157,0.59-0.277,0.927l-0.756,1.991H143.694z"
			/>
	</g>
	<g>
		<path fill="#444444" d="M122.294,108.834h-0.747v-5.761h-2.035v-0.664h4.816v0.664h-2.035L122.294,108.834L122.294,108.834z"/>
		<path fill="#444444" d="M130.873,105.613c0,1.028-0.26,1.837-0.78,2.426c-0.52,0.589-1.243,0.883-2.168,0.883
			c-0.946,0-1.676-0.289-2.191-0.867c-0.514-0.578-0.771-1.396-0.771-2.45c0-1.046,0.258-1.857,0.773-2.433
			c0.516-0.575,1.248-0.863,2.197-0.863c0.923,0,1.644,0.293,2.162,0.879C130.613,103.773,130.873,104.582,130.873,105.613z
			 M125.753,105.613c0,0.87,0.185,1.53,0.556,1.979c0.37,0.45,0.909,0.675,1.615,0.675c0.712,0,1.25-0.225,1.613-0.672
			c0.363-0.448,0.545-1.109,0.545-1.982c0-0.864-0.181-1.521-0.543-1.966c-0.362-0.446-0.897-0.67-1.606-0.67
			c-0.712,0-1.253,0.225-1.624,0.674C125.938,104.101,125.753,104.754,125.753,105.613z"/>
		<path fill="#444444" d="M136.379,104.281c0,0.65-0.222,1.151-0.666,1.501c-0.443,0.35-1.079,0.525-1.905,0.525h-0.756v2.526
			h-0.747v-6.425h1.666C135.576,102.409,136.379,103.033,136.379,104.281z M133.052,105.666h0.672c0.662,0,1.141-0.106,1.437-0.321
			c0.296-0.214,0.444-0.557,0.444-1.027c0-0.425-0.139-0.741-0.417-0.949s-0.712-0.312-1.301-0.312h-0.835V105.666L133.052,105.666z
			"/>
		<path fill="#444444" d="M137.209,106.755v-0.668h2.158v0.668H137.209z"/>
		<path fill="#444444" d="M140.62,102.409h1.815c0.853,0,1.469,0.127,1.85,0.382c0.381,0.255,0.571,0.658,0.571,1.208
			c0,0.381-0.106,0.695-0.319,0.942c-0.212,0.248-0.522,0.408-0.929,0.48v0.044c0.976,0.167,1.463,0.681,1.463,1.538
			c0,0.574-0.194,1.022-0.582,1.346c-0.389,0.321-0.931,0.482-1.628,0.482h-2.241V102.409z M141.367,105.16h1.23
			c0.527,0,0.907-0.083,1.138-0.248s0.347-0.445,0.347-0.837c0-0.36-0.129-0.62-0.387-0.78c-0.258-0.16-0.668-0.239-1.23-0.239
			h-1.099L141.367,105.16L141.367,105.16z M141.367,105.793v2.404h1.34c0.519,0,0.909-0.1,1.171-0.301
			c0.262-0.2,0.394-0.516,0.394-0.942c0-0.397-0.134-0.69-0.402-0.879s-0.676-0.281-1.224-0.281L141.367,105.793L141.367,105.793z"
			/>
	</g>
	<path fill="#444444" d="M122.294,135.385h-0.747v-5.761h-2.035v-0.664h4.816v0.664h-2.035L122.294,135.385L122.294,135.385z"/>
	<path fill="#444444" d="M130.873,132.165c0,1.028-0.26,1.837-0.78,2.426c-0.52,0.59-1.243,0.884-2.168,0.884
		c-0.946,0-1.676-0.289-2.191-0.867c-0.514-0.578-0.771-1.396-0.771-2.45c0-1.046,0.258-1.857,0.773-2.433
		c0.516-0.575,1.248-0.863,2.197-0.863c0.923,0,1.644,0.293,2.162,0.879C130.613,130.325,130.873,131.134,130.873,132.165z
		 M125.753,132.165c0,0.87,0.185,1.53,0.556,1.979c0.37,0.449,0.909,0.675,1.615,0.675c0.712,0,1.25-0.226,1.613-0.673
		c0.363-0.447,0.545-1.108,0.545-1.981c0-0.864-0.181-1.521-0.543-1.966c-0.362-0.446-0.897-0.67-1.606-0.67
		c-0.712,0-1.253,0.225-1.624,0.674C125.938,130.653,125.753,131.306,125.753,132.165z"/>
	<path fill="#444444" d="M136.379,130.833c0,0.65-0.222,1.151-0.666,1.501c-0.443,0.351-1.079,0.525-1.905,0.525h-0.756v2.525
		h-0.747v-6.425h1.666C135.576,128.961,136.379,129.585,136.379,130.833z M133.052,132.218h0.672c0.662,0,1.141-0.105,1.437-0.32
		c0.296-0.214,0.444-0.558,0.444-1.027c0-0.425-0.139-0.741-0.417-0.949s-0.712-0.312-1.301-0.312h-0.835V132.218L133.052,132.218z"
		/>
	<path fill="#444444" d="M137.209,133.307v-0.668h2.158v0.668H137.209z"/>
	<rect y="121.167" opacity="0.1" fill="#777777" enable-background="new    " width="260" height="22"/>
	<g>
		<path fill="#444444" d="M114.585,218.728c-0.706,0-1.263,0.23-1.672,0.707c-0.408,0.469-0.613,1.109-0.613,1.932
			c0,0.84,0.197,1.49,0.591,1.947c0.394,0.459,0.956,0.688,1.685,0.688c0.448,0,0.959-0.08,1.534-0.238v0.652
			c-0.445,0.166-0.995,0.25-1.648,0.25c-0.946,0-1.676-0.287-2.191-0.859c-0.514-0.574-0.771-1.393-0.771-2.447
			c0-0.662,0.124-1.24,0.372-1.738c0.247-0.498,0.604-0.885,1.072-1.148c0.467-0.271,1.017-0.402,1.65-0.402
			c0.674,0,1.263,0.123,1.767,0.369l-0.316,0.643C115.558,218.845,115.071,218.728,114.585,218.728z"/>
		<path fill="#444444" d="M123.088,221.357c0,1.023-0.26,1.836-0.78,2.426s-1.243,0.883-2.168,0.883
			c-0.946,0-1.676-0.289-2.191-0.865c-0.514-0.578-0.771-1.396-0.771-2.451c0-1.045,0.258-1.855,0.773-2.434
			c0.516-0.574,1.248-0.861,2.197-0.861c0.923,0,1.644,0.293,2.162,0.879S123.088,220.326,123.088,221.357z M117.969,221.357
			c0,0.869,0.185,1.529,0.556,1.979c0.37,0.451,0.909,0.678,1.615,0.678c0.712,0,1.25-0.227,1.613-0.676
			c0.363-0.445,0.545-1.105,0.545-1.979c0-0.861-0.181-1.521-0.543-1.967c-0.362-0.445-0.897-0.67-1.606-0.67
			c-0.712,0-1.253,0.227-1.624,0.674C118.154,219.847,117.969,220.498,117.969,221.357z"/>
		<path fill="#444444" d="M129.54,224.578h-0.853l-3.511-5.393h-0.035c0.047,0.633,0.07,1.213,0.07,1.736v3.652h-0.69v-6.428h0.844
			l3.502,5.369h0.035c-0.006-0.078-0.019-0.334-0.04-0.766c-0.021-0.428-0.028-0.734-0.022-0.92v-3.688h0.699L129.54,224.578
			L129.54,224.578z"/>
		<path fill="#444444" d="M133.284,224.578h-0.747v-5.762h-2.035v-0.664h4.816v0.664h-2.035L133.284,224.578L133.284,224.578z"/>
		<path fill="#444444" d="M139.867,224.578h-3.582v-6.426h3.582v0.664h-2.834v2.07h2.663v0.654h-2.663v2.365h2.834V224.578z"/>
		<path fill="#444444" d="M146.309,224.578h-0.853l-3.511-5.393h-0.035c0.047,0.633,0.07,1.213,0.07,1.736v3.652h-0.69v-6.428h0.844
			l3.502,5.369h0.035c-0.006-0.078-0.019-0.334-0.04-0.766c-0.021-0.428-0.028-0.734-0.022-0.92v-3.688h0.699L146.309,224.578
			L146.309,224.578z"/>
		<path fill="#444444" d="M150.053,224.578h-0.747v-5.762h-2.035v-0.664h4.817v0.664h-2.035V224.578z"/>
	</g>
	<g>
		<path fill="#444444" d="M107.791,307.742h1.815c0.853,0,1.469,0.127,1.85,0.381c0.381,0.256,0.571,0.658,0.571,1.209
			c0,0.381-0.106,0.695-0.319,0.941c-0.212,0.248-0.522,0.408-0.929,0.479v0.045c0.976,0.166,1.463,0.684,1.463,1.537
			c0,0.574-0.194,1.021-0.582,1.35c-0.389,0.318-0.931,0.479-1.628,0.479h-2.241V307.742z M108.538,310.492h1.23
			c0.527,0,0.907-0.082,1.138-0.248c0.231-0.166,0.347-0.443,0.347-0.838c0-0.359-0.129-0.619-0.387-0.779
			c-0.258-0.158-0.668-0.238-1.23-0.238h-1.099L108.538,310.492L108.538,310.492z M108.538,311.125v2.404h1.34
			c0.519,0,0.909-0.102,1.171-0.303c0.262-0.199,0.394-0.52,0.394-0.941c0-0.396-0.134-0.689-0.402-0.879
			c-0.268-0.188-0.676-0.281-1.224-0.281H108.538L108.538,311.125z"/>
		<path fill="#444444" d="M119.199,310.945c0,1.027-0.26,1.836-0.78,2.426c-0.52,0.588-1.243,0.883-2.168,0.883
			c-0.946,0-1.676-0.287-2.191-0.867c-0.514-0.576-0.771-1.396-0.771-2.449c0-1.045,0.258-1.855,0.773-2.434
			c0.516-0.574,1.248-0.861,2.197-0.861c0.923,0,1.644,0.293,2.162,0.879S119.199,309.914,119.199,310.945z M114.079,310.945
			c0,0.869,0.185,1.529,0.556,1.98c0.37,0.449,0.909,0.676,1.615,0.676c0.712,0,1.25-0.227,1.613-0.674
			c0.363-0.447,0.545-1.107,0.545-1.98c0-0.861-0.181-1.521-0.543-1.967c-0.362-0.443-0.897-0.67-1.606-0.67
			c-0.712,0-1.253,0.229-1.624,0.674C114.264,309.433,114.079,310.086,114.079,310.945z"/>
		<path fill="#444444" d="M122.609,314.166h-0.747v-5.762h-2.035v-0.662h4.816v0.662h-2.035L122.609,314.166L122.609,314.166z"/>
		<path fill="#444444" d="M127.588,314.166h-0.747v-5.762h-2.035v-0.662h4.816v0.662h-2.035L127.588,314.166L127.588,314.166z"/>
		<path fill="#444444" d="M136.166,310.945c0,1.027-0.26,1.836-0.78,2.426c-0.52,0.588-1.243,0.883-2.168,0.883
			c-0.946,0-1.676-0.287-2.191-0.867c-0.514-0.576-0.771-1.396-0.771-2.449c0-1.045,0.258-1.855,0.773-2.434
			c0.516-0.574,1.248-0.861,2.197-0.861c0.923,0,1.644,0.293,2.162,0.879S136.166,309.914,136.166,310.945z M131.046,310.945
			c0,0.869,0.185,1.529,0.556,1.98c0.37,0.449,0.909,0.676,1.615,0.676c0.712,0,1.25-0.227,1.613-0.674
			c0.363-0.447,0.545-1.107,0.545-1.98c0-0.861-0.181-1.521-0.543-1.967c-0.362-0.443-0.897-0.67-1.606-0.67
			c-0.712,0-1.253,0.229-1.624,0.674C131.231,309.433,131.046,310.086,131.046,310.945z"/>
		<path fill="#444444" d="M140.442,314.166l-2.18-5.693h-0.035c0.041,0.449,0.062,0.986,0.062,1.607v4.086h-0.69v-6.424h1.125
			l2.035,5.299h0.035l2.052-5.299h1.116v6.424h-0.747v-4.141c0-0.479,0.021-0.988,0.062-1.547h-0.035l-2.198,5.688H140.442z"/>
		<path fill="#444444" d="M145.21,312.088v-0.668h2.158v0.668H145.21z"/>
		<path fill="#444444" d="M148.62,307.742h1.815c0.853,0,1.469,0.127,1.85,0.381c0.381,0.256,0.571,0.658,0.571,1.209
			c0,0.381-0.106,0.695-0.319,0.941c-0.212,0.248-0.522,0.408-0.929,0.479v0.045c0.976,0.166,1.463,0.684,1.463,1.537
			c0,0.574-0.194,1.021-0.582,1.35c-0.389,0.318-0.931,0.479-1.628,0.479h-2.241V307.742z M149.367,310.492h1.23
			c0.527,0,0.907-0.082,1.138-0.248s0.347-0.443,0.347-0.838c0-0.359-0.129-0.619-0.387-0.779c-0.258-0.158-0.668-0.238-1.23-0.238
			h-1.099L149.367,310.492L149.367,310.492z M149.367,311.125v2.404h1.34c0.519,0,0.909-0.102,1.171-0.303
			c0.262-0.199,0.394-0.52,0.394-0.941c0-0.396-0.134-0.689-0.402-0.879c-0.268-0.188-0.676-0.281-1.224-0.281H149.367
			L149.367,311.125z"/>
	</g>
	<path fill="#444444" d="M107.791,333.312h1.815c0.853,0,1.469,0.129,1.85,0.383c0.381,0.256,0.571,0.658,0.571,1.209
		c0,0.381-0.106,0.695-0.319,0.941c-0.212,0.248-0.522,0.406-0.929,0.479v0.043c0.976,0.168,1.463,0.684,1.463,1.539
		c0,0.574-0.194,1.021-0.582,1.348c-0.389,0.318-0.931,0.48-1.628,0.48h-2.241V333.312z M108.538,336.064h1.23
		c0.527,0,0.907-0.082,1.138-0.248c0.231-0.166,0.347-0.445,0.347-0.838c0-0.359-0.129-0.619-0.387-0.779
		c-0.258-0.16-0.668-0.24-1.23-0.24h-1.099L108.538,336.064L108.538,336.064z M108.538,336.697v2.404h1.34
		c0.519,0,0.909-0.104,1.171-0.305c0.262-0.197,0.394-0.518,0.394-0.939c0-0.398-0.134-0.691-0.402-0.879
		c-0.268-0.189-0.676-0.281-1.224-0.281H108.538L108.538,336.697z"/>
	<path fill="#444444" d="M119.199,336.517c0,1.025-0.26,1.836-0.78,2.426c-0.52,0.588-1.243,0.883-2.168,0.883
		c-0.946,0-1.676-0.289-2.191-0.869c-0.514-0.576-0.771-1.395-0.771-2.449c0-1.045,0.258-1.854,0.773-2.432
		c0.516-0.576,1.248-0.863,2.197-0.863c0.923,0,1.644,0.293,2.162,0.879S119.199,335.486,119.199,336.517z M114.079,336.517
		c0,0.869,0.185,1.527,0.556,1.979c0.37,0.449,0.909,0.676,1.615,0.676c0.712,0,1.25-0.227,1.613-0.674
		c0.363-0.447,0.545-1.107,0.545-1.98c0-0.861-0.181-1.521-0.543-1.967c-0.362-0.443-0.897-0.67-1.606-0.67
		c-0.712,0-1.253,0.229-1.624,0.674C114.264,335.006,114.079,335.658,114.079,336.517z"/>
	<path fill="#444444" d="M122.609,339.738h-0.747v-5.762h-2.035v-0.664h4.816v0.664h-2.035L122.609,339.738L122.609,339.738z"/>
	<path fill="#444444" d="M127.588,339.738h-0.747v-5.762h-2.035v-0.664h4.816v0.664h-2.035L127.588,339.738L127.588,339.738z"/>
	<path fill="#444444" d="M136.166,336.517c0,1.025-0.26,1.836-0.78,2.426c-0.52,0.588-1.243,0.883-2.168,0.883
		c-0.946,0-1.676-0.289-2.191-0.869c-0.514-0.576-0.771-1.395-0.771-2.449c0-1.045,0.258-1.854,0.773-2.432
		c0.516-0.576,1.248-0.863,2.197-0.863c0.923,0,1.644,0.293,2.162,0.879S136.166,335.486,136.166,336.517z M131.046,336.517
		c0,0.869,0.185,1.527,0.556,1.979c0.37,0.449,0.909,0.676,1.615,0.676c0.712,0,1.25-0.227,1.613-0.674
		c0.363-0.447,0.545-1.107,0.545-1.98c0-0.861-0.181-1.521-0.543-1.967c-0.362-0.443-0.897-0.67-1.606-0.67
		c-0.712,0-1.253,0.229-1.624,0.674C131.231,335.006,131.046,335.658,131.046,336.517z"/>
	<path fill="#444444" d="M140.442,339.738l-2.18-5.695h-0.035c0.041,0.451,0.062,0.986,0.062,1.607v4.088h-0.69v-6.426h1.125
		l2.035,5.301h0.035l2.052-5.301h1.116v6.426h-0.747v-4.141c0-0.48,0.021-0.99,0.062-1.547h-0.035l-2.198,5.688H140.442z"/>
	<path fill="#444444" d="M145.21,337.66v-0.668h2.158v0.668H145.21z"/>
	<g>
		<path fill="#444444" d="M107.858,280.742h1.815c0.853,0,1.469,0.127,1.85,0.381c0.381,0.256,0.571,0.658,0.571,1.209
			c0,0.381-0.106,0.695-0.319,0.941c-0.212,0.248-0.522,0.408-0.929,0.479v0.045c0.976,0.166,1.463,0.684,1.463,1.537
			c0,0.574-0.194,1.021-0.582,1.35c-0.389,0.318-0.931,0.479-1.628,0.479h-2.241V280.742z M108.605,283.492h1.23
			c0.527,0,0.907-0.082,1.138-0.248s0.347-0.443,0.347-0.838c0-0.359-0.129-0.619-0.387-0.779c-0.258-0.158-0.668-0.238-1.23-0.238
			h-1.099L108.605,283.492L108.605,283.492z M108.605,284.125v2.404h1.34c0.519,0,0.909-0.104,1.171-0.303
			c0.262-0.199,0.394-0.52,0.394-0.941c0-0.396-0.134-0.689-0.402-0.879c-0.268-0.188-0.676-0.281-1.224-0.281H108.605
			L108.605,284.125z"/>
		<path fill="#444444" d="M119.267,283.945c0,1.027-0.26,1.836-0.78,2.426c-0.52,0.588-1.243,0.883-2.168,0.883
			c-0.946,0-1.676-0.287-2.191-0.865c-0.514-0.578-0.771-1.396-0.771-2.451c0-1.045,0.258-1.855,0.773-2.434
			c0.516-0.574,1.248-0.861,2.197-0.861c0.923,0,1.644,0.293,2.162,0.879C119.007,282.105,119.267,282.914,119.267,283.945z
			 M114.147,283.945c0,0.869,0.185,1.529,0.556,1.98c0.37,0.449,0.909,0.676,1.615,0.676c0.712,0,1.25-0.227,1.613-0.674
			c0.363-0.447,0.545-1.107,0.545-1.98c0-0.865-0.181-1.52-0.543-1.969c-0.362-0.445-0.897-0.67-1.606-0.67
			c-0.712,0-1.253,0.227-1.624,0.674C114.332,282.433,114.147,283.086,114.147,283.945z"/>
		<path fill="#444444" d="M122.677,287.166h-0.747v-5.762h-2.035v-0.662h4.816v0.662h-2.035L122.677,287.166L122.677,287.166z"/>
		<path fill="#444444" d="M127.656,287.166h-0.747v-5.762h-2.035v-0.662h4.816v0.662h-2.035L127.656,287.166L127.656,287.166z"/>
		<path fill="#444444" d="M136.234,283.945c0,1.027-0.26,1.836-0.78,2.426c-0.52,0.588-1.243,0.883-2.168,0.883
			c-0.946,0-1.676-0.287-2.191-0.865c-0.514-0.578-0.771-1.396-0.771-2.451c0-1.045,0.258-1.855,0.773-2.434
			c0.516-0.574,1.248-0.861,2.197-0.861c0.923,0,1.644,0.293,2.162,0.879S136.234,282.914,136.234,283.945z M131.114,283.945
			c0,0.869,0.185,1.529,0.556,1.98c0.37,0.449,0.909,0.676,1.615,0.676c0.712,0,1.25-0.227,1.613-0.674
			c0.363-0.447,0.545-1.107,0.545-1.98c0-0.865-0.181-1.52-0.543-1.969c-0.362-0.445-0.897-0.67-1.606-0.67
			c-0.712,0-1.253,0.227-1.624,0.674C131.299,282.433,131.114,283.086,131.114,283.945z"/>
		<path fill="#444444" d="M140.51,287.166l-2.18-5.693h-0.035c0.041,0.449,0.062,0.986,0.062,1.607v4.086h-0.69v-6.424h1.125
			l2.035,5.299h0.035l2.052-5.299h1.116v6.424h-0.747v-4.141c0-0.479,0.021-0.988,0.062-1.547h-0.035l-2.198,5.688H140.51z"/>
		<path fill="#444444" d="M145.278,285.088v-0.668h2.158v0.668H145.278z"/>
		<path fill="#444444" d="M152.727,287.166l-0.8-2.043h-2.575l-0.791,2.043h-0.756l2.54-6.449h0.628l2.527,6.449H152.727z
			 M151.694,284.451l-0.747-1.992c-0.097-0.252-0.196-0.561-0.299-0.926c-0.064,0.279-0.157,0.59-0.277,0.926l-0.756,1.992H151.694z
			"/>
	</g>
	<g>
		<rect id="footer" y="380.166" opacity="0.05" enable-background="new    " width="260" height="17"/>
		<path fill="#444444" d="M114.763,392.166h-0.747v-6.426h3.582v0.664h-2.834v2.352h2.663v0.664h-2.663L114.763,392.166
			L114.763,392.166z"/>
		<path fill="#444444" d="M124.237,388.945c0,1.025-0.26,1.836-0.78,2.426c-0.52,0.588-1.243,0.883-2.168,0.883
			c-0.946,0-1.676-0.289-2.191-0.869c-0.514-0.576-0.771-1.395-0.771-2.449c0-1.045,0.258-1.854,0.773-2.432
			c0.516-0.576,1.248-0.863,2.197-0.863c0.923,0,1.644,0.293,2.162,0.879S124.237,387.914,124.237,388.945z M119.118,388.945
			c0,0.869,0.185,1.529,0.556,1.979c0.37,0.449,0.909,0.676,1.615,0.676c0.712,0,1.25-0.227,1.613-0.674
			c0.363-0.447,0.545-1.107,0.545-1.98c0-0.861-0.181-1.521-0.543-1.967c-0.362-0.443-0.897-0.67-1.606-0.67
			c-0.712,0-1.253,0.229-1.624,0.674C119.303,387.433,119.118,388.086,119.118,388.945z"/>
		<path fill="#444444" d="M131.247,388.945c0,1.025-0.26,1.836-0.78,2.426c-0.52,0.588-1.243,0.883-2.168,0.883
			c-0.946,0-1.676-0.289-2.191-0.869c-0.514-0.576-0.771-1.395-0.771-2.449c0-1.045,0.258-1.854,0.773-2.432
			c0.516-0.576,1.248-0.863,2.197-0.863c0.923,0,1.644,0.293,2.162,0.879C130.987,387.105,131.247,387.914,131.247,388.945z
			 M126.127,388.945c0,0.869,0.185,1.529,0.556,1.979c0.37,0.449,0.909,0.676,1.615,0.676c0.712,0,1.25-0.227,1.613-0.674
			c0.363-0.447,0.545-1.107,0.545-1.98c0-0.861-0.181-1.521-0.543-1.967c-0.362-0.443-0.897-0.67-1.606-0.67
			c-0.712,0-1.253,0.229-1.624,0.674C126.312,387.433,126.127,388.086,126.127,388.945z"/>
		<path fill="#444444" d="M134.657,392.166h-0.747v-5.762h-2.035v-0.664h4.816v0.664h-2.035v5.762H134.657z"/>
		<path fill="#444444" d="M141.24,392.166h-3.582v-6.426h3.582v0.664h-2.834v2.07h2.663v0.652h-2.663v2.365h2.834V392.166z"/>
		<path fill="#444444" d="M143.411,389.494v2.672h-0.747v-6.426h1.762c0.788,0,1.37,0.152,1.747,0.453
			c0.376,0.303,0.564,0.756,0.564,1.363c0,0.85-0.431,1.424-1.292,1.723l1.745,2.887h-0.883l-1.556-2.672H143.411z M143.411,388.853
			h1.024c0.527,0,0.914-0.104,1.16-0.312c0.246-0.209,0.369-0.52,0.369-0.938c0-0.43-0.125-0.729-0.376-0.918
			c-0.25-0.188-0.652-0.279-1.206-0.279h-0.971V388.853L143.411,388.853z"/>
	</g>
	<g>
		<path fill="#444444" d="M14.703,239.623c0.565,0,1.006,0.205,1.323,0.615s0.474,0.967,0.474,1.67c0,0.762-0.098,1.35-0.294,1.758
			h-0.721c0.111-0.264,0.199-0.551,0.264-0.859c0.065-0.311,0.097-0.617,0.097-0.924c0-0.498-0.094-0.873-0.284-1.125
			c-0.188-0.252-0.452-0.379-0.789-0.379c-0.223,0-0.405,0.047-0.547,0.137s-0.273,0.236-0.393,0.445
			c-0.12,0.211-0.256,0.529-0.409,0.957c-0.214,0.6-0.467,1.023-0.76,1.281c-0.293,0.256-0.675,0.383-1.147,0.383
			c-0.495,0-0.889-0.186-1.182-0.559c-0.293-0.371-0.439-0.863-0.439-1.479c0-0.641,0.117-1.229,0.352-1.762l0.65,0.229
			c-0.223,0.529-0.334,1.049-0.334,1.549c0,0.395,0.085,0.705,0.255,0.93c0.17,0.223,0.406,0.334,0.708,0.334
			c0.223,0,0.405-0.041,0.547-0.123c0.143-0.082,0.272-0.223,0.392-0.416c0.118-0.193,0.25-0.492,0.393-0.895
			c0.24-0.678,0.498-1.141,0.773-1.395C13.906,239.75,14.263,239.623,14.703,239.623z"/>
		<path fill="#444444" d="M16.412,238.308H9.987v-0.746h6.425V238.308z"/>
		<path fill="#444444" d="M13.138,230.672c1.061,0,1.872,0.287,2.432,0.863c0.562,0.574,0.842,1.402,0.842,2.484v1.775H9.987v-1.969
			c0-1,0.277-1.771,0.831-2.33C11.372,230.947,12.145,230.672,13.138,230.672z M13.165,231.463c-0.838,0-1.469,0.211-1.894,0.631
			c-0.425,0.422-0.637,1.047-0.637,1.875v1.086h5.133v-0.91c0-0.893-0.219-1.562-0.657-2.01S14.023,231.463,13.165,231.463z"/>
		<path fill="#444444" d="M16.412,225.658v3.582H9.987v-3.582h0.664v2.834h2.07v-2.664h0.659v2.664h2.364v-2.834H16.412z"/>
		<path fill="#444444" d="M9.987,224.232v-1.814c0-0.854,0.127-1.469,0.382-1.85s0.658-0.57,1.208-0.57
			c0.381,0,0.695,0.105,0.942,0.318c0.248,0.211,0.408,0.521,0.481,0.93h0.044c0.167-0.977,0.68-1.463,1.538-1.463
			c0.574,0,1.022,0.193,1.345,0.582c0.322,0.389,0.483,0.93,0.483,1.627v2.24H9.987L9.987,224.232z M12.738,223.486v-1.229
			c0-0.527-0.083-0.906-0.248-1.139c-0.165-0.23-0.445-0.348-0.837-0.348c-0.36,0-0.62,0.129-0.78,0.387s-0.24,0.668-0.24,1.23
			v1.098H12.738L12.738,223.486z M13.371,223.486h2.404v-1.34c0-0.521-0.1-0.91-0.301-1.172c-0.2-0.266-0.515-0.396-0.942-0.396
			c-0.398,0-0.691,0.135-0.879,0.398c-0.188,0.271-0.281,0.68-0.281,1.229L13.371,223.486L13.371,223.486z"/>
		<path fill="#444444" d="M16.412,214.363l-2.043,0.801v2.574l2.043,0.791v0.756l-6.451-2.539v-0.629l6.451-2.525V214.363z
			 M13.696,215.396l-1.991,0.746c-0.252,0.098-0.561,0.191-0.927,0.299c0.281,0.062,0.59,0.158,0.927,0.273l1.991,0.76V215.396z"/>
		<path fill="#444444" d="M13.74,211.959h2.672v0.748H9.987v-1.764c0-0.787,0.151-1.369,0.453-1.746
			c0.302-0.377,0.756-0.563,1.362-0.563c0.85,0,1.424,0.432,1.723,1.292l2.887-1.745v0.883l-2.672,1.562V211.959z M13.099,211.959
			v-1.021c0-0.523-0.104-0.914-0.314-1.161c-0.209-0.242-0.523-0.365-0.942-0.365c-0.425,0-0.731,0.125-0.918,0.376
			c-0.188,0.25-0.281,0.648-0.281,1.207v0.971L13.099,211.959L13.099,211.959z"/>
		<path fill="#444444" d="M14.333,207.657h-0.668v-2.158h0.668V207.657z"/>
		<path fill="#444444" d="M16.412,200.208l-2.043,0.801v2.574l2.043,0.791v0.756l-6.451-2.539v-0.629l6.451-2.525V200.208z
			 M13.696,201.241l-1.991,0.747c-0.252,0.097-0.561,0.195-0.927,0.299c0.281,0.064,0.59,0.156,0.927,0.277l1.991,0.756V201.241z"/>
	</g>
	<g>
		<path fill="#444444" d="M46.307,239.494c0.565,0,1.006,0.205,1.323,0.615s0.474,0.967,0.474,1.67c0,0.762-0.098,1.348-0.294,1.758
			h-0.721c0.111-0.264,0.199-0.551,0.264-0.859c0.065-0.311,0.097-0.617,0.097-0.924c0-0.498-0.094-0.873-0.284-1.125
			c-0.188-0.252-0.452-0.379-0.789-0.379c-0.223,0-0.405,0.045-0.547,0.135c-0.142,0.092-0.273,0.238-0.393,0.447
			c-0.12,0.211-0.256,0.527-0.409,0.957c-0.214,0.6-0.467,1.023-0.76,1.279c-0.293,0.258-0.675,0.385-1.147,0.385
			c-0.495,0-0.889-0.186-1.182-0.559c-0.293-0.371-0.439-0.863-0.439-1.479c0-0.643,0.117-1.229,0.352-1.766l0.65,0.23
			c-0.223,0.531-0.334,1.049-0.334,1.549c0,0.395,0.085,0.705,0.255,0.928c0.17,0.225,0.406,0.334,0.708,0.334
			c0.223,0,0.405-0.041,0.547-0.121c0.143-0.082,0.272-0.223,0.392-0.416c0.118-0.193,0.25-0.492,0.393-0.895
			c0.24-0.676,0.498-1.139,0.773-1.393C45.51,239.621,45.867,239.494,46.307,239.494z"/>
		<path fill="#444444" d="M48.016,238.181h-6.425v-0.746h6.425V238.181z"/>
		<path fill="#444444" d="M44.742,230.543c1.061,0,1.872,0.287,2.432,0.863c0.562,0.574,0.842,1.402,0.842,2.484v1.775h-6.425
			v-1.969c0-1,0.277-1.775,0.831-2.33C42.976,230.818,43.749,230.543,44.742,230.543z M44.769,231.334
			c-0.838,0-1.469,0.209-1.894,0.631s-0.637,1.045-0.637,1.873v1.086h5.133v-0.908c0-0.893-0.219-1.562-0.657-2.01
			S45.627,231.334,44.769,231.334z"/>
		<path fill="#444444" d="M48.016,225.527v3.582h-6.425v-3.582h0.664v2.834h2.07v-2.662h0.659v2.662h2.364v-2.834H48.016z"/>
		<path fill="#444444" d="M41.591,224.103v-1.812c0-0.854,0.127-1.469,0.382-1.852c0.255-0.381,0.658-0.568,1.208-0.568
			c0.381,0,0.695,0.104,0.942,0.316c0.248,0.211,0.408,0.52,0.481,0.932h0.044c0.167-0.979,0.68-1.467,1.538-1.467
			c0.574,0,1.022,0.195,1.345,0.582c0.322,0.393,0.483,0.934,0.483,1.631v2.238H41.591L41.591,224.103z M44.342,223.357v-1.23
			c0-0.525-0.083-0.904-0.248-1.137c-0.165-0.23-0.445-0.348-0.837-0.348c-0.36,0-0.62,0.129-0.78,0.387s-0.24,0.668-0.24,1.23v1.1
			h2.105V223.357z M44.975,223.357h2.404v-1.34c0-0.521-0.1-0.91-0.301-1.172c-0.2-0.266-0.515-0.396-0.942-0.396
			c-0.398,0-0.691,0.135-0.879,0.398c-0.188,0.271-0.281,0.676-0.281,1.229L44.975,223.357L44.975,223.357z"/>
		<path fill="#444444" d="M48.016,214.234l-2.043,0.801v2.574l2.043,0.791v0.756l-6.451-2.539v-0.629l6.451-2.527V214.234z
			 M45.3,215.267l-1.991,0.746c-0.252,0.1-0.561,0.195-0.927,0.299c0.281,0.064,0.59,0.158,0.927,0.277l1.991,0.756V215.267z"/>
		<path fill="#444444" d="M45.344,211.83h2.672v0.748h-6.425v-1.764c0-0.787,0.151-1.369,0.453-1.746
			c0.302-0.377,0.756-0.564,1.362-0.564c0.85,0,1.424,0.433,1.723,1.292l2.887-1.744v0.883l-2.672,1.562V211.83z M44.703,211.83
			v-1.021c0-0.523-0.104-0.915-0.314-1.161c-0.209-0.246-0.523-0.369-0.942-0.369c-0.425,0-0.731,0.125-0.918,0.375
			c-0.188,0.25-0.281,0.653-0.281,1.208v0.975L44.703,211.83L44.703,211.83z"/>
		<path fill="#444444" d="M45.937,207.527h-0.668v-2.157h0.668V207.527z"/>
		<path fill="#444444" d="M41.591,204.118v-1.814c0-0.854,0.127-1.47,0.382-1.851c0.255-0.381,0.658-0.57,1.208-0.57
			c0.381,0,0.695,0.105,0.942,0.318c0.248,0.212,0.408,0.521,0.481,0.929h0.044c0.167-0.976,0.68-1.463,1.538-1.463
			c0.574,0,1.022,0.194,1.345,0.582c0.322,0.391,0.483,0.932,0.483,1.628v2.241H41.591z M44.342,203.371v-1.229
			c0-0.524-0.083-0.906-0.248-1.139c-0.165-0.23-0.445-0.347-0.837-0.347c-0.36,0-0.62,0.129-0.78,0.387
			c-0.16,0.259-0.24,0.668-0.24,1.23v1.099L44.342,203.371L44.342,203.371z M44.975,203.371h2.404v-1.34
			c0-0.521-0.1-0.909-0.301-1.172c-0.2-0.262-0.515-0.395-0.942-0.395c-0.398,0-0.691,0.135-0.879,0.401
			c-0.188,0.268-0.281,0.676-0.281,1.225L44.975,203.371L44.975,203.371z"/>
	</g>
	<g>
		<path fill="#444444" d="M218.308,240.623c0.565,0,1.006,0.205,1.323,0.615c0.317,0.41,0.475,0.967,0.475,1.67
			c0,0.762-0.098,1.35-0.294,1.758h-0.721c0.111-0.264,0.199-0.551,0.264-0.859c0.065-0.311,0.097-0.617,0.097-0.924
			c0-0.498-0.094-0.873-0.284-1.125c-0.188-0.252-0.452-0.379-0.789-0.379c-0.223,0-0.405,0.047-0.547,0.137
			s-0.273,0.236-0.393,0.445c-0.12,0.211-0.256,0.529-0.409,0.957c-0.214,0.6-0.467,1.023-0.76,1.281
			c-0.293,0.256-0.675,0.383-1.147,0.383c-0.495,0-0.889-0.186-1.182-0.559c-0.293-0.371-0.441-0.863-0.441-1.479
			c0-0.639,0.117-1.229,0.352-1.762l0.65,0.229c-0.223,0.529-0.334,1.045-0.334,1.547c0,0.396,0.085,0.705,0.255,0.932
			c0.17,0.221,0.406,0.334,0.708,0.334c0.223,0,0.405-0.041,0.547-0.123c0.143-0.082,0.272-0.225,0.392-0.416
			c0.118-0.193,0.25-0.494,0.393-0.896c0.24-0.676,0.498-1.139,0.773-1.393C217.511,240.75,217.868,240.623,218.308,240.623z"/>
		<path fill="#444444" d="M220.017,239.308h-6.425v-0.746h6.425V239.308z"/>
		<path fill="#444444" d="M216.743,231.672c1.061,0,1.872,0.287,2.432,0.863c0.562,0.574,0.842,1.402,0.842,2.484v1.775h-6.425
			v-1.969c0-1,0.277-1.771,0.831-2.33C214.977,231.947,215.75,231.672,216.743,231.672z M216.77,232.463
			c-0.838,0-1.469,0.211-1.894,0.631c-0.425,0.422-0.637,1.047-0.637,1.875v1.086h5.133v-0.91c0-0.893-0.219-1.562-0.657-2.01
			S217.628,232.463,216.77,232.463z"/>
		<path fill="#444444" d="M220.017,226.658v3.582h-6.425v-3.582h0.664v2.834h2.07v-2.664h0.659v2.664h2.364v-2.834H220.017z"/>
		<path fill="#444444" d="M213.592,225.232v-1.814c0-0.854,0.127-1.469,0.382-1.85c0.255-0.381,0.658-0.57,1.208-0.57
			c0.381,0,0.695,0.105,0.942,0.318c0.248,0.211,0.408,0.521,0.481,0.93h0.044c0.167-0.977,0.68-1.463,1.538-1.463
			c0.574,0,1.022,0.193,1.345,0.582c0.322,0.389,0.483,0.93,0.483,1.627v2.24H213.592L213.592,225.232z M216.343,224.486v-1.229
			c0-0.527-0.083-0.906-0.248-1.139c-0.165-0.23-0.445-0.348-0.837-0.348c-0.36,0-0.62,0.129-0.78,0.387s-0.24,0.668-0.24,1.23
			v1.098H216.343L216.343,224.486z M216.976,224.486h2.404v-1.34c0-0.521-0.1-0.91-0.301-1.172c-0.2-0.266-0.515-0.396-0.942-0.396
			c-0.398,0-0.691,0.135-0.879,0.398c-0.188,0.271-0.281,0.68-0.281,1.229L216.976,224.486L216.976,224.486z"/>
		<path fill="#444444" d="M220.017,215.363l-2.043,0.801v2.574l2.043,0.791v0.756l-6.451-2.539v-0.629l6.451-2.525V215.363z
			 M217.301,216.396l-1.991,0.746c-0.252,0.098-0.561,0.191-0.927,0.299c0.281,0.062,0.59,0.158,0.927,0.273l1.991,0.76V216.396z"/>
		<path fill="#444444" d="M217.345,212.959h2.672v0.748h-6.425v-1.764c0-0.787,0.151-1.369,0.453-1.746
			c0.302-0.377,0.756-0.563,1.362-0.563c0.85,0,1.424,0.433,1.723,1.292l2.887-1.745v0.884l-2.672,1.561V212.959z M216.704,212.959
			v-1.021c0-0.523-0.104-0.914-0.314-1.16c-0.209-0.242-0.523-0.365-0.942-0.365c-0.425,0-0.731,0.125-0.918,0.375
			c-0.188,0.25-0.281,0.648-0.281,1.207v0.971L216.704,212.959L216.704,212.959z"/>
		<path fill="#444444" d="M217.938,208.657h-0.668v-2.158h0.668V208.657z"/>
		<path fill="#444444" d="M220.017,201.208l-2.043,0.801v2.574l2.043,0.791v0.756l-6.451-2.539v-0.629l6.451-2.525V201.208z
			 M217.301,202.241l-1.991,0.747c-0.252,0.097-0.561,0.195-0.927,0.299c0.281,0.064,0.59,0.156,0.927,0.277l1.991,0.756V202.241z"
			/>
	</g>
	<g>
		<path fill="#444444" d="M249.702,240.494c0.565,0,1.007,0.205,1.323,0.613c0.315,0.41,0.475,0.969,0.475,1.67
			c0,0.764-0.1,1.35-0.295,1.76h-0.721c0.111-0.266,0.199-0.553,0.264-0.861c0.064-0.309,0.098-0.615,0.098-0.924
			c0-0.498-0.096-0.873-0.285-1.125c-0.188-0.252-0.451-0.377-0.787-0.377c-0.224,0-0.405,0.045-0.549,0.135
			c-0.141,0.092-0.271,0.238-0.393,0.447c-0.12,0.209-0.256,0.527-0.408,0.955c-0.215,0.602-0.468,1.023-0.761,1.281
			c-0.293,0.256-0.675,0.385-1.147,0.385c-0.494,0-0.889-0.188-1.182-0.561c-0.293-0.371-0.439-0.863-0.439-1.479
			c0-0.643,0.117-1.229,0.352-1.764l0.65,0.23c-0.224,0.529-0.334,1.047-0.334,1.549c0,0.395,0.084,0.705,0.254,0.926
			c0.17,0.225,0.406,0.334,0.709,0.334c0.223,0,0.404-0.039,0.547-0.121c0.143-0.08,0.271-0.221,0.392-0.416
			c0.118-0.193,0.25-0.492,0.394-0.896c0.24-0.674,0.498-1.139,0.772-1.393C248.904,240.621,249.262,240.494,249.702,240.494z"/>
		<path fill="#444444" d="M251.412,239.181h-6.426v-0.746h6.426V239.181z"/>
		<path fill="#444444" d="M248.137,231.541c1.062,0,1.872,0.289,2.434,0.863c0.561,0.574,0.842,1.402,0.842,2.484v1.775h-6.426
			v-1.969c0-0.998,0.277-1.775,0.832-2.328C246.372,231.816,247.145,231.541,248.137,231.541z M248.164,232.332
			c-0.838,0-1.469,0.211-1.895,0.631c-0.424,0.422-0.637,1.047-0.637,1.875v1.084h5.133v-0.906c0-0.895-0.219-1.562-0.656-2.012
			C249.67,232.558,249.021,232.332,248.164,232.332z"/>
		<path fill="#444444" d="M251.412,226.527v3.582h-6.426v-3.582h0.664v2.834h2.07v-2.662h0.659v2.662h2.365v-2.834H251.412z"/>
		<path fill="#444444" d="M244.986,225.103v-1.812c0-0.854,0.127-1.471,0.382-1.852c0.255-0.381,0.657-0.568,1.208-0.568
			c0.381,0,0.695,0.104,0.941,0.316c0.248,0.211,0.408,0.52,0.482,0.932h0.043c0.168-0.979,0.68-1.467,1.539-1.467
			c0.574,0,1.021,0.195,1.344,0.582c0.322,0.393,0.484,0.934,0.484,1.631v2.238H244.986L244.986,225.103z M247.736,224.355v-1.229
			c0-0.525-0.082-0.904-0.248-1.139c-0.164-0.23-0.444-0.348-0.836-0.348c-0.36,0-0.62,0.129-0.78,0.387
			c-0.16,0.26-0.24,0.668-0.24,1.229v1.102h2.104V224.355z M248.371,224.355h2.402v-1.34c0-0.521-0.101-0.91-0.301-1.174
			c-0.199-0.264-0.515-0.395-0.941-0.395c-0.398,0-0.691,0.133-0.879,0.398c-0.188,0.27-0.281,0.676-0.281,1.227V224.355z"/>
		<path fill="#444444" d="M251.412,215.232l-2.044,0.801v2.574l2.044,0.791v0.756l-6.452-2.539v-0.629l6.452-2.525V215.232z
			 M248.695,216.267l-1.99,0.746c-0.252,0.1-0.561,0.195-0.928,0.299c0.281,0.062,0.591,0.158,0.928,0.275l1.99,0.758V216.267z"/>
		<path fill="#444444" d="M248.74,212.83h2.672v0.746h-6.426v-1.764c0-0.787,0.152-1.369,0.453-1.746
			c0.303-0.377,0.756-0.563,1.362-0.563c0.851,0,1.425,0.435,1.724,1.292l2.888-1.744v0.885l-2.672,1.559L248.74,212.83
			L248.74,212.83z M248.098,212.83v-1.021c0-0.525-0.104-0.914-0.314-1.16c-0.209-0.246-0.523-0.369-0.942-0.369
			c-0.425,0-0.731,0.125-0.918,0.375c-0.188,0.25-0.28,0.652-0.28,1.207v0.973L248.098,212.83L248.098,212.83z"/>
		<path fill="#444444" d="M249.332,208.527h-0.668v-2.158h0.668V208.527z"/>
		<path fill="#444444" d="M244.986,205.117v-1.814c0-0.854,0.127-1.47,0.382-1.851c0.255-0.381,0.657-0.57,1.208-0.57
			c0.381,0,0.695,0.104,0.941,0.318c0.248,0.212,0.408,0.521,0.482,0.929h0.043c0.168-0.977,0.68-1.463,1.539-1.463
			c0.574,0,1.021,0.193,1.344,0.582c0.322,0.392,0.484,0.933,0.484,1.628v2.241H244.986z M247.736,204.37v-1.229
			c0-0.523-0.082-0.906-0.248-1.14c-0.164-0.229-0.444-0.347-0.836-0.347c-0.36,0-0.62,0.129-0.78,0.387
			c-0.16,0.259-0.24,0.668-0.24,1.229v1.1L247.736,204.37L247.736,204.37z M248.371,204.37h2.402v-1.34
			c0-0.521-0.101-0.909-0.301-1.171c-0.199-0.264-0.515-0.396-0.941-0.396c-0.398,0-0.691,0.135-0.879,0.401
			c-0.188,0.268-0.281,0.676-0.281,1.224V204.37z"/>
	</g>
	<g id="equal_bg" opacity="0.1">
		<rect x="300" y="231.189" fill="#777777" width="260" height="27"/>
	</g>
	<g id="widget_2_" opacity="0.15">
		<rect x="354" y="236.189" width="64" height="17"/>
	</g>
	<g id="widget_1_" opacity="0.15">
		<rect x="423" y="236.189" width="63" height="17"/>
	</g>
	<g id="widget" opacity="0.15">
		<rect x="491" y="236.189" width="64" height="17"/>
	</g>
	<g id="double_bg" opacity="0.1">
		<rect x="300" y="317.189" fill="#777777" width="260" height="27"/>
	</g>
	<g id="widget_4_" opacity="0.15">
		<rect x="354" y="322.189" width="132" height="17"/>
	</g>
	<g id="widget_3_" opacity="0.15">
		<rect x="491" y="322.189" width="64" height="17"/>
	</g>
	<g id="stack_bg" opacity="0.1">
		<rect x="300" y="263.189" fill="#777777" width="260" height="49"/>
	</g>
	<g id="widget_5_" opacity="0.15">
		<rect x="354" y="268.189" width="201" height="17"/>
	</g>
	<g id="widget_6_" opacity="0.15">
		<rect x="354" y="290.189" width="201" height="17"/>
	</g>
	<g>
		<path fill="#444444" d="M309.375,216.066h-1.066l-1.871-6.215c-0.09-0.275-0.188-0.621-0.299-1.041
			c-0.108-0.418-0.168-0.67-0.172-0.754c-0.093,0.559-0.24,1.17-0.442,1.834l-1.813,6.176h-1.062l-2.473-9.279h1.146l1.468,5.73
			c0.202,0.805,0.353,1.531,0.442,2.184c0.11-0.77,0.279-1.531,0.508-2.27l1.664-5.646h1.144l1.745,5.693
			c0.201,0.652,0.375,1.395,0.516,2.221c0.079-0.6,0.231-1.33,0.456-2.193l1.46-5.719h1.146L309.375,216.066z"/>
		<path fill="#444444" d="M313.062,207.226c0-0.242,0.061-0.418,0.179-0.531c0.118-0.111,0.267-0.168,0.441-0.168
			c0.168,0,0.312,0.059,0.438,0.172c0.123,0.113,0.186,0.289,0.186,0.527c0,0.232-0.062,0.414-0.186,0.525
			c-0.122,0.117-0.271,0.18-0.438,0.18c-0.181,0-0.323-0.062-0.441-0.18S313.062,207.461,313.062,207.226z M314.206,216.066h-1.054
			v-6.957h1.054V216.066z"/>
		<path fill="#444444" d="M321.176,215.131h-0.058c-0.486,0.707-1.214,1.062-2.188,1.062c-0.905,0-1.614-0.312-2.123-0.936
			c-0.506-0.619-0.76-1.506-0.76-2.65c0-1.146,0.256-2.039,0.767-2.672c0.509-0.637,1.215-0.953,2.116-0.953
			c0.942,0,1.668,0.344,2.175,1.027h0.079l-0.045-0.502l-0.021-0.486v-2.832h1.055v9.877h-0.854L321.176,215.131z M319.068,215.312
			c0.72,0,1.237-0.195,1.562-0.586c0.324-0.395,0.485-1.023,0.485-1.896v-0.225c0-0.984-0.163-1.689-0.491-2.109
			c-0.328-0.424-0.854-0.633-1.571-0.633c-0.615,0-1.091,0.24-1.419,0.723c-0.325,0.479-0.489,1.156-0.489,2.035
			c0,0.889,0.162,1.561,0.486,2.012C317.959,215.084,318.438,215.312,319.068,215.312z"/>
		<path fill="#444444" d="M330.1,209.109v0.666l-1.284,0.15c0.114,0.146,0.227,0.344,0.313,0.582
			c0.094,0.238,0.141,0.51,0.141,0.811c0,0.682-0.229,1.227-0.696,1.631c-0.465,0.406-1.104,0.609-1.914,0.609
			c-0.207,0-0.402-0.018-0.586-0.053c-0.446,0.238-0.674,0.535-0.674,0.896c0,0.188,0.075,0.33,0.231,0.422
			c0.157,0.092,0.426,0.139,0.81,0.139h1.229c0.753,0,1.332,0.158,1.735,0.479c0.401,0.314,0.604,0.775,0.604,1.383
			c0,0.771-0.31,1.357-0.928,1.764c-0.617,0.402-1.521,0.605-2.703,0.605c-0.91,0-1.608-0.168-2.104-0.508
			c-0.491-0.344-0.737-0.816-0.737-1.439c0-0.424,0.135-0.789,0.405-1.1c0.27-0.311,0.646-0.521,1.144-0.627
			c-0.178-0.082-0.327-0.205-0.446-0.375c-0.121-0.17-0.183-0.367-0.183-0.592c0-0.256,0.062-0.477,0.203-0.666
			c0.136-0.191,0.35-0.375,0.641-0.555c-0.355-0.146-0.648-0.396-0.879-0.754c-0.228-0.354-0.34-0.764-0.34-1.221
			c0-0.762,0.229-1.354,0.687-1.762c0.457-0.412,1.104-0.619,1.942-0.619c0.363,0,0.69,0.043,0.981,0.127L330.1,209.109
			L330.1,209.109z M324.553,217.234c0,0.375,0.158,0.662,0.479,0.855c0.315,0.191,0.771,0.291,1.36,0.291
			c0.888,0,1.541-0.131,1.968-0.396c0.429-0.264,0.642-0.623,0.642-1.074c0-0.377-0.117-0.639-0.353-0.783
			c-0.229-0.145-0.673-0.221-1.312-0.221h-1.265c-0.479,0-0.854,0.113-1.115,0.344C324.688,216.48,324.553,216.808,324.553,217.234z
			 M325.123,211.336c0,0.484,0.138,0.855,0.413,1.105c0.271,0.25,0.657,0.375,1.146,0.375c1.024,0,1.541-0.5,1.541-1.498
			c0-1.045-0.521-1.566-1.562-1.566c-0.495,0-0.876,0.133-1.146,0.398C325.255,210.418,325.123,210.814,325.123,211.336z"/>
		<path fill="#444444" d="M334.469,216.193c-1.026,0-1.84-0.312-2.435-0.939c-0.595-0.625-0.895-1.496-0.895-2.604
			c0-1.121,0.272-2.018,0.828-2.672c0.554-0.66,1.293-0.99,2.228-0.99c0.871,0,1.562,0.287,2.065,0.859
			c0.511,0.568,0.765,1.326,0.765,2.27v0.668h-4.791c0.021,0.816,0.227,1.438,0.614,1.859c0.395,0.424,0.94,0.635,1.651,0.635
			c0.75,0,1.49-0.154,2.227-0.469v0.938c-0.371,0.16-0.729,0.275-1.062,0.346C335.339,216.158,334.938,216.193,334.469,216.193z
			 M334.184,209.863c-0.56,0-1.004,0.184-1.336,0.547s-0.526,0.867-0.588,1.512h3.637c0-0.666-0.146-1.174-0.438-1.521
			C335.156,210.041,334.732,209.863,334.184,209.863z"/>
		<path fill="#444444" d="M341.068,215.322c0.188,0,0.364-0.014,0.541-0.041c0.173-0.027,0.311-0.057,0.409-0.086v0.807
			c-0.112,0.061-0.28,0.105-0.506,0.143c-0.224,0.031-0.424,0.055-0.602,0.055c-1.349,0-2.021-0.709-2.021-2.127v-4.141H337.9
			v-0.512l0.996-0.438l0.439-1.482h0.609v1.609h2.019v0.816h-2.019v4.098c0,0.418,0.1,0.74,0.298,0.965
			C340.449,215.211,340.723,215.322,341.068,215.322z"/>
		<path fill="#444444" d="M346.947,216.066v-9.279h1.08v8.303h4.094v0.98L346.947,216.066L346.947,216.066z"/>
		<path fill="#444444" d="M357.814,216.066l-0.216-0.99h-0.051c-0.347,0.439-0.688,0.73-1.037,0.887
			c-0.345,0.152-0.771,0.23-1.29,0.23c-0.688,0-1.229-0.178-1.623-0.533c-0.393-0.354-0.586-0.861-0.586-1.518
			c0-1.404,1.123-2.143,3.368-2.209l1.188-0.037v-0.434c0-0.547-0.118-0.947-0.354-1.209c-0.229-0.26-0.604-0.393-1.127-0.393
			c-0.58,0-1.234,0.18-1.968,0.533l-0.324-0.812c0.345-0.186,0.72-0.332,1.127-0.438c0.408-0.104,0.818-0.158,1.229-0.158
			c0.829,0,1.438,0.186,1.844,0.553c0.396,0.369,0.6,0.959,0.6,1.771v4.75h-0.776L357.814,216.066L357.814,216.066z
			 M355.436,215.322c0.654,0,1.176-0.18,1.55-0.539c0.375-0.359,0.562-0.863,0.562-1.512v-0.627l-1.055,0.043
			c-0.84,0.029-1.441,0.16-1.812,0.393c-0.369,0.23-0.556,0.588-0.556,1.074c0,0.383,0.114,0.672,0.346,0.871
			C354.695,215.226,355.02,215.322,355.436,215.322z"/>
		<path fill="#444444" d="M359.661,209.109h1.13l1.523,3.967c0.334,0.906,0.542,1.562,0.616,1.961h0.057
			c0.055-0.217,0.17-0.586,0.346-1.104c0.176-0.521,0.75-2.133,1.724-4.82h1.136l-2.989,7.922c-0.297,0.783-0.646,1.34-1.038,1.666
			c-0.396,0.328-0.882,0.492-1.457,0.492c-0.321,0-0.639-0.037-0.952-0.105v-0.848c0.232,0.055,0.493,0.076,0.781,0.076
			c0.723,0,1.239-0.404,1.549-1.221l0.387-0.988L359.661,209.109z"/>
		<path fill="#444444" d="M373.321,212.582c0,1.133-0.286,2.021-0.856,2.656c-0.572,0.637-1.355,0.955-2.368,0.955
			c-0.622,0-1.175-0.146-1.651-0.439c-0.482-0.293-0.854-0.711-1.117-1.258c-0.268-0.547-0.396-1.186-0.396-1.916
			c0-1.135,0.283-2.02,0.854-2.645c0.562-0.639,1.354-0.949,2.355-0.949c0.979,0,1.747,0.324,2.32,0.973
			C373.034,210.601,373.321,211.478,373.321,212.582z M368.021,212.582c0,0.895,0.178,1.564,0.527,2.029
			c0.355,0.467,0.878,0.699,1.567,0.699c0.688,0,1.214-0.232,1.569-0.695c0.354-0.465,0.532-1.143,0.532-2.035
			c0-0.885-0.179-1.557-0.532-2.016c-0.355-0.459-0.89-0.688-1.584-0.688c-0.688,0-1.211,0.229-1.562,0.68
			C368.194,211.006,368.021,211.685,368.021,212.582z"/>
		<path fill="#444444" d="M376.159,209.109v4.514c0,0.566,0.129,0.988,0.387,1.271c0.259,0.277,0.663,0.42,1.213,0.42
			c0.729,0,1.26-0.199,1.603-0.6c0.336-0.396,0.505-1.047,0.505-1.947v-3.656h1.053v6.957h-0.869l-0.149-0.936h-0.06
			c-0.217,0.346-0.516,0.604-0.896,0.787c-0.387,0.184-0.819,0.271-1.312,0.271c-0.847,0-1.479-0.201-1.898-0.605
			c-0.424-0.398-0.635-1.045-0.635-1.932v-4.551h1.064L376.159,209.109L376.159,209.109z"/>
		<path fill="#444444" d="M385.396,215.322c0.187,0,0.36-0.014,0.534-0.041c0.179-0.027,0.312-0.057,0.412-0.086v0.807
			c-0.108,0.061-0.276,0.105-0.505,0.143c-0.222,0.031-0.422,0.055-0.6,0.055c-1.352,0-2.021-0.709-2.021-2.127v-4.141h-0.996
			v-0.512l0.996-0.438l0.444-1.482h0.606v1.609h2.021v0.816h-2.021v4.098c0,0.418,0.103,0.74,0.301,0.965
			C384.775,215.211,385.049,215.322,385.396,215.322z"/>
		<path fill="#444444" d="M392.226,214.168c0,0.646-0.236,1.146-0.725,1.498c-0.483,0.355-1.159,0.527-2.031,0.527
			c-0.922,0-1.642-0.146-2.157-0.439v-0.979c0.34,0.17,0.692,0.305,1.075,0.398c0.389,0.1,0.752,0.146,1.107,0.146
			c0.551,0,0.974-0.088,1.27-0.264c0.297-0.18,0.445-0.443,0.445-0.807c0-0.27-0.118-0.502-0.353-0.691
			c-0.235-0.193-0.693-0.42-1.374-0.688c-0.648-0.24-1.108-0.451-1.387-0.631c-0.271-0.182-0.477-0.387-0.604-0.613
			c-0.134-0.229-0.2-0.5-0.2-0.814c0-0.564,0.23-1.02,0.692-1.344c0.461-0.326,1.094-0.49,1.896-0.49
			c0.749,0,1.481,0.148,2.196,0.457l-0.375,0.854c-0.697-0.289-1.33-0.434-1.897-0.434c-0.499,0-0.876,0.078-1.13,0.232
			c-0.254,0.156-0.381,0.373-0.381,0.646c0,0.188,0.048,0.35,0.143,0.479c0.102,0.133,0.249,0.258,0.467,0.375
			c0.211,0.119,0.611,0.289,1.219,0.516c0.824,0.299,1.382,0.604,1.672,0.908C392.08,213.32,392.226,213.707,392.226,214.168z"/>
	</g>
	<g>
		<path fill="#444444" d="M306.514,29.311c0,0.816-0.297,1.454-0.89,1.911s-1.396,0.686-2.412,0.686
			c-1.101,0-1.946-0.142-2.539-0.425v-1.041c0.382,0.161,0.796,0.288,1.244,0.381s0.894,0.14,1.333,0.14
			c0.721,0,1.262-0.136,1.625-0.41c0.363-0.271,0.546-0.651,0.546-1.139c0-0.322-0.062-0.585-0.192-0.791
			c-0.129-0.205-0.346-0.395-0.646-0.567c-0.304-0.174-0.765-0.37-1.381-0.591c-0.863-0.309-1.479-0.675-1.854-1.098
			c-0.371-0.423-0.559-0.976-0.559-1.657c0-0.715,0.271-1.284,0.809-1.708c0.535-0.424,1.248-0.635,2.134-0.635
			c0.926,0,1.771,0.169,2.545,0.508l-0.336,0.939c-0.769-0.322-1.511-0.482-2.231-0.482c-0.569,0-1.021,0.123-1.34,0.368
			c-0.321,0.246-0.479,0.586-0.479,1.022c0,0.321,0.062,0.585,0.179,0.79c0.119,0.205,0.315,0.394,0.603,0.564
			c0.28,0.171,0.712,0.36,1.292,0.568c0.976,0.347,1.646,0.719,2.012,1.117C306.336,28.16,306.514,28.676,306.514,29.311z"/>
		<path fill="#444444" d="M308.163,22.938c0-0.241,0.06-0.418,0.178-0.53s0.27-0.168,0.444-0.168c0.169,0,0.312,0.057,0.438,0.171
			c0.123,0.114,0.188,0.29,0.188,0.527c0,0.236-0.062,0.414-0.188,0.529c-0.121,0.117-0.269,0.176-0.438,0.176
			c-0.178,0-0.326-0.059-0.444-0.176C308.223,23.351,308.163,23.175,308.163,22.938z M309.307,31.78h-1.055v-6.957h1.055V31.78z"/>
		<path fill="#444444" d="M316.275,30.847h-0.062c-0.481,0.707-1.214,1.06-2.184,1.06c-0.909,0-1.617-0.311-2.123-0.933
			c-0.508-0.622-0.76-1.507-0.76-2.653c0-1.147,0.256-2.038,0.764-2.672s1.214-0.952,2.119-0.952c0.938,0,1.668,0.343,2.172,1.028
			h0.082l-0.045-0.501l-0.025-0.489v-2.831h1.059v9.876h-0.855L316.275,30.847z M314.168,31.025c0.721,0,1.241-0.196,1.564-0.587
			c0.321-0.392,0.479-1.023,0.479-1.896v-0.222c0-0.986-0.16-1.689-0.488-2.111c-0.325-0.421-0.854-0.631-1.569-0.631
			c-0.617,0-1.09,0.24-1.418,0.72c-0.328,0.48-0.491,1.159-0.491,2.035c0,0.89,0.161,1.561,0.487,2.013
			C313.059,30.798,313.537,31.025,314.168,31.025z"/>
		<path fill="#444444" d="M322.445,31.907c-1.029,0-1.84-0.313-2.438-0.939c-0.595-0.626-0.892-1.495-0.892-2.608
			c0-1.122,0.271-2.012,0.825-2.672s1.297-0.99,2.228-0.99c0.872,0,1.562,0.287,2.069,0.86c0.508,0.572,0.762,1.33,0.762,2.269
			v0.667h-4.792c0.021,0.817,0.229,1.438,0.618,1.86c0.391,0.423,0.938,0.635,1.647,0.635c0.75,0,1.49-0.157,2.229-0.47v0.938
			c-0.373,0.161-0.729,0.276-1.062,0.346C323.314,31.872,322.914,31.907,322.445,31.907z M322.159,25.578
			c-0.562,0-1.005,0.182-1.336,0.546c-0.332,0.364-0.528,0.868-0.587,1.511h3.637c0-0.665-0.148-1.173-0.443-1.526
			C323.133,25.755,322.709,25.578,322.159,25.578z"/>
		<path fill="#444444" d="M330.037,24.709c0.914,0,1.624,0.312,2.13,0.938c0.506,0.624,0.758,1.507,0.758,2.649
			c0,1.144-0.255,2.03-0.765,2.663s-1.219,0.949-2.123,0.949c-0.453,0-0.866-0.083-1.241-0.251
			c-0.374-0.167-0.688-0.424-0.942-0.771h-0.073l-0.224,0.895H326.8v-9.877h1.054v2.398c0,0.538-0.017,1.021-0.051,1.447h0.051
			C328.346,25.056,329.072,24.709,330.037,24.709z M329.885,25.591c-0.72,0-1.233,0.207-1.556,0.619
			c-0.315,0.413-0.479,1.108-0.479,2.085c0,0.978,0.162,1.678,0.486,2.099c0.325,0.421,0.853,0.631,1.567,0.631
			c0.646,0,1.13-0.236,1.441-0.708c0.317-0.473,0.479-1.15,0.479-2.035c0-0.906-0.158-1.581-0.479-2.025
			C331.038,25.812,330.549,25.591,329.885,25.591z"/>
		<path fill="#444444" d="M339.044,31.78l-0.21-0.99h-0.051c-0.351,0.437-0.692,0.731-1.037,0.886
			c-0.346,0.154-0.775,0.231-1.292,0.231c-0.688,0-1.229-0.178-1.622-0.533c-0.393-0.354-0.587-0.86-0.587-1.517
			c0-1.405,1.124-2.142,3.37-2.209l1.182-0.038v-0.433c0-0.546-0.117-0.948-0.354-1.209c-0.234-0.26-0.609-0.39-1.127-0.39
			c-0.58,0-1.234,0.178-1.97,0.533l-0.321-0.806c0.344-0.187,0.719-0.332,1.127-0.438c0.405-0.105,0.815-0.159,1.229-0.159
			c0.829,0,1.444,0.185,1.844,0.552c0.4,0.368,0.604,0.958,0.604,1.771v4.748H339.044L339.044,31.78z M336.664,31.037
			c0.654,0,1.171-0.18,1.545-0.54c0.375-0.359,0.562-0.863,0.562-1.511v-0.628l-1.061,0.044c-0.838,0.03-1.438,0.16-1.812,0.391
			c-0.369,0.23-0.56,0.589-0.56,1.076c0,0.381,0.114,0.671,0.349,0.87C335.925,30.938,336.249,31.037,336.664,31.037z"/>
		<path fill="#444444" d="M345.17,24.696c0.309,0,0.586,0.025,0.832,0.076l-0.146,0.978c-0.287-0.062-0.541-0.095-0.765-0.095
			c-0.562,0-1.044,0.229-1.44,0.686c-0.397,0.457-0.604,1.026-0.604,1.708v3.731h-1.054v-6.957h0.869l0.121,1.289h0.051
			c0.258-0.453,0.567-0.802,0.934-1.047C344.334,24.819,344.734,24.696,345.17,24.696z"/>
		<path fill="#444444" d="M351,31.78V22.5h1.08v8.303h4.094v0.978H351L351,31.78z"/>
		<path fill="#444444" d="M361.867,31.78l-0.21-0.99h-0.051c-0.353,0.437-0.692,0.731-1.037,0.886
			c-0.351,0.154-0.775,0.231-1.292,0.231c-0.689,0-1.23-0.178-1.622-0.533c-0.396-0.354-0.587-0.86-0.587-1.517
			c0-1.405,1.124-2.142,3.37-2.209l1.182-0.038v-0.433c0-0.546-0.118-0.948-0.354-1.209c-0.229-0.26-0.604-0.39-1.127-0.39
			c-0.58,0-1.229,0.178-1.968,0.533l-0.324-0.806c0.35-0.187,0.725-0.332,1.127-0.438c0.408-0.105,0.818-0.159,1.229-0.159
			c0.829,0,1.444,0.185,1.844,0.552c0.4,0.368,0.604,0.958,0.604,1.771v4.748H361.867L361.867,31.78z M359.487,31.037
			c0.649,0,1.171-0.18,1.545-0.54c0.375-0.359,0.562-0.863,0.562-1.511v-0.628l-1.055,0.044c-0.838,0.03-1.441,0.16-1.812,0.391
			c-0.364,0.23-0.556,0.589-0.556,1.076c0,0.381,0.115,0.671,0.346,0.87C358.748,30.938,359.072,31.037,359.487,31.037z"/>
		<path fill="#444444" d="M363.715,24.823h1.13l1.523,3.967c0.334,0.906,0.542,1.561,0.622,1.961h0.051
			c0.055-0.216,0.17-0.585,0.346-1.106c0.182-0.523,0.75-2.13,1.729-4.821h1.13l-2.989,7.922c-0.297,0.783-0.643,1.338-1.038,1.666
			c-0.395,0.328-0.882,0.492-1.457,0.492c-0.316,0-0.639-0.036-0.952-0.108v-0.844c0.232,0.051,0.493,0.076,0.781,0.076
			c0.726,0,1.239-0.406,1.549-1.219l0.393-0.99L363.715,24.823z"/>
		<path fill="#444444" d="M377.375,28.295c0,1.135-0.286,2.021-0.856,2.657c-0.566,0.637-1.355,0.955-2.362,0.955
			c-0.622,0-1.181-0.146-1.657-0.438c-0.482-0.292-0.854-0.711-1.117-1.257c-0.262-0.546-0.393-1.185-0.393-1.917
			c0-1.134,0.277-2.018,0.85-2.649c0.567-0.633,1.354-0.949,2.361-0.949c0.974,0,1.747,0.324,2.314,0.971
			C377.088,26.314,377.375,27.191,377.375,28.295z M372.075,28.295c0,0.89,0.178,1.566,0.533,2.031
			c0.354,0.465,0.878,0.698,1.562,0.698c0.689,0,1.214-0.232,1.571-0.695c0.354-0.464,0.536-1.142,0.536-2.035
			c0-0.884-0.184-1.556-0.536-2.015c-0.357-0.459-0.886-0.689-1.584-0.689c-0.689,0-1.21,0.228-1.562,0.68
			C372.248,26.721,372.075,27.398,372.075,28.295z"/>
		<path fill="#444444" d="M380.212,24.823v4.513c0,0.567,0.129,0.99,0.387,1.271c0.265,0.278,0.663,0.419,1.214,0.419
			c0.729,0,1.265-0.199,1.602-0.598c0.336-0.397,0.505-1.047,0.505-1.948v-3.656h1.053v6.957h-0.87l-0.146-0.933h-0.062
			c-0.217,0.343-0.516,0.604-0.896,0.786c-0.38,0.183-0.82,0.273-1.312,0.273c-0.847,0-1.479-0.201-1.896-0.603
			c-0.417-0.402-0.632-1.046-0.632-1.931v-4.551H380.212z"/>
		<path fill="#444444" d="M389.448,31.037c0.187,0,0.366-0.014,0.54-0.042c0.173-0.027,0.311-0.056,0.412-0.085v0.806
			c-0.114,0.056-0.282,0.102-0.511,0.138c-0.222,0.036-0.422,0.054-0.6,0.054c-1.346,0-2.021-0.709-2.021-2.126v-4.139h-0.994
			v-0.509l0.994-0.438l0.44-1.485h0.609v1.612h2.019v0.819h-2.019v4.094c0,0.419,0.1,0.741,0.298,0.965
			C388.828,30.925,389.102,31.037,389.448,31.037z"/>
		<path fill="#444444" d="M396.278,29.882c0,0.647-0.242,1.147-0.729,1.498c-0.479,0.352-1.159,0.527-2.025,0.527
			c-0.928,0-1.646-0.146-2.158-0.438v-0.978c0.335,0.169,0.688,0.303,1.076,0.4c0.383,0.097,0.752,0.146,1.104,0.146
			c0.551,0,0.979-0.088,1.271-0.263c0.297-0.176,0.439-0.443,0.439-0.803c0-0.271-0.118-0.503-0.353-0.695
			c-0.235-0.193-0.693-0.42-1.374-0.684c-0.648-0.24-1.108-0.451-1.381-0.632c-0.273-0.18-0.479-0.384-0.609-0.611
			c-0.134-0.229-0.2-0.501-0.2-0.819c0-0.567,0.23-1.015,0.692-1.342c0.461-0.328,1.094-0.492,1.896-0.492
			c0.749,0,1.481,0.152,2.196,0.457l-0.375,0.856c-0.697-0.287-1.33-0.432-1.896-0.432c-0.499,0-0.878,0.078-1.133,0.235
			c-0.254,0.157-0.381,0.373-0.381,0.646c0,0.187,0.048,0.346,0.146,0.477c0.096,0.131,0.249,0.256,0.461,0.375
			c0.211,0.119,0.614,0.29,1.219,0.514c0.824,0.3,1.382,0.603,1.672,0.908C396.132,29.038,396.278,29.421,396.278,29.882z"/>
	</g>
	<rect id="sidebar-a_10_" x="300" y="48.78" opacity="0.2" enable-background="new    " width="9" height="43"/>
	<rect id="sidebar-b_5_" x="314" y="48.78" opacity="0.2" enable-background="new    " width="9" height="43"/>
	<rect id="content_12_" x="328" y="48.78" opacity="0.05" enable-background="new    " width="40" height="43"/>
	<rect id="sidebar-a_9_" x="442" y="48.78" opacity="0.2" enable-background="new    " width="9" height="43"/>
	<rect id="sidebar-b_4_" x="456" y="48.78" opacity="0.2" enable-background="new    " width="9" height="43"/>
	<rect id="content_11_" x="398" y="48.78" opacity="0.05" enable-background="new    " width="39" height="43"/>
	<rect id="sidebar-a_8_" x="491" y="48.78" opacity="0.2" enable-background="new    " width="9" height="43"/>
	<rect id="sidebar-b_3_" x="551" y="48.78" opacity="0.2" enable-background="new    " width="9" height="43"/>
	<rect id="content_10_" x="505" y="48.78" opacity="0.05" enable-background="new    " width="41" height="43"/>
	<rect id="sidebar-a_7_" x="300" y="111.78" opacity="0.2" enable-background="new    " width="9" height="43"/>
	<rect id="content_9_" x="314" y="111.78" opacity="0.05" enable-background="new    " width="53" height="43"/>
	<rect id="sidebar-a_6_" x="456" y="111.78" opacity="0.2" enable-background="new    " width="9" height="43"/>
	<rect id="content_8_" x="398" y="111.78" opacity="0.05" enable-background="new    " width="53" height="43"/>
	<rect id="content_7_" x="492" y="111.78" opacity="0.05" enable-background="new    " width="68" height="43"/>
	<path fill="#444444" d="M310.957,243.638c0,0.648-0.222,1.148-0.666,1.502c-0.443,0.35-1.078,0.521-1.904,0.521h-0.756v2.527
		h-0.748v-6.424h1.666C310.154,241.767,310.957,242.39,310.957,243.638z M307.631,245.023h0.672c0.662,0,1.144-0.107,1.438-0.32
		c0.295-0.215,0.44-0.557,0.44-1.029c0-0.424-0.14-0.738-0.418-0.947c-0.275-0.207-0.711-0.312-1.301-0.312h-0.834L307.631,245.023
		L307.631,245.023z"/>
	<path fill="#444444" d="M316.34,248.189l-0.8-2.043h-2.575l-0.791,2.043h-0.756l2.54-6.451h0.628l2.527,6.451H316.34z
		 M315.307,245.476l-0.746-1.992c-0.098-0.25-0.194-0.562-0.299-0.926c-0.062,0.277-0.154,0.59-0.274,0.926l-0.759,1.992H315.307z"
		/>
	<path fill="#444444" d="M318.744,245.519v2.672h-0.748v-6.424h1.763c0.788,0,1.37,0.148,1.747,0.449
		c0.376,0.305,0.564,0.758,0.564,1.363c0,0.852-0.434,1.424-1.292,1.723l1.745,2.889h-0.887l-1.556-2.672H318.744z M318.744,244.877
		h1.021c0.527,0,0.914-0.104,1.16-0.311c0.246-0.209,0.369-0.523,0.369-0.941c0-0.426-0.125-0.73-0.376-0.918
		c-0.25-0.188-0.652-0.281-1.206-0.281h-0.971L318.744,244.877L318.744,244.877z"/>
	<path fill="#444444" d="M327.6,248.189l-0.8-2.043h-2.575l-0.791,2.043h-0.756l2.54-6.451h0.628l2.527,6.451H327.6z
		 M326.566,245.476l-0.746-1.992c-0.101-0.25-0.197-0.562-0.299-0.926c-0.065,0.277-0.157,0.59-0.277,0.926l-0.756,1.992H326.566z"
		/>
	<path fill="#444444" d="M329.256,248.189v-6.424h0.748v5.748h2.834v0.676H329.256z"/>
	<path fill="#444444" d="M337.509,248.189h-3.582v-6.424h3.582v0.662h-2.834v2.07h2.662v0.658h-2.662v2.363h2.834V248.189z"/>
	<path fill="#444444" d="M338.932,248.189v-6.424h0.748v5.748h2.834v0.676H338.932z"/>
	<path fill="#444444" d="M343.604,248.189v-6.424h0.748v5.748h2.834v0.676H343.604z"/>
	<path fill="#444444" d="M310.509,289.281c0,0.564-0.205,1.006-0.615,1.322c-0.407,0.314-0.967,0.475-1.67,0.475
		c-0.762,0-1.348-0.098-1.758-0.295v-0.721c0.266,0.111,0.552,0.199,0.861,0.264c0.311,0.064,0.618,0.098,0.923,0.098
		c0.498,0,0.873-0.096,1.125-0.281c0.252-0.188,0.378-0.451,0.378-0.787c0-0.227-0.045-0.406-0.134-0.549
		c-0.09-0.145-0.239-0.271-0.448-0.396c-0.21-0.119-0.528-0.256-0.956-0.408c-0.598-0.215-1.022-0.467-1.281-0.76
		c-0.256-0.293-0.385-0.676-0.385-1.145c0-0.494,0.188-0.893,0.56-1.186c0.372-0.293,0.863-0.438,1.479-0.438
		c0.639,0,1.228,0.115,1.762,0.352l-0.229,0.65c-0.53-0.225-1.046-0.334-1.547-0.334c-0.396,0-0.705,0.086-0.931,0.256
		c-0.223,0.17-0.332,0.404-0.332,0.707c0,0.223,0.039,0.402,0.121,0.547c0.082,0.143,0.224,0.27,0.416,0.393
		c0.194,0.117,0.492,0.25,0.896,0.396c0.673,0.24,1.137,0.498,1.391,0.77C310.382,288.484,310.509,288.84,310.509,289.281z"/>
	<path fill="#444444" d="M313.801,290.99h-0.748v-5.762h-2.034v-0.664h4.816v0.664h-2.034V290.99L313.801,290.99z"/>
	<path fill="#444444" d="M320.84,290.99l-0.8-2.043h-2.575l-0.791,2.043h-0.756l2.54-6.451h0.628l2.527,6.451H320.84z
		 M319.807,288.273l-0.746-1.99c-0.098-0.252-0.194-0.561-0.299-0.928c-0.062,0.281-0.154,0.592-0.274,0.928l-0.759,1.99H319.807z"
		/>
	<path fill="#444444" d="M325.248,285.142c-0.707,0-1.264,0.232-1.673,0.705c-0.408,0.471-0.612,1.111-0.612,1.932
		c0,0.842,0.196,1.49,0.591,1.949c0.396,0.459,0.956,0.688,1.688,0.688c0.446,0,0.96-0.08,1.534-0.242v0.656
		c-0.445,0.166-0.995,0.25-1.647,0.25c-0.947,0-1.677-0.287-2.191-0.861c-0.514-0.574-0.771-1.391-0.771-2.447
		c0-0.662,0.124-1.242,0.372-1.74c0.247-0.498,0.604-0.881,1.072-1.152c0.467-0.268,1.017-0.4,1.646-0.4
		c0.674,0,1.263,0.123,1.771,0.365l-0.316,0.646C326.22,285.254,325.733,285.142,325.248,285.142z"/>
	<path fill="#444444" d="M332.814,290.99h-0.882l-2.342-3.115l-0.672,0.602v2.518h-0.748v-6.426h0.748v3.188l2.913-3.188h0.884
		l-2.584,2.791L332.814,290.99z"/>
	<path fill="#444444" d="M337.28,290.99h-3.582v-6.426h3.582v0.664h-2.834v2.068h2.662v0.66h-2.662v2.363h2.834V290.99z"/>
	<path fill="#444444" d="M343.832,287.715c0,1.062-0.288,1.871-0.863,2.436c-0.576,0.561-1.401,0.842-2.482,0.842h-1.78v-6.426
		h1.969c0.999,0,1.775,0.273,2.33,0.832C343.555,285.949,343.832,286.724,343.832,287.715z M343.041,287.742
		c0-0.838-0.21-1.469-0.631-1.895c-0.42-0.426-1.045-0.639-1.874-0.639h-1.085v5.133h0.909c0.891,0,1.56-0.219,2.009-0.654
		C342.816,289.248,343.041,288.603,343.041,287.742z"/>
	<path fill="#444444" d="M312.012,330.517c0,1.061-0.288,1.871-0.86,2.432c-0.576,0.561-1.404,0.842-2.485,0.842h-1.78v-6.424h1.97
		c0.998,0,1.774,0.275,2.329,0.83C311.734,328.748,312.012,329.523,312.012,330.517z M311.221,330.541
		c0-0.836-0.21-1.469-0.631-1.893c-0.42-0.426-1.045-0.639-1.874-0.639h-1.085v5.133h0.909c0.891,0,1.56-0.219,2.009-0.656
		C310.996,332.047,311.221,331.4,311.221,330.541z"/>
	<path fill="#444444" d="M319.021,330.568c0,1.027-0.263,1.836-0.78,2.426c-0.521,0.588-1.243,0.883-2.168,0.883
		c-0.947,0-1.677-0.289-2.191-0.867c-0.514-0.574-0.771-1.395-0.771-2.447c0-1.045,0.258-1.855,0.771-2.436
		c0.519-0.576,1.248-0.859,2.197-0.859c0.924,0,1.645,0.293,2.162,0.879C318.762,328.73,319.021,329.537,319.021,330.568z
		 M313.9,330.568c0,0.869,0.186,1.529,0.557,1.979c0.37,0.449,0.908,0.68,1.615,0.68c0.711,0,1.249-0.229,1.609-0.678
		c0.363-0.443,0.545-1.104,0.545-1.979c0-0.863-0.181-1.521-0.543-1.967c-0.358-0.447-0.896-0.67-1.604-0.67
		c-0.711,0-1.253,0.225-1.623,0.674C314.086,329.058,313.9,329.711,313.9,330.568z"/>
	<path fill="#444444" d="M325.305,327.365v4.156c0,0.732-0.221,1.309-0.663,1.727c-0.439,0.42-1.05,0.629-1.82,0.629
		c-0.773,0-1.372-0.211-1.796-0.633c-0.426-0.422-0.638-1.002-0.638-1.74v-4.139h0.747v4.191c0,0.535,0.146,0.947,0.439,1.234
		s0.724,0.432,1.292,0.432c0.542,0,0.959-0.145,1.253-0.434c0.292-0.289,0.438-0.703,0.438-1.242v-4.184L325.305,327.365
		L325.305,327.365z"/>
	<path fill="#444444" d="M327.006,327.365h1.815c0.853,0,1.469,0.127,1.851,0.381c0.38,0.256,0.57,0.658,0.57,1.209
		c0,0.381-0.105,0.695-0.318,0.943c-0.212,0.248-0.521,0.408-0.93,0.48v0.043c0.977,0.168,1.464,0.682,1.464,1.539
		c0,0.572-0.194,1.021-0.582,1.346c-0.389,0.32-0.932,0.482-1.628,0.482h-2.242V327.365L327.006,327.365z M327.754,330.115h1.23
		c0.524,0,0.903-0.082,1.138-0.248c0.229-0.166,0.347-0.443,0.347-0.838c0-0.359-0.129-0.619-0.387-0.779s-0.668-0.236-1.23-0.236
		h-1.098V330.115z M327.754,330.748v2.404h1.34c0.521,0,0.909-0.102,1.171-0.301c0.266-0.201,0.396-0.516,0.396-0.943
		c0-0.398-0.134-0.691-0.402-0.879c-0.268-0.188-0.676-0.281-1.224-0.281H327.754z"/>
	<path fill="#444444" d="M332.837,333.789v-6.424h0.748v5.748h2.834v0.676H332.837L332.837,333.789z"/>
	<path fill="#444444" d="M341.09,333.789h-3.582v-6.424h3.582v0.662h-2.834v2.07h2.662v0.658h-2.662v2.365h2.834V333.789z"/>
	<path fill="#444444" d="M347.643,330.517c0,1.061-0.285,1.871-0.86,2.432c-0.576,0.561-1.404,0.842-2.485,0.842h-1.78v-6.424h1.972
		c0.999,0,1.772,0.275,2.33,0.83C347.365,328.748,347.643,329.523,347.643,330.517z M346.852,330.541
		c0-0.836-0.21-1.469-0.631-1.893c-0.42-0.426-1.045-0.639-1.874-0.639h-1.085v5.133h0.909c0.891,0,1.562-0.219,2.009-0.656
		C346.627,332.047,346.852,331.4,346.852,330.541z"/>
	<path fill="#444444" d="M103.477,260.916l-2.18-5.693h-0.035c0.041,0.449,0.062,0.986,0.062,1.607v4.086h-0.69v-6.424h1.125
		l2.035,5.299h0.035l2.052-5.299h1.116v6.424h-0.747v-4.141c0-0.475,0.021-0.988,0.062-1.547h-0.035l-2.197,5.688H103.477z"/>
	<path fill="#444444" d="M112.797,260.916l-0.8-2.043h-2.575l-0.791,2.043h-0.756l2.54-6.449h0.628l2.527,6.449H112.797z
		 M111.765,258.201l-0.747-1.992c-0.097-0.25-0.196-0.561-0.299-0.926c-0.064,0.279-0.157,0.59-0.277,0.926l-0.756,1.992H111.765z"
		/>
	<path fill="#444444" d="M114.454,260.916v-6.424h0.747v6.424H114.454z"/>
	<path fill="#444444" d="M121.982,260.916h-0.853l-3.511-5.393h-0.035c0.047,0.633,0.07,1.213,0.07,1.74v3.65h-0.69v-6.424h0.844
		l3.502,5.369h0.035c-0.006-0.078-0.019-0.332-0.04-0.762c-0.021-0.432-0.028-0.736-0.022-0.922v-3.688h0.699L121.982,260.916
		L121.982,260.916z"/>
	<path fill="#444444" d="M123.234,258.838v-0.668h2.158v0.668H123.234z"/>
	<path fill="#444444" d="M126.645,254.492h1.815c0.853,0,1.469,0.127,1.85,0.381c0.381,0.256,0.571,0.658,0.571,1.209
		c0,0.381-0.106,0.695-0.319,0.941c-0.212,0.248-0.522,0.408-0.929,0.48v0.045c0.976,0.168,1.463,0.68,1.463,1.537
		c0,0.574-0.194,1.023-0.582,1.346c-0.389,0.322-0.931,0.482-1.628,0.482h-2.241V254.492z M127.392,257.242h1.23
		c0.527,0,0.907-0.082,1.138-0.248c0.231-0.166,0.347-0.443,0.347-0.838c0-0.357-0.129-0.619-0.387-0.779
		c-0.258-0.158-0.668-0.238-1.23-0.238h-1.099L127.392,257.242L127.392,257.242z M127.392,257.875v2.404h1.34
		c0.519,0,0.909-0.102,1.171-0.303c0.262-0.199,0.394-0.516,0.394-0.941c0-0.396-0.134-0.689-0.402-0.879
		c-0.268-0.188-0.676-0.281-1.224-0.281H127.392L127.392,257.875z"/>
	<path fill="#444444" d="M138.053,257.695c0,1.027-0.26,1.836-0.78,2.426c-0.52,0.588-1.243,0.883-2.168,0.883
		c-0.946,0-1.676-0.287-2.191-0.867c-0.514-0.576-0.771-1.396-0.771-2.449c0-1.045,0.258-1.855,0.773-2.434
		c0.516-0.574,1.248-0.861,2.197-0.861c0.923,0,1.644,0.293,2.162,0.879S138.053,256.664,138.053,257.695z M132.933,257.695
		c0,0.869,0.185,1.529,0.556,1.98c0.37,0.447,0.909,0.676,1.615,0.676c0.712,0,1.25-0.227,1.613-0.674
		c0.363-0.447,0.545-1.107,0.545-1.98c0-0.865-0.181-1.521-0.543-1.967c-0.362-0.447-0.897-0.67-1.606-0.67
		c-0.712,0-1.253,0.225-1.624,0.674C133.118,256.183,132.933,256.838,132.933,257.695z"/>
	<path fill="#444444" d="M141.463,260.916h-0.747v-5.762h-2.035v-0.662h4.816v0.662h-2.035L141.463,260.916L141.463,260.916z"/>
	<path fill="#444444" d="M146.442,260.916h-0.747v-5.762h-2.035v-0.662h4.816v0.662h-2.035L146.442,260.916L146.442,260.916z"/>
	<path fill="#444444" d="M155.02,257.695c0,1.027-0.26,1.836-0.78,2.426c-0.52,0.588-1.243,0.883-2.168,0.883
		c-0.946,0-1.676-0.287-2.191-0.867c-0.514-0.576-0.771-1.396-0.771-2.449c0-1.045,0.258-1.855,0.773-2.434
		c0.516-0.574,1.248-0.861,2.197-0.861c0.923,0,1.644,0.293,2.162,0.879S155.02,256.664,155.02,257.695z M149.9,257.695
		c0,0.869,0.185,1.529,0.556,1.98c0.37,0.447,0.909,0.676,1.615,0.676c0.712,0,1.25-0.227,1.613-0.674
		c0.363-0.447,0.545-1.107,0.545-1.98c0-0.865-0.181-1.521-0.543-1.967c-0.362-0.447-0.897-0.67-1.606-0.67
		c-0.712,0-1.253,0.225-1.624,0.674S149.9,256.838,149.9,257.695z"/>
	<path fill="#444444" d="M159.296,260.916l-2.18-5.693h-0.035c0.041,0.449,0.062,0.986,0.062,1.607v4.086h-0.69v-6.424h1.125
		l2.035,5.299h0.035l2.052-5.299h1.116v6.424h-0.747v-4.141c0-0.475,0.021-0.988,0.062-1.547h-0.035l-2.197,5.688H159.296z"/>
	<path fill="#444444" d="M113.477,188.916l-2.18-5.694h-0.035c0.041,0.45,0.062,0.986,0.062,1.607v4.087h-0.69v-6.425h1.125
		l2.035,5.3h0.035l2.052-5.3h1.116v6.425h-0.747v-4.141c0-0.475,0.021-0.989,0.062-1.547h-0.035l-2.197,5.688H113.477z"/>
	<path fill="#444444" d="M122.797,188.916l-0.8-2.043h-2.575l-0.791,2.043h-0.756l2.54-6.45h0.628l2.527,6.45H122.797z
		 M121.765,186.2l-0.747-1.991c-0.097-0.251-0.196-0.561-0.299-0.927c-0.064,0.28-0.157,0.591-0.277,0.927l-0.756,1.991H121.765z"/>
	<path fill="#444444" d="M124.454,188.916v-6.425h0.747v6.425H124.454z"/>
	<path fill="#444444" d="M131.982,188.916h-0.853l-3.511-5.393h-0.035c0.047,0.633,0.07,1.213,0.07,1.74v3.65h-0.69v-6.425h0.844
		l3.502,5.369h0.035c-0.006-0.078-0.019-0.332-0.04-0.762c-0.021-0.431-0.028-0.736-0.022-0.922v-3.688h0.699L131.982,188.916
		L131.982,188.916z"/>
	<path fill="#444444" d="M133.234,186.838v-0.668h2.158v0.668H133.234z"/>
	<path fill="#444444" d="M138.622,188.916h-0.747v-5.762h-2.035v-0.663h4.816v0.663h-2.035L138.622,188.916L138.622,188.916z"/>
	<path fill="#444444" d="M147.2,185.695c0,1.027-0.26,1.836-0.78,2.426c-0.52,0.588-1.243,0.883-2.168,0.883
		c-0.946,0-1.676-0.288-2.191-0.867c-0.514-0.577-0.771-1.396-0.771-2.45c0-1.045,0.258-1.855,0.773-2.433
		c0.516-0.575,1.248-0.862,2.197-0.862c0.923,0,1.644,0.293,2.162,0.879S147.2,184.664,147.2,185.695z M142.081,185.695
		c0,0.869,0.185,1.529,0.556,1.979c0.37,0.448,0.909,0.676,1.615,0.676c0.712,0,1.25-0.227,1.613-0.674
		c0.363-0.447,0.545-1.107,0.545-1.98c0-0.864-0.181-1.521-0.543-1.967c-0.362-0.447-0.897-0.67-1.606-0.67
		c-0.712,0-1.253,0.225-1.624,0.674C142.266,184.183,142.081,184.837,142.081,185.695z"/>
	<path fill="#444444" d="M152.707,184.363c0,0.65-0.222,1.15-0.666,1.501c-0.443,0.351-1.079,0.524-1.905,0.524h-0.756v2.525h-0.747
		v-6.425h1.666C151.904,182.491,152.707,183.115,152.707,184.363z M149.38,185.748h0.672c0.662,0,1.141-0.106,1.437-0.32
		c0.296-0.215,0.444-0.558,0.444-1.028c0-0.424-0.139-0.74-0.417-0.948c-0.278-0.208-0.712-0.312-1.301-0.312h-0.835V185.748
		L149.38,185.748z"/>
	<path fill="#444444" d="M151.467,333.853c-0.714,0-1.278,0.238-1.692,0.713s-0.62,1.127-0.62,1.955
		c0,0.852,0.199,1.508,0.598,1.973s0.967,0.695,1.706,0.695c0.454,0,0.971-0.082,1.552-0.246v0.664
		c-0.451,0.17-1.006,0.252-1.667,0.252c-0.958,0-1.696-0.289-2.217-0.871c-0.52-0.58-0.78-1.404-0.78-2.477
		c0-0.67,0.125-1.26,0.376-1.762c0.25-0.504,0.612-0.893,1.084-1.166c0.472-0.271,1.029-0.406,1.669-0.406
		c0.682,0,1.278,0.123,1.788,0.373l-0.32,0.646C152.451,333.969,151.959,333.853,151.467,333.853z"/>
	<path fill="#444444" d="M143.741,129.536c-0.714,0-1.278,0.238-1.692,0.713c-0.414,0.477-0.62,1.128-0.62,1.955
		c0,0.853,0.199,1.508,0.598,1.973c0.399,0.466,0.967,0.695,1.706,0.695c0.454,0,0.971-0.081,1.552-0.245v0.664
		c-0.451,0.169-1.006,0.252-1.667,0.252c-0.958,0-1.696-0.289-2.217-0.872c-0.52-0.58-0.78-1.403-0.78-2.477
		c0-0.67,0.125-1.258,0.376-1.761c0.25-0.504,0.612-0.894,1.084-1.165c0.472-0.272,1.029-0.408,1.669-0.408
		c0.682,0,1.278,0.124,1.788,0.373l-0.32,0.647C144.725,129.651,144.232,129.536,143.741,129.536z"/>
	<g>
		<path fill="#444444" d="M153.782,363.461c0,1.062-0.288,1.871-0.863,2.436c-0.576,0.561-1.401,0.842-2.482,0.842h-1.78v-6.426
			h1.969c0.999,0,1.775,0.273,2.33,0.832C153.505,361.695,153.782,362.47,153.782,363.461z M152.991,363.488
			c0-0.838-0.21-1.469-0.631-1.895c-0.42-0.426-1.045-0.639-1.874-0.639h-1.085v5.133h0.909c0.891,0,1.56-0.219,2.009-0.654
			C152.767,364.994,152.991,364.349,152.991,363.488z"/>
		<g id="bottom-b_2_" opacity="0.1">
			<rect x="-1.018" y="353.166" fill="#777777" width="260" height="22"/>
		</g>
		<path fill="#444444" d="M108.115,360.281h1.815c0.853,0,1.469,0.129,1.85,0.383c0.381,0.256,0.571,0.658,0.571,1.209
			c0,0.381-0.106,0.695-0.319,0.941c-0.212,0.248-0.522,0.406-0.929,0.479v0.043c0.976,0.168,1.463,0.684,1.463,1.539
			c0,0.574-0.194,1.021-0.582,1.348c-0.389,0.318-0.931,0.48-1.628,0.48h-2.241V360.281z M108.862,363.033h1.23
			c0.527,0,0.907-0.082,1.138-0.248c0.231-0.166,0.347-0.445,0.347-0.838c0-0.359-0.129-0.619-0.387-0.779
			c-0.258-0.16-0.668-0.24-1.23-0.24h-1.099L108.862,363.033L108.862,363.033z M108.862,363.666v2.404h1.34
			c0.519,0,0.909-0.104,1.171-0.305c0.262-0.197,0.394-0.518,0.394-0.939c0-0.398-0.134-0.691-0.402-0.879
			c-0.268-0.189-0.676-0.281-1.224-0.281H108.862L108.862,363.666z"/>
		<path fill="#444444" d="M119.523,363.486c0,1.025-0.26,1.836-0.78,2.426c-0.52,0.588-1.243,0.883-2.168,0.883
			c-0.946,0-1.676-0.289-2.191-0.869c-0.514-0.576-0.771-1.395-0.771-2.449c0-1.045,0.258-1.854,0.773-2.432
			c0.516-0.576,1.248-0.863,2.197-0.863c0.923,0,1.644,0.293,2.162,0.879S119.523,362.455,119.523,363.486z M114.403,363.486
			c0,0.869,0.185,1.527,0.556,1.979c0.37,0.449,0.909,0.676,1.615,0.676c0.712,0,1.25-0.227,1.613-0.674
			c0.363-0.447,0.545-1.107,0.545-1.98c0-0.861-0.181-1.521-0.543-1.967c-0.362-0.443-0.897-0.67-1.606-0.67
			c-0.712,0-1.253,0.229-1.624,0.674C114.588,361.974,114.403,362.627,114.403,363.486z"/>
		<path fill="#444444" d="M122.933,366.707h-0.747v-5.762h-2.035v-0.664h4.816v0.664h-2.035L122.933,366.707L122.933,366.707z"/>
		<path fill="#444444" d="M127.912,366.707h-0.747v-5.762h-2.035v-0.664h4.816v0.664h-2.035L127.912,366.707L127.912,366.707z"/>
		<path fill="#444444" d="M136.49,363.486c0,1.025-0.26,1.836-0.78,2.426c-0.52,0.588-1.243,0.883-2.168,0.883
			c-0.946,0-1.676-0.289-2.191-0.869c-0.514-0.576-0.771-1.395-0.771-2.449c0-1.045,0.258-1.854,0.773-2.432
			c0.516-0.576,1.248-0.863,2.197-0.863c0.923,0,1.644,0.293,2.162,0.879S136.49,362.455,136.49,363.486z M131.37,363.486
			c0,0.869,0.185,1.527,0.556,1.979c0.37,0.449,0.909,0.676,1.615,0.676c0.712,0,1.25-0.227,1.613-0.674
			c0.363-0.447,0.545-1.107,0.545-1.98c0-0.861-0.181-1.521-0.543-1.967c-0.362-0.443-0.897-0.67-1.606-0.67
			c-0.712,0-1.253,0.229-1.624,0.674C131.555,361.974,131.37,362.627,131.37,363.486z"/>
		<path fill="#444444" d="M140.766,366.707l-2.18-5.695h-0.035c0.041,0.451,0.062,0.986,0.062,1.607v4.088h-0.69v-6.426h1.125
			l2.035,5.301h0.035l2.052-5.301h1.116v6.426h-0.747v-4.141c0-0.48,0.021-0.99,0.062-1.547h-0.035l-2.198,5.688H140.766z"/>
		<path fill="#444444" d="M145.534,364.629v-0.668h2.158v0.668H145.534z"/>
	</g>
	<g>
		<path fill="#444444" d="M122.294,162.385h-0.747v-5.761h-2.035v-0.664h4.816v0.664h-2.035L122.294,162.385L122.294,162.385z"/>
		<path fill="#444444" d="M130.873,159.165c0,1.028-0.26,1.837-0.78,2.426c-0.52,0.59-1.243,0.884-2.168,0.884
			c-0.946,0-1.676-0.289-2.191-0.867c-0.514-0.578-0.771-1.396-0.771-2.45c0-1.046,0.258-1.857,0.773-2.433
			c0.516-0.575,1.248-0.863,2.197-0.863c0.923,0,1.644,0.293,2.162,0.879C130.613,157.325,130.873,158.134,130.873,159.165z
			 M125.753,159.165c0,0.87,0.185,1.53,0.556,1.979c0.37,0.449,0.909,0.675,1.615,0.675c0.712,0,1.25-0.226,1.613-0.673
			c0.363-0.447,0.545-1.108,0.545-1.981c0-0.864-0.181-1.521-0.543-1.966c-0.362-0.446-0.897-0.67-1.606-0.67
			c-0.712,0-1.253,0.225-1.624,0.674C125.938,157.653,125.753,158.306,125.753,159.165z"/>
		<path fill="#444444" d="M136.379,157.833c0,0.65-0.222,1.151-0.666,1.501c-0.443,0.351-1.079,0.525-1.905,0.525h-0.756v2.525
			h-0.747v-6.425h1.666C135.576,155.961,136.379,156.585,136.379,157.833z M133.052,159.218h0.672c0.662,0,1.141-0.105,1.437-0.32
			c0.296-0.214,0.444-0.558,0.444-1.027c0-0.425-0.139-0.741-0.417-0.949s-0.712-0.312-1.301-0.312h-0.835V159.218L133.052,159.218z
			"/>
		<path fill="#444444" d="M137.209,160.307v-0.668h2.158v0.668H137.209z"/>
		<rect y="148.167" opacity="0.1" fill="#777777" enable-background="new    " width="260" height="22"/>
		<path fill="#444444" d="M145.751,159.108c0,1.062-0.288,1.871-0.863,2.436c-0.576,0.561-1.401,0.842-2.482,0.842h-1.78v-6.426
			h1.969c0.999,0,1.775,0.273,2.33,0.832C145.474,157.342,145.751,158.117,145.751,159.108z M144.96,159.135
			c0-0.838-0.21-1.469-0.631-1.895c-0.42-0.426-1.045-0.639-1.874-0.639h-1.085v5.133h0.909c0.891,0,1.56-0.219,2.009-0.654
			C144.735,160.641,144.96,159.996,144.96,159.135z"/>
	</g>
</g>
</svg>
