<?xml version="1.0" encoding="utf-8"?>
<!DOCTYPE svg PUBLIC "-//W3C//DTD SVG 1.1//EN" "http://www.w3.org/Graphics/SVG/1.1/DTD/svg11.dtd">
<svg version="1.1" id="product_icon_01" xmlns="http://www.w3.org/2000/svg" xmlns:xlink="http://www.w3.org/1999/xlink" x="0px" y="0px"
	 width="16px" height="16px" viewBox="0 0 16 16" enable-background="new 0 0 16 16" xml:space="preserve">
<g>
	<path fill="#706F6F" d="M12.518,4.831c0.373,0,0.689,0.148,0.953,0.446c0.264,0.298,0.396,0.654,0.396,1.071v8.125
		c0,0.422-0.135,0.783-0.396,1.079c-0.264,0.3-0.58,0.448-0.953,0.448H3.491c-0.377,0-0.696-0.148-0.961-0.447
		c-0.264-0.296-0.397-0.656-0.397-1.078V6.349c0-0.417,0.133-0.773,0.397-1.071C2.795,4.98,3.114,4.832,3.491,4.832h0.45V4.573
		c0-0.629,0.107-1.22,0.322-1.776c0.214-0.555,0.504-1.039,0.872-1.453c0.367-0.412,0.798-0.74,1.292-0.981
		C6.92,0.121,7.445,0,8.004,0c0.559,0,1.084,0.121,1.579,0.362c0.494,0.241,0.924,0.569,1.291,0.981
		c0.366,0.414,0.658,0.898,0.873,1.453c0.215,0.557,0.321,1.147,0.321,1.776V4.83L12.518,4.831L12.518,4.831z M12.968,14.475V6.349
		c0-0.139-0.044-0.258-0.134-0.357c-0.086-0.099-0.193-0.148-0.316-0.148H3.491c-0.124,0-0.229,0.05-0.317,0.148
		c-0.088,0.1-0.132,0.219-0.132,0.357v8.125c0,0.145,0.044,0.267,0.132,0.366c0.088,0.099,0.194,0.146,0.317,0.146h9.026
		c0.123,0,0.23-0.047,0.316-0.146C12.924,14.74,12.968,14.618,12.968,14.475z M4.84,4.573v0.258h6.319V4.573
		c0-0.489-0.082-0.95-0.246-1.384c-0.165-0.433-0.392-0.81-0.681-1.131C9.945,1.738,9.611,1.485,9.229,1.3
		c-0.381-0.185-0.79-0.277-1.225-0.277S7.159,1.115,6.774,1.3C6.39,1.485,6.054,1.738,5.77,2.059C5.484,2.38,5.258,2.757,5.09,3.189
		C4.923,3.623,4.84,4.084,4.84,4.573z"/>
</g>
</svg>
