<?xml version="1.0" encoding="utf-8"?>
<!DOCTYPE svg PUBLIC "-//W3C//DTD SVG 1.1//EN" "http://www.w3.org/Graphics/SVG/1.1/DTD/svg11.dtd">
<svg version="1.1" id="product_icon_04" xmlns="http://www.w3.org/2000/svg" xmlns:xlink="http://www.w3.org/1999/xlink" x="0px" y="0px"
	 width="16px" height="16px" viewBox="0 0 16 16" enable-background="new 0 0 16 16" xml:space="preserve">
<path fill="#706F6F" d="M10.068,9.24c-1.394,0-2.226-1.198-2.26-1.249C7.802,7.981,7.085,6.96,5.934,6.96
	c-1.123,0-1.606,0.954-1.627,0.994C4.282,8.006,3.673,9.24,2.257,9.24C0.868,9.24,0.035,8.043,0,7.992L0.38,7.63
	c0.008,0.01,0.728,1.034,1.877,1.034c1.135,0,1.621-0.985,1.626-0.995c0.025-0.053,0.636-1.285,2.051-1.285
	c1.391,0,2.221,1.196,2.256,1.246c0.007,0.01,0.726,1.034,1.878,1.034c1.125,0,1.605-0.956,1.625-0.996
	c0.024-0.052,0.637-1.284,2.051-1.284c1.391,0,2.222,1.196,2.257,1.246l-0.38,0.361c-0.007-0.01-0.727-1.032-1.877-1.032
	c-1.133,0-1.622,0.983-1.627,0.993C12.092,8.006,11.482,9.24,10.068,9.24z"/>
<path fill="#706F6F" d="M10.068,9.241c-1.394,0-2.226-1.197-2.26-1.249c-0.007-0.01-0.725-1.033-1.875-1.033
	c-1.123,0-1.606,0.955-1.627,0.997c-0.024,0.051-0.634,1.285-2.05,1.285C0.868,9.241,0.035,8.044,0,7.993l0.38-0.361
	c0.008,0.01,0.728,1.034,1.877,1.034c1.135,0,1.621-0.985,1.626-0.995c0.025-0.053,0.636-1.287,2.051-1.287
	c1.391,0,2.222,1.198,2.256,1.249c0.007,0.009,0.726,1.033,1.878,1.033c1.125,0,1.605-0.955,1.625-0.996
	c0.024-0.052,0.637-1.286,2.051-1.286c1.391,0,2.222,1.198,2.257,1.249l-0.38,0.361c-0.008-0.011-0.727-1.034-1.877-1.034
	c-1.122,0-1.605,0.956-1.627,0.997C12.092,8.007,11.482,9.241,10.068,9.241z"/>
</svg>
