<?xml version="1.0" encoding="utf-8"?>
<!DOCTYPE svg PUBLIC "-//W3C//DTD SVG 1.1//EN" "http://www.w3.org/Graphics/SVG/1.1/DTD/svg11.dtd">
<svg version="1.1" id="south_america" xmlns="http://www.w3.org/2000/svg" xmlns:xlink="http://www.w3.org/1999/xlink" x="0px" y="0px"
	 width="90px" height="140px" viewBox="0 0 90 140" enable-background="new 0 0 90 140" xml:space="preserve">
<path fill-rule="evenodd" clip-rule="evenodd" fill="#FFFFFF" d="M57.08,140c0.016-0.245,0.47-0.538-0.144-0.767
	c0.659-0.378,1.29-0.739,1.92-1.1c0.033,0.048,0.066,0.097,0.1,0.145c-0.058,0.055-0.112,0.113-0.174,0.163
	c-0.079,0.062-0.164,0.115-0.361,0.252c0.323,0.05,0.532,0.083,0.778,0.121c-0.012,0.13-0.022,0.265-0.02,0.229
	c0.451,0.31,0.821,0.564,1.191,0.819c-0.641-0.178-1.274-0.387-1.925-0.52c-0.268-0.055-0.57,0.055-0.919,0.097
	c0.102,0.222,0.114,0.291,0.154,0.329c0.09,0.085,0.193,0.155,0.292,0.231C57.674,140,57.376,140,57.08,140z"/>
<path fill-rule="evenodd" clip-rule="evenodd" fill="#FFFFFF" d="M57.971,140c-0.099-0.076-0.202-0.146-0.292-0.231
	c-0.041-0.039-0.053-0.107-0.154-0.329c0.349-0.042,0.651-0.151,0.919-0.097c0.65,0.133,1.284,0.342,1.925,0.52
	c0.049,0.045,0.099,0.092,0.148,0.137C59.668,140,58.819,140,57.971,140z"/>
<path fill-rule="evenodd" clip-rule="evenodd" fill="#FFFFFF" d="M4.173,20.728c-1.058,0.494-1.1-0.21-1.307-0.754
	c-0.462-1.213-0.879-2.451-1.456-3.61c-0.279-0.559-0.886-0.952-1.317-1.444c-0.115-0.131-0.232-0.403-0.172-0.517
	c0.286-0.534,0.634-1.034,0.983-1.584c0.273,0.133,0.538,0.261,0.836,0.406c0.034-0.127,0.097-0.228,0.069-0.283
	c-0.449-0.893,0.107-1.516,0.634-2.083c0.646-0.695,0.876-1.411,0.45-2.285C2.715,8.208,2.803,7.93,3.132,7.676
	c0.328-0.253,0.615-0.559,0.92-0.841C4.068,6.82,4.084,6.792,4.101,6.792c0.833,0.024,0.877-0.844,1.375-1.191
	c0.539-0.375,1.169-0.638,1.652-1.07c0.505-0.453,0.949-1.008,1.298-1.59c0.428-0.714,0.656-0.884,1.371-0.593
	c-1.21,2.32-0.23,4.162,1.347,5.916c0.125-0.109,0.23-0.181,0.312-0.273c0.669-0.755,0.672-0.76,0.019-1.561
	c-1.359-1.666-1.152-1.283,0.31-2.555c0.453-0.395,0.91-0.786,1.495-1.291c-0.448-0.153-0.717-0.246-1.037-0.354
	c0.062-0.186,0.119-0.358,0.197-0.591c0.169,0.133,0.324,0.2,0.391,0.316c0.411,0.72,1.092,0.677,1.733,0.542
	c0.866-0.182,1.583-0.144,2.14,0.664c0.113,0.164,0.537,0.232,0.774,0.173c0.462-0.116,0.895-0.353,1.338-0.541
	c0.858-0.364,1.654-0.638,2.687-0.437c1.371,0.268,2.503-0.472,3.346-1.577c0.062-0.08,0.169-0.143,0.268-0.176
	c0.72-0.233,1.445-0.457,2.21-0.604c-0.205,0.179-0.41,0.357-0.693,0.604c0.739,0.399,1.317,0.949,2.21,0.623
	c0.672-0.246,1.342-0.195,1.94,0.246c0.447,0.33,0.882,0.669,0.743,1.308c0.076,0.025,0.136,0.062,0.152,0.048
	c0.872-0.748,1.795-0.369,2.724-0.146c0.964,0.231,1.828,0.595,2.439,1.426c0.139,0.189,0.401,0.307,0.628,0.411
	c1.901,0.872,3.807,0.985,5.756,0.107c0.632-0.284,1.329-0.491,2.016-0.58c2.073-0.27,4.046-0.075,6.018,0.839
	c1.514,0.701,2.252,2.032,3.363,3.053c0.416,0.381,0.889,0.702,1.492,1.171c-0.236,0.677-0.543,1.569-0.857,2.459
	c-0.094,0.267-0.168,0.549-0.311,0.79c-0.481,0.817-0.158,1.483,0.343,2.132c1.007-0.471,1.243-0.374,1.43,0.573
	c-0.33,0.396-1.114,0.183-1.183,0.966c1.234-0.465,2.468-0.929,3.725-1.402c0.177,0.343,0.321,0.619,0.545,1.05
	c0.497-1.225,0.952-2.295,1.36-3.383c0.113-0.302,0.206-0.46,0.568-0.488c1.351-0.103,2.697-0.281,4.049-0.364
	c0.37-0.023,0.755,0.188,1.292,0.334c0.821-0.449,1.235-0.325,1.241,0.587c0.19,0.052,0.395,0.107,0.644,0.175
	c0.049,0.175,0.104,0.375,0.187,0.67c0.196-0.137,0.38-0.214,0.489-0.351c0.758-0.954,1.794-0.791,2.827-0.758
	c0.71,0.023,1.436-0.015,2.133-0.143c1.094-0.202,2.166-0.693,3.253-0.71c1.103-0.017,2.214,0.384,3.318,0.622
	c0.253,0.055,0.502,0.168,0.729,0.297c1.472,0.834,3.024,0.944,4.626,0.495c0.783-0.22,1.3,0.112,1.774,0.669
	c2.036,2.393,1.753,5.02,0.75,7.684c-0.405,1.075-1.046,2.062-1.47,3.132c-0.325,0.819-0.52,1.697-0.696,2.563
	c-0.15,0.746-0.374,1.399-0.971,1.936c-0.217,0.194-0.354,0.674-0.278,0.958c0.477,1.786,1.134,3.53,1.507,5.334
	c0.241,1.163,0.191,2.411,0.105,3.609c-0.13,1.797-0.494,3.579-0.596,5.375c-0.101,1.789-0.377,3.495-1.353,5.029
	c-0.125,0.196-0.357,0.37-0.577,0.454c-1.064,0.408-2.143,0.78-3.213,1.171c-0.182,0.067-0.391,0.134-0.519,0.266
	c-1.787,1.831-3.676,3.585-4.924,5.851c-0.74,1.343-1.14,2.818-0.285,4.222c0.493,0.807,0.673,1.626,0.774,2.504
	c0.037,0.319,0.043,0.669-0.051,0.969c-0.649,2.051-1.273,4.112-2.02,6.129c-0.488,1.319-1.17,2.568-1.762,3.849
	c-0.081,0.175-0.163,0.354-0.213,0.539c-0.366,1.358-0.774,2.709-1.073,4.083c-0.497,2.287-2.234,2.937-4.233,3.266
	c-1.467,0.241-2.933,0.265-4.378-0.17c-0.12-0.037-0.252-0.034-0.382-0.05c-0.014,0.882,0.236,1.353,1.036,1.473
	c1.574,0.238,2.532,1.046,2.779,2.65c0.882-0.182,0.924,0.304,0.964,0.924c0.236,3.642-1.601,5.442-4.971,6.938
	c-0.898,0.398-1.866,0.645-2.809,0.939c-0.236,0.074-0.5,0.06-0.863,0.099c0.226,0.441,0.446,0.83,0.629,1.234
	c0.457,1.01,0.718,2.052,0.47,3.17c-0.292,1.319-1.527,2.12-2.853,1.844c-0.469-0.097-0.939-0.213-1.416-0.254
	c-0.189-0.016-0.476,0.096-0.568,0.243c-0.095,0.149-0.088,0.472,0.017,0.618c0.678,0.938,1.384,1.857,2.111,2.758
	c0.115,0.142,0.398,0.242,0.583,0.218c0.265-0.035,0.365-0.2,0.21-0.521c-0.057-0.116,0.268-0.413,0.505-0.751
	c0.251,0.43,0.468,0.724,0.597,1.052c0.075,0.191,0.085,0.583-0.008,0.631c-0.29,0.148-0.678,0.302-0.964,0.224
	c-0.785-0.211-0.772-0.258-1.371,0.51c0.446,0.157,0.859,0.303,1.347,0.476c-1.033,1.752-1.275,3.603-0.672,5.369
	c-0.749,0.608-1.512,1.07-2.065,1.708c-1.398,1.615-0.507,3.852,1.626,4.186c0.484,0.076,0.996-0.022,1.48,0.051
	c0.224,0.034,0.512,0.243,0.602,0.446c0.422,0.96,0.445,1.946-0.055,2.893c-0.305,0.578-0.593,1.188-1.018,1.676
	c-0.758,0.873-0.715,1.857-0.575,2.868c0.131,0.952,0.158,0.948-0.624,1.552c-0.172-0.096-0.354-0.198-0.447-0.25
	c-0.06,0.61-0.079,1.221-0.188,1.816c-0.115,0.615-0.317,1.214-0.43,1.63c0.391,0.482,0.695,0.857,1.004,1.238
	c-0.184,0.229-0.313,0.391-0.501,0.625c0.75,0.437,1.459,0.849,2.166,1.26c-0.028,0.058-0.044,0.12-0.062,0.121
	c-1.863,0.08-2.486,1.76-3.62,2.774c-0.123,0.111-0.139,0.403-0.113,0.6c0.101,0.754,0.255,1.501,0.351,2.257
	c0.021,0.161-0.077,0.432-0.204,0.5c-0.696,0.376-1.675,0.104-2.074-0.472c0.187-0.123,0.409-0.201,0.521-0.357
	c0.254-0.353,0.483-0.731,0.667-1.125c0.129-0.277,0.296-0.82,0.227-0.858c-0.398-0.22-0.867-0.459-1.299-0.438
	c-0.552,0.026-1.091,0.294-1.749,0.491c0.207-0.645,0.204-1.187-0.356-1.58c-0.075-0.053-0.033-0.25-0.08-0.367
	c-0.086-0.217-0.147-0.486-0.312-0.62c-0.24-0.193-0.452-0.052-0.581,0.226c-0.037,0.08-0.177,0.113-0.276,0.171
	c0.059,0.196,0.112,0.374,0.209,0.698c-0.312-0.25-0.517-0.412-0.854-0.682c0.117,0.387,0.188,0.623,0.26,0.858
	c-0.046,0.034-0.093,0.069-0.14,0.104c-0.63-0.866-1.28-1.719-1.864-2.614c-0.073-0.112,0.207-0.449,0.378-0.792
	c-0.287-0.024-0.55-0.047-0.854-0.073c0.038-0.203,0.076-0.402,0.124-0.655c-0.344-0.121-0.665-0.255-0.998-0.345
	c-0.43-0.115-0.532-0.359-0.454-0.778c0.142-0.756,0.236-1.521,0.378-2.463c-0.249,0.219-0.352,0.309-0.515,0.453
	c-0.245-0.714-0.479-1.398-0.726-2.119c0.322-0.044,0.572-0.078,0.823-0.112c0.01-0.076,0.021-0.151,0.031-0.227
	c-0.244-0.04-0.53-0.18-0.724-0.101c-0.479,0.195-0.741,0.112-0.847-0.45c0.299,0.076,0.694,0.249,0.52-0.328
	c0.473-0.031,0.9-0.058,1.472-0.096c-0.666-0.926-1.596-1.182-2.352-1.576c0.07-0.303,0.188-0.586,0.19-0.871
	c0.003-0.377-0.257-0.533-0.634-0.578c-0.648-0.077-1.291-0.201-1.987-0.312c0.091-0.597,1.074-1.24-0.223-1.78
	c0.519-0.164,0.88-0.278,1.277-0.403c0.094,0.167,0.234,0.308,0.25,0.462c0.082,0.787,0.702,0.668,1.148,0.577
	c0.149-0.031,0.207-0.625,0.252-0.968c0.023-0.171-0.17-0.411-0.104-0.53c0.214-0.383,0.152-0.721,0.103-1.134
	c-0.04-0.337-0.015-0.565-0.317-0.793c-0.105-0.08-0.077-0.431-0.001-0.616c0.076-0.188,0.282-0.326,0.434-0.484
	c0.518-0.542,0.358-1.274-0.39-1.487c-0.538-0.154-0.646-0.432-0.649-0.938c-0.002-0.442-0.146-0.895-0.287-1.324
	c-0.215-0.657-0.35-1.286-0.026-1.957c0.084-0.176-0.034-0.448-0.065-0.726c0.049-0.013,0.185-0.048,0.475-0.125
	c-0.307-0.408-0.562-0.749-0.818-1.088c-0.053,0.03-0.105,0.061-0.158,0.091c0.116-0.27,0.232-0.541,0.377-0.875
	c-0.692-0.032-1.287-0.021-1.67,0.575c-0.242,0.375-0.458,0.28-0.736,0.031c-0.802-0.719-1.154-1.685-1.232-2.675
	c-0.186-2.357-1.064-4.51-1.837-6.696c-0.144-0.409-0.138-0.687,0.232-0.943c0.596-0.413-0.03-0.801,0.081-1.179
	c0.089-0.32,0.265-0.643,0.258-0.961c-0.069-3.001-0.16-6.001-0.273-9.001c-0.013-0.33-0.189-0.66-0.322-0.978
	c-0.425-1.021-0.867-2.037-1.295-3.057c-0.049-0.117-0.097-0.265-0.068-0.38c0.313-1.25-0.259-2.368-0.481-3.545
	c-0.225-1.188-0.197-2.421-0.355-3.625c-0.275-2.082-0.427-4.182-1.225-6.179c-0.325-0.815-0.286-1.769-0.442-2.654
	c-0.175-1.003-0.25-2.05-0.608-2.988c-0.735-1.93-1.608-3.81-2.48-5.686c-0.14-0.3-0.525-0.587-0.856-0.688
	c-3.965-1.198-7.94-2.369-11.919-3.519c-0.491-0.142-0.755-0.388-0.976-0.837c-1.42-2.899-3.597-5.191-6.045-7.251
	c-2.187-1.84-4.538-3.43-7.219-4.504c-0.245-0.098-0.477-0.359-0.599-0.602C1.513,39.714,0.964,38.991,1,38.309
	c0.035-0.674,0.696-1.31,1.06-1.974c0.486-0.887,0.858-1.786-0.021-2.753c-0.167,0.32-0.311,0.599-0.45,0.865
	c-0.742-0.008-1.191-0.288-1.366-1.042c-0.183-0.789-0.37-1.488,0.006-2.329c0.255-0.572,0.14-1.358,0.028-2.021
	c-0.093-0.547-0.007-0.928,0.405-1.271c0.303-0.252,0.628-0.492,0.872-0.795c0.162-0.202,0.154-0.53,0.295-0.758
	c0.369-0.595,0.276-1.189,0.158-1.827c-0.029-0.153,0.32-0.462,0.555-0.562C3.895,23.266,3.738,21.975,4.173,20.728z"/>
<path fill-rule="evenodd" clip-rule="evenodd" fill="#FFFFFF" d="M54.728,131.614c0.868-0.005,1.973-0.395,2.584,0.89
	c-0.073,0.028-0.235,0.09-0.397,0.153c2.205,1.942,4.652,2.888,7.435,2.965c-0.277,0.797-1.157,1.38-2.263,1.438
	c-0.802,0.042-1.605,0.073-2.405,0.141c-0.217,0.018-0.47,0.102-0.628,0.242c-0.721,0.641-1.542,1-2.514,1.078
	c-0.545,0.043-1.078,0.226-1.624,0.28c-0.245,0.024-0.505-0.125-0.763-0.174c-0.155-0.029-0.318-0.014-0.477-0.027
	c-0.151-0.013-0.302-0.039-0.453-0.059c0.081-0.15,0.144-0.314,0.248-0.445c0.089-0.113,0.256-0.168,0.334-0.285
	c0.119-0.177,0.189-0.384,0.298-0.616c0.124,0.056,0.345,0.18,0.582,0.254c0.166,0.052,0.353,0.035,0.53,0.049
	c0.012-0.183,0.025-0.365,0.04-0.582c0.154-0.02,0.357-0.045,0.594-0.076c-0.333-0.31-0.652-0.561-0.913-0.861
	c-0.305-0.35-0.287-0.696,0.077-1.047c0.26-0.25,0.439-0.583,0.56-1.007c-0.632,0.101-1.264,0.202-2.052,0.328
	c0.042-0.411,0.101-0.756,0.1-1.101c-0.001-0.147-0.13-0.292-0.167-0.372C53.843,132.425,54.262,132.042,54.728,131.614z"/>
<path fill-rule="evenodd" clip-rule="evenodd" fill="#FFFFFF" d="M55.494,15.387c-0.502,0.168-0.681-0.165-0.845-0.603
	c-0.516-1.381-0.824-1.358,0.896-2.051c0.632-0.255,1.309-0.404,1.976-0.56c0.108-0.025,0.372,0.153,0.389,0.264
	C58.085,13.525,57.147,15.524,55.494,15.387z"/>
<path fill-rule="evenodd" clip-rule="evenodd" fill="#FFFFFF" d="M49.91,135.92c-0.11-0.042-0.202-0.071-0.29-0.111
	c-0.227-0.102-0.452-0.208-0.581-0.268c0.053-0.231,0.174-0.517,0.119-0.556c-0.169-0.119-0.439-0.241-0.61-0.184
	c-0.666,0.223-1.072,0.058-1.284-0.606c-0.057-0.18-0.153-0.358-0.158-0.539c-0.008-0.26-0.042-0.627,0.105-0.753
	c0.173-0.148,0.529-0.086,0.92-0.127c0.015-0.045,0.076-0.226,0.138-0.407c0.06-0.005,0.12-0.01,0.181-0.015
	c0.023,0.271,0.097,0.547,0.061,0.81c-0.088,0.626,0.245,1.126,0.885,1.146c0.155,0.005,0.369-0.227,0.468-0.399
	c0.206-0.356,0.446-0.614,0.891-0.562c0.129,0.015,0.286,0.055,0.362,0.143c0.044,0.051-0.015,0.243-0.083,0.327
	c-0.226,0.277-0.484,0.528-0.718,0.798C49.817,135.192,49.821,135.194,49.91,135.92z"/>
<path fill-rule="evenodd" clip-rule="evenodd" fill="#FFFFFF" d="M38.76,110.14c-0.617,0.236-0.877,0.001-0.952-0.626
	c-0.094-0.789-0.284-1.567-0.384-2.355c-0.031-0.25,0.093-0.519,0.144-0.77c0.518,0.044,1.328,0.875,1.143,1.211
	c-0.265,0.48-0.006,0.82,0.098,1.213C38.965,109.408,38.971,109.407,38.76,110.14z"/>
<path fill-rule="evenodd" clip-rule="evenodd" fill="#FFFFFF" d="M48.094,136.494c0.859-0.361,1.547-0.243,2.225,0.156
	c0.515,0.303,0.555,0.816,0.055,1.171c-0.553,0.393-1.201,0.288-1.578-0.262C48.563,137.22,48.343,136.872,48.094,136.494z"/>
<path fill-rule="evenodd" clip-rule="evenodd" fill="#FFFFFF" d="M41.703,124.259c0.973,0.771,0.797,1.98,1.335,3.108
	c-0.294-0.118-0.463-0.136-0.485-0.202c-0.176-0.53-0.387-0.993-0.877-1.36C41.114,125.384,41.502,124.804,41.703,124.259z"/>
<path fill-rule="evenodd" clip-rule="evenodd" fill="#FFFFFF" d="M61.415,137.934c-1.068,0.646-1.499,0.684-1.759,0.173
	C60.895,137.358,61.063,137.338,61.415,137.934z"/>
<path fill-rule="evenodd" clip-rule="evenodd" fill="#FFFFFF" d="M28.571,0.169c0.14,1.08,0.126,1.099-0.954,1.475
	c0.083-0.202,0.205-0.378,0.214-0.559c0.009-0.167-0.104-0.341-0.194-0.6C27.928,0.386,28.223,0.287,28.571,0.169z"/>
<path fill-rule="evenodd" clip-rule="evenodd" fill="#FFFFFF" d="M40.293,112.797c0.41-0.2,0.672-0.369,0.96-0.443
	c0.08-0.021,0.359,0.294,0.33,0.356c-0.118,0.257-0.321,0.476-0.563,0.806C40.759,113.259,40.59,113.092,40.293,112.797z"/>
<path fill-rule="evenodd" clip-rule="evenodd" fill="#FFFFFF" d="M52.802,137.508c-0.327,0.058-0.652,0.152-0.979,0.159
	c-0.17,0.004-0.381-0.111-0.501-0.239c-0.076-0.081-0.019-0.285-0.021-0.433c0.193,0.005,0.398-0.029,0.577,0.024
	c0.333,0.099,0.65,0.248,0.974,0.377C52.834,137.434,52.818,137.471,52.802,137.508z"/>
<path fill-rule="evenodd" clip-rule="evenodd" fill="#FFFFFF" d="M53.651,135.676c0.274,0.296,0.737,0.574,0.355,0.928
	c-0.097,0.008-0.194,0.016-0.292,0.024C53.693,136.311,53.672,135.994,53.651,135.676z"/>
</svg>
