<?xml version="1.0" encoding="utf-8"?>
<!DOCTYPE svg PUBLIC "-//W3C//DTD SVG 1.1//EN" "http://www.w3.org/Graphics/SVG/1.1/DTD/svg11.dtd">
<svg version="1.1" id="europe" xmlns="http://www.w3.org/2000/svg" xmlns:xlink="http://www.w3.org/1999/xlink" x="0px" y="0px"
	 width="136.359px" height="140px" viewBox="0 0 136.359 140" enable-background="new 0 0 136.359 140" xml:space="preserve">
<path fill="#FFFFFF" d="M136.359,100.122c-0.292,0.317-0.465,0.707-0.639,1.092c-0.117,0.259-0.078,0.543-0.028,0.812
	c0.061,0.328,0.149,0.648,0.229,0.973c0.049,0.188,0.103,0.375,0.156,0.582c-0.293,0.374-0.581,0.74-0.875,1.115
	c-0.354,0-0.687,0.003-1.019,0c-0.398-0.002-0.775,0.099-1.145,0.242c-0.485,0.19-0.901,0.469-1.148,0.951
	c-0.044,0.088-0.104,0.166-0.158,0.248c-0.479,0.708-0.502,0.733-1.309,0.994c-0.802,0.26-1.59,0.551-2.347,0.924
	c-0.315,0.156-0.646,0.272-1.003,0.318c-0.192,0.025-0.377,0.102-0.568,0.146c-0.283,0.064-0.568,0.154-0.857,0.176
	c-0.301,0.021-0.574,0.095-0.844,0.22c-0.374,0.171-0.748,0.344-1.136,0.483c-0.561,0.205-1.052,0.521-1.518,0.882
	c-0.323,0.249-0.542,0.561-0.48,1.024c0.103,0.051,0.199,0.109,0.305,0.154c0.454,0.196,0.848,0.488,1.247,0.771
	c0.457,0.326,0.956,0.528,1.528,0.521c0.281-0.003,0.537-0.048,0.779-0.208c0.142-0.094,0.316-0.174,0.481-0.187
	c0.375-0.026,0.632,0.166,0.763,0.549c-0.051,0.24-0.229,0.428-0.38,0.629c-0.188,0.249-0.444,0.341-0.728,0.208
	c-0.262-0.123-0.518-0.136-0.797-0.11c-0.209,0.018-0.435-0.003-0.635-0.064c-0.239-0.073-0.422-0.021-0.597,0.125
	c-0.183,0.15-0.366,0.299-0.534,0.463c-0.163,0.158-0.342,0.264-0.573,0.249c-0.271-0.019-0.484,0.09-0.7,0.249
	c-0.202,0.148-0.438,0.255-0.669,0.361c-0.266,0.123-0.545,0.217-0.811,0.338c-0.426,0.195-0.836,0.17-1.241-0.047
	c-0.301-0.16-0.374-0.387-0.212-0.68c0.063-0.118,0.153-0.225,0.24-0.35c-0.168-0.369-0.46-0.629-0.785-0.848
	c-0.31-0.209-0.641-0.383-0.956-0.576c-0.215-0.129-0.452-0.234-0.581-0.446c-0.014-0.212,0.114-0.308,0.25-0.39
	c0.352-0.211,0.71-0.414,1.062-0.627c0.301-0.184,0.615-0.345,0.854-0.637c-0.103-0.371-0.409-0.449-0.713-0.509
	c-0.19-0.037-0.393-0.021-0.586-0.021c-0.354-0.002-0.707,0.015-1.061,0c-0.505-0.018-0.96-0.174-1.332-0.533
	c-0.13-0.127-0.236-0.258-0.196-0.461c0.055-0.284-0.102-0.453-0.35-0.53c-0.203-0.062-0.417-0.109-0.627-0.12
	c-0.61-0.03-1.208,0.1-1.809,0.188c-0.309,0.043-0.612,0.105-0.922,0.162c-0.076,0.215-0.152,0.395-0.203,0.582
	c-0.087,0.316-0.264,0.563-0.544,0.735c-0.288,0.175-0.536,0.392-0.725,0.677c-0.133,0.202-0.321,0.33-0.563,0.395
	c-0.148,0.039-0.323,0.09-0.418,0.197c-0.249,0.275-0.58,0.385-0.889,0.5c-0.09,0.14-0.032,0.248,0.011,0.354
	c0.062,0.164,0.131,0.327,0.193,0.49c0.192,0.494,0.126,0.703-0.303,0.996c-0.218,0.148-0.468,0.197-0.721,0.227
	c-0.155,0.02-0.313,0.02-0.471,0.02c-0.316,0-0.514,0.166-0.617,0.45c-0.056,0.146-0.104,0.298-0.143,0.447
	c-0.144,0.569-0.27,1.146-0.428,1.709c-0.099,0.354-0.243,0.696-0.392,1.115c0.047,0.102,0.127,0.276,0.216,0.473
	c-0.155,0.476-0.566,0.356-0.915,0.34c-0.309,0.349-0.531,0.714-0.723,1.099c-0.166,0.336-0.333,0.666-0.599,0.938
	c-0.054,0.057-0.097,0.123-0.135,0.191c-0.172,0.309-0.124,0.617,0.135,0.85c0.059,0.053,0.133,0.083,0.194,0.133
	c0.201,0.16,0.304,0.369,0.216,0.62c-0.12,0.343-0.01,0.604,0.218,0.854c0.158,0.173,0.302,0.361,0.437,0.555
	c0.17,0.247,0.343,0.458,0.667,0.525c0.365,0.076,0.463,0.379,0.467,0.729c-0.439,0.496-1.03,0.667-1.667,0.732
	c-0.117,0.012-0.235,0.021-0.354,0.019c-0.446-0.021-0.834,0.08-1.171,0.417c-0.217,0.219-0.51,0.361-0.778,0.521
	c-0.46,0.27-0.901,0.223-1.306-0.122c-0.178-0.152-0.341-0.323-0.512-0.484c-0.056-0.052-0.115-0.101-0.193-0.169
	c-0.127,0.051-0.251,0.102-0.376,0.15c-0.127,0.049-0.254,0.104-0.386,0.141c-0.488,0.129-0.637,0.051-0.861-0.458
	c-0.085,0.013-0.183,0.011-0.269,0.042c-0.27,0.102-0.533,0.083-0.809,0.025c-0.837-0.172-1.634-0.053-2.372,0.383
	c-0.177,0.104-0.354,0.162-0.559,0.158c-0.098-0.002-0.195,0.004-0.294,0.002c-0.296-0.004-0.541,0.097-0.693,0.359
	c-0.201,0.346-0.485,0.559-0.873,0.559c-0.043,0.06-0.077,0.088-0.086,0.121c-0.032,0.151-0.031,0.322-0.179,0.421
	c-0.165,0.11-0.35,0.174-0.554,0.165c-0.376-0.016-0.646-0.235-0.748-0.611c-0.01-0.038-0.01-0.078-0.021-0.115
	c-0.063-0.201-0.24-0.246-0.412-0.101c-0.221,0.187-0.335,0.428-0.368,0.711c-0.034,0.284,0.045,0.543,0.18,0.789
	c0.169,0.308,0.331,0.62,0.513,0.92c0.069,0.112,0.182,0.204,0.282,0.293c0.131,0.114,0.272,0.218,0.425,0.338
	c-0.104,0.265-0.299,0.367-0.543,0.394c-0.188,0.021-0.382,0.03-0.605,0.047c0.048,0.384,0.08,0.73,0.144,1.074
	c0.021,0.1,0.112,0.209,0.201,0.267c0.512,0.325,1.029,0.644,1.554,0.948c0.186,0.107,0.392,0.182,0.59,0.257
	c0.229,0.085,0.435,0.202,0.563,0.405c0.201,0.312,0.402,0.627,0.557,0.963c0.113,0.246-0.016,0.453-0.271,0.605
	c-0.087-0.057-0.188-0.111-0.276-0.18c-0.649-0.51-1.341-0.95-2.116-1.252c-0.145-0.057-0.289-0.131-0.406-0.229
	c-0.239-0.194-0.513-0.278-0.811-0.317c-0.191-0.025-0.383-0.074-0.574-0.111c-0.453-0.089-0.846,0.013-1.169,0.357
	c0.103,0.172,0.261,0.184,0.406,0.226c0.49,0.142,0.972,0.299,1.411,0.569c0.202,0.125,0.398,0.256,0.509,0.475
	c0.114,0.227,0.302,0.338,0.533,0.426c0.363,0.141,0.692,0.36,1.098,0.396c0.242,0.021,0.318,0.195,0.226,0.431
	c-0.026,0.065-0.093,0.116-0.164,0.204c-0.167-0.128-0.316-0.244-0.468-0.359c-0.252,0-0.513,0.041-0.75-0.014
	c-0.236-0.053-0.452-0.201-0.693-0.314c-0.151,0.111-0.259,0.265-0.301,0.465c0.048,0.043,0.085,0.095,0.136,0.119
	c0.588,0.295,0.647,0.842,0.654,1.399c0.003,0.296-0.164,0.476-0.453,0.53c-0.439,0.084-0.882,0.152-1.339,0.229
	c-0.212-0.266-0.418-0.522-0.653-0.82c-0.171,0-0.367,0.016-0.559-0.004c-0.193-0.018-0.393-0.045-0.574-0.106
	c-0.312-0.104-0.443-0.408-0.312-0.71c0.083-0.192,0.209-0.366,0.326-0.562c-0.394-0.359-0.712-0.779-1.159-1.08
	c-0.458-0.31-0.432-0.545,0.079-0.8c0.384-0.188,0.798-0.315,1.197-0.477c0.121-0.05,0.236-0.109,0.403-0.188
	c-0.133-0.082-0.207-0.16-0.292-0.175c-0.25-0.04-0.505-0.073-0.758-0.071c-0.512,0.002-0.956-0.174-1.372-0.451
	c-0.176-0.116-0.271-0.27-0.287-0.482c-0.023-0.271-0.087-0.542-0.104-0.814c-0.014-0.217-0.114-0.363-0.268-0.498
	c-0.207-0.182-0.399-0.377-0.608-0.557c-0.193-0.163-0.296-0.355-0.297-0.609c-0.001-0.139-0.007-0.275-0.033-0.41
	c-0.039-0.197-0.211-0.293-0.396-0.229c-0.11,0.039-0.211,0.104-0.319,0.146c-0.192,0.078-0.344,0.029-0.44-0.155
	c-0.053-0.103-0.096-0.216-0.113-0.33c-0.052-0.301-0.24-0.481-0.492-0.619c-0.154-0.084-0.317-0.157-0.458-0.261
	c-0.256-0.188-0.397-0.434-0.299-0.764c0.081-0.271,0.083-0.549,0.013-0.813c-0.081-0.308-0.03-0.58,0.113-0.849
	c0.036-0.069,0.06-0.146,0.093-0.217c0.071-0.152,0.086-0.312-0.022-0.445c-0.271-0.33-0.257-0.688-0.108-1.051
	c0.095-0.236,0.064-0.448-0.017-0.683c-0.122-0.349-0.206-0.71-0.312-1.087c-0.179,0.035-0.328,0.062-0.479,0.096
	c-0.513,0.104-0.944-0.013-1.196-0.5c-0.157-0.308-0.387-0.469-0.711-0.545c-0.268-0.062-0.529-0.15-0.777-0.264
	c-0.283-0.128-0.562-0.273-0.82-0.448c-0.375-0.25-0.729-0.526-1.09-0.799c-0.209-0.158-0.337-0.36-0.405-0.625
	c-0.135-0.521-0.444-0.744-0.972-0.755c-0.281-0.006-0.551,0.048-0.798,0.169c-0.236,0.116-0.441,0.097-0.671-0.011
	c-0.32-0.146-0.661-0.247-0.979-0.398c-0.246-0.115-0.489-0.254-0.696-0.427c-0.315-0.265-0.604-0.56-0.89-0.854
	c-0.089-0.095-0.153-0.228-0.186-0.354c-0.062-0.257-0.199-0.467-0.361-0.666c-0.396-0.487-0.748-1.007-1.051-1.559
	c-0.306-0.557-0.742-1.01-1.149-1.484c-0.109-0.13-0.269-0.229-0.418-0.314c-0.201-0.119-0.413-0.227-0.627-0.322
	c-0.307-0.137-0.516-0.356-0.584-0.688c-0.046-0.222-0.148-0.396-0.328-0.537c-0.374-0.3-0.412-0.668-0.188-1.043
	c0.05-0.083,0.09-0.175,0.12-0.268c0.052-0.162,0.029-0.321-0.108-0.429c-0.247-0.191-0.505-0.373-0.816-0.443
	c-0.071-0.018-0.149-0.002-0.282-0.002c0.156,0.418,0.43,0.756,0.393,1.177c-0.037,0.429-0.094,0.853-0.139,1.248
	c-0.303,0.2-0.562,0.377-0.824,0.542c-0.239,0.148-0.51,0.217-0.787,0.188c-0.607-0.069-0.938,0.291-1.208,0.752
	c-0.123,0.211-0.096,0.414,0.061,0.601c0.1,0.12,0.214,0.231,0.302,0.358c0.109,0.158,0.11,0.336,0.004,0.498
	c-0.086,0.131-0.198,0.244-0.286,0.375c-0.271,0.403-0.279,0.703,0.036,1.062c0.211,0.241,0.286,0.491,0.265,0.805
	c-0.04,0.584-0.024,0.571,0.529,0.682c1.077,0.214,1.981,0.712,2.619,1.634c0.124,0.179,0.241,0.346,0.195,0.591
	c-0.02,0.096,0.042,0.247,0.116,0.309c0.271,0.223,0.42,0.496,0.495,0.834c0.028,0.125,0.13,0.239,0.215,0.348
	c0.245,0.306,0.479,0.624,0.756,0.9c0.244,0.248,0.525,0.47,0.817,0.662c0.292,0.194,0.615,0.342,0.927,0.506
	c0.322,0.168,0.658,0.242,1.021,0.146c0.091-0.023,0.192-0.023,0.289-0.021c0.292,0.015,0.584,0.058,0.875,0.047
	c0.347-0.012,0.563,0.141,0.674,0.449c0.104,0.295,0.183,0.6,0.283,0.934c0.288,0.216,0.619,0.406,1.004,0.518
	c0.203,0.059,0.399,0.166,0.573,0.289c0.644,0.458,1.354,0.788,2.079,1.085c0.455,0.187,0.896,0.39,1.286,0.695
	c0.138,0.106,0.3,0.187,0.452,0.271c0.48,0.269,0.8,0.676,1.053,1.174c-0.206,0.283-0.476,0.293-0.735,0.184
	c-0.287-0.121-0.588-0.253-0.818-0.455c-0.536-0.47-1.166-0.617-1.844-0.646c-0.175-0.008-0.352,0-0.56,0
	c-0.101,0.137-0.202,0.301-0.326,0.445c-0.127,0.148-0.281,0.273-0.414,0.417c-0.247,0.267-0.376,0.591-0.444,0.935
	c0.194,0.435,0.459,0.771,0.92,0.947c0.346,0.131,0.479,0.451,0.532,0.793c0.027,0.172,0.005,0.351,0.005,0.57
	c-0.105,0.07-0.226,0.174-0.364,0.23c-0.407,0.177-0.722,0.479-1.01,0.793c-0.206,0.225-0.333,0.527-0.467,0.81
	c-0.211,0.445-0.539,0.761-0.973,0.979c-0.266,0.137-0.486,0.086-0.707-0.088c-0.233-0.183-0.277-0.427-0.197-0.686
	c0.051-0.164,0.153-0.316,0.251-0.46c0.176-0.259,0.375-0.503,0.549-0.763c0.099-0.146,0.173-0.307,0.246-0.467
	c0.07-0.154,0.056-0.319-0.06-0.44c-0.259-0.267-0.347-0.606-0.457-0.94c-0.067-0.201-0.155-0.412-0.288-0.572
	c-0.229-0.276-0.321-0.574-0.284-0.926c0.006-0.055-0.013-0.113-0.024-0.205c-0.4-0.211-0.812-0.438-1.232-0.64
	c-0.312-0.146-0.555-0.348-0.75-0.631c-0.257-0.367-0.55-0.709-0.815-1.046c-0.141-0.006-0.238-0.018-0.335-0.014
	c-0.397,0.015-0.738-0.084-0.938-0.467c-0.027-0.051-0.069-0.098-0.115-0.133c-0.667-0.502-1.394-0.87-2.241-0.939
	c-0.175-0.015-0.353-0.008-0.529-0.004c-0.319,0.004-0.62-0.074-0.901-0.223c-1.275-0.66-2.484-1.413-3.513-2.438
	c-0.722-0.719-1.476-1.405-2.214-2.108c-0.112-0.108-0.222-0.222-0.333-0.332c-0.26-0.254-0.414-0.555-0.475-0.921
	c-0.071-0.424-0.188-0.841-0.285-1.26c-0.046-0.195-0.15-0.35-0.3-0.491c-0.833-0.787-1.828-1.267-2.921-1.565
	c-0.131-0.035-0.271-0.049-0.404-0.063c-0.27-0.033-0.502,0.057-0.705,0.229c-0.089,0.075-0.178,0.154-0.257,0.241
	c-0.229,0.255-0.512,0.412-0.829,0.535c-1.208,0.47-2.37,1.034-3.468,1.724c-0.229,0.145-0.438,0.326-0.643,0.506
	c-0.4,0.355-0.864,0.612-1.354,0.809c-0.408,0.163-0.861,0.15-1.271-0.006c-0.624-0.239-1.256-0.419-1.918-0.497
	c-0.02-0.002-0.041-0.003-0.058-0.013c-0.769-0.365-1.616-0.447-2.479-0.674c-0.876,0.321-1.766,0.717-2.542,1.334
	c-0.551,0.438-0.796,0.996-0.765,1.696c0.12,0.082,0.24,0.147,0.342,0.235c0.354,0.299,0.386,0.683,0.097,1.033
	c-0.037,0.045-0.079,0.09-0.127,0.123c-0.178,0.121-0.264,0.289-0.27,0.498c-0.006,0.228-0.146,0.355-0.323,0.455
	c-0.393,0.221-0.781,0.447-1.188,0.643c-1.062,0.507-2.161,0.923-3.303,1.208c-0.366,0.091-0.646,0.264-0.871,0.549
	c-0.134,0.169-0.275,0.333-0.413,0.499c-0.688,0.832-1.373,1.662-2.061,2.494c-0.147,0.182-0.293,0.367-0.438,0.552
	c-0.247,0.312-0.28,0.634-0.062,0.978c0.105,0.164,0.205,0.334,0.291,0.512c0.085,0.175,0.174,0.354,0.22,0.543
	c0.105,0.438,0.01,0.83-0.397,1.072c-0.24,0.145-0.378,0.297-0.382,0.6c-0.003,0.299-0.244,0.479-0.479,0.63
	c-0.13,0.083-0.28,0.13-0.448,0.205c-0.035,0.117-0.088,0.243-0.109,0.374c-0.086,0.523-0.42,0.822-0.895,0.992
	c-0.11,0.039-0.229,0.06-0.343,0.087c-0.271,0.063-0.484,0.206-0.692,0.405c-0.277,0.267-0.669,0.418-0.919,0.703
	c-0.279,0.316-0.63,0.453-0.985,0.606c-0.322,0.14-0.66,0.246-0.989,0.372c-0.516,0.197-1.03,0.275-1.6,0.238
	c-0.957-0.064-1.92-0.041-2.88-0.014c-0.547,0.014-1.089,0.098-1.562,0.438c-0.133,0.096-0.325,0.122-0.496,0.148
	c-0.15,0.022-0.312,0.004-0.479,0.004c-0.383,0.424-0.763,0.842-1.14,1.258c-0.268-0.006-0.473-0.125-0.687-0.213
	c-0.226-0.092-0.399-0.235-0.486-0.479c-0.036-0.105-0.092-0.229-0.177-0.295c-0.337-0.253-0.554-0.605-0.811-0.926
	c-0.272-0.338-0.56-0.656-0.938-0.881c-0.167-0.1-0.324-0.223-0.472-0.35c-0.276-0.24-0.594-0.357-0.952-0.421
	c-0.374-0.065-0.688-0.028-0.957,0.271c-0.247,0.273-0.562,0.392-0.942,0.398c-0.409,0.01-0.817,0.074-1.229,0
	c-0.619-0.109-0.983-0.49-0.998-1.115c-0.019-0.783-0.07-1.565,0.039-2.351c0.08-0.573-0.267-1.015-0.847-1.137
	c-0.21-0.044-0.429-0.065-0.635-0.124c-0.337-0.096-0.404-0.247-0.292-0.564c0.102-0.275,0.197-0.554,0.299-0.828
	c0.113-0.313,0.247-0.621,0.467-0.879c0.194-0.229,0.311-0.494,0.338-0.798c0.03-0.319,0.128-0.61,0.339-0.86
	c0.171-0.203,0.227-0.453,0.227-0.713c0-0.195-0.002-0.393-0.004-0.588c-0.002-0.355,0.033-0.707,0.158-1.041
	c0.166-0.447,0.142-0.886-0.018-1.322c-0.086-0.238-0.189-0.473-0.288-0.707c-0.083-0.196-0.169-0.394-0.268-0.615
	c0.103-0.167,0.199-0.333,0.304-0.497c0.194-0.312,0.19-0.636,0.016-0.948c-0.104-0.188-0.24-0.355-0.367-0.529
	c-0.081-0.109-0.175-0.211-0.261-0.317c-0.448-0.556-0.448-0.556-0.321-1.275c0.075-0.424,0.332-0.659,0.758-0.667
	c0.155-0.003,0.312,0.023,0.467,0.055c0.262,0.056,0.509,0.006,0.747-0.092c0.207-0.084,0.379-0.215,0.382-0.471
	c0.003-0.273,0.167-0.434,0.393-0.535c0.357-0.16,0.721-0.305,1.08-0.461c0.141-0.062,0.259-0.016,0.392,0.039
	c0.345,0.141,0.693,0.268,1.042,0.396c0.302,0.109,0.603,0.127,0.924,0.069c0.264-0.045,0.545-0.028,0.812,0.002
	c0.429,0.048,0.856,0.103,1.289,0.058c0.495-0.053,0.979,0.024,1.452,0.16c0.723,0.205,1.453,0.291,2.206,0.26
	c1.14-0.045,2.269,0.08,3.386,0.312c0.229,0.047,0.464,0.062,0.698,0.08c0.3,0.023,0.588-0.023,0.836-0.209
	c0.273-0.205,0.563-0.195,0.817-0.003c0.366,0.281,0.775,0.333,1.217,0.345c0.391,0.008,0.781,0.068,1.171,0.096
	c0.133,0.01,0.269-0.012,0.376-0.019c0.177-0.185,0.172-0.387,0.157-0.581c-0.05-0.643,0.104-1.246,0.363-1.824
	c0.165-0.361,0.25-0.735,0.294-1.129c0.086-0.74,0.18-1.479,0.287-2.215c0.045-0.308,0.146-0.607,0.208-0.912
	c0.055-0.25,0.103-0.498,0.138-0.75c0.028-0.214,0.032-0.431,0.058-0.645c0.081-0.713-0.152-1.09-0.838-1.35
	c-0.164-0.062-0.332-0.123-0.486-0.205c-0.694-0.375-1.151-0.992-1.601-1.612c-0.068-0.095-0.061-0.263-0.049-0.394
	c0.016-0.193-0.044-0.352-0.182-0.476c-0.419-0.384-0.833-0.774-1.271-1.136c-0.293-0.241-0.67-0.325-1.036-0.387
	c-0.294-0.049-0.572-0.131-0.839-0.254c-0.544-0.25-1.116-0.351-1.712-0.351c-0.68,0-0.802-0.124-0.869-0.813
	c-0.01-0.098-0.013-0.194-0.019-0.293c-0.015-0.344-0.09-0.662-0.364-0.896c-0.017-0.014-0.026-0.029-0.039-0.044
	c-0.29-0.366-0.229-0.562,0.221-0.644c0.308-0.056,0.621-0.108,0.932-0.113c0.61-0.01,1.149-0.215,1.658-0.526
	c0.165-0.103,0.327-0.208,0.514-0.327c0.2,0.135,0.398,0.258,0.591,0.393c0.375,0.265,0.787,0.426,1.239,0.498
	c0.318,0.052,0.622,0.03,0.932-0.054c0.452-0.123,0.91-0.227,1.363-0.347c0.129-0.035,0.266-0.079,0.369-0.156
	c0.17-0.125,0.243-0.31,0.174-0.52c-0.062-0.188-0.142-0.366-0.22-0.547c-0.221-0.5-0.443-1-0.661-1.481
	c0.083-0.271,0.263-0.36,0.493-0.384c0.283-0.026,0.543,0.033,0.784,0.188c0.312,0.203,0.631,0.396,0.942,0.6
	c0.255,0.166,0.525,0.238,0.833,0.23c0.509-0.014,1.02-0.015,1.527,0c0.306,0.008,0.546-0.096,0.701-0.345
	c0.205-0.33,0.506-0.534,0.822-0.735c0.546-0.349,1.104-0.67,1.705-0.918c0.368-0.15,0.683-0.386,0.949-0.679
	c0.115-0.129,0.219-0.276,0.299-0.433c0.15-0.293,0.278-0.603,0.424-0.899c0.095-0.194,0.193-0.386,0.178-0.612
	c-0.017-0.24,0.104-0.416,0.281-0.552c0.219-0.165,0.445-0.321,0.68-0.462c0.213-0.128,0.455-0.1,0.688-0.062
	c0.21,0.031,0.418,0.08,0.641,0.125c0.312-0.399,0.671-0.729,1.105-0.965c0.051-0.027,0.1-0.062,0.148-0.094
	c0.404-0.248,0.811-0.29,1.204,0.012c0.385,0.295,0.794,0.289,1.224,0.119c0.071-0.027,0.146-0.053,0.222-0.076
	c0.523-0.162,1.056-0.293,1.606-0.32c0.479-0.024,0.938,0.029,1.353,0.304c0.285,0.188,0.603,0.229,0.994,0.203
	c-0.111-0.265-0.332-0.33-0.482-0.466c-0.157-0.145-0.308-0.293-0.509-0.485c-0.09,0.011-0.243,0.028-0.396,0.038
	c-0.408,0.023-0.818,0.057-1.229,0.062c-0.287,0.006-0.533-0.09-0.671-0.398c0.283-0.161,0.551-0.312,0.812-0.463
	c-0.027-0.223-0.186-0.27-0.336-0.295c-0.151-0.027-0.314,0-0.468-0.03c-0.129-0.024-0.267-0.078-0.367-0.16
	c-0.126-0.103-0.188-0.268-0.105-0.425c0.26-0.501,0.445-1.049,0.932-1.405c0.373-0.272,0.62-0.646,0.802-1.067
	c0.103-0.232,0.229-0.455,0.354-0.678c0.044-0.078,0.114-0.144,0.195-0.242c0.176,0.222,0.233,0.441,0.259,0.675
	c0.023,0.233,0.033,0.469,0.052,0.704c0.01,0.137,0.004,0.276,0.037,0.408c0.061,0.243,0.212,0.402,0.467,0.476
	c0.335,0.094,0.663,0.215,1.044,0.34c0.266-0.397,0.436-0.89,0.652-1.353c-0.096-0.148-0.188-0.275-0.258-0.414
	c-0.082-0.166-0.202-0.281-0.361-0.373c-0.188-0.106-0.357-0.24-0.448-0.482c0.047-0.221,0.126-0.458,0.035-0.72
	c-0.09-0.259,0.056-0.474,0.276-0.589c0.238-0.127,0.5-0.223,0.762-0.293c0.357-0.094,0.726-0.172,1.094-0.215
	c0.27-0.029,0.55-0.024,0.813,0.026c0.4,0.079,0.792,0.213,1.188,0.321c0.11,0.029,0.223,0.051,0.386,0.088
	c-0.011-0.126-0.016-0.214-0.026-0.301c-0.018-0.116-0.052-0.231-0.056-0.348c-0.009-0.299,0.111-0.529,0.378-0.681
	c0.267-0.147,0.541-0.224,0.848-0.165c0.151,0.029,0.312,0.079,0.463,0.064c0.434-0.039,0.812,0.086,1.167,0.317
	c0.063,0.043,0.134,0.082,0.206,0.113c0.437,0.19,0.666,0.048,0.699-0.437c0.008-0.115-0.002-0.234,0.013-0.352
	c0.038-0.277,0.216-0.424,0.489-0.377c0.211,0.036,0.414,0.117,0.622,0.168c0.131,0.032,0.268,0.07,0.398,0.064
	c0.21-0.01,0.33-0.273,0.203-0.44c-0.082-0.108-0.196-0.192-0.285-0.296c-0.214-0.253-0.447-0.496-0.626-0.773
	c-0.271-0.42-0.212-0.627,0.198-0.936c0.045-0.034,0.088-0.072,0.146-0.121c0.005-0.229-0.111-0.41-0.26-0.566
	c-0.215-0.227-0.32-0.484-0.311-0.797c0.014-0.375-0.12-0.688-0.405-0.937c-0.058-0.05-0.101-0.117-0.174-0.205
	c0.15-0.132,0.292-0.254,0.45-0.392c-0.064-0.082-0.117-0.164-0.187-0.229c-0.126-0.123-0.263-0.235-0.392-0.356
	c-0.617-0.582-0.65-0.492-0.649-1.529c0-0.646,0.021-1.293,0.045-1.938c0.02-0.462-0.021-0.903-0.35-1.303
	c0.222-0.288,0.354-0.603,0.41-0.956c0.055-0.354,0.306-0.59,0.625-0.729c0.77-0.338,1.531-0.703,2.369-0.851
	c0.241-0.042,0.443-0.138,0.634-0.283c0.231-0.179,0.46-0.367,0.701-0.535c0.32-0.225,0.667-0.409,1.05-0.514
	c0.075-0.021,0.147-0.052,0.226-0.062c0.248-0.031,0.484,0.03,0.641,0.221c0.15,0.188,0.107,0.428-0.021,0.607
	c-0.311,0.426-0.43,0.917-0.533,1.417c-0.029,0.15-0.107,0.293-0.168,0.438c-0.169,0.412-0.094,0.777,0.244,1.062
	c0.207,0.176,0.447,0.312,0.673,0.465c0.128,0.086,0.278,0.156,0.38,0.267c0.244,0.267,0.124,0.646-0.226,0.731
	c-0.131,0.033-0.272,0.028-0.409,0.043c-0.193,0.021-0.338,0.119-0.379,0.312c-0.09,0.432-0.386,0.721-0.687,1
	c-0.315,0.294-0.642,0.579-0.977,0.852c-0.184,0.149-0.264,0.319-0.263,0.557c0.001,0.372-0.021,0.745-0.032,1.117
	c-0.011,0.324,0.059,0.619,0.289,0.867c0.104,0.11,0.218,0.235,0.144,0.449c-0.098,0.012-0.207,0.022-0.317,0.034
	c-0.194,0.021-0.395,0.021-0.583,0.062c-0.229,0.045-0.38,0.186-0.405,0.431c0.106,0.153,0.254,0.082,0.38,0.089
	c0.177,0.01,0.354-0.01,0.528,0.01c0.335,0.039,0.497,0.174,0.539,0.51c0.03,0.236,0.13,0.406,0.308,0.541
	c0.171,0.131,0.353,0.25,0.527,0.373c0.359,0.248,0.737,0.332,1.164,0.18c0.161-0.059,0.346-0.075,0.519-0.067
	c0.129,0.007,0.267,0.064,0.378,0.134c0.167,0.102,0.199,0.299,0.079,0.459c-0.093,0.125-0.211,0.229-0.317,0.344
	c-0.096,0.099-0.191,0.195-0.284,0.293c-0.012,0.013-0.011,0.037-0.021,0.062c0,0.121,0.107,0.153,0.193,0.176
	c0.501,0.133,1.006,0.157,1.5-0.027c0.274-0.104,0.542-0.225,0.806-0.354c0.512-0.25,1.019-0.507,1.522-0.764
	c0.482-0.246,0.979-0.395,1.527-0.246c0.074,0.02,0.155,0.021,0.233,0.023c0.29,0.004,0.534,0.108,0.733,0.319
	c0.187,0.197,0.422,0.312,0.686,0.261c0.69-0.133,1.216,0.17,1.71,0.586c0.03,0.024,0.059,0.054,0.112,0.104
	c0.019,0.299,0.031,0.64,0.392,0.853c0.057-0.049,0.124-0.088,0.16-0.146c0.207-0.335,0.519-0.518,0.879-0.646
	c0.664-0.236,1.335-0.446,2.021-0.612c0.285-0.069,0.569-0.146,0.844-0.248c0.254-0.099,0.522-0.2,0.729-0.368
	c0.329-0.268,0.692-0.438,1.091-0.555c0.284-0.082,0.545-0.194,0.784-0.381c0.146-0.113,0.346-0.193,0.529-0.225
	c0.564-0.091,1.105-0.242,1.637-0.455c0.213-0.084,0.455-0.107,0.688-0.123c0.351-0.023,0.704-0.021,1.057-0.023
	c0.139-0.001,0.279-0.012,0.409,0.021c0.363,0.093,0.644,0.287,0.729,0.681c0.021,0.097,0.044,0.19,0.058,0.289
	c0.043,0.307,0.216,0.483,0.514,0.566c0.456,0.125,0.9,0.232,1.387,0.125c0.399-0.089,0.812-0.083,1.209,0.1
	c0.264,0.123,0.552,0.062,0.805-0.037c0.493-0.196,0.986-0.211,1.5-0.125c0.25,0.043,0.508,0.041,0.763,0.039
	c1.061-0.004,2.117-0.025,3.177-0.022c0.431,0.001,0.86,0.034,1.287,0.079c0.187,0.02,0.353,0.009,0.514-0.071
	c0.23-0.114,0.308-0.267,0.23-0.524c-0.062-0.213-0.112-0.411,0.012-0.62c0.281-0.481,0.137-0.902-0.197-1.291
	c-0.038-0.046-0.088-0.078-0.157-0.14c-0.54-0.053-1.104-0.102-1.669-0.166c-0.289-0.033-0.551-0.084-0.776-0.344
	c-0.192-0.224-0.517-0.336-0.855-0.543c-0.171-0.291-0.401-0.654-0.603-1.033c-0.088-0.168-0.135-0.367-0.164-0.556
	c-0.045-0.289-0.059-0.582-0.086-0.882c0.107-0.128,0.228-0.258,0.33-0.398c0.072-0.097,0.019-0.259-0.098-0.289
	c-0.17-0.046-0.346-0.068-0.516-0.113c-0.365-0.096-0.498-0.387-0.327-0.719c0.045-0.084,0.097-0.176,0.169-0.236
	c0.246-0.206,0.345-0.463,0.312-0.779c-0.031-0.326,0.065-0.627,0.248-0.891c0.383-0.551,0.543-1.168,0.572-1.824
	c0.015-0.343,0.145-0.602,0.452-0.765c0.311-0.165,0.615-0.344,0.933-0.495c0.644-0.303,1.3-0.244,1.946-0.022
	c0.197,0.068,0.388,0.197,0.538,0.343c0.223,0.217,0.41,0.472,0.605,0.716c0.224,0.274,0.431,0.56,0.657,0.831
	c0.233,0.271,0.533,0.447,0.872,0.574c0.389,0.146,0.709,0.122,1.01-0.199c0.24-0.258,0.523-0.476,0.796-0.697
	c0.183-0.146,0.271-0.33,0.281-0.557c0.017-0.333,0.05-0.667,0.04-0.999c-0.016-0.474,0.116-0.886,0.405-1.258
	c0.131-0.169,0.24-0.356,0.348-0.52c-0.156-0.769-0.593-1.209-1.314-1.317c-0.225-0.033-0.413-0.113-0.585-0.25
	c-0.245-0.194-0.49-0.388-0.753-0.594c-0.012-0.237-0.032-0.47-0.03-0.703c0.001-0.317-0.039-0.621-0.159-0.919
	c-0.064-0.158-0.087-0.341-0.088-0.513c-0.002-0.34,0.151-0.617,0.462-0.761c0.434-0.202,0.807-0.478,1.145-0.812
	c0.132-0.129,0.289-0.188,0.476-0.202c0.471-0.037,0.929-0.138,1.359-0.337c0.242-0.112,0.479-0.138,0.737-0.025
	c0.186,0.081,0.384,0.059,0.568-0.042c0.303-0.167,0.634-0.169,0.97-0.178c0.911-0.022,1.794,0.109,2.655,0.411
	c0.238,0.084,0.488,0.138,0.737,0.191c0.247,0.053,0.491,0.089,0.755,0.025c0.204-0.05,0.429-0.021,0.644-0.03
	c0.392-0.018,0.783-0.04,1.174-0.059c0.099-0.004,0.197-0.021,0.291-0.005c0.297,0.053,0.43,0.396,0.25,0.639
	c-0.046,0.062-0.103,0.123-0.167,0.163c-0.216,0.133-0.332,0.334-0.374,0.572c-0.056,0.318-0.176,0.596-0.396,0.835
	c-0.138,0.146-0.209,0.329-0.225,0.532c-0.006,0.098-0.021,0.195-0.029,0.292c-0.027,0.322-0.11,0.613-0.375,0.832
	c-0.27,0.221-0.28,0.505-0.144,0.798c0.083,0.176,0.193,0.34,0.299,0.504c0.196,0.307,0.292,0.638,0.27,1.004
	c-0.023,0.341-0.122,0.643-0.362,0.906c-0.169,0.185-0.315,0.402-0.421,0.629c-0.13,0.283-0.053,0.472,0.234,0.621
	c0.2,0.104,0.344,0.254,0.465,0.434c0.077,0.114,0.151,0.229,0.224,0.346c0.33,0.542,0.329,0.542,0.205,1.147
	c-0.039,0.19-0.078,0.381-0.121,0.588c0.107,0.099,0.201,0.194,0.309,0.276c0.607,0.466,0.861,1.093,0.854,1.845
	c-0.003,0.231-0.044,0.468,0.049,0.722c0.684,0.166,1.364,0.332,2.045,0.499c0.133,0.032,0.266,0.078,0.399,0.097
	c0.292,0.039,0.512,0.182,0.681,0.416c0.045,0.062,0.091,0.129,0.147,0.184c0.201,0.191,0.427,0.267,0.694,0.143
	c0.18-0.08,0.355-0.166,0.541-0.225c0.177-0.057,0.354-0.038,0.487,0.113c0.175,0.197,0.396,0.303,0.649,0.373
	c0.48,0.139,0.884,0.414,1.213,0.793c0.039,0.043,0.08,0.086,0.118,0.132c0.462,0.536,0.4,0.309,0.403,1.032
	c0.001,0.373,0.008,0.746-0.008,1.119c-0.018,0.424,0.078,0.821,0.284,1.186c0.31,0.545,0.638,1.079,0.967,1.611
	c0.138,0.226,0.351,0.367,0.588,0.473c0.223,0.097,0.414,0.224,0.509,0.46c0.145,0.353,0.454,0.465,0.783,0.55
	c0.075,0.02,0.156,0.016,0.234,0.021c0.623,0.062,0.774,0.188,0.952,0.772c0.006,0.019,0.014,0.037,0.019,0.056
	c0.246,0.922,0.089,1.225-0.792,1.572c-0.376,0.149-0.75,0.201-1.146,0.102c-0.188-0.047-0.391-0.065-0.582-0.053
	c-0.334,0.021-0.532,0.252-0.518,0.592c0.008,0.152,0.05,0.309,0.103,0.453c0.052,0.146,0.13,0.285,0.203,0.424
	c0.226,0.43,0.313,0.878,0.243,1.363c-0.025,0.188-0.009,0.392,0.032,0.577c0.045,0.208,0.201,0.341,0.425,0.337
	c0.646-0.012,1.296-0.02,1.887-0.348c0.3-0.167,0.606-0.273,0.951-0.131c0.178,0.074,0.341,0.023,0.512-0.039
	c0.33-0.123,0.667-0.229,1-0.344c0.318-0.112,0.601-0.084,0.874,0.146c0.283,0.24,0.613,0.426,0.894,0.667
	c0.412,0.356,0.62,0.804,0.479,1.363c-0.07,0.272-0.011,0.54,0.035,0.812c0.068,0.44,0.35,0.639,0.736,0.729
	c0.209,0.05,0.425,0.073,0.64,0.103c1.019,0.144,1.784,0.881,1.965,1.898c0.01,0.059,0.019,0.115,0.028,0.174
	c0.099,0.516,0.278,0.699,0.798,0.773c0.172,0.024,0.352,0.017,0.525,0.009c0.323-0.015,0.619,0.06,0.896,0.229
	c0.628,0.385,1.267,0.358,1.886-0.007c0.261-0.153,0.516-0.184,0.786-0.098c0.452,0.146,0.878,0.336,1.2,0.707
	c0.075,0.089,0.169,0.165,0.242,0.254c0.229,0.271,0.479,0.424,0.863,0.38c0.312-0.036,0.619,0.062,0.876,0.275
	c0.219,0.182,0.48,0.248,0.765,0.264c1.062,0.054,2.009,0.482,2.939,0.941c0.202,0.1,0.357,0.291,0.534,0.442
	C136.359,99.652,136.359,99.887,136.359,100.122z"/>
<path fill="#FFFFFF" d="M104.593,0c0.146,0.181,0.305,0.351,0.429,0.545c0.117,0.183,0.085,0.369-0.07,0.537
	c-0.194,0.21-0.399,0.378-0.712,0.314c-0.057-0.012-0.117-0.009-0.176-0.013c-0.21-0.012-0.333,0.108-0.394,0.289
	c-0.048,0.146-0.065,0.303-0.095,0.437c0.042,0.052,0.062,0.092,0.091,0.11c0.521,0.314,0.526,0.314,0.412,0.94
	c-0.024,0.146-0.049,0.275,0.102,0.356c0.163,0.09,0.36,0.052,0.471-0.105c0.076-0.11,0.153-0.239,0.167-0.367
	c0.03-0.268,0.141-0.475,0.315-0.676c0.124-0.141,0.198-0.333,0.267-0.513c0.172-0.458,0.693-0.855,1.157-0.857
	c0.314-0.001,0.606,0.204,0.713,0.514c0.029,0.091,0.037,0.19,0.058,0.308c0.136,0.068,0.28,0.128,0.41,0.21
	c0.425,0.269,0.873,0.428,1.389,0.368c0.271-0.031,0.493,0.078,0.665,0.299c0.21,0.27,0.492,0.437,0.812,0.561
	c0.233,0.092,0.458,0.222,0.677,0.351c0.117,0.068,0.225,0.159,0.318,0.257c0.199,0.214,0.223,0.401,0.051,0.632
	c-0.295,0.399-0.629,0.749-1.159,0.834c-0.129,0.021-0.275,0.079-0.367,0.167c-0.348,0.336-0.819,0.452-1.207,0.718
	c-0.228,0.156-0.477,0.15-0.729,0.041c-0.342-0.146-0.688-0.286-1.031-0.425c-0.254-0.102-0.509-0.204-0.769-0.292
	c-0.141-0.048-0.282,0.084-0.254,0.232c0.022,0.112,0.058,0.235,0.125,0.32c0.136,0.166,0.285,0.325,0.451,0.459
	c0.563,0.457,1.14,0.899,1.706,1.351c0.215,0.17,0.423,0.349,0.635,0.524c0.141,0.115,0.25,0.234,0.244,0.441
	c-0.007,0.24,0.184,0.374,0.338,0.524c0.212,0.204,0.203,0.371-0.052,0.515c-0.404,0.229-0.75,0.556-1.229,0.661
	c-0.383,0.083-0.627,0.381-0.821,0.712c-0.098,0.169-0.184,0.348-0.295,0.507c-0.177,0.252-0.289,0.272-0.603,0.146
	c-0.034-0.015-0.064-0.042-0.101-0.059c-0.017-0.008-0.038-0.005-0.076-0.008c-0.135,0.197-0.264,0.411-0.417,0.604
	c-0.145,0.184-0.313,0.347-0.461,0.504c-0.021,1.183-0.047,2.339-0.062,3.496c-0.004,0.175,0.009,0.354,0.043,0.526
	c0.07,0.355,0.231,0.64,0.561,0.852c0.673,0.438,1.32,0.916,1.979,1.375c0.192,0.136,0.355,0.282,0.459,0.515
	c0.107,0.248,0.282,0.467,0.438,0.692c0.208,0.301,0.241,0.615,0.085,0.944c-0.075,0.159-0.159,0.314-0.249,0.465
	c-0.239,0.405-0.467,0.816-0.729,1.206c-0.175,0.258-0.396,0.484-0.601,0.723c-0.188,0.223-0.395,0.435-0.574,0.666
	c-0.172,0.22-0.183,0.46-0.051,0.716c0.565,1.097,1.123,2.198,1.688,3.296c0.116,0.227,0.234,0.452,0.371,0.668
	c0.352,0.563,0.468,1.198,0.561,1.84c0.033,0.228-0.038,0.426-0.175,0.604c-0.167,0.217-0.336,0.434-0.507,0.648
	c-0.182,0.224-0.256,0.464-0.22,0.762c0.092,0.722,0.083,1.446,0.002,2.17c-0.034,0.3,0.026,0.57,0.168,0.847
	c0.556,1.102,1.088,2.216,1.63,3.325c0.111,0.23,0.204,0.464,0.202,0.729c-0.007,0.507-0.233,0.804-0.729,0.921
	c-0.133,0.032-0.268,0.057-0.392,0.083c-0.163,0.134-0.177,0.31-0.182,0.488c-0.005,0.172,0.103,0.289,0.197,0.414
	c0.135,0.174,0.291,0.323,0.498,0.4c0.362,0.135,0.59,0.376,0.636,0.795c0.525,0.012,0.939,0.269,1.345,0.549
	c0.048,0.034,0.093,0.075,0.146,0.099c0.575,0.256,0.903,0.718,1.11,1.292c0.071,0.202,0.18,0.391,0.28,0.609
	c-0.157,0.52-0.427,0.998-0.757,1.434c-0.543,0.719-1.093,1.437-1.684,2.116c-0.63,0.724-1.305,1.41-1.975,2.101
	c-0.448,0.466-0.938,0.893-1.493,1.229c-0.227,0.136-0.401,0.316-0.532,0.538c-0.28,0.474-0.661,0.82-1.196,0.983
	c-0.239,0.072-0.397,0.206-0.468,0.472c-0.047,0.182-0.165,0.359-0.292,0.502c-0.259,0.293-0.533,0.575-0.826,0.834
	c-0.157,0.139-0.362,0.227-0.55,0.328c-0.137,0.074-0.311,0.102-0.421,0.201c-0.242,0.212-0.521,0.253-0.82,0.255
	c-0.157,0.001-0.312,0.006-0.47,0.003c-0.397-0.007-0.774,0.062-1.141,0.233c-0.482,0.227-1.016,0.28-1.534,0.373
	c-0.27,0.047-0.536,0.114-0.792,0.204c-0.392,0.137-0.776,0.26-1.194,0.285c-0.372,0.022-0.735,0.097-1.063,0.299
	c-0.131,0.081-0.288,0.118-0.437,0.171c-0.184,0.066-0.377,0.112-0.553,0.195c-0.558,0.26-1.122,0.439-1.751,0.402
	c-0.18-0.011-0.374,0.102-0.546,0.188c-0.746,0.371-1.516,0.351-2.291,0.141c-0.387-0.104-0.51-0.305-0.469-0.695
	c0.012-0.096,0.047-0.19,0.063-0.286c0.013-0.074,0.012-0.149,0.019-0.239c-0.202-0.124-0.395-0.179-0.646-0.098
	c-0.067,0.335-0.089,0.696-0.355,0.966c-0.239,0.075-0.404-0.058-0.557-0.221c-0.253-0.273-0.511-0.543-0.752-0.826
	c-0.289-0.339-0.65-0.559-1.062-0.71c-0.183-0.067-0.364-0.139-0.542-0.224c-0.386-0.187-0.594-0.506-0.621-0.93
	c-0.048-0.767,0.008-1.529,0.171-2.279c0.035-0.168,0.106-0.337,0.197-0.484c0.281-0.454,0.349-0.949,0.314-1.466
	c-0.018-0.243-0.115-0.459-0.265-0.644c-0.245-0.304-0.353-0.653-0.377-1.032c-0.022-0.371-0.048-0.744-0.044-1.115
	c0.006-0.358-0.066-0.688-0.189-1.028c-0.173-0.476-0.271-0.979-0.396-1.471c-0.038-0.149,0.021-0.292,0.139-0.365
	c0.625-0.393,0.962-1.018,1.334-1.616c0.333-0.534,0.786-0.92,1.395-1.109c0.129-0.04,0.252-0.099,0.368-0.146
	c0.042-0.093,0.096-0.161,0.103-0.234c0.074-0.712,0.582-1.181,0.966-1.718c0.072-0.103,0.214-0.167,0.334-0.228
	c0.438-0.22,0.875-0.441,1.318-0.643c0.299-0.135,0.541-0.325,0.676-0.622c0.227-0.492,0.587-0.872,0.951-1.257
	c0.404-0.426,0.801-0.866,1.148-1.338c0.558-0.754,1.269-1.269,2.157-1.549c0.11-0.035,0.221-0.08,0.33-0.123
	c0.034-0.014,0.067-0.037,0.13-0.07c0.083-0.246,0.027-0.521,0.038-0.789c0.01-0.294,0.002-0.588,0.002-0.882
	c0-0.274,0-0.548,0-0.748c-0.328-0.348-0.604-0.653-0.896-0.941c-0.093-0.091-0.225-0.161-0.352-0.196
	c-0.367-0.1-0.684-0.294-0.987-0.509c-0.304-0.214-0.606-0.43-0.907-0.644c-0.048-0.171-0.083-0.343-0.145-0.506
	c-0.054-0.139-0.19-0.199-0.334-0.177c-0.131,0.02-0.208,0.103-0.249,0.221c-0.02,0.054-0.021,0.116-0.021,0.174
	c0.006,0.307-0.184,0.453-0.438,0.553c-0.392,0.151-0.781,0.119-1.146-0.049c-0.516-0.238-1.065-0.235-1.606-0.289
	c-0.202-0.02-0.43,0.054-0.622,0.136c-0.269,0.113-0.437,0.329-0.445,0.637c-0.003,0.098-0.006,0.196-0.006,0.294
	c0,0.27-0.094,0.497-0.3,0.675c-0.044,0.039-0.083,0.083-0.126,0.124c-0.872,0.814-1.509,1.793-2.045,2.851
	c-0.304,0.595-0.284,1.168-0.044,1.754c0.125,0.306,0.296,0.593,0.459,0.912c-0.078,0.104-0.152,0.215-0.24,0.316
	c-0.23,0.268-0.46,0.536-0.7,0.794c-0.31,0.334-0.559,0.705-0.743,1.122c-0.055,0.125-0.115,0.25-0.186,0.367
	c-0.36,0.605-0.812,1.104-1.523,1.299c-0.269,0.073-0.498,0.204-0.69,0.417c-0.113,0.124-0.283,0.218-0.445,0.272
	c-0.409,0.137-0.729,0.387-0.967,0.733c-0.212,0.308-0.479,0.497-0.849,0.579c-0.161,0.036-0.315,0.149-0.444,0.261
	c-0.342,0.296-0.667,0.608-0.994,0.918c-0.47,0.444-0.937,0.893-1.398,1.335c-0.012,0.069-0.034,0.127-0.029,0.184
	c0.021,0.313-0.137,0.528-0.396,0.666c-0.247,0.132-0.453,0.304-0.639,0.509c-0.235,0.259-0.351,0.563-0.373,0.905
	c-0.005,0.078-0.006,0.157-0.005,0.235c0.01,1.156,0.07,0.771-0.396,1.864c-0.354,0.832-0.653,1.678-0.81,2.572
	c-0.042,0.243-0.034,0.459,0.062,0.684c0.183,0.413,0.348,0.832,0.527,1.245c0.078,0.179,0.172,0.352,0.271,0.519
	c0.071,0.119,0.173,0.208,0.319,0.237c0.578,0.118,1.002,0.522,1.472,0.831c0.177,0.116,0.257,0.377,0.414,0.628
	c0.323,0.015,0.603,0.243,0.856,0.527c0.208,0.233,0.436,0.454,0.678,0.651c0.366,0.298,0.524,0.672,0.496,1.134
	c-0.005,0.078-0.012,0.155-0.021,0.261c-0.126,0.067-0.278,0.118-0.391,0.214c-0.115,0.099-0.185,0.248-0.286,0.367
	c-0.089,0.104-0.188,0.198-0.29,0.292c-0.269,0.254-0.366,0.547-0.222,0.903c0.021,0.053,0.027,0.113,0.039,0.165
	c-0.285,0.374-1.113,1.106-1.519,1.273c-0.733,0.302-1.372,0.753-2.01,1.21c-0.189,0.138-0.374,0.29-0.578,0.404
	c-0.33,0.184-0.47,0.482-0.474,0.826c-0.007,0.618-0.177,1.195-0.342,1.781c-0.126,0.45-0.194,0.921-0.237,1.388
	c-0.035,0.374-0.101,0.736-0.203,1.094c-0.077,0.27-0.118,0.54-0.007,0.808c0.109,0.264,0.035,0.452-0.19,0.604
	c-0.098,0.063-0.183,0.146-0.285,0.229c0.057,0.5,0.005,0.98-0.188,1.439c-0.083,0.197-0.176,0.395-0.281,0.581
	c-0.144,0.255-0.308,0.5-0.456,0.753c-0.249,0.423-0.621,0.648-1.104,0.67c-0.686,0.029-1.374,0.076-2.035-0.225
	c-0.105,0.115-0.198,0.214-0.291,0.311c-0.189,0.199-0.382,0.387-0.685,0.417c-0.126,0.015-0.277,0.087-0.357,0.185
	c-0.348,0.418-0.765,0.812-0.844,1.381c-0.051,0.363-0.237,0.547-0.554,0.681c-0.532,0.226-1.073,0.372-1.655,0.313
	c-0.277-0.026-0.542-0.093-0.76-0.278c-0.252-0.218-0.285-0.392-0.146-0.724c0.03-0.071,0.062-0.145,0.075-0.183
	c-0.146-0.657-0.399-1.221-0.917-1.657c0.086-0.121,0.152-0.213,0.215-0.305c0.112-0.161,0.244-0.312,0.328-0.484
	c0.155-0.322,0.159-0.65-0.09-0.936c-0.446-0.51-0.734-1.105-1.017-1.713c-0.089-0.192-0.196-0.387-0.338-0.542
	c-0.277-0.312-0.493-0.655-0.65-1.04c-0.164-0.398-0.31-0.805-0.7-1.06c-0.172-0.111-0.229-0.321-0.261-0.513
	c-0.047-0.263-0.155-0.477-0.355-0.657c-0.199-0.179-0.284-0.417-0.292-0.684c-0.008-0.244-0.09-0.455-0.262-0.636
	c-0.211-0.223-0.304-0.501-0.312-0.805c-0.01-0.405-0.066-0.779-0.458-1.023c-0.08-0.05-0.138-0.201-0.134-0.303
	c0.009-0.272,0.037-0.547,0.095-0.813c0.071-0.325,0.251-0.47,0.577-0.475c0.151-0.002,0.312,0.036,0.452,0.09
	c0.191,0.074,0.38,0.086,0.577,0.055c0.103-0.017,0.208-0.068,0.193-0.176c-0.013-0.08-0.094-0.164-0.163-0.217
	c-0.06-0.043-0.146-0.053-0.225-0.058c-0.076-0.005-0.159,0-0.23,0.026c-0.346,0.124-0.606,0.026-0.815-0.27
	c-0.121-0.17-0.312-0.236-0.514-0.248c-0.441-0.026-0.686-0.288-0.772-0.683c-0.09-0.399-0.133-0.809-0.187-1.215
	c-0.023-0.174-0.003-0.355-0.037-0.527c-0.029-0.149-0.088-0.301-0.167-0.431c-0.11-0.182-0.305-0.242-0.453-0.176
	c-0.194,0.086-0.321,0.271-0.296,0.463c0.017,0.135,0.054,0.269,0.092,0.4c0.059,0.2,0.057,0.393-0.072,0.562
	c-0.164,0.218-0.129,0.446-0.049,0.671c0.265,0.737,0.044,1.018-0.481,1.407c-0.295,0.218-0.646,0.368-0.979,0.525
	c-0.247,0.116-0.514,0.19-0.769,0.29c-0.546,0.212-0.987,0.546-1.283,1.067C52.35,65.296,52,65.69,51.57,66.013
	c-0.223,0.167-0.457,0.292-0.737,0.341c-0.522,0.093-1.016,0.272-1.476,0.553c-0.211,0.129-0.466,0.193-0.708,0.264
	c-0.263,0.077-0.531,0.126-0.756,0.303c-0.25,0.197-0.555,0.193-0.847,0.161c-0.124-0.014-0.256-0.097-0.354-0.183
	c-0.577-0.5-1.145-1.015-1.718-1.518c-0.311-0.271-0.621-0.54-0.948-0.787c-0.402-0.303-0.698-0.684-0.905-1.137
	c-0.091-0.197-0.071-0.34,0.044-0.429c0.147-0.114,0.293-0.076,0.438,0.01c0.098,0.059,0.193,0.119,0.306,0.186
	c0.086-0.082,0.179-0.136,0.22-0.215c0.109-0.212,0.229-0.408,0.437-0.542c0.047-0.03,0.093-0.082,0.109-0.134
	c0.165-0.472,0.525-0.823,0.765-1.249c0.103-0.184,0.244-0.36,0.192-0.625c-0.408-0.179-0.826-0.187-1.216,0.047
	c-0.314,0.191-0.604,0.43-0.896,0.659c-0.215,0.169-0.41,0.365-0.625,0.536c-0.196,0.156-0.352,0.142-0.521-0.02
	c-0.165-0.155-0.199-0.366-0.04-0.522c0.435-0.424,0.833-0.893,1.357-1.209c0.196-0.118,0.437-0.164,0.659-0.24
	c0.145-0.05,0.291-0.093,0.503-0.161c-0.145-0.11-0.236-0.169-0.313-0.244c-0.109-0.108-0.229-0.217-0.311-0.348
	c-0.227-0.368-0.125-0.635,0.277-0.775c0.197-0.068,0.4-0.121,0.638-0.191c-0.08-0.113-0.138-0.19-0.19-0.269
	c-0.182-0.266-0.403-0.41-0.747-0.304c-0.222,0.068-0.368-0.066-0.473-0.255c-0.12-0.216-0.129-0.45-0.116-0.686
	c0.011-0.195,0.048-0.39,0.055-0.585c0.02-0.514-0.135-0.69-0.652-0.774c-0.457-0.074-0.789-0.291-1.244-0.816
	c0.002-0.192,0.149-0.289,0.292-0.323c0.183-0.044,0.387-0.047,0.573-0.015c0.187,0.033,0.361,0.13,0.541,0.199
	c0.223-0.154,0.328-0.36,0.407-0.583c0.062-0.17-0.016-0.374-0.181-0.446c-0.204-0.09-0.415-0.119-0.608,0.036
	c-0.105,0.085-0.203,0.184-0.318,0.256c-0.183,0.112-0.373,0.105-0.56,0.001c-0.188-0.105-0.247-0.361-0.083-0.496
	c0.236-0.193,0.375-0.446,0.538-0.69c0.15-0.227,0.328-0.436,0.479-0.634c0.001-0.25-0.167-0.321-0.325-0.4
	c-0.28-0.141-0.564-0.273-0.773-0.566c0.065-0.09,0.112-0.21,0.199-0.267c0.316-0.205,0.542-0.454,0.483-0.867
	c0.369-0.207,0.673-0.475,1.06-0.558c0.358-0.077,0.732-0.084,1.149-0.127c0.084-0.165,0.199-0.347,0.271-0.544
	c0.104-0.288,0.293-0.45,0.587-0.514c0.27-0.058,0.533-0.125,0.799-0.196c0.107-0.029,0.213-0.08,0.358-0.136
	c-0.214-0.232-0.479-0.192-0.7-0.276c-0.232-0.089-0.513-0.008-0.756-0.204c0.144-0.273,0.358-0.424,0.641-0.446
	c0.21-0.016,0.44-0.014,0.634,0.061c0.564,0.218,1.124,0.095,1.682,0.006c0.165-0.026,0.333-0.124,0.471-0.228
	c0.233-0.176,0.483-0.215,0.771-0.222c0.429-0.011,0.857-0.071,1.286-0.119c0.072-0.008,0.14-0.056,0.254-0.104
	c-0.079-0.074-0.131-0.119-0.179-0.169c-0.261-0.275-0.238-0.52,0.071-0.719c0.13-0.083,0.275-0.138,0.438-0.218
	c-0.232-0.139-0.445-0.266-0.678-0.405c0.103-0.219,0.24-0.337,0.447-0.366c0.319-0.044,0.596-0.189,0.859-0.361
	c0.182-0.117,0.37-0.2,0.594-0.231c0.163-0.023,0.324-0.127,0.467-0.222c0.229-0.151,0.44-0.326,0.667-0.497
	c0.007-0.05,0.022-0.109,0.018-0.165c-0.034-0.307,0.136-0.488,0.392-0.584c0.289-0.108,0.584-0.094,0.832,0.113
	c0.063,0.053,0.095,0.168,0.103,0.258c0.007,0.094-0.043,0.19-0.053,0.287c-0.012,0.148,0.092,0.261,0.248,0.266
	c0.116,0.004,0.239,0.005,0.35-0.029c0.447-0.14,0.893-0.288,1.336-0.443c0.34-0.12,0.612-0.327,0.833-0.623
	c0.268-0.362,0.566-0.7,0.854-1.048c0.349-0.422,0.331-0.599-0.093-0.983c-0.027-0.025-0.069-0.035-0.147-0.072
	c-0.186,0.071-0.404,0.146-0.615,0.24c-0.155,0.069-0.254,0.194-0.191,0.376c0.086,0.249,0.028,0.461-0.131,0.658
	c-0.203,0.252-0.445,0.452-0.775,0.486c-0.229,0.025-0.466,0.005-0.718,0.005c-0.312-0.33-0.619-0.653-0.937-0.989
	c0.099-0.2,0.173-0.38,0.271-0.545c0.244-0.402,0.497-0.798,0.75-1.194c0.215-0.335,0.498-0.601,0.826-0.827
	c0.274-0.188,0.536-0.395,0.803-0.594c0.227-0.168,0.376-0.164,0.567,0.024c0.042,0.041,0.074,0.09,0.112,0.135
	c0.277,0.323,0.593,0.375,0.916,0.127c0.243-0.189,0.458-0.416,0.647-0.728c-0.453-0.01-0.804-0.152-1.143-0.438
	c0.104-0.103,0.17-0.205,0.264-0.252c0.155-0.078,0.325-0.132,0.495-0.177c0.317-0.083,0.555-0.231,0.72-0.542
	c0.272-0.512,0.75-0.847,1.189-1.206c0.116-0.095,0.283-0.127,0.427-0.189c0.122-0.054,0.243-0.109,0.4-0.179
	c-0.077-0.125-0.122-0.232-0.196-0.31c-0.203-0.212-0.412-0.421-0.632-0.614c-0.287-0.252-0.279-0.549,0.011-0.87
	c0.09-0.099,0.215-0.167,0.328-0.245c0.062-0.043,0.132-0.075,0.219-0.123c-0.007-0.142-0.02-0.276-0.018-0.411
	c0.003-0.195-0.003-0.395,0.031-0.585c0.101-0.528,0.413-0.82,0.944-0.904c0.116-0.018,0.239-0.002,0.352-0.035
	c0.104-0.03,0.194-0.104,0.331-0.18c-0.1-0.135-0.183-0.238-0.253-0.349c-0.146-0.229-0.146-0.397,0.039-0.583
	c0.107-0.107,0.244-0.21,0.388-0.25c0.261-0.074,0.534-0.122,0.806-0.14c0.352-0.023,0.706-0.009,1.058-0.003
	c0.207,0.003,0.388-0.056,0.54-0.19c0.127-0.111,0.193-0.248,0.147-0.417c-0.042-0.153-0.237-0.306-0.398-0.3
	c-0.114,0.004-0.229,0.045-0.347,0.055c-0.512,0.042-1.021,0.052-1.484-0.225c-0.079-0.048-0.15-0.109-0.255-0.185
	c0.108-0.119,0.189-0.228,0.289-0.314c0.193-0.166,0.4-0.315,0.6-0.477c0.307-0.25,0.507-0.538,0.382-0.967
	c-0.088-0.302,0.01-0.584,0.17-0.84c0.241-0.385,0.516-0.741,0.94-0.943c0.303-0.142,0.602-0.287,0.901-0.425
	c0.211-0.097,0.448-0.158,0.542-0.401c-0.009-0.046-0.007-0.088-0.023-0.12c-0.27-0.506-0.261-0.596,0.13-0.957
	c0.215-0.2,0.438-0.391,0.721-0.497c0.219-0.083,0.429-0.097,0.602,0.078c0.391,0.392,0.904,0.317,1.38,0.391
	c0.036,0.005,0.09-0.001,0.111-0.024c0.064-0.064,0.146-0.134,0.166-0.215c0.013-0.05-0.051-0.152-0.107-0.184
	c-0.116-0.067-0.249-0.112-0.38-0.151c-0.204-0.062-0.413-0.111-0.611-0.163c-0.203-0.209-0.114-0.498-0.223-0.716
	c-0.16-0.162-0.356-0.155-0.554-0.164c-0.136-0.005-0.274-0.016-0.404-0.054c-0.153-0.046-0.209-0.27-0.102-0.39
	c0.063-0.071,0.139-0.144,0.224-0.182c0.321-0.144,0.646-0.286,0.978-0.404c0.224-0.08,0.472-0.089,0.691,0.003
	c0.256,0.107,0.488,0.077,0.742,0.009c0.34-0.09,0.69-0.14,1.034-0.214c0.271-0.058,0.362-0.169,0.367-0.445
	c0.002-0.097,0-0.201-0.034-0.289c-0.104-0.267-0.153-0.52,0.01-0.787c0.04-0.065,0.013-0.196-0.024-0.277
	c-0.074-0.158-0.179-0.301-0.291-0.487c0.114-0.062,0.204-0.129,0.305-0.159c0.2-0.06,0.437,0.005,0.605-0.186
	c0.009-0.396-0.363-0.582-0.522-0.926c0.184-0.106,0.363-0.215,0.548-0.314c0.362-0.194,0.727-0.388,1.092-0.573
	c0.14-0.07,0.287-0.166,0.434-0.169c0.613-0.011,0.981-0.425,1.415-0.778c-0.047-0.15-0.085-0.278-0.124-0.405
	c-0.106-0.353-0.024-0.664,0.23-0.918c0.181-0.178,0.385-0.332,0.578-0.496c0.068-0.057,0.138-0.113,0.293-0.24
	c-0.59-0.009-1.068-0.016-1.52-0.023c-0.202-0.226-0.261-0.452-0.212-0.691c0.044-0.229,0.101-0.462,0.194-0.674
	c0.188-0.419,0.669-0.661,1.119-0.588c0.266,0.042,0.48,0.165,0.595,0.424c0.048,0.106,0.094,0.213,0.115,0.268
	c0.404,0.109,0.76,0.211,1.118,0.3c0.208,0.052,0.419,0.107,0.631,0.12c0.306,0.019,0.567,0.098,0.801,0.309
	c0.507,0.457,0.871,0.252,1.157-0.199c0.06-0.094,0.087-0.207,0.146-0.348c-0.156-0.053-0.281-0.092-0.403-0.138
	c-0.283-0.105-0.523-0.246-0.626-0.567C79.933,9.83,79.807,9.69,79.71,9.543c-0.222-0.333-0.206-0.668,0.014-0.99
	c0.117-0.175,0.268-0.33,0.418-0.512c-0.378-0.377-0.84-0.651-1.189-1.013c0.062-0.214,0.19-0.299,0.348-0.339
	c0.284-0.072,0.568-0.153,0.857-0.196c0.436-0.065,0.661,0.193,0.579,0.634c-0.007,0.039-0.013,0.079-0.028,0.114
	c-0.134,0.317-0.039,0.563,0.209,0.785c0.114,0.102,0.205,0.238,0.284,0.372c0.146,0.247,0.11,0.373-0.124,0.544
	c-0.078,0.057-0.169,0.102-0.235,0.171c-0.118,0.127-0.115,0.335-0.008,0.491c0.101,0.142,0.24,0.191,0.413,0.123
	c0.312-0.121,0.599-0.282,0.873-0.503c-0.167-0.634,0.042-1.197,0.259-1.794c0.196-0.009,0.372-0.039,0.541-0.019
	c0.279,0.033,0.398,0.243,0.304,0.506c-0.137,0.368-0.272,0.735-0.418,1.098c-0.078,0.194-0.083,0.377-0.004,0.569
	c0.137,0.318,0.438,0.468,0.767,0.357c0.144-0.049,0.274-0.134,0.417-0.205C83.951,9.5,83.891,9.29,83.904,9.084
	c0.013-0.189,0.09-0.379,0.166-0.557c0.084-0.197,0.199-0.38,0.309-0.585c0.613-0.104,1.284-0.025,1.735-0.595
	c0.474,0.133,0.921,0.259,1.397,0.394c0.154-0.215,0.303-0.417,0.438-0.606c-0.174-0.389-0.333-0.743-0.479-1.075
	c0.104-0.15,0.2-0.088,0.285-0.062c0.28,0.082,0.56,0.172,0.856,0.266c0.082-0.101,0.144-0.2,0.227-0.274
	c0.102-0.09,0.215-0.169,0.33-0.236c0.156-0.089,0.311-0.035,0.437,0.068c0.11,0.092,0.162,0.221,0.119,0.369
	c-0.033,0.112-0.07,0.223-0.111,0.354c0.348,0.238,0.75,0.334,1.136,0.459c0.227,0.073,0.424-0.069,0.555-0.25
	c0.117-0.167,0.146-0.37,0.025-0.554c-0.095-0.147-0.225-0.272-0.323-0.418c-0.13-0.193-0.108-0.398,0.092-0.508
	c0.419-0.232,0.671-0.582,0.852-1.012c0.066-0.156,0.19-0.301,0.32-0.414c0.307-0.266,0.648-0.342,1.028-0.134
	c0.167,0.091,0.32,0.238,0.54,0.179c0.146-0.158,0.156-0.354,0.146-0.552c-0.023-0.47,0.127-0.886,0.389-1.269
	c0.088-0.129,0.17-0.264,0.261-0.392c0.13-0.181,0.217-0.371,0.187-0.602c-0.021-0.16-0.021-0.323,0.144-0.416
	c0.226-0.126,0.46-0.242,0.723-0.123c0.14,0.063,0.27,0.157,0.39,0.254c0.089,0.071,0.156,0.169,0.257,0.283
	c0.279-0.065,0.564-0.124,0.845-0.202c0.216-0.06,0.389-0.017,0.525,0.153c0.13,0.161,0.122,0.412-0.021,0.599
	c-0.083,0.108-0.188,0.202-0.277,0.304c-0.339,0.386-0.641,0.793-0.755,1.31c-0.04,0.18-0.142,0.32-0.274,0.441
	c-0.115,0.104-0.229,0.213-0.35,0.325c0.04,0.402-0.093,0.74-0.353,1.032c-0.024,0.029-0.044,0.065-0.062,0.099
	c-0.108,0.193-0.085,0.343,0.085,0.461c0.21,0.145,0.438,0.245,0.693,0.271c0.242-0.546,0.242-0.546,0.697-0.956
	c0.042-0.174,0.06-0.376,0.142-0.546c0.083-0.172,0.229-0.312,0.35-0.468c0.036-0.046,0.074-0.092,0.101-0.145
	c0.438-0.886,1.107-1.614,1.643-2.435c0.175-0.268,0.392-0.484,0.766-0.512c0.122,0.353-0.021,0.665-0.092,0.977
	c-0.071,0.324-0.178,0.641-0.27,0.959c0.028,0.058,0.052,0.114,0.085,0.16c0.287,0.393,0.289,0.446,0.019,0.813
	c-0.045,0.062-0.084,0.128-0.122,0.195c-0.008,0.013,0.003,0.038,0.009,0.08c0.26,0.083,0.525,0.038,0.801,0.024
	c0.093-0.134,0.168-0.271,0.271-0.384c0.122-0.135,0.221-0.271,0.235-0.46c0.005-0.076,0.021-0.166,0.066-0.223
	c0.386-0.49,0.543-1.137,1.067-1.529c0.015-0.011,0.021-0.031,0.061-0.086c-0.063-0.347-0.136-0.728-0.212-1.136
	c0.167-0.069,0.323-0.134,0.479-0.199C103.181,0,103.887,0,104.593,0z"/>
<path fill="#FFFFFF" d="M0,90.945c0.473-0.131,0.925-0.29,1.265-0.676c0.088-0.103,0.213-0.172,0.321-0.252
	c0.165-0.121,0.273-0.275,0.312-0.48c0.021-0.115,0.051-0.229,0.086-0.342c0.092-0.291,0.284-0.461,0.6-0.467
	c0.061-0.002,0.118,0.004,0.176,0c0.5-0.033,0.709-0.449,0.428-0.865c-0.108-0.159-0.246-0.299-0.377-0.456
	c0.095-0.396,0.304-0.675,0.688-0.816c0.123-0.045,0.275-0.084,0.266-0.265c-0.01-0.126-0.129-0.191-0.372-0.212
	c-0.409-0.035-0.821-0.054-1.229-0.109c-0.188-0.026-0.376-0.106-0.546-0.196c-0.116-0.061-0.22-0.166-0.297-0.271
	c-0.194-0.271-0.181-0.496,0.033-0.748c0.088-0.104,0.206-0.186,0.292-0.29c0.185-0.228,0.363-0.458,0.534-0.697
	c0.05-0.071,0.054-0.176,0.07-0.235c-0.084-0.146-0.187-0.123-0.279-0.125c-0.117-0.002-0.236,0.013-0.353-0.004
	C1.368,83.396,1.22,83.13,1.33,82.9c0.066-0.14,0.167-0.267,0.276-0.375c0.221-0.221,0.458-0.426,0.719-0.668
	c0.17,0.059,0.36,0.102,0.529,0.186c0.379,0.188,0.736,0.221,1.098-0.045c0.091-0.066,0.211-0.094,0.341-0.15
	c0.115,0.107,0.223,0.221,0.34,0.314c0.185,0.145,0.454,0.049,0.514-0.18c0.022-0.094,0.011-0.195,0.024-0.291
	c0.034-0.219,0.163-0.342,0.384-0.377c0.227-0.037,0.427,0.043,0.616,0.145c0.225,0.117,0.439,0.249,0.682,0.387
	c0.139-0.158,0.182-0.33,0.176-0.494c-0.009-0.277,0.097-0.49,0.285-0.679c0.039-0.039,0.055-0.099,0.079-0.144
	c-0.05-0.148-0.145-0.197-0.273-0.135c-0.087,0.041-0.157,0.119-0.244,0.162c-0.522,0.256-1.045,0.299-1.581-0.062
	c0.075-0.468,0.204-0.897,0.61-1.206c0.392-0.298,0.796-0.566,1.276-0.706c0.317-0.092,0.633-0.206,0.952-0.291
	c0.245-0.063,0.497-0.118,0.741-0.021c0.122,0.133,0.153,0.273,0.108,0.44C8.94,78.872,8.863,79,8.718,79.083
	c-0.135,0.078-0.272,0.149-0.399,0.239c-0.035,0.022-0.062,0.121-0.04,0.15c0.038,0.055,0.124,0.133,0.168,0.119
	c0.207-0.056,0.413-0.125,0.604-0.216c0.391-0.185,0.772-0.379,1.152-0.582c0.217-0.114,0.429-0.158,0.675-0.103
	c0.305,0.072,0.615,0.106,0.958,0.162c0.222,0.432,0.444,0.862,0.664,1.297c0.223,0.438,0.438,0.875,0.666,1.328
	c-0.183,0.328-0.374,0.646-0.54,0.979c-0.099,0.197-0.25,0.293-0.454,0.328c-0.326,0.057-0.652,0.127-0.982,0.158
	c-0.335,0.033-0.412,0.4-0.266,0.625c0.073,0.113,0.185,0.201,0.281,0.297c0.226,0.214,0.364,0.458,0.311,0.781
	c-0.038,0.226,0.03,0.427,0.134,0.621c0.045,0.086,0.083,0.176,0.122,0.268c0.075,0.17,0.099,0.341-0.017,0.503
	c-0.228,0.321-0.199,0.668-0.083,1.012c0.072,0.214,0.086,0.405,0.014,0.625c-0.081,0.239-0.126,0.495-0.152,0.747
	c-0.057,0.561-0.4,0.923-0.817,1.232c-0.101,0.074-0.254,0.085-0.387,0.104c-0.48,0.076-0.967,0.14-1.45,0.218
	C8.746,90,8.606,90.037,8.493,90.105c-0.241,0.145-0.494,0.23-0.772,0.244c-0.245,0.012-0.458,0.106-0.624,0.289
	c-0.33,0.355-0.746,0.543-1.204,0.69c-0.521,0.168-1.014,0.417-1.521,0.623c-0.344,0.139-0.688,0.276-1.065,0.309
	c-0.407,0.034-0.529-0.032-0.687-0.395c-0.308-0.712-0.313-0.72-1.081-0.691c-0.176,0.007-0.354,0.009-0.524,0.048
	C0.649,91.307,0.316,91.255,0,91.062C0,91.023,0,90.984,0,90.945z"/>
<path fill="#FFFFFF" d="M13.691,73.977c-1.091,0.112-1.562,0.054-2.002-0.275c0.104-0.438,0.188-0.899,0.328-1.346
	c0.165-0.531,0.512-0.965,0.873-1.381c0.397-0.463,0.424-0.59,0.048-1.059c-0.217-0.271-0.289-0.543-0.23-0.869
	c0.035-0.192,0.072-0.384,0.114-0.574c0.05-0.224,0.177-0.405,0.388-0.487c0.364-0.141,0.525-0.437,0.688-0.759
	c0.327-0.646,0.68-1.279,1.024-1.916c0.047-0.084,0.114-0.155,0.188-0.25c0.625,0,1.251,0,1.878,0c0.529,0,1.058-0.013,1.586,0.01
	c0.23,0.01,0.466,0.07,0.683,0.153c0.409,0.156,0.503,0.442,0.242,0.781c-0.297,0.383-0.579,0.792-1.077,0.964
	c-0.316,0.11-0.502,0.375-0.615,0.674c-0.154,0.401-0.28,0.813-0.422,1.225c0.224,0.354,0.53,0.367,0.878,0.277
	c0.49-0.128,0.982-0.252,1.478-0.374c0.113-0.028,0.232-0.051,0.348-0.051c0.744-0.005,1.489-0.012,2.233,0.002
	c0.211,0.004,0.429,0.056,0.631,0.125c0.337,0.114,0.464,0.416,0.261,0.696c-0.218,0.302-0.312,0.625-0.345,0.98
	c-0.021,0.24-0.111,0.44-0.286,0.625c-0.145,0.148-0.271,0.34-0.343,0.535c-0.185,0.496-0.5,0.883-0.893,1.219
	c-0.226,0.19-0.453,0.375-0.677,0.566c-0.086,0.075-0.156,0.165-0.247,0.26c0.091,0.168,0.17,0.321,0.26,0.488
	c-0.179,0.383-0.455,0.631-0.854,0.752c-0.205,0.062-0.408,0.137-0.604,0.221c-0.119,0.05-0.183,0.146-0.113,0.303
	c0.286,0.109,0.598,0.142,0.91,0.113c0.675-0.061,1.277,0.139,1.843,0.48c0.3,0.186,0.594,0.38,0.876,0.591
	c0.709,0.529,1.225,1.207,1.523,2.046c0.177,0.498,0.347,0.998,0.521,1.498c0.104,0.295,0.209,0.588,0.313,0.879
	c0.369,0.109,0.727,0.207,1.075,0.32c0.474,0.153,0.896,0.396,1.259,0.737c0.099,0.094,0.201,0.192,0.267,0.31
	c0.156,0.283,0.183,0.559-0.078,0.803c-0.186,0.174-0.37,0.351-0.553,0.526c-0.11,0.106-0.219,0.218-0.354,0.351
	c0.183,0.182,0.345,0.346,0.51,0.506c0.186,0.182,0.378,0.312,0.669,0.299c0.372-0.02,0.625,0.188,0.745,0.544
	c0.067,0.203,0.16,0.403,0.195,0.612c0.061,0.344-0.002,0.66-0.307,0.895c-0.104,0.081-0.178,0.204-0.258,0.314
	c-0.021,0.024-0.009,0.074-0.013,0.135c0.357,0.263,0.741,0.271,1.145,0.091c0.105-0.048,0.22-0.092,0.312-0.161
	c0.276-0.206,0.569-0.215,0.894-0.136c0.285,0.069,0.577,0.127,0.868,0.146c0.303,0.019,0.509,0.155,0.688,0.379
	c0.187,0.229,0.395,0.438,0.579,0.664c0.252,0.311,0.279,0.641,0.052,0.978c-0.219,0.323-0.435,0.651-0.666,0.969
	c-0.248,0.338-0.578,0.583-0.955,0.765c-0.229,0.107-0.457,0.217-0.687,0.328c-0.05,0.243-0.029,0.49-0.206,0.676
	c-0.146,0.15-0.279,0.312-0.422,0.476c0.282,0.142,0.517,0.284,0.769,0.379c0.215,0.082,0.45,0.117,0.679,0.162
	c0.24,0.047,0.37,0.163,0.387,0.369c0.015,0.198-0.162,0.428-0.384,0.45c-0.173,0.018-0.349-0.02-0.568-0.034
	c-0.04,0.061-0.098,0.159-0.163,0.251c-0.104,0.15-0.241,0.242-0.426,0.285c-0.533,0.125-1.062,0.281-1.594,0.398
	c-0.443,0.1-0.892,0.108-1.34-0.009c-0.206-0.053-0.424-0.065-0.638-0.074c-0.885-0.028-1.759,0.103-2.635,0.192
	c-0.098,0.01-0.194,0.039-0.291,0.039c-0.458-0.002-0.882,0.061-1.25,0.389c-0.22,0.195-0.521,0.143-0.785,0.043
	c-0.22-0.081-0.431-0.188-0.65-0.271c-0.63-0.243-1.188-0.145-1.658,0.356c-0.176,0.187-0.342,0.38-0.523,0.558
	c-0.14,0.136-0.293,0.26-0.455,0.365c-0.171,0.114-0.357,0.143-0.556,0.039c-0.521-0.271-1.067-0.215-1.604-0.074
	c-0.434,0.113-0.852,0.285-1.275,0.434c-0.238,0.083-0.476,0.17-0.688,0.247c-0.25-0.14-0.275-0.331-0.195-0.524
	c0.065-0.156,0.175-0.306,0.289-0.435c0.435-0.481,0.881-0.949,1.313-1.429c0.357-0.395,0.742-0.758,1.183-1.054
	c0.159-0.105,0.338-0.209,0.522-0.25c0.404-0.088,0.794-0.198,1.166-0.382c0.118-0.059,0.256-0.072,0.441-0.123
	c0.123,0.171,0.248,0.346,0.418,0.583c0.235-0.556,0.671-0.688,1.075-0.817c0.098-0.203-0.002-0.303-0.15-0.313
	c-0.192-0.017-0.392,0.004-0.581,0.037c-0.191,0.032-0.376,0.103-0.592,0.162c-0.258-0.112-0.451-0.341-0.675-0.526
	c-0.176-0.146-0.352-0.204-0.586-0.197c-0.843,0.021-1.686,0.004-2.526,0.02c-0.277,0.005-0.494-0.073-0.675-0.283
	c-0.111-0.133-0.237-0.254-0.358-0.381c0.022-0.073,0.042-0.127,0.061-0.18c0.182-0.529,0.521-0.834,1.103-0.899
	c0.236-0.026,0.472-0.183,0.685-0.313c0.267-0.166,0.507-0.369,0.757-0.558c0.131-0.098,0.208-0.222,0.234-0.39
	c0.082-0.521,0.177-1.038,0.268-1.564c-0.093-0.117-0.209-0.01-0.312-0.012c-0.19-0.003-0.341-0.076-0.475-0.2
	c-0.154-0.144-0.157-0.329,0.009-0.452c0.622-0.459,1.312-0.783,2.062-0.955c0.158-0.035,0.346,0.032,0.514,0.074
	c0.208,0.051,0.406,0.146,0.616,0.184c0.39,0.068,0.699-0.287,0.497-0.608c-0.262-0.415-0.188-0.813-0.121-1.236
	c0.077-0.487,0.043-0.973-0.015-1.45c-0.083-0.062-0.139-0.131-0.208-0.151c-0.534-0.167-0.781-0.63-1.077-1.039
	c-0.132-0.185-0.169-0.394-0.056-0.609c0.145-0.276,0.287-0.556,0.431-0.833c0.107-0.205,0.274-0.384,0.303-0.647
	c-0.186-0.125-0.4-0.177-0.604-0.107c-0.157,0.052-0.293,0.185-0.423,0.298c-0.178,0.153-0.337,0.326-0.508,0.487
	c-0.281,0.265-0.604,0.354-0.974,0.206c-0.072-0.029-0.146-0.053-0.22-0.081c-0.229-0.094-0.462-0.079-0.691-0.006
	c-0.167,0.054-0.329,0.123-0.508,0.192c-0.312-0.11-0.586-0.299-0.833-0.521c-0.238-0.212-0.271-0.509-0.04-0.724
	c0.352-0.324,0.452-0.771,0.648-1.168c0.05-0.104,0.084-0.232,0.069-0.344c-0.102-0.846-0.26-1.668-1.063-2.185
	c-0.222,0.128-0.439,0.254-0.651,0.377c-0.292-0.11-0.417-0.32-0.449-0.588c-0.033-0.283,0.027-0.55,0.223-0.767
	c0.091-0.104,0.199-0.188,0.297-0.285c0.126-0.125,0.26-0.25,0.214-0.452c-0.047-0.214-0.185-0.332-0.41-0.382
	C13.496,73.559,13.806,73.749,13.691,73.977z"/>
<path fill="#FFFFFF" d="M62.12,134.607c0.152-0.201,0.362-0.274,0.561-0.347c0.386-0.137,0.78-0.245,1.176-0.36
	c0.153-0.047,0.311-0.041,0.452,0.053c0.498,0.332,1.066,0.348,1.635,0.373c0.233,0.01,0.471-0.008,0.705,0.013
	c0.336,0.028,0.646,0.017,0.951-0.179c0.146-0.096,0.383-0.124,0.561-0.09c0.211,0.041,0.382-0.004,0.564-0.074
	c0.164-0.064,0.325-0.132,0.492-0.184c0.199-0.062,0.39-0.021,0.558,0.104c0.176,0.133,0.245,0.307,0.173,0.516
	c-0.056,0.166-0.136,0.324-0.22,0.479c-0.096,0.171-0.207,0.333-0.311,0.499c-0.193,0.317-0.27,0.635-0.082,0.997
	c0.148,0.285,0.188,0.604,0.02,0.902c-0.2,0.352-0.498,0.604-0.882,0.733c-0.095,0.031-0.245-0.005-0.325-0.065
	c-0.167-0.133-0.321-0.287-0.448-0.457c-0.138-0.186-0.3-0.305-0.523-0.346c-0.058-0.011-0.112-0.029-0.171-0.039
	c-0.562-0.082-1.114-0.186-1.591-0.533c-0.089-0.065-0.221-0.08-0.336-0.101c-0.651-0.108-1.224-0.399-1.759-0.771
	c-0.321-0.224-0.627-0.467-0.938-0.709C62.257,134.925,62.131,134.825,62.12,134.607z"/>
<path fill="#FFFFFF" d="M54.051,129.364c0.08,0.176,0.138,0.298,0.188,0.407c-0.022,0.055-0.029,0.095-0.052,0.123
	c-0.108,0.14-0.229,0.271-0.33,0.412c-0.218,0.305-0.439,0.584-0.818,0.725c-0.207,0.076-0.371,0.279-0.543,0.438
	c-0.325,0.299-0.503,0.369-0.998,0.088c-0.065-0.039-0.129-0.089-0.188-0.138c-0.577-0.464-0.657-0.819-0.338-1.483
	c0.143-0.297,0.284-0.596,0.412-0.86c-0.068-0.218-0.146-0.379-0.175-0.552c-0.062-0.377-0.205-0.702-0.471-0.987
	c-0.217-0.233-0.21-0.462-0.021-0.75c0.406-0.609,0.989-0.959,1.712-0.999c1.148-0.062,1.146,0.057,1.628,0.896
	c0.087,0.15,0.151,0.315,0.229,0.476c0.094,0.196,0.157,0.394,0.099,0.622c-0.031,0.129-0.023,0.271-0.015,0.408
	C54.4,128.609,54.341,129.007,54.051,129.364z"/>
<path fill="#FFFFFF" d="M58.204,76.939c0.194-0.205,0.335-0.366,0.491-0.514c0.098-0.093,0.205-0.193,0.328-0.238
	c0.729-0.268,1.435-0.619,2.215-0.735c0.113-0.017,0.231-0.002,0.376-0.002c0.252,0.36,0.514,0.723,0.763,1.095
	c0.17,0.254,0.097,0.436-0.207,0.52c-0.131,0.037-0.27,0.051-0.398,0.088c-0.298,0.087-0.43,0.348-0.316,0.642
	c0.041,0.106,0.108,0.207,0.162,0.312c0.053,0.104,0.104,0.207,0.163,0.326c-0.052,0.065-0.087,0.141-0.146,0.182
	c-0.229,0.162-0.328,0.377-0.302,0.656c0.006,0.058,0.005,0.116-0.004,0.174c-0.035,0.205-0.218,0.357-0.423,0.307
	c-0.183-0.046-0.385-0.119-0.516-0.246c-0.288-0.281-0.614-0.467-0.993-0.594c-0.355-0.12-0.565-0.417-0.711-0.742
	C58.509,77.775,58.371,77.37,58.204,76.939z"/>
<path fill="#FFFFFF" d="M54.226,122.041c-0.146,0.374-0.29,0.732-0.431,1.095c-0.246,0.642-0.792,0.944-1.372,1.191
	c-0.28,0.12-0.504-0.032-0.527-0.349c-0.049-0.623-0.087-1.246-0.096-1.869c-0.002-0.204,0.089-0.418,0.173-0.61
	c0.089-0.204,0.238-0.338,0.499-0.334c0.169,0.002,0.34-0.062,0.508-0.104c0.253-0.062,0.467,0.002,0.63,0.2
	C53.821,121.516,54.021,121.779,54.226,122.041z"/>
<path fill="#FFFFFF" d="M77.97,70.837c-0.227,0.008-0.42-0.071-0.595-0.21c-0.32-0.255-0.394-0.501-0.19-0.87
	c0.244-0.446,0.551-0.852,0.934-1.192c0.277-0.247,0.562-0.486,0.838-0.73c0.192-0.168,0.398-0.314,0.649-0.383
	c0.166-0.046,0.312-0.007,0.425,0.121c0.119,0.135,0.091,0.289,0.025,0.438c-0.093,0.207-0.257,0.349-0.449,0.445
	c-0.272,0.134-0.396,0.346-0.441,0.64c-0.055,0.346-0.147,0.686-0.227,1.027c-0.106,0.468-0.318,0.654-0.793,0.705
	C78.088,70.834,78.029,70.834,77.97,70.837z"/>
<path fill="#FFFFFF" d="M87.81,65.906c0.06-0.076,0.104-0.14,0.154-0.195c0.567-0.609,0.568-0.609,1.399-0.615
	c0.214-0.001,0.428-0.013,0.641,0.001c0.134,0.009,0.27,0.043,0.393,0.093c0.099,0.04,0.142,0.151,0.091,0.244
	c-0.073,0.134-0.158,0.271-0.271,0.37c-0.13,0.112-0.286,0.2-0.444,0.269c-0.305,0.133-0.606,0.257-0.865,0.474
	c-0.208,0.174-0.434,0.139-0.647,0.002C88.038,66.407,87.876,66.218,87.81,65.906z"/>
<path fill="#FFFFFF" d="M83.976,79.51c0.011-0.056,0.006-0.123,0.036-0.165c0.325-0.46,0.812-0.638,1.34-0.728
	c0.1-0.018,0.223,0.052,0.321,0.103c0.113,0.058,0.157,0.218,0.076,0.3c-0.245,0.246-0.484,0.504-0.767,0.703
	c-0.123,0.088-0.338,0.064-0.509,0.058C84.277,79.771,84.102,79.688,83.976,79.51z"/>
<path fill="#FFFFFF" d="M82.063,58.704c-0.459-0.001-0.723-0.314-0.603-0.709c0.048-0.16,0.155-0.275,0.315-0.312
	c0.274-0.063,0.542-0.021,0.781,0.133c0.229,0.148,0.257,0.445,0.062,0.651C82.469,58.628,82.283,58.722,82.063,58.704z"/>
<path fill="#FFFFFF" d="M89.361,64.013c-0.045-0.006-0.124-0.008-0.199-0.028c-0.277-0.077-0.422-0.329-0.311-0.589
	c0.091-0.211,0.194-0.445,0.476-0.464c0.271-0.018,0.425,0.162,0.548,0.372c0.208,0.354,0.046,0.665-0.362,0.701
	C89.472,64.008,89.433,64.009,89.361,64.013z"/>
</svg>
