<?xml version="1.0" encoding="utf-8"?>
<!DOCTYPE svg PUBLIC "-//W3C//DTD SVG 1.1//EN" "http://www.w3.org/Graphics/SVG/1.1/DTD/svg11.dtd">
<svg version="1.1" id="africa" xmlns="http://www.w3.org/2000/svg" xmlns:xlink="http://www.w3.org/1999/xlink" x="0px" y="0px"
	 width="118.43px" height="134.158px" viewBox="0 0 118.43 134.158" enable-background="new 0 0 118.43 134.158"
	 xml:space="preserve">
<path fill="#FFFFFF" d="M87.414,12.199c0.607,2.616,1.014,5.058,2.019,7.331c0.052,0.12,0.112,0.328,0.053,0.396
	c-1.151,1.361-0.043,2.494,0.483,3.56c1.063,2.135,1.655,4.528,3.649,6.177c0.901,0.745,0.913,2.111,0.886,3.274
	c-0.04,1.715,0.531,3.103,1.609,4.468c1.174,1.482,1.933,3.286,3.013,4.851c1.875,2.711,4.208,4.958,7.406,6.464
	c-0.717,0.276-0.975,0.699-0.789,1.308c0.196,0.667,0.698,0.979,1.34,1.059c0.945,0.116,1.854-0.114,2.745-0.41
	c1.859-0.617,3.708-1.261,5.567-1.865c0.888-0.289,1.968-0.68,2.655-0.012c0.63,0.61,0.339,1.68,0.089,2.536
	c-1.584,5.42-3.659,10.555-8.114,14.364c-0.936,0.8-2.057,1.269-3.055,1.944c-0.465,0.311-1.094,0.455-1.431,0.857
	c-2.869,3.48-7.091,6.182-7.453,11.182c-0.154,2.186-0.038,4.537,0.755,6.709c0.972,2.648,1.317,5.4,1.55,8.195
	c0.168,2.067-0.77,3.494-2.406,4.545c-1.404,0.904-2.875,1.713-4.298,2.588c-0.634,0.394-1.271,0.801-1.826,1.283
	c-1.166,1.021-1.771,2.194-1.161,3.828c0.399,1.081,0.886,2.133,1.105,3.292c0.382,1.974,0.114,3.17-1.713,3.923
	c-2.534,1.049-3.413,2.766-3.174,5.365c0.119,1.327-0.448,2.461-1.621,3.209c-1.125,0.706-1.765,1.847-2.614,2.791
	c-2.095,2.318-4.455,4.428-6.898,6.38c-1.131,0.901-2.719,1.127-4.26,1.099c-2.091-0.035-4.139,0.03-6.145,0.945
	c-1.76,0.811-3.197,0.037-3.918-1.777c-0.374-0.951-0.791-1.934-0.886-2.935c-0.28-2.957-1.584-5.487-2.93-8.06
	c-1.488-2.844-2.604-5.881-3.582-8.933c-0.509-1.604-0.296-3.411-1.23-4.956c-0.647-1.07-1.219-2.189-1.786-3.307
	c-1.863-3.646-1.917-7.412,0.36-10.738c2.5-3.645,1.147-7.081,0.369-10.688c-0.861-3.99-3.778-6.622-6.138-9.62
	c-0.777-0.986-1.114-1.823-0.33-2.986c0.865-1.289,1.126-2.842,1.541-4.308c0.303-1.07-0.39-1.653-1.277-2.03
	c-1.411-0.593-2.927-0.547-4.402-0.616c-1.286-0.059-2.231-0.4-2.665-1.751c-0.415-1.298-1.399-1.814-2.76-1.942
	c-2.448-0.22-4.698,0.577-6.968,1.223c-1.595,0.452-3.185,0.697-4.818,0.523c-1.558-0.169-2.95,0.218-4.263,1.011
	c-1.815,1.101-3.53,1.055-5.336-0.179c-2.427-1.662-4.583-3.66-6.933-5.406c-0.22-0.165-0.318-0.349-0.271-0.588
	c0.25-1.407-0.659-2.232-1.513-3.105c-0.843-0.864-1.763-1.684-1.991-2.962c-0.081-0.458-0.454-0.59-0.819-0.64
	c-1.114-0.149-1.539-0.957-1.819-1.873c-0.667-2.159-1.225-4.363-0.191-6.529c1.062-2.217,0.76-4.493,0.37-6.711
	c-0.517-2.926,0.312-5.328,2.199-7.473c1.167-1.329,1.861-2.89,2.342-4.553c0.484-1.666,1.41-2.688,3.214-3.062
	c1.923-0.396,3.074-1.968,3.387-3.721c0.857-4.886,4.378-7.866,7.531-11.126c0.609-0.627,1.745-0.582,2.383-0.314
	c2.901,1.219,5.129-0.369,7.508-1.493c2.779-1.316,5.73-1.694,8.793-1.985c2.69-0.254,5.36-0.339,8.041-0.357
	c3.367-0.02,2.86-0.427,2.87,2.885c0.002,1.195,0.108,2.364-0.49,3.543c-0.527,1.037,0.195,1.814,1.217,2.09
	c2.199,0.591,4.411,1.148,6.638,1.616c0.822,0.171,1.409,0.248,1.674,1.274c0.377,1.492,3.215,2.797,4.783,2.409
	c0.55-0.136,0.665-0.485,0.728-1.015c0.342-2.891,3.138-4.411,5.724-3.117c0.957,0.477,1.902,0.989,2.796,1.574
	c2.723,1.785,5.676,2.119,8.811,1.611C83.312,12.422,85.318,12.653,87.414,12.199z"/>
<path fill="#FFFFFF" d="M113.917,90.795c2.29,1.522,3.203,4.861,2.255,7.28c-1.831,4.66-3.108,9.512-4.569,14.298
	c-0.795,2.592-2.1,3.537-4.319,2.903c-1.164-0.332-1.745-1.189-2.102-2.224c-0.438-1.274-0.729-2.594-1.333-3.815
	c-0.367-0.746-0.316-1.424,0.456-2.07c1.232-1.041,1.576-2.38,1.089-4.014c-0.906-3.019-0.006-4.836,2.896-6.154
	c1.753-0.792,3.197-1.838,3.861-3.77C112.48,92.263,113.146,91.466,113.917,90.795z"/>
</svg>
