<?xml version="1.0" encoding="utf-8"?>
<!DOCTYPE svg PUBLIC "-//W3C//DTD SVG 1.1//EN" "http://www.w3.org/Graphics/SVG/1.1/DTD/svg11.dtd">
<svg version="1.1" id="home_icon_6" xmlns="http://www.w3.org/2000/svg" xmlns:xlink="http://www.w3.org/1999/xlink" x="0px" y="0px"
	 width="61px" height="46px" viewBox="0 0 61 46" enable-background="new 0 0 61 46" xml:space="preserve">
<g>
	<g>
		<path fill="#4B4B4B" d="M9.801,42.59H5.238l-0.634,2.236H0.5l4.889-13.549h4.384l4.889,13.549h-4.209L9.801,42.59z M8.968,39.66
			l-1.437-4.869l-1.42,4.869H8.968z"/>
		<path fill="#4B4B4B" d="M15.884,31.279h4.02V41.49h6.272v3.338H15.884V31.279z"/>
		<path fill="#4B4B4B" d="M27.932,31.279h6.681c1.455,0,2.546,0.359,3.27,1.08c0.725,0.721,1.088,1.746,1.088,3.076
			c0,1.369-0.396,2.439-1.186,3.209c-0.789,0.771-1.995,1.154-3.615,1.154h-2.199v5.027h-4.038L27.932,31.279L27.932,31.279z
			 M31.969,37.054h0.984c0.773,0,1.318-0.143,1.633-0.422c0.312-0.277,0.471-0.641,0.471-1.076c0-0.426-0.137-0.785-0.408-1.082
			c-0.271-0.295-0.782-0.441-1.535-0.441h-1.145V37.054z"/>
		<path fill="#4B4B4B" d="M41.177,31.279h4.028v13.549h-4.028V31.279z"/>
		<path fill="#4B4B4B" d="M48.062,31.279h3.752l4.896,7.496v-7.496H60.5v13.549h-3.788l-4.871-7.439v7.439h-3.778V31.279
			L48.062,31.279z"/>
	</g>
	<path fill="#4B4B4B" d="M29.771,2.932c1.413,2.413,0.809,1.443,2.222,3.855L22.5,23.83c-2.548-0.006-2.9,0-5.448,0
		c-0.065,0-0.131-0.006-0.225-0.01c0.107-0.205,0.203-0.389,0.301-0.57c3.746-7.055,7.883-15.025,11.634-22.078"/>
	<path fill="#4B4B4B" d="M33.207,8.687c2.747,4.652,6.087,10.479,8.832,15.127c-0.079,0.008-5.76,0.014-5.76,0.014l-6.136-10.109
		L33.207,8.687z"/>
</g>
</svg>
