<?xml version="1.0" encoding="utf-8"?>
<!DOCTYPE svg PUBLIC "-//W3C//DTD SVG 1.1//EN" "http://www.w3.org/Graphics/SVG/1.1/DTD/svg11.dtd">
<svg version="1.1" id="home_icon_3" xmlns="http://www.w3.org/2000/svg" xmlns:xlink="http://www.w3.org/1999/xlink" x="0px" y="0px"
	 width="42px" height="46px" viewBox="0 0 42 46" enable-background="new 0 0 42 46" xml:space="preserve">
<g>
	<g>
		<path fill="#4B4B4B" d="M21.184,3.259c10.856,0.082,19.644,9.027,19.558,19.91c-0.085,10.918-8.984,19.646-19.952,19.572
			C9.854,42.667,1.168,33.757,1.259,22.704C1.347,11.905,10.292,3.177,21.184,3.259z M2.896,22.905
			c-0.061,9.938,8.002,18.127,17.917,18.196c10.062,0.069,18.182-7.966,18.249-18.062c0.066-9.914-8.014-18.061-17.973-18.119
			C11.118,4.862,2.958,12.927,2.896,22.905z"/>
		<path fill="#4B4B4B" d="M20.93,43.501h-0.145c-5.452-0.037-10.552-2.187-14.361-6.053c-3.865-3.925-5.968-9.16-5.923-14.75
			C0.591,11.56,9.8,2.499,21.028,2.499l0.16,0.002c5.454,0.039,10.575,2.217,14.417,6.131c3.845,3.912,5.938,9.078,5.895,14.543
			C41.411,34.382,32.184,43.501,20.93,43.501z M21.028,4.017c-10.398,0-18.927,8.387-19.011,18.693
			c-0.042,5.185,1.906,10.039,5.486,13.674c3.524,3.576,8.244,5.564,13.291,5.601h0.134c10.425,0,18.972-8.442,19.054-18.819
			c0.039-5.061-1.899-9.844-5.459-13.469c-3.56-3.621-8.297-5.639-13.346-5.676L21.028,4.017z M20.951,41.861c-0.001,0,0,0-0.002,0
			l-0.14-0.002C10.45,41.788,2.074,33.282,2.138,22.9C2.202,12.567,10.654,4.161,20.98,4.161l0.114,0.002
			c5.019,0.029,9.734,2.014,13.28,5.588s5.48,8.295,5.447,13.293C39.751,33.595,31.461,41.861,20.951,41.861z M20.98,5.679
			c-9.495,0-17.267,7.73-17.326,17.232c-0.059,9.545,7.641,17.364,17.164,17.432h0.129c0.001,0,0.001,0,0.002,0
			c9.667,0,17.289-7.602,17.355-17.309c0.029-4.59-1.748-8.928-5.009-12.215C30.037,7.532,25.7,5.708,21.085,5.68L20.98,5.679z"/>
	</g>
	<rect x="9.595" y="14.796" fill="none" width="24.312" height="16.771"/>
	<g enable-background="new    ">
		<path fill="#4B4B4B" d="M12.146,21.613H9.969v-2.42h2.177v-2.507l2.859-0.814v3.321h5.762v2.42h-5.762v3.145
			c0,1.129,0.212,1.946,0.638,2.452c0.426,0.506,1.019,0.759,1.781,0.759c0.396,0,0.755-0.047,1.078-0.143
			c0.322-0.096,0.612-0.217,0.869-0.363c0.256-0.146,0.491-0.308,0.704-0.482c0.212-0.176,0.407-0.338,0.583-0.484l1.319,1.979
			c-0.248,0.295-0.56,0.562-0.934,0.803c-0.374,0.242-0.777,0.455-1.209,0.639c-0.433,0.184-0.884,0.326-1.353,0.43
			c-0.469,0.104-0.931,0.153-1.385,0.153c-1.643,0-2.878-0.458-3.706-1.374c-0.829-0.916-1.243-2.372-1.243-4.366L12.146,21.613
			L12.146,21.613z"/>
		<path fill="#4B4B4B" d="M20.812,14.795h4.663v8.775h0.659l3.607-4.377h3.364l-4.442,5.015l2.882,3.563h2.045v2.418h-3.562
			l-3.782-4.553h-0.771v4.553h-2.858V17.214h-1.805V14.795z"/>
	</g>
</g>
</svg>
