<?xml version="1.0" encoding="utf-8"?>
<!DOCTYPE svg PUBLIC "-//W3C//DTD SVG 1.1//EN" "http://www.w3.org/Graphics/SVG/1.1/DTD/svg11.dtd">
<svg version="1.1" id="home_icon_2" xmlns="http://www.w3.org/2000/svg" xmlns:xlink="http://www.w3.org/1999/xlink" x="0px" y="0px"
	 width="73px" height="46px" viewBox="0 0 73 46" enable-background="new 0 0 73 46" xml:space="preserve">
<g>
	<g enable-background="new    ">
		<path fill="#4B4B4B" d="M5.39,37.245c0.561-0.995,1.485-1.548,2.651-1.563v2.465c-1.515-0.144-2.515,0.601-2.651,1.8v4.375H2.77
			v-8.513h2.622L5.39,37.245L5.39,37.245z"/>
		<path fill="#4B4B4B" d="M16.938,40.799h-5.743c0.258,1.01,0.955,1.579,1.924,1.579c0.712,0,1.409-0.3,1.955-0.868l1.379,1.404
			c-0.833,0.948-2.061,1.501-3.561,1.501c-2.667,0-4.333-1.737-4.333-4.327c0-2.638,1.727-4.375,4.258-4.375
			C15.695,35.713,17.119,37.688,16.938,40.799z M14.423,39.33c0-1.043-0.636-1.723-1.576-1.723c-0.909,0-1.531,0.695-1.697,1.723
			H14.423z"/>
		<path fill="#4B4B4B" d="M26.592,44.32h-2.621v-1.121c-0.576,0.789-1.409,1.23-2.455,1.23c-2.303,0-3.818-1.769-3.818-4.406
			c0-2.604,1.5-4.326,3.758-4.326c1.076,0,1.939,0.441,2.515,1.232v-4.328h2.621V44.32z M23.971,40.088
			c0-1.311-0.728-2.211-1.818-2.211s-1.818,0.9-1.833,2.211c0.015,1.311,0.743,2.227,1.833,2.227S23.971,41.398,23.971,40.088z"/>
		<path fill="#4B4B4B" d="M36.444,44.32l-1.606-5.401l-1.606,5.401h-2.606l-2.985-8.512h2.667l1.682,5.891l1.636-5.891h2.5
			l1.681,5.891l1.652-5.891h2.561l-2.984,8.512H36.444z"/>
		<path fill="#4B4B4B" d="M50.935,40.057c0,2.621-1.787,4.358-4.454,4.358c-2.683,0-4.47-1.737-4.47-4.358s1.787-4.344,4.47-4.344
			C49.147,35.713,50.935,37.434,50.935,40.057z M44.647,40.088c0,1.326,0.742,2.211,1.833,2.211c1.075,0,1.817-0.885,1.817-2.211
			c0-1.311-0.742-2.211-1.817-2.211C45.39,37.877,44.647,38.777,44.647,40.088z"/>
		<path fill="#4B4B4B" d="M60.591,40.057c0,2.621-1.789,4.358-4.455,4.358c-2.683,0-4.471-1.737-4.471-4.358
			s1.788-4.344,4.471-4.344C58.802,35.713,60.591,37.434,60.591,40.057z M54.302,40.088c0,1.326,0.742,2.211,1.834,2.211
			c1.074,0,1.817-0.885,1.817-2.211c0-1.311-0.743-2.211-1.817-2.211C55.044,37.877,54.302,38.777,54.302,40.088z"/>
		<path fill="#4B4B4B" d="M70.229,44.32h-2.621v-1.121c-0.576,0.789-1.409,1.23-2.455,1.23c-2.303,0-3.818-1.769-3.818-4.406
			c0-2.604,1.5-4.326,3.758-4.326c1.076,0,1.939,0.441,2.517,1.232v-4.328h2.621L70.229,44.32L70.229,44.32z M67.608,40.088
			c0-1.311-0.729-2.211-1.818-2.211s-1.818,0.9-1.834,2.211c0.016,1.311,0.743,2.227,1.834,2.227
			C66.882,42.314,67.608,41.398,67.608,40.088z"/>
	</g>
	<path fill="#4B4B4B" d="M35.88,28.385c-8.062,0-14.619-6.016-14.619-13.408S27.818,1.57,35.88,1.57
		c8.061,0,14.619,6.014,14.619,13.406S43.94,28.385,35.88,28.385z M35.88,3.544c-6.973,0-12.646,5.128-12.646,11.433
		c0,6.304,5.673,11.433,12.646,11.433c6.972,0,12.645-5.129,12.645-11.433C48.524,8.672,42.852,3.544,35.88,3.544z"/>
	<g>
		<path fill="#4B4B4B" d="M35.698,7.418c0.08-0.083,0.176-0.125,0.287-0.125c0.112,0,0.209,0.042,0.29,0.125
			c0,0,4.981,5.185,4.999,5.237c0.02,0.053,0.027,0.022,0.027,0.077c0,0.055-0.494,0.918-0.604,0.918s-4.166-4.335-4.166-4.335
			v17.389c0,0.117-0.179,0.215-0.257,0.296c-0.081,0.084-0.178,0.125-0.29,0.125c-0.111,0-0.207-0.041-0.287-0.125
			c-0.081-0.081-0.188-0.181-0.188-0.298V9.313c0,0-4.16,4.413-4.266,4.37c-0.092-0.038-0.531-0.754-0.583-0.867
			C30.611,12.709,35.698,7.418,35.698,7.418z"/>
		<path fill="#4B4B4B" d="M35.985,27.619c-0.246,0-0.468-0.096-0.642-0.273c-0.125-0.127-0.328-0.332-0.328-0.644V10.555
			c-3.426,3.623-3.521,3.623-3.771,3.623l-0.185-0.035c-0.348-0.149-0.844-1.111-0.848-1.121c-0.188-0.401-0.192-0.409,5.129-5.945
			c0.354-0.363,0.939-0.36,1.287-0.001c3.978,4.139,4.833,5.032,5.038,5.294h0.002c0.127,0.15,0.127,0.311,0.127,0.363
			c0,0.19-0.556,1.412-1.098,1.412c-0.257,0-0.318,0-3.673-3.58v16.14c0,0.318-0.23,0.505-0.354,0.605l-0.043,0.035
			C36.456,27.523,36.232,27.619,35.985,27.619z M35.15,8.976l0.853,0.338v17.269c0.012-0.01,0.023-0.021,0.036-0.03V9.315
			l0.854-0.337c1.176,1.257,2.984,3.174,3.748,3.944c0.027-0.048,0.057-0.096,0.082-0.141c-0.659-0.703-3.057-3.205-4.736-4.953
			c-1.603,1.668-4.05,4.244-4.732,5.026c0.021,0.033,0.043,0.068,0.065,0.103C32.03,12.256,33.674,10.541,35.15,8.976z"/>
	</g>
	<g>
		<path fill="#4B4B4B" d="M35.632,15.534l-4.426,5.055c-0.088,0.098-0.751-0.662-0.665-0.761l5.221-5.883
			c0.087-0.101,0.189-0.149,0.312-0.149c0.118,0,0.225,0.049,0.31,0.149c0,0,5.264,5.717,5.283,5.779
			c0.021,0.064-0.455,0.854-0.578,0.854c-0.119,0-4.575-5.044-4.575-5.044"/>
		<path fill="#4B4B4B" d="M31.19,21.09c-0.137,0-0.306-0.055-0.5-0.227c-0.29-0.255-0.922-0.897-0.521-1.359l5.225-5.888
			c0.354-0.406,1.011-0.408,1.366,0.009c5.327,5.785,5.333,5.808,5.377,5.953c0.039,0.12,0.106,0.33-0.43,1.069
			c-0.15,0.205-0.332,0.423-0.619,0.423c-0.289,0-0.344,0-4.943-5.21l0.733-0.649c-0.278-0.303-0.549-0.596-0.804-0.873
			l-0.791,0.891l0.721,0.631l-4.426,5.055C31.54,20.955,31.403,21.09,31.19,21.09z M31.134,19.903
			c0.003,0.003,0.005,0.006,0.008,0.009l1.191-1.361L31.134,19.903z M37.114,15.468c1.316,1.488,3.176,3.571,3.938,4.383
			c0.012-0.017,0.021-0.031,0.029-0.047C40.494,19.149,38.71,17.202,37.114,15.468z"/>
	</g>
</g>
</svg>
