<?xml version="1.0" encoding="utf-8"?>
<!DOCTYPE svg PUBLIC "-//W3C//DTD SVG 1.1//EN" "http://www.w3.org/Graphics/SVG/1.1/DTD/svg11.dtd">
<svg version="1.1" id="home_icon_1" xmlns="http://www.w3.org/2000/svg" xmlns:xlink="http://www.w3.org/1999/xlink" x="0px"
	 y="0px" width="59px" height="46px" viewBox="0 0 59 46" enable-background="new 0 0 59 46" xml:space="preserve">
<g>
	<g enable-background="new    ">
		<path fill="#4B4B4B" d="M14.044,33.959c-0.591,0.312-1.32,0.557-2.186,0.729c-0.866,0.178-1.869,0.25-3.009,0.229l-3.083-0.037
			v4.945H0.87v-12.74h9.121c0.676,0,1.189,0.018,1.542,0.054c0.352,0.036,0.637,0.093,0.855,0.171
			c0.218,0.079,0.418,0.172,0.602,0.28c0.184,0.108,0.444,0.235,0.781,0.379c1.365,0.59,2.048,1.582,2.048,2.978
			C15.817,32.305,15.227,33.31,14.044,33.959z M10.244,29.628c-0.295-0.156-0.651-0.276-1.066-0.36
			c-0.415-0.084-0.89-0.115-1.425-0.091l-1.985,0.036v3.572l1.837,0.055c0.577,0.025,1.083-0.006,1.52-0.09
			c0.436-0.084,0.802-0.198,1.098-0.344c0.591-0.287,0.887-0.752,0.887-1.391C11.109,30.393,10.82,29.93,10.244,29.628z"/>
		<path fill="#4B4B4B" d="M17.042,39.824v-12.74h11.402v2.58h-6.376v2.473h7.348v2.562h-7.348v2.562h9.121v2.562H17.042V39.824z"/>
		<path fill="#4B4B4B" d="M45.441,39.824l-8.045-6.082v6.082h-4.898v-12.74h4.898v5.847l6.564-5.847h5.26l-6.777,5.828l9.1,6.912
			H45.441z"/>
		<path fill="#4B4B4B" d="M54.541,39.824v-3.537h3.59v3.537H54.541z"/>
	</g>
	<path fill="#4B4B4B" d="M18.319,15.14c0,0,16.19-10.049,15.452,7.416c0,0,13.396-11.32,21.627,6.024c0,0,2.803-10.942-6.66-15.655
		c-3.891-1.936-11.676,2.003-11.676,2.003s-2.254-9.225-9.392-8.734C20.537,6.683,17.58,13.528,18.319,15.14z"/>
</g>
</svg>
