<?xml version="1.0" encoding="utf-8"?>
<!DOCTYPE svg PUBLIC "-//W3C//DTD SVG 1.1//EN" "http://www.w3.org/Graphics/SVG/1.1/DTD/svg11.dtd">
<svg version="1.1" id="home_icon_4" xmlns="http://www.w3.org/2000/svg" xmlns:xlink="http://www.w3.org/1999/xlink" x="0px" y="0px"
	 width="79px" height="46px" viewBox="0 0 79 46" enable-background="new 0 0 79 46" xml:space="preserve">
<g>
	<path fill="#4B4B4B" d="M15.638,22.867v9.877H9.453c-1.303,0-2.501-0.166-3.597-0.5c-1.096-0.336-2.041-0.885-2.833-1.646
		c-0.792-0.759-1.41-1.757-1.856-2.99C0.722,26.378,0.5,24.86,0.5,23.061c0-2.354,0.386-4.27,1.156-5.744
		c0.77-1.476,1.827-2.564,3.174-3.271c1.345-0.704,2.918-1.043,4.72-1.014c1.801,0.025,3.732,0.363,5.794,1.014l-1.14,3.84
		c-1.258-0.816-2.43-1.334-3.515-1.558c-1.085-0.226-2.033-0.136-2.848,0.262c-0.814,0.402-1.455,1.136-1.92,2.202
		c-0.467,1.062-0.7,2.488-0.7,4.27c0,0.893,0.054,1.73,0.164,2.519c0.107,0.791,0.341,1.479,0.699,2.072
		c0.358,0.596,0.869,1.075,1.53,1.446c0.662,0.372,1.546,0.586,2.653,0.643h0.847v-3.869H8.899v-3.004L15.638,22.867L15.638,22.867z
		"/>
	<path fill="#4B4B4B" d="M30.776,32.744h-11.98V13.267h4.786v16.392h7.195L30.776,32.744L30.776,32.744z"/>
	<path fill="#4B4B4B" d="M39.923,13.047c1.237,0,2.376,0.268,3.419,0.804c1.042,0.539,1.942,1.269,2.702,2.188
		c0.759,0.917,1.353,1.975,1.774,3.171c0.423,1.195,0.635,2.463,0.635,3.799c0,1.335-0.211,2.605-0.635,3.812
		c-0.424,1.203-1.017,2.264-1.774,3.172c-0.76,0.906-1.66,1.634-2.702,2.17c-1.042,0.539-2.182,0.807-3.419,0.807
		c-1.215,0-2.338-0.268-3.369-0.807c-1.031-0.536-1.926-1.264-2.685-2.17c-0.76-0.908-1.357-1.969-1.791-3.172
		c-0.435-1.206-0.652-2.479-0.652-3.812c0-1.336,0.217-2.604,0.652-3.799c0.433-1.196,1.031-2.254,1.791-3.171
		c0.759-0.92,1.654-1.647,2.685-2.188C37.584,13.314,38.708,13.047,39.923,13.047z M39.923,29.88c0.606,0,1.15-0.191,1.628-0.573
		c0.477-0.377,0.868-0.885,1.172-1.516c0.303-0.631,0.537-1.362,0.7-2.198c0.163-0.834,0.244-1.697,0.244-2.586
		c0-0.892-0.082-1.754-0.244-2.59c-0.163-0.833-0.396-1.566-0.7-2.195c-0.304-0.633-0.695-1.137-1.172-1.518
		c-0.478-0.38-1.021-0.571-1.628-0.571c-0.629,0-1.176,0.191-1.644,0.571c-0.466,0.381-0.852,0.885-1.155,1.518
		c-0.304,0.629-0.526,1.362-0.667,2.195c-0.142,0.836-0.212,1.698-0.212,2.59c0,0.889,0.071,1.752,0.212,2.586
		c0.141,0.836,0.363,1.567,0.667,2.198c0.303,0.631,0.689,1.139,1.155,1.516C38.747,29.688,39.293,29.88,39.923,29.88z"/>
	<path fill="#4B4B4B" d="M61.344,22.895c0.238,0.148,0.521,0.35,0.846,0.6c0.326,0.25,0.642,0.543,0.944,0.876
		c0.304,0.334,0.56,0.72,0.767,1.153c0.205,0.438,0.31,0.926,0.31,1.46c0,0.8-0.188,1.55-0.569,2.256
		c-0.379,0.705-0.896,1.317-1.547,1.836c-0.65,0.52-1.408,0.929-2.277,1.226c-0.869,0.298-1.801,0.444-2.799,0.444h-6.381V13.267
		h5.633c0.998,0,1.937,0.142,2.813,0.418c0.88,0.277,1.646,0.662,2.295,1.154s1.166,1.076,1.546,1.751
		c0.379,0.68,0.57,1.418,0.57,2.214c0,0.56-0.062,1.053-0.196,1.489c-0.13,0.436-0.305,0.815-0.521,1.14
		c-0.219,0.326-0.451,0.605-0.7,0.836C61.827,22.502,61.582,22.71,61.344,22.895z M55.451,21.754h0.229
		c0.478,0,0.932-0.064,1.367-0.194c0.434-0.13,0.812-0.32,1.139-0.568c0.326-0.25,0.586-0.555,0.781-0.905
		c0.195-0.354,0.293-0.742,0.293-1.169c0-0.408-0.098-0.771-0.293-1.083c-0.195-0.317-0.455-0.581-0.781-0.794
		c-0.326-0.214-0.705-0.381-1.139-0.5c-0.436-0.122-0.891-0.19-1.367-0.21h-0.229V21.754z M56.396,29.656
		c0.477-0.021,0.933-0.089,1.367-0.21c0.435-0.12,0.813-0.286,1.139-0.5c0.326-0.213,0.586-0.474,0.781-0.779
		c0.195-0.308,0.293-0.661,0.293-1.07c0-0.427-0.098-0.814-0.293-1.17c-0.195-0.351-0.455-0.653-0.781-0.902
		c-0.324-0.251-0.705-0.444-1.139-0.587c-0.436-0.139-0.892-0.207-1.367-0.207h-0.944v5.428L56.396,29.656L56.396,29.656z"/>
	<path fill="#4B4B4B" d="M72.152,16.356v5.119h3.938v3.062h-3.938v5.121H78.5v3.088H67.367V13.267H78.5v3.09L72.152,16.356
		L72.152,16.356z"/>
</g>
</svg>
