<?xml version="1.0" encoding="utf-8"?>
<!DOCTYPE svg PUBLIC "-//W3C//DTD SVG 1.1//EN" "http://www.w3.org/Graphics/SVG/1.1/DTD/svg11.dtd">
<svg version="1.1" id="logo_small" xmlns="http://www.w3.org/2000/svg" xmlns:xlink="http://www.w3.org/1999/xlink" x="0px" y="0px"
	 width="32.266px" height="31.859px" viewBox="0 0 32.266 31.859" enable-background="new 0 0 32.266 31.859" xml:space="preserve">
<g>
	<path fill="#4B4B4B" d="M16.359,31.738l-0.384-0.006c-0.31-0.005-0.558-0.261-0.552-0.572c0.006-0.309,0.297-0.543,0.572-0.551
		l0.368,0.006c8.098,0,14.688-6.592,14.688-14.692c0-1.243-0.155-2.478-0.463-3.668l-0.031-0.124
		c-0.076-0.3,0.105-0.604,0.406-0.682s0.606,0.104,0.684,0.405l0.029,0.114c0.331,1.287,0.498,2.615,0.498,3.954
		C32.174,24.645,25.08,31.738,16.359,31.738z"/>
	<path fill="#4B4B4B" d="M1.994,21.625c-0.23,0-0.447-0.143-0.528-0.372c-0.61-1.708-0.92-3.5-0.92-5.33
		c0-8.72,7.094-15.813,15.812-15.813c0.001,0,0.002,0,0.003,0c4.271,0,8.273,1.676,11.27,4.72c0.218,0.221,0.215,0.577-0.006,0.794
		c-0.222,0.218-0.578,0.215-0.795-0.006c-2.783-2.828-6.502-4.385-10.469-4.385c0,0-0.001,0-0.003,0
		c-8.1,0-14.688,6.59-14.688,14.689c0,1.7,0.287,3.366,0.854,4.95c0.104,0.293-0.048,0.613-0.34,0.719
		C2.121,21.615,2.058,21.625,1.994,21.625z"/>
	<path fill="#4B4B4B" stroke="#000000" stroke-width="1.5" stroke-linecap="round" stroke-miterlimit="10" d="M1.994,21.063"/>
	<path fill="#4B4B4B" d="M15.985,31.732c-0.005,0-0.009,0-0.014,0c-2.886-0.07-5.691-0.925-8.112-2.474
		c-0.261-0.166-0.338-0.514-0.171-0.774c0.167-0.262,0.516-0.338,0.776-0.171c2.249,1.437,4.854,2.23,7.534,2.296
		c0.311,0.008,0.556,0.266,0.549,0.576C16.538,31.49,16.289,31.732,15.985,31.732z"/>
	<g>
		<path fill="#4B4B4B" d="M21.139,13.735c0.742-0.251,1.387-0.423,1.988-0.687c1.312-0.576,2.285-1.479,2.324-3.018
			c0.04-1.502-0.56-2.71-1.939-3.431c-1.363-0.715-2.854-0.761-3.876,0.362c-3.756,4.137-7.384,8.389-11.092,12.63
			c0.098,0.034,0.343,0.185,0.601,0.205c3.189,0.254,6.106-0.438,8.599-2.554c0.096-0.082,0.178-0.21,0.286-0.244
			c0.463-0.131,0.933-0.233,1.4-0.348c-0.18,0.458-0.239,1.03-0.555,1.355c-1.549,1.584-3.488,2.566-5.645,2.896
			c-1.726,0.26-3.514,0.094-5.265,0.229c-0.641,0.048-1.426,0.244-1.853,0.67c-1.458,1.452-2.786,3.04-4.169,4.571
			c-0.195,0.223-0.36,0.514-0.608,0.628c-0.368,0.181-0.796,0.232-1.197,0.341c0.067-0.399-0.002-0.917,0.225-1.18
			c1.762-2.038,3.574-4.035,5.378-6.037c4.005-4.438,8.01-8.884,12.028-13.312c2.627-2.898,6.036-2.704,8.379,0.405
			c0.3,0.398,0.812,0.708,1.291,0.887c1.011,0.369,2.066,0.628,3.34,1.003c-0.52,0.259-0.795,0.431-1.096,0.542
			c-1.53,0.563-3.045,1.039-3.762,2.821c-0.275,0.684-1.174,1.169-1.869,1.615c-0.551,0.351-0.754,0.62-0.524,1.298
			c0.999,2.989,0.197,5.215-2.447,6.943c-2.715,1.774-5.763,2.624-8.95,2.76c-1.502,0.062-2.516,0.55-3.427,1.677
			c-0.383,0.473-1.522,1.036-1.616,0.931c-0.775-0.861,0.289-1.247,0.649-1.815c0.981-1.546,2.332-2.063,4.217-2.102
			c2.873-0.064,5.655-0.848,8.136-2.431c2.745-1.751,3.213-3.678,1.596-6.513C21.507,14.523,21.361,14.188,21.139,13.735z"/>
		<path fill="#4B4B4B" d="M7.399,24.1c-0.197,0.296-0.333,0.562-0.524,0.772c-1.719,1.914-3.421,3.842-5.191,5.703
			c-0.301,0.316-0.899,0.35-1.362,0.514c0.131-0.464,0.129-1.043,0.41-1.375c1.672-1.952,3.396-3.861,5.14-5.749
			c0.237-0.259,0.701-0.353,1.079-0.408C7.066,23.539,7.236,23.895,7.399,24.1z"/>
		<path fill="#4B4B4B" d="M22.835,9.619c-0.477,0.316-0.747,0.626-1.026,0.635c-0.202,0.006-0.413-0.395-0.619-0.615
			c0.238-0.224,0.449-0.567,0.727-0.632C22.107,8.965,22.389,9.307,22.835,9.619z"/>
	</g>
</g>
</svg>
