<?xml version="1.0" encoding="utf-8"?>
<!DOCTYPE svg PUBLIC "-//W3C//DTD SVG 1.1//EN" "http://www.w3.org/Graphics/SVG/1.1/DTD/svg11.dtd">
<svg version="1.1" id="product_icon" xmlns="http://www.w3.org/2000/svg" xmlns:xlink="http://www.w3.org/1999/xlink" x="0px" y="0px"
	 width="30px" height="27.44px" viewBox="0 0 30 27.44" enable-background="new 0 0 30 27.44" xml:space="preserve">
<g>
	<path fill="#4D4C4C" d="M15,27.44c-8.25,0-14.959-6.156-14.959-13.72S6.75,0,15,0c8.25,0,14.96,6.154,14.96,13.719
		S23.247,27.44,15,27.44z M15,2.02c-7.135,0-12.941,5.248-12.941,11.7c0,6.451,5.806,11.7,12.941,11.7
		c7.134,0,12.94-5.249,12.94-11.7C27.938,7.268,22.134,2.02,15,2.02z"/>
	<g>
		<path fill="#4D4C4C" d="M14.813,5.984c0.082-0.085,0.18-0.128,0.293-0.128c0.115,0,0.214,0.043,0.297,0.128
			c0,0,5.097,5.306,5.115,5.359c0.021,0.054,0.028,0.022,0.028,0.079c0,0.056-0.506,0.939-0.618,0.939
			c-0.113,0-4.264-4.436-4.264-4.436V25.72c0,0.119-0.183,0.22-0.263,0.303c-0.083,0.086-0.182,0.128-0.297,0.128
			c-0.114,0-0.212-0.042-0.294-0.128c-0.083-0.083-0.192-0.186-0.192-0.305V7.924c0,0-4.256,4.516-4.365,4.472
			c-0.094-0.039-0.543-0.771-0.596-0.887C9.607,11.399,14.813,5.984,14.813,5.984z"/>
		<path fill="#4D4C4C" d="M15.107,26.656c-0.252,0-0.479-0.098-0.657-0.28c-0.128-0.13-0.335-0.339-0.335-0.658V9.195
			c-3.506,3.707-3.604,3.707-3.859,3.707l-0.189-0.036c-0.356-0.152-0.864-1.137-0.868-1.147c-0.192-0.41-0.196-0.419,5.249-6.083
			c0.362-0.372,0.961-0.369,1.317-0.001c4.071,4.235,4.946,5.149,5.156,5.417h0.002c0.13,0.153,0.13,0.318,0.13,0.371
			c0,0.194-0.568,1.445-1.124,1.445c-0.262,0-0.325,0-3.758-3.664v16.517c0,0.326-0.236,0.517-0.363,0.62l-0.044,0.035
			C15.589,26.559,15.36,26.656,15.107,26.656z M14.252,7.579l0.873,0.346v17.671c0.012-0.01,0.023-0.021,0.037-0.031V7.926
			l0.874-0.345c1.203,1.286,3.054,3.248,3.835,4.036c0.028-0.049,0.059-0.098,0.084-0.144c-0.673-0.719-3.128-3.28-4.846-5.068
			c-1.641,1.707-4.144,4.343-4.842,5.143c0.021,0.034,0.044,0.069,0.066,0.105C11.06,10.935,12.742,9.18,14.252,7.579z"/>
	</g>
	<g>
		<path fill="#4D4C4C" d="M14.746,14.29l-4.529,5.172c-0.09,0.101-0.769-0.678-0.681-0.778l5.343-6.021
			c0.089-0.104,0.193-0.152,0.319-0.152c0.121,0,0.23,0.05,0.317,0.152c0,0,5.387,5.851,5.406,5.914
			c0.021,0.065-0.466,0.874-0.592,0.874c-0.121,0-4.681-5.161-4.681-5.161"/>
		<path fill="#4D4C4C" d="M10.2,19.975c-0.14,0-0.313-0.056-0.512-0.232c-0.297-0.261-0.943-0.918-0.533-1.391l5.347-6.025
			c0.362-0.416,1.034-0.417,1.397,0.009c5.451,5.92,5.457,5.944,5.502,6.092c0.04,0.123,0.109,0.337-0.439,1.094
			c-0.154,0.209-0.34,0.433-0.634,0.433c-0.295,0-0.352,0-5.058-5.332l0.75-0.664c-0.284-0.31-0.562-0.609-0.822-0.894l-0.81,0.912
			l0.738,0.646l-4.529,5.173C10.559,19.837,10.418,19.975,10.2,19.975z M10.143,18.76c0.003,0.003,0.006,0.006,0.009,0.01
			l1.219-1.393L10.143,18.76z M16.262,14.222c1.347,1.523,3.25,3.655,4.03,4.486c0.013-0.018,0.022-0.032,0.03-0.048
			C19.721,17.989,17.896,15.997,16.262,14.222z"/>
	</g>
</g>
</svg>
