<?xml version="1.0" encoding="utf-8"?>
<!DOCTYPE svg PUBLIC "-//W3C//DTD SVG 1.1//EN" "http://www.w3.org/Graphics/SVG/1.1/DTD/svg11.dtd">
<svg version="1.1" id="home_icon_5" xmlns="http://www.w3.org/2000/svg" xmlns:xlink="http://www.w3.org/1999/xlink" x="0px" y="0px"
	 width="53.307px" height="46px" viewBox="0 0 53.307 46" enable-background="new 0 0 53.307 46" xml:space="preserve">
<g>
	<g>
		<g>
			<path fill="#4B4B4B" d="M16.432,15.342l2.758-0.461v2.988h3.312v2.389H19.19v3.565c0,0.605,0.103,1.087,0.306,1.447
				c0.202,0.358,0.612,0.539,1.229,0.539c0.297,0,0.603-0.029,0.916-0.088c0.313-0.058,0.603-0.138,0.86-0.24l0.39,2.235
				c-0.334,0.142-0.705,0.265-1.111,0.365c-0.405,0.104-0.905,0.154-1.498,0.154c-0.754,0-1.377-0.105-1.868-0.316
				c-0.494-0.213-0.89-0.508-1.187-0.887c-0.295-0.379-0.502-0.84-0.619-1.379c-0.116-0.541-0.176-1.137-0.176-1.793V15.342z"/>
			<path fill="#4B4B4B" d="M20.281,28.494c-0.784,0-1.446-0.113-1.971-0.339c-0.531-0.229-0.963-0.553-1.283-0.965
				c-0.317-0.408-0.543-0.903-0.668-1.479c-0.121-0.554-0.183-1.174-0.183-1.847V15.13l3.265-0.549v3.035h3.313v2.896h-3.313v3.311
				c0,0.56,0.093,1.003,0.272,1.32c0.156,0.276,0.486,0.412,1.011,0.412c0.276,0,0.569-0.027,0.871-0.082
				c0.297-0.056,0.569-0.134,0.812-0.229l0.289-0.113l0.478,2.742l-0.187,0.078c-0.346,0.146-0.729,0.273-1.146,0.377
				C21.416,28.439,20.891,28.494,20.281,28.494z M16.686,15.558v8.307c0,0.636,0.058,1.222,0.17,1.738
				c0.106,0.5,0.301,0.93,0.571,1.276c0.269,0.343,0.634,0.615,1.085,0.81c0.459,0.196,1.055,0.299,1.77,0.299
				c0.568,0,1.052-0.051,1.437-0.146c0.318-0.08,0.615-0.174,0.89-0.279l-0.303-1.738c-0.193,0.062-0.398,0.111-0.615,0.15
				c-0.33,0.062-0.653,0.092-0.963,0.092c-0.713,0-1.201-0.225-1.451-0.668c-0.226-0.396-0.338-0.926-0.338-1.57v-3.821h3.312
				v-1.883h-3.312v-2.941L16.686,15.558z"/>
		</g>
		<g>
			<path fill="#4B4B4B" d="M30.551,20.414c-0.245-0.064-0.534-0.131-0.868-0.201s-0.69-0.107-1.072-0.107
				c-0.174,0-0.381,0.018-0.621,0.049c-0.239,0.033-0.422,0.066-0.545,0.105v7.75h-2.758v-9.601c0.491-0.18,1.076-0.352,1.748-0.512
				s1.422-0.24,2.248-0.24c0.147,0,0.327,0.01,0.536,0.029c0.209,0.018,0.421,0.045,0.63,0.076c0.209,0.031,0.42,0.07,0.631,0.115
				c0.209,0.045,0.388,0.1,0.535,0.164L30.551,20.414z"/>
			<path fill="#4B4B4B" d="M27.697,28.264h-3.266V18.231l0.166-0.061c0.502-0.184,1.1-0.357,1.776-0.52
				c0.688-0.164,1.465-0.248,2.308-0.248c0.153,0,0.342,0.01,0.562,0.029c0.215,0.02,0.43,0.047,0.646,0.08
				c0.215,0.031,0.428,0.072,0.643,0.117c0.232,0.051,0.423,0.109,0.587,0.18l0.188,0.082l-0.556,2.836l-0.261-0.068
				c-0.243-0.062-0.53-0.131-0.858-0.199c-0.315-0.068-0.659-0.102-1.021-0.102c-0.159,0-0.356,0.016-0.588,0.047
				c-0.127,0.016-0.235,0.033-0.324,0.053L27.697,28.264L27.697,28.264z M24.939,27.754h2.25v-7.682l0.179-0.057
				c0.133-0.041,0.325-0.08,0.588-0.115c0.256-0.033,0.471-0.051,0.653-0.051c0.396,0,0.772,0.039,1.125,0.111
				c0.228,0.049,0.435,0.096,0.619,0.141l0.371-1.896c-0.093-0.029-0.19-0.057-0.302-0.08c-0.202-0.043-0.409-0.08-0.612-0.111
				c-0.205-0.031-0.41-0.059-0.613-0.076c-0.202-0.02-0.372-0.027-0.516-0.027c-0.804,0-1.539,0.078-2.188,0.234
				c-0.584,0.139-1.104,0.287-1.554,0.441V27.754z"/>
		</g>
		<g>
			<path fill="#4B4B4B" d="M31.791,23.017c0-0.9,0.133-1.688,0.397-2.361c0.267-0.676,0.612-1.238,1.045-1.688
				c0.433-0.45,0.931-0.791,1.49-1.021c0.562-0.232,1.139-0.348,1.729-0.348c1.381,0,2.473,0.441,3.274,1.32
				c0.803,0.881,1.203,2.176,1.203,3.885c0,0.168-0.007,0.35-0.021,0.549c-0.013,0.198-0.022,0.377-0.035,0.53h-6.254
				c0.062,0.594,0.325,1.062,0.795,1.406c0.469,0.35,1.101,0.521,1.89,0.521c0.506,0,1.002-0.049,1.489-0.145
				c0.485-0.099,0.886-0.216,1.192-0.357l0.369,2.334c-0.146,0.076-0.347,0.152-0.592,0.23c-0.246,0.075-0.521,0.145-0.824,0.202
				c-0.301,0.058-0.625,0.105-0.971,0.146c-0.347,0.037-0.691,0.057-1.037,0.057c-0.875,0-1.638-0.135-2.285-0.402
				c-0.646-0.271-1.185-0.641-1.608-1.108c-0.427-0.47-0.74-1.022-0.945-1.666C31.893,24.457,31.791,23.76,31.791,23.017z
				 M38.268,21.917c-0.013-0.244-0.052-0.482-0.119-0.713c-0.067-0.232-0.174-0.438-0.313-0.617
				c-0.144-0.18-0.321-0.328-0.537-0.443c-0.215-0.115-0.483-0.174-0.805-0.174c-0.31,0-0.574,0.055-0.796,0.164
				c-0.223,0.109-0.407,0.254-0.557,0.434c-0.148,0.18-0.263,0.389-0.343,0.627c-0.08,0.238-0.139,0.479-0.176,0.723L38.268,21.917
				L38.268,21.917z"/>
			<path fill="#4B4B4B" d="M36.936,28.532c-0.906,0-1.707-0.143-2.384-0.426c-0.68-0.281-1.252-0.676-1.698-1.17
				s-0.783-1.086-0.998-1.763c-0.211-0.666-0.317-1.395-0.317-2.158c0-0.928,0.142-1.754,0.416-2.455s0.646-1.297,1.101-1.77
				c0.452-0.473,0.983-0.836,1.575-1.08c0.591-0.244,1.203-0.367,1.826-0.367c1.448,0,2.612,0.473,3.463,1.404
				c0.842,0.924,1.271,2.289,1.271,4.055c0,0.172-0.006,0.361-0.021,0.566c-0.012,0.198-0.024,0.378-0.037,0.532l-0.019,0.234
				h-6.188c0.099,0.389,0.312,0.701,0.646,0.949c0.423,0.312,1.007,0.471,1.736,0.471c0.485,0,0.973-0.047,1.438-0.141
				c0.469-0.093,0.853-0.205,1.139-0.339l0.304-0.139l0.451,2.844l-0.16,0.084c-0.162,0.084-0.371,0.164-0.636,0.248
				c-0.254,0.078-0.54,0.147-0.852,0.209c-0.306,0.06-0.64,0.107-0.992,0.147C37.647,28.514,37.289,28.532,36.936,28.532z
				 M36.455,17.853c-0.556,0-1.104,0.109-1.634,0.328c-0.526,0.217-1,0.541-1.403,0.963c-0.408,0.424-0.74,0.965-0.992,1.604
				c-0.252,0.643-0.381,1.406-0.381,2.27c0,0.712,0.101,1.388,0.293,2.005c0.192,0.604,0.492,1.133,0.892,1.572
				c0.398,0.438,0.91,0.79,1.521,1.045c0.612,0.256,1.351,0.385,2.188,0.385c0.336,0,0.674-0.019,1.008-0.058
				c0.341-0.036,0.66-0.084,0.953-0.141s0.562-0.121,0.795-0.195c0.149-0.047,0.279-0.094,0.39-0.139l-0.291-1.828
				c-0.271,0.096-0.584,0.181-0.942,0.25c-0.5,0.101-1.021,0.15-1.539,0.15c-0.843,0-1.526-0.191-2.039-0.572
				c-0.524-0.389-0.828-0.922-0.896-1.584l-0.029-0.279h6.302c0.006-0.092,0.015-0.188,0.021-0.293
				c0.012-0.192,0.019-0.371,0.019-0.532c0-1.635-0.384-2.885-1.138-3.713C38.795,18.269,37.756,17.853,36.455,17.853z
				 M38.535,22.17h-4.207l0.045-0.291c0.039-0.258,0.103-0.516,0.187-0.768c0.09-0.266,0.221-0.504,0.387-0.707
				c0.171-0.205,0.386-0.375,0.64-0.498c0.526-0.26,1.338-0.252,1.832,0.012c0.248,0.133,0.455,0.305,0.617,0.512
				c0.159,0.205,0.28,0.441,0.358,0.701c0.071,0.254,0.116,0.514,0.129,0.773L38.535,22.17z M34.93,21.664h3.062
				c-0.021-0.131-0.048-0.26-0.087-0.389c-0.059-0.199-0.146-0.375-0.271-0.531c-0.118-0.15-0.272-0.277-0.457-0.377
				c-0.35-0.186-0.987-0.191-1.368-0.004c-0.188,0.092-0.349,0.215-0.472,0.367c-0.129,0.154-0.229,0.338-0.299,0.547
				C34.996,21.403,34.959,21.534,34.93,21.664z"/>
		</g>
		<g>
			<path fill="#4B4B4B" d="M45.764,21.51c0.271-0.307,0.551-0.627,0.842-0.959c0.289-0.332,0.569-0.66,0.84-0.986
				c0.271-0.326,0.527-0.637,0.769-0.93c0.241-0.293,0.447-0.549,0.619-0.766h3.278c-0.653,0.781-1.293,1.527-1.916,2.24
				c-0.623,0.711-1.305,1.445-2.045,2.201c0.371,0.348,0.754,0.764,1.147,1.246c0.395,0.482,0.777,0.982,1.146,1.496
				c0.371,0.516,0.709,1.031,1.019,1.545c0.31,0.516,0.567,0.986,0.776,1.41h-3.17c-0.196-0.334-0.422-0.705-0.674-1.111
				s-0.521-0.811-0.806-1.217c-0.283-0.406-0.582-0.795-0.896-1.17c-0.313-0.373-0.627-0.689-0.934-0.947v4.445h-2.759V13.513
				l2.759-0.463v8.461H45.764z"/>
			<path fill="#4B4B4B" d="M52.65,28.264h-3.726l-0.073-0.125c-0.195-0.334-0.42-0.701-0.672-1.105
				c-0.246-0.398-0.517-0.805-0.796-1.207c-0.278-0.397-0.575-0.785-0.883-1.15c-0.162-0.19-0.324-0.37-0.483-0.53v4.119h-3.265
				V13.297l3.265-0.547v8.088c0.131-0.148,0.262-0.301,0.396-0.453c0.287-0.332,0.565-0.658,0.836-0.982
				c0.271-0.326,0.526-0.635,0.769-0.93c0.237-0.291,0.444-0.547,0.616-0.762l0.076-0.096h3.942l-0.348,0.416
				c-0.656,0.783-1.296,1.531-1.921,2.244c-0.569,0.652-1.2,1.334-1.877,2.029c0.318,0.314,0.647,0.682,0.984,1.092
				c0.397,0.486,0.786,0.994,1.157,1.509c0.371,0.519,0.72,1.043,1.029,1.562c0.309,0.517,0.573,0.996,0.786,1.427L52.65,28.264z
				 M49.215,27.754h2.611c-0.168-0.316-0.363-0.664-0.58-1.023c-0.304-0.506-0.644-1.021-1.007-1.527
				c-0.364-0.506-0.747-1.006-1.139-1.483c-0.388-0.474-0.767-0.885-1.123-1.221l-0.188-0.178l0.18-0.186
				c0.736-0.752,1.423-1.488,2.037-2.191c0.511-0.582,1.031-1.189,1.562-1.82h-2.61c-0.156,0.197-0.34,0.422-0.545,0.674
				c-0.242,0.295-0.498,0.605-0.771,0.932c-0.271,0.327-0.554,0.656-0.845,0.992c-0.291,0.332-0.571,0.65-0.842,0.959l-0.445,0.502
				v-8.832l-2.25,0.377v14.026h2.25v-4.733l0.418,0.35c0.316,0.267,0.642,0.597,0.964,0.979c0.315,0.377,0.623,0.775,0.909,1.188
				c0.285,0.407,0.56,0.821,0.812,1.229C48.834,27.123,49.035,27.453,49.215,27.754z"/>
		</g>
		<g>
			<path fill="#4B4B4B" d="M4.736,34.957c0.47-0.142,1.072-0.271,1.812-0.396c0.74-0.121,1.519-0.185,2.332-0.185
				c0.826,0,1.517,0.111,2.063,0.338c0.548,0.226,0.981,0.543,1.306,0.955c0.319,0.41,0.549,0.896,0.685,1.465
				c0.137,0.562,0.205,1.195,0.205,1.89v5.726h-2.758v-5.379c0-0.925-0.116-1.58-0.353-1.966c-0.235-0.385-0.674-0.577-1.313-0.577
				c-0.196,0-0.407,0.01-0.629,0.026c-0.224,0.021-0.42,0.043-0.592,0.067v7.826H4.736V34.957z"/>
			<path fill="#4B4B4B" d="M13.391,45.002h-3.265v-5.633c0-0.873-0.104-1.488-0.313-1.834c-0.188-0.308-0.547-0.455-1.099-0.455
				c-0.19,0-0.394,0.008-0.608,0.026c-0.127,0.013-0.246,0.022-0.356,0.037V45H4.482V34.77l0.181-0.057
				c0.476-0.144,1.094-0.275,1.846-0.4c0.752-0.123,1.552-0.188,2.373-0.188c0.854,0,1.582,0.121,2.16,0.355
				c0.588,0.24,1.062,0.588,1.408,1.033c0.342,0.438,0.588,0.963,0.731,1.561c0.139,0.582,0.209,1.238,0.209,1.949L13.391,45.002
				L13.391,45.002z M10.635,44.498h2.25v-5.474c0-0.672-0.065-1.287-0.196-1.83c-0.127-0.526-0.342-0.987-0.64-1.366
				c-0.291-0.375-0.694-0.671-1.2-0.878c-0.517-0.211-1.179-0.317-1.968-0.317c-0.795,0-1.563,0.061-2.291,0.18
				c-0.635,0.105-1.174,0.219-1.601,0.336V44.5h2.25v-7.795l0.218-0.033c0.176-0.025,0.379-0.049,0.604-0.068
				c0.229-0.02,0.446-0.029,0.651-0.029c0.731,0,1.248,0.236,1.529,0.701c0.262,0.432,0.391,1.115,0.391,2.098L10.635,44.498
				L10.635,44.498z"/>
		</g>
		<g>
			<path fill="#4B4B4B" d="M24.686,39.662c0,0.797-0.11,1.524-0.334,2.188c-0.222,0.662-0.543,1.229-0.961,1.697
				c-0.42,0.469-0.923,0.832-1.511,1.088c-0.586,0.258-1.241,0.387-1.971,0.387c-0.716,0-1.365-0.129-1.951-0.387
				c-0.588-0.256-1.09-0.619-1.511-1.088c-0.418-0.472-0.745-1.035-0.979-1.697c-0.233-0.662-0.352-1.391-0.352-2.188
				c0-0.798,0.12-1.523,0.36-2.181c0.239-0.653,0.573-1.213,1-1.676c0.426-0.464,0.93-0.822,1.519-1.08
				c0.586-0.259,1.226-0.388,1.914-0.388c0.702,0,1.348,0.129,1.934,0.388c0.589,0.258,1.091,0.616,1.511,1.08
				c0.418,0.463,0.746,1.021,0.979,1.676C24.568,38.139,24.686,38.864,24.686,39.662z M21.873,39.662
				c0-0.888-0.17-1.584-0.511-2.093c-0.34-0.508-0.823-0.762-1.452-0.762c-0.63,0-1.117,0.254-1.461,0.762
				c-0.347,0.509-0.519,1.205-0.519,2.093c0,0.887,0.172,1.59,0.519,2.108c0.344,0.521,0.831,0.78,1.461,0.78
				c0.629,0,1.112-0.26,1.452-0.78C21.703,41.252,21.873,40.547,21.873,39.662z"/>
			<path fill="#4B4B4B" d="M19.91,45.272c-0.746,0-1.438-0.138-2.054-0.406c-0.617-0.27-1.153-0.657-1.597-1.151
				c-0.44-0.492-0.786-1.092-1.03-1.781c-0.242-0.684-0.367-1.449-0.367-2.271c0-0.824,0.127-1.589,0.377-2.269
				c0.253-0.685,0.605-1.274,1.052-1.761c0.446-0.485,0.985-0.868,1.603-1.141c1.244-0.545,2.832-0.535,4.056,0
				c0.614,0.271,1.151,0.654,1.594,1.141c0.438,0.486,0.787,1.08,1.031,1.765c0.243,0.679,0.366,1.438,0.366,2.265
				c0,0.819-0.116,1.584-0.349,2.27c-0.229,0.689-0.571,1.291-1.012,1.783c-0.442,0.494-0.979,0.885-1.597,1.151
				C21.367,45.135,20.67,45.272,19.91,45.272z M19.91,34.592c-0.652,0-1.263,0.123-1.812,0.365
				c-0.554,0.241-1.033,0.584-1.435,1.021c-0.4,0.436-0.72,0.971-0.947,1.592c-0.229,0.623-0.346,1.328-0.346,2.092
				c0,0.767,0.112,1.473,0.338,2.103c0.222,0.629,0.533,1.17,0.931,1.612c0.396,0.439,0.87,0.785,1.422,1.025
				c0.551,0.242,1.174,0.365,1.851,0.365c0.688,0,1.317-0.123,1.868-0.365c0.552-0.24,1.027-0.586,1.423-1.025
				c0.396-0.44,0.7-0.981,0.909-1.608c0.214-0.631,0.32-1.34,0.32-2.104c0-0.764-0.113-1.47-0.336-2.095
				c-0.224-0.621-0.535-1.155-0.933-1.592c-0.394-0.435-0.871-0.774-1.422-1.019C21.19,34.715,20.574,34.592,19.91,34.592z
				 M19.91,42.807c-0.718,0-1.279-0.303-1.673-0.896c-0.373-0.56-0.562-1.314-0.562-2.25c0-0.937,0.188-1.688,0.562-2.234
				c0.394-0.578,0.955-0.871,1.671-0.871c0.717,0,1.276,0.295,1.663,0.871c0.365,0.551,0.554,1.303,0.554,2.234
				s-0.187,1.688-0.551,2.247C21.189,42.504,20.629,42.807,19.91,42.807z M19.91,37.062c-0.546,0-0.955,0.213-1.252,0.648
				c-0.314,0.463-0.476,1.117-0.476,1.949c0,0.831,0.159,1.493,0.478,1.971c0.297,0.447,0.707,0.666,1.25,0.666
				s0.948-0.217,1.239-0.666c0.312-0.476,0.47-1.14,0.47-1.971c0-0.832-0.158-1.488-0.468-1.951
				C20.861,37.274,20.455,37.062,19.91,37.062z"/>
		</g>
		<g>
			<path fill="#4B4B4B" d="M32.625,37.155c-0.248-0.063-0.537-0.133-0.871-0.202c-0.332-0.07-0.688-0.105-1.071-0.105
				c-0.175,0-0.38,0.016-0.621,0.047c-0.24,0.033-0.422,0.068-0.545,0.107v7.748h-2.759v-9.601c0.494-0.18,1.076-0.351,1.75-0.51
				c0.673-0.162,1.423-0.242,2.248-0.242c0.147,0,0.326,0.01,0.537,0.028c0.209,0.021,0.418,0.046,0.629,0.078
				c0.209,0.03,0.418,0.068,0.629,0.111c0.209,0.049,0.39,0.104,0.537,0.166L32.625,37.155z"/>
			<path fill="#4B4B4B" d="M29.77,45.002h-3.267V34.973l0.168-0.062c0.502-0.183,1.101-0.355,1.774-0.521
				c0.688-0.164,1.466-0.248,2.31-0.248c0.154,0,0.341,0.01,0.562,0.03c0.213,0.021,0.429,0.045,0.644,0.078
				s0.431,0.072,0.646,0.117c0.229,0.051,0.42,0.109,0.586,0.18l0.187,0.082l-0.553,2.836l-0.263-0.067
				c-0.244-0.062-0.528-0.129-0.858-0.199c-0.313-0.065-0.658-0.1-1.021-0.1c-0.16,0-0.354,0.014-0.589,0.045
				c-0.127,0.019-0.233,0.035-0.323,0.053L29.77,45.002L29.77,45.002z M27.012,44.498h2.25v-7.684l0.178-0.057
				c0.136-0.043,0.326-0.078,0.588-0.113c0.259-0.035,0.472-0.053,0.654-0.053c0.396,0,0.774,0.037,1.125,0.111
				c0.228,0.047,0.435,0.094,0.62,0.139l0.369-1.896c-0.09-0.028-0.19-0.057-0.301-0.08c-0.203-0.043-0.408-0.079-0.613-0.11
				s-0.407-0.058-0.612-0.076c-0.201-0.018-0.373-0.027-0.515-0.027c-0.805,0-1.539,0.08-2.188,0.234
				c-0.584,0.139-1.104,0.289-1.555,0.443V44.498z"/>
		</g>
		<g>
			<path fill="#4B4B4B" d="M34.42,32.086l2.758-0.463v2.987h3.312v2.392h-3.312v3.565c0,0.604,0.103,1.086,0.306,1.445
				c0.203,0.358,0.613,0.538,1.229,0.538c0.297,0,0.603-0.028,0.916-0.086c0.313-0.061,0.603-0.14,0.86-0.239l0.39,2.235
				c-0.334,0.142-0.703,0.263-1.11,0.364c-0.406,0.104-0.906,0.153-1.498,0.153c-0.754,0-1.377-0.104-1.869-0.316
				c-0.493-0.215-0.889-0.51-1.187-0.889c-0.295-0.379-0.502-0.838-0.618-1.379c-0.117-0.539-0.177-1.137-0.177-1.793V32.086z"/>
			<path fill="#4B4B4B" d="M38.27,45.235c-0.785,0-1.447-0.114-1.972-0.34c-0.53-0.229-0.963-0.554-1.282-0.963
				c-0.318-0.408-0.543-0.906-0.668-1.479c-0.121-0.556-0.183-1.177-0.183-1.849v-8.733l3.267-0.55v3.035h3.312v2.896h-3.312v3.313
				c0,0.558,0.09,1.002,0.271,1.319c0.155,0.277,0.485,0.41,1.01,0.41c0.279,0,0.57-0.026,0.871-0.082
				c0.297-0.055,0.569-0.131,0.812-0.227l0.291-0.115l0.476,2.742l-0.187,0.078c-0.347,0.146-0.729,0.271-1.146,0.379
				C39.404,45.182,38.879,45.235,38.27,45.235z M34.674,32.299v8.307c0,0.637,0.058,1.221,0.17,1.74
				c0.107,0.496,0.302,0.928,0.572,1.273c0.269,0.344,0.633,0.614,1.084,0.812c0.459,0.195,1.056,0.297,1.771,0.297
				c0.567,0,1.051-0.049,1.437-0.146c0.317-0.08,0.614-0.174,0.89-0.278l-0.304-1.738c-0.192,0.062-0.397,0.11-0.615,0.151
				c-0.329,0.06-0.653,0.091-0.963,0.091c-0.711,0-1.2-0.226-1.45-0.668c-0.226-0.396-0.339-0.925-0.339-1.57V36.75h3.312v-1.886
				h-3.312v-2.942L34.674,32.299z"/>
		</g>
		<g>
			<path fill="#4B4B4B" d="M42.674,44.75V30.252l2.759-0.463v4.856c0.185-0.062,0.422-0.125,0.711-0.183
				c0.291-0.059,0.569-0.088,0.842-0.088c0.791,0,1.447,0.113,1.972,0.338c0.524,0.226,0.944,0.543,1.26,0.955
				c0.313,0.41,0.535,0.898,0.666,1.465c0.129,0.564,0.193,1.195,0.193,1.89v5.726H48.32v-5.379c0-0.925-0.114-1.58-0.344-1.966
				c-0.229-0.385-0.649-0.577-1.269-0.577c-0.246,0-0.479,0.021-0.692,0.065c-0.218,0.047-0.41,0.094-0.582,0.146v7.711
				L42.674,44.75L42.674,44.75z"/>
			<path fill="#4B4B4B" d="M51.328,45.002h-3.265v-5.633c0-0.873-0.104-1.492-0.308-1.837c-0.182-0.305-0.524-0.452-1.051-0.452
				c-0.228,0-0.442,0.021-0.644,0.062c-0.136,0.027-0.263,0.059-0.381,0.09v7.771h-3.265V30.039l3.265-0.548v4.818
				c0.125-0.033,0.262-0.063,0.409-0.093c0.304-0.062,0.604-0.094,0.892-0.094c0.819,0,1.519,0.121,2.072,0.357
				c0.561,0.24,1.021,0.588,1.358,1.033c0.334,0.438,0.573,0.963,0.713,1.562c0.133,0.58,0.199,1.234,0.199,1.945V45h0.004V45.002z
				 M48.57,44.498h2.25v-5.474c0-0.674-0.062-1.289-0.188-1.832c-0.121-0.526-0.33-0.987-0.618-1.367
				c-0.287-0.375-0.677-0.67-1.158-0.875c-0.489-0.211-1.119-0.317-1.871-0.317c-0.254,0-0.521,0.026-0.791,0.082
				c-0.274,0.055-0.504,0.113-0.68,0.174l-0.337,0.117v-4.914l-2.25,0.377v14.029h2.25V36.85l0.183-0.053
				c0.179-0.053,0.379-0.104,0.603-0.15c0.233-0.049,0.483-0.072,0.746-0.072c0.709,0,1.211,0.236,1.485,0.703
				c0.254,0.43,0.377,1.113,0.377,2.096L48.57,44.498L48.57,44.498z"/>
		</g>
	</g>
	<path fill="#4B4B4B" d="M1.676,30.907l-1.021-2.321l1.146-0.504c0.562-0.338,1.914-2.648,2.812-4.179
		c1.656-2.829,3.369-5.75,5.121-6.769c1.031-0.652,4.188-6.566,6.521-11.67c0.142-0.307,0.396-0.541,0.703-0.658
		c0.526-0.484,1.969-2.174,3.119-3.604c0.368-0.459,1.004-0.604,1.532-0.352c0.158,0.076,3.897,1.898,7.144,7.02
		c0.97,1.529,4.021,2.084,8.599,1.562c3.787-0.434,7.246-1.455,7.28-1.465l1.216-0.361l0.725,2.432l-1.217,0.361
		c-1.552,0.461-15.246,4.35-18.744-1.172c-1.95-3.08-4.101-4.803-5.252-5.578c-1.61,1.971-2.455,2.865-2.979,3.273
		c-1.42,3.076-5.319,11.213-7.371,12.404c-1.175,0.683-2.856,3.552-4.206,5.857c-1.748,2.98-2.795,4.695-3.965,5.211L1.676,30.907z
		 M18.066,4.909c0.104,0.064,0.203,0.146,0.287,0.24C18.266,5.049,18.168,4.97,18.066,4.909z"/>
</g>
</svg>
