<?xml version="1.0" encoding="utf-8"?>
<!DOCTYPE svg PUBLIC "-//W3C//DTD SVG 1.1//EN" "http://www.w3.org/Graphics/SVG/1.1/DTD/svg11.dtd">
<svg version="1.1" id="logo_footer" xmlns="http://www.w3.org/2000/svg" xmlns:xlink="http://www.w3.org/1999/xlink" x="0px" y="0px"
	 width="60px" height="60px" viewBox="0 0 60 60" enable-background="new 0 0 60 60" xml:space="preserve">
<g>
	<path fill="#FFFFFF" d="M30.048,58.186l-0.695-0.011c-0.562-0.01-1.014-0.473-1.002-1.039c0.011-0.561,0.538-0.984,1.038-0.999
		l0.668,0.011c14.695,0,26.655-11.962,26.655-26.662c0-2.257-0.282-4.496-0.841-6.656l-0.055-0.227
		c-0.14-0.543,0.19-1.096,0.736-1.236c0.545-0.14,1.101,0.188,1.241,0.736l0.053,0.207c0.602,2.336,0.903,4.745,0.903,7.176
		C58.748,45.314,45.875,58.186,30.048,58.186z"/>
	<path fill="#FFFFFF" d="M3.981,39.833c-0.418,0-0.812-0.258-0.958-0.674c-1.109-3.101-1.67-6.353-1.67-9.673
		c0-15.824,12.873-28.697,28.695-28.697c0.002,0,0.003,0,0.005,0c7.751,0,15.015,3.041,20.451,8.565
		c0.396,0.401,0.391,1.047-0.011,1.441c-0.402,0.395-1.049,0.39-1.441-0.011C44,5.652,37.252,2.827,30.053,2.827
		c0,0-0.002,0-0.005,0c-14.698,0-26.656,11.958-26.656,26.657c0,3.085,0.522,6.109,1.549,8.982c0.189,0.532-0.087,1.114-0.617,1.305
		C4.212,39.816,4.096,39.833,3.981,39.833z"/>
	<path fill="#FFFFFF" stroke="#000000" stroke-width="1.5" stroke-linecap="round" stroke-miterlimit="10" d="M3.981,38.814"/>
	<path fill="#FFFFFF" d="M29.368,58.176c-0.009,0-0.015,0-0.023,0c-5.237-0.127-10.328-1.679-14.722-4.488
		c-0.473-0.303-0.613-0.933-0.31-1.405c0.303-0.476,0.936-0.613,1.409-0.311c4.081,2.607,8.808,4.047,13.673,4.166
		c0.562,0.015,1.008,0.481,0.995,1.046C30.373,57.735,29.923,58.176,29.368,58.176z"/>
	<g>
		<path fill="#FFFFFF" d="M38.724,25.515c1.346-0.454,2.516-0.767,3.607-1.245c2.379-1.046,4.146-2.683,4.217-5.476
			c0.073-2.727-1.015-4.918-3.518-6.227c-2.476-1.297-5.18-1.38-7.035,0.658C29.18,20.732,22.596,28.45,15.867,36.145
			c0.177,0.062,0.622,0.335,1.09,0.372c5.788,0.461,11.081-0.794,15.604-4.634c0.173-0.149,0.321-0.381,0.519-0.444
			c0.84-0.237,1.693-0.423,2.541-0.629c-0.327,0.83-0.434,1.869-1.006,2.458c-2.811,2.875-6.331,4.658-10.243,5.255
			c-3.131,0.473-6.377,0.171-9.554,0.416c-1.163,0.087-2.587,0.444-3.361,1.217C8.81,42.792,6.4,45.673,3.891,48.451
			c-0.354,0.404-0.654,0.933-1.104,1.141c-0.668,0.327-1.444,0.421-2.172,0.618c0.122-0.726-0.003-1.664,0.408-2.141
			c3.197-3.699,6.486-7.323,9.759-10.955c7.269-8.055,14.535-16.122,21.828-24.158c4.768-5.26,10.953-4.907,15.206,0.736
			c0.543,0.723,1.475,1.285,2.342,1.609c1.835,0.67,3.751,1.14,6.062,1.821c-0.943,0.469-1.443,0.78-1.988,0.982
			c-2.777,1.024-5.525,1.886-6.826,5.12c-0.5,1.241-2.131,2.121-3.393,2.931c-0.999,0.637-1.368,1.126-0.952,2.356
			c1.812,5.424,0.358,9.463-4.441,12.601c-4.926,3.22-10.457,4.761-16.241,5.008c-2.726,0.113-4.565,0.997-6.218,3.041
			c-0.695,0.859-2.763,1.881-2.933,1.69c-1.407-1.563,0.524-2.264,1.179-3.295c1.78-2.805,4.231-3.745,7.652-3.813
			c5.213-0.116,10.263-1.539,14.764-4.411c4.982-3.178,5.831-6.674,2.896-11.819C39.392,26.946,39.125,26.338,38.724,25.515z"/>
		<path fill="#FFFFFF" d="M13.788,44.326c-0.358,0.537-0.604,1.019-0.951,1.402c-3.12,3.473-6.208,6.973-9.421,10.349
			c-0.546,0.575-1.632,0.635-2.472,0.933c0.237-0.842,0.234-1.894,0.745-2.496c3.034-3.543,6.162-7.006,9.327-10.432
			c0.431-0.47,1.272-0.64,1.958-0.741C13.184,43.306,13.492,43.955,13.788,44.326z"/>
		<path fill="#FFFFFF" d="M41.802,18.047c-0.865,0.574-1.356,1.136-1.864,1.152c-0.365,0.011-0.749-0.717-1.122-1.117
			c0.433-0.405,0.814-1.03,1.318-1.146C40.48,16.859,40.991,17.481,41.802,18.047z"/>
	</g>
</g>
</svg>
