<?xml version="1.0" encoding="utf-8"?>
<!DOCTYPE svg PUBLIC "-//W3C//DTD SVG 1.1//EN" "http://www.w3.org/Graphics/SVG/1.1/DTD/svg11.dtd">
<svg version="1.1" id="logo" xmlns="http://www.w3.org/2000/svg" xmlns:xlink="http://www.w3.org/1999/xlink" x="0px" y="0px"
	 width="108px" height="70px" viewBox="0 0 108 70" enable-background="new 0 0 108 70" xml:space="preserve">
<g>
	<path fill="#4B4B4B" d="M41.957,43.025v-16.05h10.417v1.292h-8.841v6.629h7.52v1.269h-7.52v6.858h-1.576V43.025z"/>
	<path fill="#4B4B4B" d="M56.006,43.025v-16.05h1.574v16.05H56.006z"/>
	<path fill="#4B4B4B" d="M62.712,43.025v-16.05h3.101l7.393,14.78h0.584v-14.78h1.55v16.05H72.29l-7.442-14.757h-0.56v14.757H62.712
		z"/>
	<path fill="#4B4B4B" d="M91.038,42.771c-1.744,0.321-3.235,0.483-4.472,0.483c-1.237,0-2.23-0.119-2.984-0.356
		c-0.753-0.237-1.367-0.573-1.842-1.004c-0.473-0.433-0.848-0.992-1.117-1.688c-0.51-1.264-0.764-2.979-0.764-5.149
		c0-3.479,0.611-5.781,1.83-6.906c1-0.938,2.522-1.408,4.574-1.408c1.403,0,2.998,0.161,4.773,0.484l-0.077,1.247
		c-1.761-0.291-3.174-0.438-4.239-0.438c-1.068,0-1.895,0.105-2.479,0.312c-0.584,0.209-1.06,0.485-1.425,0.832
		c-0.362,0.347-0.639,0.828-0.824,1.443c-0.34,1.048-0.508,2.357-0.508,3.928c0,1.568,0.059,2.743,0.179,3.521
		c0.116,0.776,0.346,1.479,0.687,2.112c0.338,0.631,0.838,1.084,1.498,1.361s1.575,0.416,2.743,0.416
		c1.171,0,2.625-0.146,4.369-0.438L91.038,42.771z"/>
	<path fill="#4B4B4B" d="M106.18,43.025v-7.414h-9.578v7.414h-1.574v-16.05h1.574v7.367h9.578v-7.367h1.549v16.05H106.18z"/>
</g>
<g>
	<path fill="#4B4B4B" d="M16.492,50.814l-0.384-0.006c-0.31-0.004-0.558-0.262-0.552-0.572c0.006-0.311,0.297-0.543,0.572-0.551
		l0.369,0.006c8.097,0,14.688-6.592,14.688-14.691c0-1.244-0.155-2.478-0.462-3.668l-0.031-0.124
		c-0.077-0.3,0.105-0.605,0.406-0.682c0.3-0.077,0.607,0.104,0.683,0.405l0.03,0.115c0.331,1.287,0.498,2.615,0.498,3.954
		C32.306,43.72,25.212,50.814,16.492,50.814z"/>
	<path fill="#4B4B4B" d="M2.127,40.701c-0.23,0-0.447-0.143-0.528-0.372c-0.61-1.708-0.92-3.5-0.92-5.33
		c0-8.72,7.094-15.814,15.813-15.814c0.001,0,0.002,0,0.003,0c4.271,0,8.272,1.676,11.27,4.72c0.217,0.221,0.214,0.577-0.006,0.794
		c-0.221,0.218-0.578,0.215-0.795-0.006c-2.784-2.828-6.502-4.385-10.469-4.385c0,0-0.001,0-0.003,0
		c-8.1,0-14.689,6.59-14.689,14.69c0,1.7,0.287,3.366,0.854,4.95c0.104,0.292-0.048,0.614-0.34,0.718
		C2.253,40.691,2.19,40.701,2.127,40.701z"/>
	<path fill="#4B4B4B" stroke="#000000" stroke-width="1.5" stroke-linecap="round" stroke-miterlimit="10" d="M2.127,40.141"/>
	<path fill="#4B4B4B" d="M16.118,50.809c-0.005,0-0.009,0-0.014,0c-2.886-0.069-5.691-0.925-8.112-2.474
		c-0.261-0.166-0.338-0.515-0.171-0.774c0.167-0.262,0.515-0.338,0.776-0.17c2.249,1.438,4.854,2.23,7.534,2.295
		c0.311,0.008,0.556,0.268,0.549,0.576C16.671,50.566,16.421,50.809,16.118,50.809z"/>
	<g>
		<path fill="#4B4B4B" d="M21.271,32.812c0.742-0.251,1.388-0.423,1.988-0.686c1.313-0.577,2.286-1.479,2.325-3.018
			c0.04-1.502-0.559-2.71-1.939-3.431c-1.364-0.714-2.854-0.76-3.876,0.363c-3.756,4.136-7.384,8.388-11.092,12.63
			c0.098,0.035,0.343,0.184,0.601,0.206c3.189,0.254,6.106-0.438,8.597-2.554c0.096-0.082,0.179-0.211,0.287-0.244
			c0.462-0.131,0.932-0.234,1.4-0.348c-0.179,0.457-0.239,1.028-0.554,1.354c-1.549,1.583-3.488,2.565-5.644,2.896
			c-1.726,0.261-3.514,0.094-5.265,0.23c-0.641,0.046-1.426,0.244-1.852,0.669c-1.458,1.452-2.787,3.04-4.169,4.571
			c-0.196,0.222-0.361,0.512-0.609,0.628c-0.368,0.18-0.796,0.231-1.197,0.341c0.067-0.398-0.002-0.917,0.225-1.18
			c1.761-2.038,3.574-4.035,5.377-6.037c4.005-4.438,8.01-8.884,12.029-13.312c2.627-2.898,6.036-2.704,8.379,0.406
			c0.299,0.398,0.811,0.708,1.29,0.886c1.01,0.369,2.066,0.628,3.34,1.003c-0.519,0.259-0.795,0.431-1.096,0.542
			c-1.53,0.564-3.044,1.039-3.761,2.821c-0.275,0.684-1.173,1.169-1.87,1.616c-0.55,0.35-0.753,0.62-0.524,1.298
			c0.999,2.989,0.197,5.214-2.448,6.943c-2.715,1.773-5.762,2.624-8.95,2.76c-1.502,0.062-2.516,0.548-3.427,1.675
			c-0.382,0.474-1.522,1.037-1.616,0.933c-0.775-0.861,0.289-1.248,0.65-1.816c0.981-1.545,2.332-2.062,4.216-2.102
			c2.873-0.064,5.656-0.849,8.136-2.432c2.746-1.751,3.213-3.677,1.597-6.512C21.64,33.599,21.495,33.264,21.271,32.812z"/>
		<path fill="#4B4B4B" d="M7.532,43.175c-0.198,0.296-0.333,0.562-0.525,0.773c-1.718,1.915-3.421,3.843-5.191,5.702
			c-0.301,0.316-0.9,0.352-1.362,0.515c0.13-0.463,0.128-1.042,0.41-1.374c1.672-1.954,3.395-3.863,5.139-5.75
			c0.238-0.258,0.702-0.352,1.079-0.409C7.199,42.616,7.369,42.971,7.532,43.175z"/>
		<path fill="#4B4B4B" d="M22.968,28.695c-0.475,0.316-0.747,0.626-1.026,0.635c-0.202,0.006-0.413-0.395-0.619-0.616
			c0.238-0.223,0.449-0.567,0.726-0.631C22.241,28.041,22.521,28.383,22.968,28.695z"/>
	</g>
</g>
</svg>
