<?xml version="1.0" encoding="utf-8"?>
<!DOCTYPE svg PUBLIC "-//W3C//DTD SVG 1.1//EN" "http://www.w3.org/Graphics/SVG/1.1/DTD/svg11.dtd">
<svg version="1.1" id="signature" xmlns="http://www.w3.org/2000/svg" xmlns:xlink="http://www.w3.org/1999/xlink" x="0px" y="0px"
	 width="153px" height="70px" viewBox="0 0 153 70" enable-background="new 0 0 153 70" xml:space="preserve">
<g>
	<path d="M76.896,38.626c-0.141-0.625-0.116-1.291,0.074-2c0.185-0.703,0.479-1.404,0.87-2.105c0.395-0.694,0.878-1.363,1.438-2.008
		c0.563-0.641,1.142-1.209,1.732-1.703c0.591-0.5,1.189-0.892,1.781-1.186c0.598-0.295,1.125-0.453,1.6-0.471
		c0.374,0,0.618,0.094,0.727,0.273c0.106,0.185,0.163,0.434,0.163,0.744c0,0.35-0.066,0.691-0.208,1.032
		c-0.138,0.341-0.315,0.67-0.534,0.989c-0.218,0.322-0.062,0.438-0.311,0.73s-0.845,1.053-1.081,1.291
		c-0.159,0.199-0.311,0.567-0.736,1.037c-0.424,0.469-1.048,1.002-1.543,1.506c-0.493,0.506-0.969,0.59-1.413,1.021
		c-0.44,0.428-0.775,0.71-0.991,0.838c0,0.034-0.007,0.104-0.015,0.204c-0.012,0.104-0.018,0.17-0.018,0.207
		c0,0.4,0.097,0.73,0.283,0.99c0.185,0.254,0.424,0.465,0.711,0.619c0.288,0.156,0.608,0.264,0.963,0.316
		c0.359,0.053,0.709,0.08,1.068,0.08c0.906,0,1.777-0.128,2.604-0.396c0.834-0.268,1.629-0.606,2.392-1.031
		c0.757-0.422,1.495-0.893,2.206-1.401c0.711-0.515,3.041-3.191,3.712-3.702l-1.015,2.156c0,0.386-0.188,0.791-0.549,1.212
		c-0.366,0.422-0.837,0.84-1.407,1.256c-0.579,0.41-1.223,0.806-1.943,1.166c-0.722,0.369-1.442,0.692-2.164,0.979
		c-0.722,0.283-1.406,0.508-2.04,0.676c-0.646,0.162-1.172,0.244-1.589,0.244c-0.812,0.13-1.487,0.136-2.028,0.013
		c-0.546-0.117-0.987-0.312-1.334-0.58c-0.348-0.265-0.609-0.569-0.78-0.92c-0.18-0.351-0.315-0.679-0.401-0.992
		c-0.089-0.312-0.145-0.571-0.164-0.782C76.936,38.734,76.915,38.626,76.896,38.626z M83.976,30.37
		c-0.414,0.11-0.909,0.421-1.482,0.937c-0.571,0.517-1.122,1.102-1.659,1.764c-0.534,0.66-0.986,1.314-1.362,1.969
		c-0.378,0.651-0.563,1.169-0.563,1.559c0.219-0.187,0.382-0.338,0.5-0.457c0.12-0.121,0.291-0.271,0.506-0.455
		c0.314-0.275,0.709-0.61,1.169-1.004c0.462-0.397,0.914-0.826,1.349-1.293c0.435-0.47,0.801-0.941,1.098-1.42
		s0.442-0.937,0.442-1.375v-0.223L83.976,30.37L83.976,30.37z"/>
	<path d="M90.854,52.412c0.238-1.266,0.599-2.373,1.1-3.326c0.501-0.949,1.076-1.811,1.727-2.586c0.651-0.775,1.36-1.492,2.12-2.162
		c0.764-0.666,1.534-1.348,2.313-2.045c0.075-0.256,0.211-0.707,0.399-1.355c0.188-0.649,0.386-1.338,0.594-2.062
		c0.212-0.722,0.406-1.407,0.596-2.062c0.189-0.648,0.313-1.104,0.378-1.361c0.002-0.021,0.02-0.093,0.054-0.21
		c0.027-0.119,0.047-0.209,0.06-0.273c0.009-0.043,0.021-0.121,0.03-0.23c0.018-0.11,0.022-0.188,0.034-0.23l-7.684,6.895
		c-0.258,0.234-0.506,0.341-0.732,0.312c-0.236-0.018-0.482-0.062-0.748-0.132c-0.242-0.06-0.425-0.125-0.563-0.209
		c-0.137-0.075-0.224-0.188-0.268-0.336c-0.032-0.146-0.047-0.33-0.016-0.554c0.021-0.225,0.063-0.494,0.122-0.824
		c0.221-1.18,0.544-2.325,0.964-3.441c0.704-1.866,0.814-2.743,1.087-3.265c0.544-1.048,0.833-2.097,1.437-3.075
		c0.608-0.98,0.822-1.536,1.394-2.395c0.251-0.281,0.465-0.502,0.635-0.666c0.177-0.161,0.355-0.307,0.543-0.431
		c0.19-0.123,0.35-0.175,0.478-0.14l-0.206,1.115c-1.727,2.282-1.92,4.062-2.858,5.897c-1.134,2.229-1.943,4.642-2.424,7.236
		c0.256,0.062,0.604-0.037,1.041-0.306c0.438-0.27,0.882-0.586,1.321-0.955c0.444-0.368,0.854-0.742,1.23-1.117
		c0.379-0.374,0.647-0.646,0.812-0.811c0.185-0.182,0.442-0.459,0.781-0.814c0.328-0.364,0.691-0.764,1.087-1.188
		c0.394-0.427,1.002-1.388,1.419-1.854c0.42-0.47,0.617-0.39,0.988-0.802c0.378-0.408,0.455-0.842,0.727-1.139
		c0.272-0.301,0.221-0.472,0.526-0.673c0.099-0.065,0.244-0.298,0.528-0.715c0.289-0.418,0.592-0.866,0.913-1.333
		c0.316-0.47,0.926-0.858,1.21-1.265c0.284-0.412,0.462-0.663,0.526-0.761c0.13-0.172,0.233-0.287,0.309-0.336
		c0.073-0.049,0.183-0.061,0.307-0.024c0.13,0.03,0.228,0.088,0.28,0.172c0.061,0.082,0.103,0.23,0.13,0.442
		c-1.516,1.886-2.717,4.006-3.608,6.362c-0.898,2.358-1.577,4.828-2.056,7.4l0.264,0.063c0.045,0.012,0.378-0.152,0.986-0.51
		c0.611-0.349,1.593-0.916,2.938-1.701c0.07-0.049,0.215-0.133,0.409-0.256c0.193-0.123,0.402-0.264,0.609-0.416
		c0.212-0.154,0.417-0.306,0.609-0.451c0.19-0.142,0.328-0.25,0.41-0.322c0.203,0.229,0.281,0.504,0.221,0.808
		c0,0.021-0.013,0.043-0.022,0.063c-0.012,0.021-0.02,0.039-0.025,0.06l-0.02,0.099c-0.045,0.062-0.124,0.146-0.248,0.266
		c-0.123,0.121-0.247,0.234-0.388,0.352c-0.136,0.113-0.267,0.225-0.384,0.334c-0.124,0.107-0.209,0.18-0.269,0.209l-5.18,3.34
		l-0.861,0.744c-0.062,0.258-0.186,0.719-0.363,1.383c-0.183,0.662-0.378,1.354-0.587,2.082c-0.205,0.721-0.41,1.408-0.606,2.059
		c-0.193,0.648-0.332,1.103-0.407,1.354c-0.19,0.548-0.455,1.194-0.812,1.94c-0.359,0.744-0.766,1.445-1.239,2.104
		c-0.475,0.658-0.98,1.194-1.522,1.607c-0.543,0.413-1.093,0.553-1.646,0.413c-0.336-0.08-0.584-0.276-0.741-0.575
		c-0.156-0.305-0.265-0.646-0.304-1.035c-0.048-0.387-0.054-0.797-0.012-1.216C90.736,53.146,90.791,52.76,90.854,52.412z
		 M91.953,52.273c-0.039,0.197-0.081,0.41-0.13,0.637c-0.054,0.227-0.086,0.455-0.118,0.689c-0.026,0.231-0.033,0.463-0.026,0.694
		c0.004,0.229,0.061,0.438,0.156,0.621c0.828-0.231,1.543-0.687,2.151-1.373c0.609-0.683,1.129-1.483,1.567-2.412
		c0.44-0.934,0.8-1.926,1.091-2.983c0.285-1.056,0.523-2.086,0.705-3.088l-0.451-0.119c-0.032-0.004-0.15,0.076-0.358,0.252
		c-0.206,0.18-0.447,0.389-0.724,0.629c-0.279,0.238-0.554,0.488-0.828,0.755c-0.273,0.261-0.488,0.478-0.655,0.646
		c-0.668,0.746-1.182,1.506-1.542,2.285C92.426,50.278,92.147,51.205,91.953,52.273z"/>
	<path d="M105.186,37.831c-0.121-0.765-0.099-1.567,0.065-2.431c0.163-0.857,0.415-1.713,0.76-2.561
		c0.343-0.848,0.766-1.662,1.256-2.445c0.488-0.78,0.938-1.854,1.454-2.454c0.518-0.604,1.09-0.704,1.61-1.059
		c0.518-0.357,0.982-0.546,1.396-0.57c0.327,0,0.535,0.112,0.63,0.336c0.098,0.224,0.142,0.523,0.142,0.903
		c0,0.423-0.059,0.841-0.181,1.256c-0.12,0.412-0.273,0.815-0.461,1.203c-0.19,0.391-0.398,0.766-0.61,1.122
		s-0.425,0.681-0.634,0.97c-0.138,0.248-0.197,1.037-0.569,1.604c-0.369,0.567-0.965,0.776-1.396,1.392
		c-0.432,0.615-0.839,1.185-1.229,1.706c-0.387,0.525-0.676,0.867-0.865,1.022c0,0.046-0.002,0.128-0.011,0.251
		s-0.015,0.207-0.015,0.249c0,0.491,0.079,0.892,0.244,1.207c0.168,0.31,0.372,0.563,0.62,0.751
		c0.248,0.189,0.531,0.318,0.839,0.387c0.309,0.062,0.621,0.102,0.934,0.102c0.787,0,1.552-0.166,2.275-0.486
		c0.724-0.323,1.412-0.743,2.078-1.254c0.664-0.52,1.308-1.084,1.926-1.707c0.62-0.629,1.223-1.254,1.808-1.877h0.541
		c0,0.468-0.157,0.958-0.479,1.472c-0.319,0.519-0.727,1.021-1.229,1.522c-0.502,0.503-1.066,0.978-1.691,1.425
		c-0.63,0.446-1.258,0.842-1.885,1.188c-0.633,0.348-1.229,0.617-1.785,0.82c-0.562,0.201-1.021,0.299-1.386,0.299
		c-0.703,0.16-1.295,0.166-1.769,0.016c-0.473-0.143-0.861-0.377-1.163-0.703c-0.301-0.321-0.53-0.698-0.688-1.12
		c-0.154-0.422-0.271-0.826-0.353-1.203c-0.071-0.378-0.116-0.699-0.138-0.953C105.219,37.958,105.205,37.831,105.186,37.831z
		 M111.361,27.784c-0.359,0.136-0.795,0.517-1.29,1.14c-0.501,0.623-0.983,1.338-1.448,2.143c-0.466,0.807-0.86,1.604-1.188,2.396
		c-0.331,0.792-0.488,1.425-0.488,1.892c0.188-0.224,0.334-0.406,0.436-0.551c0.105-0.146,0.251-0.33,0.437-0.555
		c0.279-0.333,0.62-0.74,1.024-1.223c0.403-0.479,0.8-1.004,1.175-1.572c0.38-0.568,0.699-1.145,0.96-1.725
		c0.256-0.58,0.386-1.14,0.386-1.674L111.361,27.784L111.361,27.784z"/>
	<path d="M111.469,40.702c-0.039-0.239-0.002-0.416,0.103-0.532c0.104-0.113,0.23-0.189,0.378-0.246
		c0.147-0.051,0.311-0.09,0.482-0.111c0.175-0.027,0.329-0.075,0.463-0.147c0.723-0.76,1.288-1.403,1.702-1.931
		c0.408-0.524,0.786-1.047,1.131-1.557c0.344-0.514,0.703-1.062,1.093-1.65c0.399-0.593,0.936-1.308,1.618-2.15
		c0.73-1.192,1.277-2.12,1.646-2.786c0.364-0.66,0.678-1.259,0.931-1.788c0.255-0.529,0.514-1.078,0.775-1.656
		c0.263-0.574,0.641-1.364,1.135-2.373c0.157-0.352,0.343-0.575,0.544-0.673c0.199-0.097,0.498-0.186,0.894-0.266
		c0.062,0.395,0.021,0.795-0.118,1.194c-0.146,0.404-0.183,0.805-0.124,1.199c0.062,0.391,0.323,0.692,0.783,0.892
		c0.461,0.2,0.973,0.398,1.526,0.591c0.558,0.19,1.362,0.186,1.839,0.464c0.473,0.275,0.459,0.92,0.544,1.443
		c0.124,0.835-0.022,1.607-0.441,2.316c-0.422,0.713-0.897,1.408-1.426,2.094c-0.527,0.688-1.008,1.369-1.434,2.042
		c-0.427,0.678-0.579,1.391-0.464,2.139c3.359-1.549,5.997-2.662,7.91-3.336c1.91-0.676,8.896-4.011,3.588-0.567
		c-0.188,0.123-1.08,0.52-2.817,1.498c-1.733,0.979-4.567,2.334-8.501,4.072c-0.065,0.011-0.174,0.035-0.313,0.062
		c-0.139,0.026-0.292,0.057-0.455,0.072c-0.164,0.024-0.315,0.051-0.457,0.077c-0.142,0.028-0.23,0.052-0.277,0.062
		c-0.227-0.207-0.387-0.373-0.492-0.514c-0.106-0.141-0.176-0.324-0.215-0.57c-0.079-0.524-0.397-0.946-0.196-1.451
		c0.196-0.506,0.855-1.108,1.204-1.621c0.356-0.519,0.733-1.019,1.139-1.513c0.404-0.487,0.781-0.99,1.136-1.506
		c0.357-0.517,0.626-1.023,0.829-1.529c0.196-0.504,0.254-1.02,0.177-1.548l-0.029-0.198c-0.253-0.242-0.567-0.458-0.945-0.64
		c-0.376-0.182-0.767-0.332-1.161-0.441c-0.403-0.11-0.798-0.195-1.198-0.266c-0.392-0.066-0.749-0.122-1.068-0.171
		c-0.171,0.286-0.401,0.706-0.691,1.264c-0.283,0.556-0.578,1.14-0.88,1.744c-0.308,0.605-0.614,1.182-0.928,1.72
		c-0.312,0.537-0.584,0.937-0.811,1.187c-0.062,0.06-0.214,0.264-0.459,0.621c-0.248,0.357-0.543,0.788-0.887,1.288
		c-0.339,0.5-0.728,1.056-1.149,1.665c-0.419,0.606-0.841,1.192-1.258,1.754c-0.42,0.56-0.826,1.089-1.217,1.576
		c-0.394,0.488-0.727,0.86-0.994,1.122c-0.315,0.13-0.578,0.207-0.778,0.229c-0.195,0.02-0.378,0.002-0.528-0.045
		c-0.146-0.048-0.292-0.125-0.416-0.238C111.771,40.943,111.632,40.825,111.469,40.702z"/>
	<path d="M16.495,43.955c-0.219,1.032,0.326,1.705-0.854,1.705c-0.248,0,0.791,0,0.6-0.072c0.031-0.107-1.55-0.062-1.55-0.129
		c0-0.188-0.223-0.438-0.188-0.556c1.307-4.126,2.091-5,3.357-7.339c0.834-1.531,1.725-2.098,2.345-3.571
		c0,0,1.444-2.632,1.629-2.704c0.436-0.81,1.122-2.007,2.054-3.588c0.561-0.7,1.162-1.619,1.82-2.762l1.629-2.871
		c0.152-0.439,0.466-1.059,0.931-1.851c0.467-0.789,0.778-1.405,0.935-1.849c0.151-0.108,0.294-0.365,0.418-0.77
		c0.124-0.406,0.215-0.666,0.278-0.775c-0.062-0.111-0.014-0.464,0.143-1.05c0.031-0.074,0.061-0.257,0.091-0.552
		c0.278-0.074,0.465-0.297,0.557-0.661c0.159-0.627,0.44-0.958,0.842-0.996c0.621-0.074,1.162,0.057,1.633,0.387
		c0.061,0.589,0.089,1.324,0.089,2.205c0,0.848,0,1.859,0,3.038c0,0.479,0,0.955,0,1.434c0,1.215-0.185,2.337-0.56,3.365
		c0,0.519-0.043,1.271-0.138,2.266c0.061,0.44,0.163,1.474,0.316,2.354c0.248,0,0.628-0.427,1.128-0.534
		c0.501-0.106,0.87-0.161,1.118-0.161c0.624,0,1.119,0.237,1.494,0.719c-0.404,0.66-0.807,1.104-1.214,1.325h-0.603
		c-0.096,0.036-0.096-0.057-0.188,0.165c-0.591-0.112-1.202,0-1.571,0.44c-0.032,0.367-0.015,1.031-0.015,1.438
		c0,1.139,0.17,2.424,0.517,3.864c0.281,1.141,0.573,2.412,0.886,3.809c0.248,0.48,0.867,1.99,1.863,4.529
		c0.121,0.146,0.188,0.312,0.188,0.493c0,0.369-0.346,0.793-1.031,1.271c-0.688-0.326-0.845-1.822-1.535-3.699
		c-0.248-0.738-0.806-1.887-1.522-3.801c-0.223-1.215-0.454-2.1-0.707-2.649c-0.061-0.993,0.043-2.983-0.239-4.896
		c-1.344,0.293-3.965,0.825-6.557,1.854c-0.471,0.035-1.263,0.568-2.295,0.859c-0.406,0.111-1.512,1.576-1.638,2.129
		c-1.247,1.582-2.655,2.162-3.5,5.181 M31.469,23.828c0.054-1.8,0.058-5.702,0.029-6.473C30.068,19.59,25.61,27.248,23,31.943
		c1.041-0.399,4.085-1.91,6.173-2.426c0.399-0.035,1.871-0.197,2.363-0.604C31.477,27.85,31.409,25.773,31.469,23.828z"/>
	<path d="M40.756,44.189c-0.08,1.078-0.501,1.673-1.268,1.787c-0.41-0.336-0.614-0.614-0.614-0.838
		c-0.054-0.41-0.081-0.763-0.081-1.062c0-1.042,0.313-1.562,0.944-1.562c0.22,0.072,0.429,0.156,0.635,0.248
		c0.203,0.096,0.333,0.312,0.388,0.646v0.779L40.756,44.189L40.756,44.189z"/>
	<path d="M58.933,26.598c0.038,1.001,0.273,3.649,0.696,7.964c0.23,2.377,0.377,3.741,0.439,4.083
		c0.041,0.062,0.192,0.386,0.462,0.961c0.656-0.938,1.288-2.215,1.895-3.828c0.268-0.778,0.78-2.148,1.537-4.11
		c1.249-3.204,2.85-6.887,4.806-11.046c1.623-3.479,1.518-3.569,3.618-7.073c0.578,0.317,1.772,0.083,1.891,0.746
		c0.052,0.278,0.753,2.236-0.145,11.211c-0.148,1.396-0.264,3.4-0.345,6.021c-0.077,2.926,0.374,4.944,0.112,5.888
		c-0.62,2.258,1.297,3.621,1.258,5.731c-0.581-0.2-2.556-1.951-2.656-2.502c-0.367-2.018-0.317-6.708,0.346-17.412
		c0.031-0.462,1.166-4.059-0.03-7.43l-1.205,1.659c-1.518,1.764-1.156,2.033-1.941,4.33c-0.354,1.066-0.852,2.298-1.5,3.692
		c-0.92,2.003-1.475,3.209-1.654,3.616c-0.606,1.455-1.417,3.531-2.422,6.238c-0.908,2.389-1.436,3.758-1.58,4.102
		c-0.861,1.938-1.588,2.955-2.186,3.062l-1.068,0.188l-0.686-3.779c-0.044-0.781-0.159-2.27-0.338-4.463l-0.724-8.896l-0.307-0.307
		l-7.36,22.018l-0.648-0.107l-0.26-1.428l8.151-22.179l0.851-0.488c0.344,0.5,1.087,1.029,1.145,1.349"/>
</g>
</svg>
